<?xml version="1.0" encoding="utf-8" standalone="no"?>
<!DOCTYPE svg PUBLIC "-//W3C//DTD SVG 1.1//EN"
  "http://www.w3.org/Graphics/SVG/1.1/DTD/svg11.dtd">
<svg xmlns:xlink="http://www.w3.org/1999/xlink" width="238.64875pt" height="237.943437pt" viewBox="0 0 238.64875 237.943437" xmlns="http://www.w3.org/2000/svg" version="1.1">
 <metadata>
  <rdf:RDF xmlns:dc="http://purl.org/dc/elements/1.1/" xmlns:cc="http://creativecommons.org/ns#" xmlns:rdf="http://www.w3.org/1999/02/22-rdf-syntax-ns#">
   <cc:Work>
    <dc:type rdf:resource="http://purl.org/dc/dcmitype/StillImage"/>
    <dc:date>2023-09-29T18:21:41.515223</dc:date>
    <dc:format>image/svg+xml</dc:format>
    <dc:creator>
     <cc:Agent>
      <dc:title>Matplotlib v3.7.1, https://matplotlib.org/</dc:title>
     </cc:Agent>
    </dc:creator>
   </cc:Work>
  </rdf:RDF>
 </metadata>
 <defs>
  <style type="text/css">*{stroke-linejoin: round; stroke-linecap: butt}</style>
 </defs>
 <g id="figure_1">
  <g id="patch_1">
   <path d="M 0 237.943437 
L 238.64875 237.943437 
L 238.64875 0 
L 0 0 
z
" style="fill: #ffffff"/>
  </g>
  <g id="axes_1">
   <g id="patch_2">
    <path d="M 27.6675 197.46 
L 222.9675 197.46 
L 222.9675 7.2 
L 27.6675 7.2 
z
" style="fill: #ffffff"/>
   </g>
   <g id="matplotlib.axis_1">
    <g id="xtick_1">
     <g id="line2d_1">
      <defs>
       <path id="m7dfb2cfc0d" d="M 0 0 
L 0 3.5 
" style="stroke: #000000; stroke-width: 0.8"/>
      </defs>
      <g>
       <use xlink:href="#m7dfb2cfc0d" x="222.9675" y="197.46" style="stroke: #000000; stroke-width: 0.8"/>
      </g>
     </g>
     <g id="text_1">
      <!-- −20 -->
      <g transform="translate(214.48625 211.617812) scale(0.1 -0.1)">
       <defs>
        <path id="ArialMT-2212" d="M 3381 1997 
L 356 1997 
L 356 2522 
L 3381 2522 
L 3381 1997 
z
" transform="scale(0.015625)"/>
        <path id="ArialMT-32" d="M 3222 541 
L 3222 0 
L 194 0 
Q 188 203 259 391 
Q 375 700 629 1000 
Q 884 1300 1366 1694 
Q 2113 2306 2375 2664 
Q 2638 3022 2638 3341 
Q 2638 3675 2398 3904 
Q 2159 4134 1775 4134 
Q 1369 4134 1125 3890 
Q 881 3647 878 3216 
L 300 3275 
Q 359 3922 746 4261 
Q 1134 4600 1788 4600 
Q 2447 4600 2831 4234 
Q 3216 3869 3216 3328 
Q 3216 3053 3103 2787 
Q 2991 2522 2730 2228 
Q 2469 1934 1863 1422 
Q 1356 997 1212 845 
Q 1069 694 975 541 
L 3222 541 
z
" transform="scale(0.015625)"/>
        <path id="ArialMT-30" d="M 266 2259 
Q 266 3072 433 3567 
Q 600 4063 929 4331 
Q 1259 4600 1759 4600 
Q 2128 4600 2406 4451 
Q 2684 4303 2865 4023 
Q 3047 3744 3150 3342 
Q 3253 2941 3253 2259 
Q 3253 1453 3087 958 
Q 2922 463 2592 192 
Q 2263 -78 1759 -78 
Q 1097 -78 719 397 
Q 266 969 266 2259 
z
M 844 2259 
Q 844 1131 1108 757 
Q 1372 384 1759 384 
Q 2147 384 2411 759 
Q 2675 1134 2675 2259 
Q 2675 3391 2411 3762 
Q 2147 4134 1753 4134 
Q 1366 4134 1134 3806 
Q 844 3388 844 2259 
z
" transform="scale(0.015625)"/>
       </defs>
       <use xlink:href="#ArialMT-2212"/>
       <use xlink:href="#ArialMT-32" x="58.398438"/>
       <use xlink:href="#ArialMT-30" x="114.013672"/>
      </g>
     </g>
    </g>
    <g id="xtick_2">
     <g id="line2d_2">
      <g>
       <use xlink:href="#m7dfb2cfc0d" x="183.9075" y="197.46" style="stroke: #000000; stroke-width: 0.8"/>
      </g>
     </g>
     <g id="text_2">
      <!-- 0 -->
      <g transform="translate(181.127031 211.617812) scale(0.1 -0.1)">
       <use xlink:href="#ArialMT-30"/>
      </g>
     </g>
    </g>
    <g id="xtick_3">
     <g id="line2d_3">
      <g>
       <use xlink:href="#m7dfb2cfc0d" x="144.8475" y="197.46" style="stroke: #000000; stroke-width: 0.8"/>
      </g>
     </g>
     <g id="text_3">
      <!-- 20 -->
      <g transform="translate(139.286563 211.617812) scale(0.1 -0.1)">
       <use xlink:href="#ArialMT-32"/>
       <use xlink:href="#ArialMT-30" x="55.615234"/>
      </g>
     </g>
    </g>
    <g id="xtick_4">
     <g id="line2d_4">
      <g>
       <use xlink:href="#m7dfb2cfc0d" x="105.7875" y="197.46" style="stroke: #000000; stroke-width: 0.8"/>
      </g>
     </g>
     <g id="text_4">
      <!-- 40 -->
      <g transform="translate(100.226563 211.617812) scale(0.1 -0.1)">
       <defs>
        <path id="ArialMT-34" d="M 2069 0 
L 2069 1097 
L 81 1097 
L 81 1613 
L 2172 4581 
L 2631 4581 
L 2631 1613 
L 3250 1613 
L 3250 1097 
L 2631 1097 
L 2631 0 
L 2069 0 
z
M 2069 1613 
L 2069 3678 
L 634 1613 
L 2069 1613 
z
" transform="scale(0.015625)"/>
       </defs>
       <use xlink:href="#ArialMT-34"/>
       <use xlink:href="#ArialMT-30" x="55.615234"/>
      </g>
     </g>
    </g>
    <g id="xtick_5">
     <g id="line2d_5">
      <g>
       <use xlink:href="#m7dfb2cfc0d" x="66.7275" y="197.46" style="stroke: #000000; stroke-width: 0.8"/>
      </g>
     </g>
     <g id="text_5">
      <!-- 60 -->
      <g transform="translate(61.166563 211.617812) scale(0.1 -0.1)">
       <defs>
        <path id="ArialMT-36" d="M 3184 3459 
L 2625 3416 
Q 2550 3747 2413 3897 
Q 2184 4138 1850 4138 
Q 1581 4138 1378 3988 
Q 1113 3794 959 3422 
Q 806 3050 800 2363 
Q 1003 2672 1297 2822 
Q 1591 2972 1913 2972 
Q 2475 2972 2870 2558 
Q 3266 2144 3266 1488 
Q 3266 1056 3080 686 
Q 2894 316 2569 119 
Q 2244 -78 1831 -78 
Q 1128 -78 684 439 
Q 241 956 241 2144 
Q 241 3472 731 4075 
Q 1159 4600 1884 4600 
Q 2425 4600 2770 4297 
Q 3116 3994 3184 3459 
z
M 888 1484 
Q 888 1194 1011 928 
Q 1134 663 1356 523 
Q 1578 384 1822 384 
Q 2178 384 2434 671 
Q 2691 959 2691 1453 
Q 2691 1928 2437 2201 
Q 2184 2475 1800 2475 
Q 1419 2475 1153 2201 
Q 888 1928 888 1484 
z
" transform="scale(0.015625)"/>
       </defs>
       <use xlink:href="#ArialMT-36"/>
       <use xlink:href="#ArialMT-30" x="55.615234"/>
      </g>
     </g>
    </g>
    <g id="xtick_6">
     <g id="line2d_6">
      <g>
       <use xlink:href="#m7dfb2cfc0d" x="27.6675" y="197.46" style="stroke: #000000; stroke-width: 0.8"/>
      </g>
     </g>
     <g id="text_6">
      <!-- 80 -->
      <g transform="translate(22.106563 211.617812) scale(0.1 -0.1)">
       <defs>
        <path id="ArialMT-38" d="M 1131 2484 
Q 781 2613 612 2850 
Q 444 3088 444 3419 
Q 444 3919 803 4259 
Q 1163 4600 1759 4600 
Q 2359 4600 2725 4251 
Q 3091 3903 3091 3403 
Q 3091 3084 2923 2848 
Q 2756 2613 2416 2484 
Q 2838 2347 3058 2040 
Q 3278 1734 3278 1309 
Q 3278 722 2862 322 
Q 2447 -78 1769 -78 
Q 1091 -78 675 323 
Q 259 725 259 1325 
Q 259 1772 486 2073 
Q 713 2375 1131 2484 
z
M 1019 3438 
Q 1019 3113 1228 2906 
Q 1438 2700 1772 2700 
Q 2097 2700 2305 2904 
Q 2513 3109 2513 3406 
Q 2513 3716 2298 3927 
Q 2084 4138 1766 4138 
Q 1444 4138 1231 3931 
Q 1019 3725 1019 3438 
z
M 838 1322 
Q 838 1081 952 856 
Q 1066 631 1291 507 
Q 1516 384 1775 384 
Q 2178 384 2440 643 
Q 2703 903 2703 1303 
Q 2703 1709 2433 1975 
Q 2163 2241 1756 2241 
Q 1359 2241 1098 1978 
Q 838 1716 838 1322 
z
" transform="scale(0.015625)"/>
       </defs>
       <use xlink:href="#ArialMT-38"/>
       <use xlink:href="#ArialMT-30" x="55.615234"/>
      </g>
     </g>
    </g>
    <g id="text_7">
     <!-- Chemical shift (ppm) -->
     <g transform="translate(61.138438 227.796875) scale(0.14 -0.14)">
      <defs>
       <path id="ArialMT-43" d="M 3763 1606 
L 4369 1453 
Q 4178 706 3683 314 
Q 3188 -78 2472 -78 
Q 1731 -78 1267 223 
Q 803 525 561 1097 
Q 319 1669 319 2325 
Q 319 3041 592 3573 
Q 866 4106 1370 4382 
Q 1875 4659 2481 4659 
Q 3169 4659 3637 4309 
Q 4106 3959 4291 3325 
L 3694 3184 
Q 3534 3684 3231 3912 
Q 2928 4141 2469 4141 
Q 1941 4141 1586 3887 
Q 1231 3634 1087 3207 
Q 944 2781 944 2328 
Q 944 1744 1114 1308 
Q 1284 872 1643 656 
Q 2003 441 2422 441 
Q 2931 441 3284 734 
Q 3638 1028 3763 1606 
z
" transform="scale(0.015625)"/>
       <path id="ArialMT-68" d="M 422 0 
L 422 4581 
L 984 4581 
L 984 2938 
Q 1378 3394 1978 3394 
Q 2347 3394 2619 3248 
Q 2891 3103 3008 2847 
Q 3125 2591 3125 2103 
L 3125 0 
L 2563 0 
L 2563 2103 
Q 2563 2525 2380 2717 
Q 2197 2909 1863 2909 
Q 1613 2909 1392 2779 
Q 1172 2650 1078 2428 
Q 984 2206 984 1816 
L 984 0 
L 422 0 
z
" transform="scale(0.015625)"/>
       <path id="ArialMT-65" d="M 2694 1069 
L 3275 997 
Q 3138 488 2766 206 
Q 2394 -75 1816 -75 
Q 1088 -75 661 373 
Q 234 822 234 1631 
Q 234 2469 665 2931 
Q 1097 3394 1784 3394 
Q 2450 3394 2872 2941 
Q 3294 2488 3294 1666 
Q 3294 1616 3291 1516 
L 816 1516 
Q 847 969 1125 678 
Q 1403 388 1819 388 
Q 2128 388 2347 550 
Q 2566 713 2694 1069 
z
M 847 1978 
L 2700 1978 
Q 2663 2397 2488 2606 
Q 2219 2931 1791 2931 
Q 1403 2931 1139 2672 
Q 875 2413 847 1978 
z
" transform="scale(0.015625)"/>
       <path id="ArialMT-6d" d="M 422 0 
L 422 3319 
L 925 3319 
L 925 2853 
Q 1081 3097 1340 3245 
Q 1600 3394 1931 3394 
Q 2300 3394 2536 3241 
Q 2772 3088 2869 2813 
Q 3263 3394 3894 3394 
Q 4388 3394 4653 3120 
Q 4919 2847 4919 2278 
L 4919 0 
L 4359 0 
L 4359 2091 
Q 4359 2428 4304 2576 
Q 4250 2725 4106 2815 
Q 3963 2906 3769 2906 
Q 3419 2906 3187 2673 
Q 2956 2441 2956 1928 
L 2956 0 
L 2394 0 
L 2394 2156 
Q 2394 2531 2256 2718 
Q 2119 2906 1806 2906 
Q 1569 2906 1367 2781 
Q 1166 2656 1075 2415 
Q 984 2175 984 1722 
L 984 0 
L 422 0 
z
" transform="scale(0.015625)"/>
       <path id="ArialMT-69" d="M 425 3934 
L 425 4581 
L 988 4581 
L 988 3934 
L 425 3934 
z
M 425 0 
L 425 3319 
L 988 3319 
L 988 0 
L 425 0 
z
" transform="scale(0.015625)"/>
       <path id="ArialMT-63" d="M 2588 1216 
L 3141 1144 
Q 3050 572 2676 248 
Q 2303 -75 1759 -75 
Q 1078 -75 664 370 
Q 250 816 250 1647 
Q 250 2184 428 2587 
Q 606 2991 970 3192 
Q 1334 3394 1763 3394 
Q 2303 3394 2647 3120 
Q 2991 2847 3088 2344 
L 2541 2259 
Q 2463 2594 2264 2762 
Q 2066 2931 1784 2931 
Q 1359 2931 1093 2626 
Q 828 2322 828 1663 
Q 828 994 1084 691 
Q 1341 388 1753 388 
Q 2084 388 2306 591 
Q 2528 794 2588 1216 
z
" transform="scale(0.015625)"/>
       <path id="ArialMT-61" d="M 2588 409 
Q 2275 144 1986 34 
Q 1697 -75 1366 -75 
Q 819 -75 525 192 
Q 231 459 231 875 
Q 231 1119 342 1320 
Q 453 1522 633 1644 
Q 813 1766 1038 1828 
Q 1203 1872 1538 1913 
Q 2219 1994 2541 2106 
Q 2544 2222 2544 2253 
Q 2544 2597 2384 2738 
Q 2169 2928 1744 2928 
Q 1347 2928 1158 2789 
Q 969 2650 878 2297 
L 328 2372 
Q 403 2725 575 2942 
Q 747 3159 1072 3276 
Q 1397 3394 1825 3394 
Q 2250 3394 2515 3294 
Q 2781 3194 2906 3042 
Q 3031 2891 3081 2659 
Q 3109 2516 3109 2141 
L 3109 1391 
Q 3109 606 3145 398 
Q 3181 191 3288 0 
L 2700 0 
Q 2613 175 2588 409 
z
M 2541 1666 
Q 2234 1541 1622 1453 
Q 1275 1403 1131 1340 
Q 988 1278 909 1158 
Q 831 1038 831 891 
Q 831 666 1001 516 
Q 1172 366 1500 366 
Q 1825 366 2078 508 
Q 2331 650 2450 897 
Q 2541 1088 2541 1459 
L 2541 1666 
z
" transform="scale(0.015625)"/>
       <path id="ArialMT-6c" d="M 409 0 
L 409 4581 
L 972 4581 
L 972 0 
L 409 0 
z
" transform="scale(0.015625)"/>
       <path id="ArialMT-20" transform="scale(0.015625)"/>
       <path id="ArialMT-73" d="M 197 991 
L 753 1078 
Q 800 744 1014 566 
Q 1228 388 1613 388 
Q 2000 388 2187 545 
Q 2375 703 2375 916 
Q 2375 1106 2209 1216 
Q 2094 1291 1634 1406 
Q 1016 1563 777 1677 
Q 538 1791 414 1992 
Q 291 2194 291 2438 
Q 291 2659 392 2848 
Q 494 3038 669 3163 
Q 800 3259 1026 3326 
Q 1253 3394 1513 3394 
Q 1903 3394 2198 3281 
Q 2494 3169 2634 2976 
Q 2775 2784 2828 2463 
L 2278 2388 
Q 2241 2644 2061 2787 
Q 1881 2931 1553 2931 
Q 1166 2931 1000 2803 
Q 834 2675 834 2503 
Q 834 2394 903 2306 
Q 972 2216 1119 2156 
Q 1203 2125 1616 2013 
Q 2213 1853 2448 1751 
Q 2684 1650 2818 1456 
Q 2953 1263 2953 975 
Q 2953 694 2789 445 
Q 2625 197 2315 61 
Q 2006 -75 1616 -75 
Q 969 -75 630 194 
Q 291 463 197 991 
z
" transform="scale(0.015625)"/>
       <path id="ArialMT-66" d="M 556 0 
L 556 2881 
L 59 2881 
L 59 3319 
L 556 3319 
L 556 3672 
Q 556 4006 616 4169 
Q 697 4388 901 4523 
Q 1106 4659 1475 4659 
Q 1713 4659 2000 4603 
L 1916 4113 
Q 1741 4144 1584 4144 
Q 1328 4144 1222 4034 
Q 1116 3925 1116 3625 
L 1116 3319 
L 1763 3319 
L 1763 2881 
L 1116 2881 
L 1116 0 
L 556 0 
z
" transform="scale(0.015625)"/>
       <path id="ArialMT-74" d="M 1650 503 
L 1731 6 
Q 1494 -44 1306 -44 
Q 1000 -44 831 53 
Q 663 150 594 308 
Q 525 466 525 972 
L 525 2881 
L 113 2881 
L 113 3319 
L 525 3319 
L 525 4141 
L 1084 4478 
L 1084 3319 
L 1650 3319 
L 1650 2881 
L 1084 2881 
L 1084 941 
Q 1084 700 1114 631 
Q 1144 563 1211 522 
Q 1278 481 1403 481 
Q 1497 481 1650 503 
z
" transform="scale(0.015625)"/>
       <path id="ArialMT-28" d="M 1497 -1347 
Q 1031 -759 709 28 
Q 388 816 388 1659 
Q 388 2403 628 3084 
Q 909 3875 1497 4659 
L 1900 4659 
Q 1522 4009 1400 3731 
Q 1209 3300 1100 2831 
Q 966 2247 966 1656 
Q 966 153 1900 -1347 
L 1497 -1347 
z
" transform="scale(0.015625)"/>
       <path id="ArialMT-70" d="M 422 -1272 
L 422 3319 
L 934 3319 
L 934 2888 
Q 1116 3141 1344 3267 
Q 1572 3394 1897 3394 
Q 2322 3394 2647 3175 
Q 2972 2956 3137 2557 
Q 3303 2159 3303 1684 
Q 3303 1175 3120 767 
Q 2938 359 2589 142 
Q 2241 -75 1856 -75 
Q 1575 -75 1351 44 
Q 1128 163 984 344 
L 984 -1272 
L 422 -1272 
z
M 931 1641 
Q 931 1000 1190 694 
Q 1450 388 1819 388 
Q 2194 388 2461 705 
Q 2728 1022 2728 1688 
Q 2728 2322 2467 2637 
Q 2206 2953 1844 2953 
Q 1484 2953 1207 2617 
Q 931 2281 931 1641 
z
" transform="scale(0.015625)"/>
       <path id="ArialMT-29" d="M 791 -1347 
L 388 -1347 
Q 1322 153 1322 1656 
Q 1322 2244 1188 2822 
Q 1081 3291 891 3722 
Q 769 4003 388 4659 
L 791 4659 
Q 1378 3875 1659 3084 
Q 1900 2403 1900 1659 
Q 1900 816 1576 28 
Q 1253 -759 791 -1347 
z
" transform="scale(0.015625)"/>
      </defs>
      <use xlink:href="#ArialMT-43"/>
      <use xlink:href="#ArialMT-68" x="72.216797"/>
      <use xlink:href="#ArialMT-65" x="127.832031"/>
      <use xlink:href="#ArialMT-6d" x="183.447266"/>
      <use xlink:href="#ArialMT-69" x="266.748047"/>
      <use xlink:href="#ArialMT-63" x="288.964844"/>
      <use xlink:href="#ArialMT-61" x="338.964844"/>
      <use xlink:href="#ArialMT-6c" x="394.580078"/>
      <use xlink:href="#ArialMT-20" x="416.796875"/>
      <use xlink:href="#ArialMT-73" x="444.580078"/>
      <use xlink:href="#ArialMT-68" x="494.580078"/>
      <use xlink:href="#ArialMT-69" x="550.195312"/>
      <use xlink:href="#ArialMT-66" x="572.412109"/>
      <use xlink:href="#ArialMT-74" x="600.195312"/>
      <use xlink:href="#ArialMT-20" x="627.978516"/>
      <use xlink:href="#ArialMT-28" x="655.761719"/>
      <use xlink:href="#ArialMT-70" x="689.0625"/>
      <use xlink:href="#ArialMT-70" x="744.677734"/>
      <use xlink:href="#ArialMT-6d" x="800.292969"/>
      <use xlink:href="#ArialMT-29" x="883.59375"/>
     </g>
    </g>
   </g>
   <g id="matplotlib.axis_2">
    <g id="ytick_1">
     <g id="line2d_7"/>
    </g>
    <g id="ytick_2">
     <g id="line2d_8"/>
    </g>
    <g id="ytick_3">
     <g id="line2d_9"/>
    </g>
    <g id="ytick_4">
     <g id="line2d_10"/>
    </g>
    <g id="ytick_5">
     <g id="line2d_11"/>
    </g>
    <g id="ytick_6">
     <g id="line2d_12"/>
    </g>
    <g id="ytick_7">
     <g id="line2d_13"/>
    </g>
    <g id="text_8">
     <!-- Intensity -->
     <g transform="translate(17.220938 128.397344) rotate(-90) scale(0.14 -0.14)">
      <defs>
       <path id="ArialMT-49" d="M 597 0 
L 597 4581 
L 1203 4581 
L 1203 0 
L 597 0 
z
" transform="scale(0.015625)"/>
       <path id="ArialMT-6e" d="M 422 0 
L 422 3319 
L 928 3319 
L 928 2847 
Q 1294 3394 1984 3394 
Q 2284 3394 2536 3286 
Q 2788 3178 2913 3003 
Q 3038 2828 3088 2588 
Q 3119 2431 3119 2041 
L 3119 0 
L 2556 0 
L 2556 2019 
Q 2556 2363 2490 2533 
Q 2425 2703 2258 2804 
Q 2091 2906 1866 2906 
Q 1506 2906 1245 2678 
Q 984 2450 984 1813 
L 984 0 
L 422 0 
z
" transform="scale(0.015625)"/>
       <path id="ArialMT-79" d="M 397 -1278 
L 334 -750 
Q 519 -800 656 -800 
Q 844 -800 956 -737 
Q 1069 -675 1141 -563 
Q 1194 -478 1313 -144 
Q 1328 -97 1363 -6 
L 103 3319 
L 709 3319 
L 1400 1397 
Q 1534 1031 1641 628 
Q 1738 1016 1872 1384 
L 2581 3319 
L 3144 3319 
L 1881 -56 
Q 1678 -603 1566 -809 
Q 1416 -1088 1222 -1217 
Q 1028 -1347 759 -1347 
Q 597 -1347 397 -1278 
z
" transform="scale(0.015625)"/>
      </defs>
      <use xlink:href="#ArialMT-49"/>
      <use xlink:href="#ArialMT-6e" x="27.783203"/>
      <use xlink:href="#ArialMT-74" x="83.398438"/>
      <use xlink:href="#ArialMT-65" x="111.181641"/>
      <use xlink:href="#ArialMT-6e" x="166.796875"/>
      <use xlink:href="#ArialMT-73" x="222.412109"/>
      <use xlink:href="#ArialMT-69" x="272.412109"/>
      <use xlink:href="#ArialMT-74" x="294.628906"/>
      <use xlink:href="#ArialMT-79" x="322.412109"/>
     </g>
    </g>
   </g>
   <g id="line2d_14">
    <path d="M -1 124.354439 
L 9.334893 124.394638 
L 15.75293 124.384709 
L 21.220147 124.362587 
L 31.441466 124.304065 
L 44.515245 123.897172 
L 53.072628 123.083944 
L 56.400499 122.521594 
L 59.72837 121.753873 
L 64.007062 120.71707 
L 65.908702 120.410479 
L 68.048048 120.277435 
L 70.425099 120.466747 
L 72.80215 120.960025 
L 76.130021 121.880564 
L 81.359533 123.186469 
L 83.974289 123.596823 
L 87.30216 123.942515 
L 96.334953 124.310432 
L 143.162854 124.352694 
L 151.720237 124.169174 
L 155.523518 123.625541 
L 156.474338 123.238605 
L 157.425159 122.639076 
L 157.900569 122.148574 
L 158.375979 121.379437 
L 158.851389 120.279201 
L 159.326799 118.74654 
L 159.802209 116.412487 
L 160.27762 112.68933 
L 160.990735 104.132404 
L 161.70385 95.118111 
L 162.17926 91.821281 
L 162.416965 91.442568 
L 162.65467 91.911318 
L 163.13008 94.882473 
L 164.794016 109.006309 
L 165.507131 112.566863 
L 166.220247 114.865668 
L 166.933362 116.32218 
L 167.884182 117.68755 
L 168.835002 118.633267 
L 170.498938 119.852092 
L 172.638284 121.002967 
L 175.015335 121.932653 
L 177.63009 122.64666 
L 182.384192 123.445057 
L 189.515344 123.979513 
L 204.966175 124.327321 
L 230.162913 124.446129 
L 232.539964 124.41934 
L 239.64875 124.436254 
L 239.64875 124.436254 
" clip-path="url(#p037edbd0fa)" style="fill: none; stroke: #58a265; stroke-linecap: square"/>
   </g>
   <g id="line2d_15">
    <path d="M -1 92.339503 
L 3.154561 92.403737 
L 8.146368 92.426802 
L 29.064415 92.228106 
L 35.482452 91.896823 
L 47.605411 91.321562 
L 50.457872 90.837181 
L 52.359513 90.268834 
L 53.785743 89.702026 
L 57.113614 88.121526 
L 58.064435 87.359707 
L 59.25296 86.075277 
L 60.203781 84.805001 
L 61.154601 83.154474 
L 61.867716 81.604587 
L 62.580831 79.531206 
L 63.293947 76.650175 
L 64.007062 72.827477 
L 66.146408 60.143584 
L 66.384113 59.792759 
L 66.621818 59.860667 
L 66.859523 60.346963 
L 67.334933 62.435236 
L 68.048048 67.354622 
L 69.236574 75.814702 
L 69.949689 79.613548 
L 70.662804 82.399383 
L 71.375919 84.397926 
L 72.32674 86.276732 
L 73.27756 87.578173 
L 74.22838 88.498255 
L 75.416906 89.370292 
L 76.843136 90.097033 
L 78.031662 90.557766 
L 80.646417 91.18952 
L 85.875929 91.827669 
L 92.293966 92.185005 
L 102.039875 92.380035 
L 120.818576 92.397346 
L 122.720217 92.415545 
L 127.712023 92.368736 
L 129.851369 92.352008 
L 141.023508 91.986907 
L 145.302199 91.406022 
L 147.441545 90.756036 
L 149.343186 89.795746 
L 150.294006 89.034885 
L 151.720237 87.575434 
L 152.671057 86.160038 
L 153.621877 84.349719 
L 154.334993 82.45382 
L 155.048108 79.90625 
L 155.761223 76.423165 
L 156.474338 71.502589 
L 158.613684 54.947844 
L 160.515325 41.65491 
L 160.990735 35.512356 
L 162.17926 17.535112 
L 162.416965 16.022312 
L 162.65467 15.848182 
L 162.892375 17.037491 
L 163.367786 22.835797 
L 164.794016 46.167096 
L 165.507131 53.610545 
L 166.220247 59.036256 
L 167.171067 64.495654 
L 168.359592 70.057159 
L 169.310413 73.625374 
L 170.498938 77.186078 
L 171.449758 79.386991 
L 172.875989 81.966791 
L 174.064514 83.591346 
L 175.490745 85.186234 
L 177.63009 86.976848 
L 180.007141 88.55046 
L 182.146487 89.56331 
L 184.523538 90.337415 
L 188.089114 91.123328 
L 190.466165 91.441111 
L 193.556331 91.71466 
L 209.482571 92.247484 
L 212.810442 92.233081 
L 215.900608 92.294065 
L 236.343245 92.063727 
L 239.64875 91.845758 
L 239.64875 91.845758 
" clip-path="url(#p037edbd0fa)" style="fill: none; stroke: #0e0e77; stroke-linecap: square"/>
   </g>
   <g id="line2d_16">
    <path d="M -1 156.376177 
L 34.769337 156.245514 
L 43.564425 155.7097 
L 49.031642 155.013561 
L 60.441486 153.358598 
L 63.769357 153.282062 
L 67.572638 153.470858 
L 77.793956 154.917952 
L 83.261173 155.53145 
L 89.2038 155.939916 
L 100.375939 156.299828 
L 110.359553 156.413824 
L 116.77759 156.404324 
L 125.572678 156.41585 
L 139.121867 156.330459 
L 142.687444 156.286332 
L 151.482532 155.924424 
L 154.334993 155.464374 
L 155.523518 155.051854 
L 156.474338 154.424132 
L 157.187453 153.737117 
L 157.900569 152.681164 
L 158.613684 151.007988 
L 159.326799 148.556065 
L 160.039914 144.886559 
L 160.990735 137.916981 
L 161.70385 133.422175 
L 161.941555 132.604959 
L 162.17926 132.229602 
L 162.416965 132.294991 
L 162.65467 132.758168 
L 163.13008 134.557294 
L 164.556311 141.053776 
L 165.269426 143.213756 
L 165.982541 144.720686 
L 166.695657 145.773295 
L 167.884182 147.079526 
L 169.310413 148.298698 
L 171.212053 149.617793 
L 173.113694 150.693414 
L 175.490745 151.732005 
L 178.580911 152.838448 
L 181.671077 153.728308 
L 184.523538 154.358302 
L 188.326819 154.992714 
L 194.507151 155.632747 
L 199.261253 155.933411 
L 209.482571 156.269782 
L 216.376019 156.383817 
L 224.220286 156.462779 
L 229.687503 156.491585 
L 239.64875 156.512789 
L 239.64875 156.512789 
" clip-path="url(#p037edbd0fa)" style="fill: none; stroke: #000000; stroke-linecap: square"/>
   </g>
   <g id="line2d_17">
    <path d="M -1 188.56103 
L 7.433253 188.589911 
L 14.3267 188.590074 
L 32.392286 188.428596 
L 37.146388 188.227365 
L 43.089015 187.600597 
L 46.416886 186.955193 
L 48.793937 186.307353 
L 51.408693 185.317506 
L 53.310333 184.366748 
L 55.449679 183.048712 
L 57.82673 181.26825 
L 61.392306 178.40936 
L 63.056241 177.382878 
L 64.244767 176.899818 
L 65.433292 176.665471 
L 66.384113 176.709212 
L 67.572638 176.980062 
L 68.761163 177.508304 
L 70.425099 178.56192 
L 72.32674 180.029223 
L 76.367726 183.259944 
L 78.744777 184.816816 
L 80.408712 185.668973 
L 82.310353 186.416169 
L 84.925109 187.17613 
L 88.015275 187.742172 
L 90.392326 187.99475 
L 96.097248 188.333329 
L 112.261193 188.582066 
L 123.195627 188.624665 
L 140.548098 188.60769 
L 142.449738 188.610945 
L 149.343186 188.51956 
L 154.097287 188.157547 
L 155.998928 187.580826 
L 156.949748 186.957938 
L 157.662864 186.322104 
L 158.138274 185.646924 
L 158.613684 184.621579 
L 159.089094 183.177975 
L 159.564504 181.163841 
L 160.039914 178.186939 
L 160.515325 173.800962 
L 161.941555 157.595614 
L 162.17926 156.428858 
L 162.416965 156.123368 
L 162.65467 156.667265 
L 163.13008 159.818094 
L 164.556311 172.680542 
L 165.269426 176.578374 
L 165.982541 179.097488 
L 166.695657 180.680981 
L 167.646477 182.090686 
L 168.597297 183.130636 
L 170.023528 184.157896 
L 171.449758 185.00313 
L 173.351399 185.84879 
L 176.916975 186.91805 
L 179.294026 187.377292 
L 181.908782 187.731444 
L 186.662883 188.092234 
L 211.859622 188.556273 
L 223.269466 188.578818 
L 239.64875 188.570452 
L 239.64875 188.570452 
" clip-path="url(#p037edbd0fa)" style="fill: none; stroke: #626161; stroke-linecap: square"/>
   </g>
   <g id="patch_3">
    <path d="M 27.6675 197.46 
L 27.6675 7.2 
" style="fill: none; stroke: #000000; stroke-width: 0.8; stroke-linejoin: miter; stroke-linecap: square"/>
   </g>
   <g id="patch_4">
    <path d="M 27.6675 197.46 
L 222.9675 197.46 
" style="fill: none; stroke: #000000; stroke-width: 0.8; stroke-linejoin: miter; stroke-linecap: square"/>
   </g>
  </g>
 </g>
 <defs>
  <clipPath id="p037edbd0fa">
   <rect x="27.6675" y="7.2" width="195.3" height="190.26"/>
  </clipPath>
 </defs>
</svg>
