<?xml version="1.0" encoding="utf-8" standalone="no"?>
<!DOCTYPE svg PUBLIC "-//W3C//DTD SVG 1.1//EN"
  "http://www.w3.org/Graphics/SVG/1.1/DTD/svg11.dtd">
<svg xmlns:xlink="http://www.w3.org/1999/xlink" width="230.1675pt" height="237.943437pt" viewBox="0 0 230.1675 237.943437" xmlns="http://www.w3.org/2000/svg" version="1.1">
 <metadata>
  <rdf:RDF xmlns:dc="http://purl.org/dc/elements/1.1/" xmlns:cc="http://creativecommons.org/ns#" xmlns:rdf="http://www.w3.org/1999/02/22-rdf-syntax-ns#">
   <cc:Work>
    <dc:type rdf:resource="http://purl.org/dc/dcmitype/StillImage"/>
    <dc:date>2023-10-05T20:08:06.666835</dc:date>
    <dc:format>image/svg+xml</dc:format>
    <dc:creator>
     <cc:Agent>
      <dc:title>Matplotlib v3.7.1, https://matplotlib.org/</dc:title>
     </cc:Agent>
    </dc:creator>
   </cc:Work>
  </rdf:RDF>
 </metadata>
 <defs>
  <style type="text/css">*{stroke-linejoin: round; stroke-linecap: butt}</style>
 </defs>
 <g id="figure_1">
  <g id="patch_1">
   <path d="M 0 237.943437 
L 230.1675 237.943437 
L 230.1675 0 
L 0 0 
z
" style="fill: #ffffff"/>
  </g>
  <g id="axes_1">
   <g id="patch_2">
    <path d="M 27.6675 197.46 
L 222.9675 197.46 
L 222.9675 7.2 
L 27.6675 7.2 
z
" style="fill: #ffffff"/>
   </g>
   <g id="patch_3">
    <path d="M 75.0975 29.041848 
L 36.0375 29.041848 
L 36.0375 41.979528 
L 75.0975 41.979528 
z
" clip-path="url(#p7f3d0ba72d)" style="fill: #262626; stroke: #262626; stroke-linejoin: miter"/>
   </g>
   <g id="patch_4">
    <path d="M 111.3675 26.758728 
L 61.1475 26.758728 
L 61.1475 13.821048 
L 111.3675 13.821048 
z
" clip-path="url(#p7f3d0ba72d)" style="fill: #262626; stroke: #262626; stroke-linejoin: miter"/>
   </g>
   <g id="patch_5">
    <path d="M 175.5375 29.041848 
L 111.3675 29.041848 
L 111.3675 41.979528 
L 175.5375 41.979528 
z
" clip-path="url(#p7f3d0ba72d)" style="fill: #262626; stroke: #262626; stroke-linejoin: miter"/>
   </g>
   <g id="patch_6">
    <path d="M 209.0175 26.758728 
L 167.1675 26.758728 
L 167.1675 13.821048 
L 209.0175 13.821048 
z
" clip-path="url(#p7f3d0ba72d)" style="fill: #262626; stroke: #262626; stroke-linejoin: miter"/>
   </g>
   <g id="matplotlib.axis_1">
    <g id="xtick_1">
     <g id="line2d_1">
      <defs>
       <path id="m5d8e2a40be" d="M 0 0 
L 0 3.5 
" style="stroke: #000000; stroke-width: 0.8"/>
      </defs>
      <g>
       <use xlink:href="#m5d8e2a40be" x="181.1175" y="197.46" style="stroke: #000000; stroke-width: 0.8"/>
      </g>
     </g>
     <g id="text_1">
      <!-- −40 -->
      <g transform="translate(172.63625 211.617812) scale(0.1 -0.1)">
       <defs>
        <path id="ArialMT-2212" d="M 3381 1997 
L 356 1997 
L 356 2522 
L 3381 2522 
L 3381 1997 
z
" transform="scale(0.015625)"/>
        <path id="ArialMT-34" d="M 2069 0 
L 2069 1097 
L 81 1097 
L 81 1613 
L 2172 4581 
L 2631 4581 
L 2631 1613 
L 3250 1613 
L 3250 1097 
L 2631 1097 
L 2631 0 
L 2069 0 
z
M 2069 1613 
L 2069 3678 
L 634 1613 
L 2069 1613 
z
" transform="scale(0.015625)"/>
        <path id="ArialMT-30" d="M 266 2259 
Q 266 3072 433 3567 
Q 600 4063 929 4331 
Q 1259 4600 1759 4600 
Q 2128 4600 2406 4451 
Q 2684 4303 2865 4023 
Q 3047 3744 3150 3342 
Q 3253 2941 3253 2259 
Q 3253 1453 3087 958 
Q 2922 463 2592 192 
Q 2263 -78 1759 -78 
Q 1097 -78 719 397 
Q 266 969 266 2259 
z
M 844 2259 
Q 844 1131 1108 757 
Q 1372 384 1759 384 
Q 2147 384 2411 759 
Q 2675 1134 2675 2259 
Q 2675 3391 2411 3762 
Q 2147 4134 1753 4134 
Q 1366 4134 1134 3806 
Q 844 3388 844 2259 
z
" transform="scale(0.015625)"/>
       </defs>
       <use xlink:href="#ArialMT-2212"/>
       <use xlink:href="#ArialMT-34" x="58.398438"/>
       <use xlink:href="#ArialMT-30" x="114.013672"/>
      </g>
     </g>
    </g>
    <g id="xtick_2">
     <g id="line2d_2">
      <g>
       <use xlink:href="#m5d8e2a40be" x="125.3175" y="197.46" style="stroke: #000000; stroke-width: 0.8"/>
      </g>
     </g>
     <g id="text_2">
      <!-- −20 -->
      <g transform="translate(116.83625 211.617812) scale(0.1 -0.1)">
       <defs>
        <path id="ArialMT-32" d="M 3222 541 
L 3222 0 
L 194 0 
Q 188 203 259 391 
Q 375 700 629 1000 
Q 884 1300 1366 1694 
Q 2113 2306 2375 2664 
Q 2638 3022 2638 3341 
Q 2638 3675 2398 3904 
Q 2159 4134 1775 4134 
Q 1369 4134 1125 3890 
Q 881 3647 878 3216 
L 300 3275 
Q 359 3922 746 4261 
Q 1134 4600 1788 4600 
Q 2447 4600 2831 4234 
Q 3216 3869 3216 3328 
Q 3216 3053 3103 2787 
Q 2991 2522 2730 2228 
Q 2469 1934 1863 1422 
Q 1356 997 1212 845 
Q 1069 694 975 541 
L 3222 541 
z
" transform="scale(0.015625)"/>
       </defs>
       <use xlink:href="#ArialMT-2212"/>
       <use xlink:href="#ArialMT-32" x="58.398438"/>
       <use xlink:href="#ArialMT-30" x="114.013672"/>
      </g>
     </g>
    </g>
    <g id="xtick_3">
     <g id="line2d_3">
      <g>
       <use xlink:href="#m5d8e2a40be" x="69.5175" y="197.46" style="stroke: #000000; stroke-width: 0.8"/>
      </g>
     </g>
     <g id="text_3">
      <!-- 0 -->
      <g transform="translate(66.737031 211.617812) scale(0.1 -0.1)">
       <use xlink:href="#ArialMT-30"/>
      </g>
     </g>
    </g>
    <g id="xtick_4">
     <g id="line2d_4">
      <defs>
       <path id="mf203b6fd42" d="M 0 0 
L 0 2 
" style="stroke: #000000; stroke-width: 0.6"/>
      </defs>
      <g>
       <use xlink:href="#mf203b6fd42" x="222.9675" y="197.46" style="stroke: #000000; stroke-width: 0.6"/>
      </g>
     </g>
    </g>
    <g id="xtick_5">
     <g id="line2d_5">
      <g>
       <use xlink:href="#mf203b6fd42" x="209.0175" y="197.46" style="stroke: #000000; stroke-width: 0.6"/>
      </g>
     </g>
    </g>
    <g id="xtick_6">
     <g id="line2d_6">
      <g>
       <use xlink:href="#mf203b6fd42" x="195.0675" y="197.46" style="stroke: #000000; stroke-width: 0.6"/>
      </g>
     </g>
    </g>
    <g id="xtick_7">
     <g id="line2d_7">
      <g>
       <use xlink:href="#mf203b6fd42" x="167.1675" y="197.46" style="stroke: #000000; stroke-width: 0.6"/>
      </g>
     </g>
    </g>
    <g id="xtick_8">
     <g id="line2d_8">
      <g>
       <use xlink:href="#mf203b6fd42" x="153.2175" y="197.46" style="stroke: #000000; stroke-width: 0.6"/>
      </g>
     </g>
    </g>
    <g id="xtick_9">
     <g id="line2d_9">
      <g>
       <use xlink:href="#mf203b6fd42" x="139.2675" y="197.46" style="stroke: #000000; stroke-width: 0.6"/>
      </g>
     </g>
    </g>
    <g id="xtick_10">
     <g id="line2d_10">
      <g>
       <use xlink:href="#mf203b6fd42" x="111.3675" y="197.46" style="stroke: #000000; stroke-width: 0.6"/>
      </g>
     </g>
    </g>
    <g id="xtick_11">
     <g id="line2d_11">
      <g>
       <use xlink:href="#mf203b6fd42" x="97.4175" y="197.46" style="stroke: #000000; stroke-width: 0.6"/>
      </g>
     </g>
    </g>
    <g id="xtick_12">
     <g id="line2d_12">
      <g>
       <use xlink:href="#mf203b6fd42" x="83.4675" y="197.46" style="stroke: #000000; stroke-width: 0.6"/>
      </g>
     </g>
    </g>
    <g id="xtick_13">
     <g id="line2d_13">
      <g>
       <use xlink:href="#mf203b6fd42" x="55.5675" y="197.46" style="stroke: #000000; stroke-width: 0.6"/>
      </g>
     </g>
    </g>
    <g id="xtick_14">
     <g id="line2d_14">
      <g>
       <use xlink:href="#mf203b6fd42" x="41.6175" y="197.46" style="stroke: #000000; stroke-width: 0.6"/>
      </g>
     </g>
    </g>
    <g id="xtick_15">
     <g id="line2d_15">
      <g>
       <use xlink:href="#mf203b6fd42" x="27.6675" y="197.46" style="stroke: #000000; stroke-width: 0.6"/>
      </g>
     </g>
    </g>
    <g id="text_4">
     <!-- Chemical shift (ppm) -->
     <g transform="translate(61.138438 227.796875) scale(0.14 -0.14)">
      <defs>
       <path id="ArialMT-43" d="M 3763 1606 
L 4369 1453 
Q 4178 706 3683 314 
Q 3188 -78 2472 -78 
Q 1731 -78 1267 223 
Q 803 525 561 1097 
Q 319 1669 319 2325 
Q 319 3041 592 3573 
Q 866 4106 1370 4382 
Q 1875 4659 2481 4659 
Q 3169 4659 3637 4309 
Q 4106 3959 4291 3325 
L 3694 3184 
Q 3534 3684 3231 3912 
Q 2928 4141 2469 4141 
Q 1941 4141 1586 3887 
Q 1231 3634 1087 3207 
Q 944 2781 944 2328 
Q 944 1744 1114 1308 
Q 1284 872 1643 656 
Q 2003 441 2422 441 
Q 2931 441 3284 734 
Q 3638 1028 3763 1606 
z
" transform="scale(0.015625)"/>
       <path id="ArialMT-68" d="M 422 0 
L 422 4581 
L 984 4581 
L 984 2938 
Q 1378 3394 1978 3394 
Q 2347 3394 2619 3248 
Q 2891 3103 3008 2847 
Q 3125 2591 3125 2103 
L 3125 0 
L 2563 0 
L 2563 2103 
Q 2563 2525 2380 2717 
Q 2197 2909 1863 2909 
Q 1613 2909 1392 2779 
Q 1172 2650 1078 2428 
Q 984 2206 984 1816 
L 984 0 
L 422 0 
z
" transform="scale(0.015625)"/>
       <path id="ArialMT-65" d="M 2694 1069 
L 3275 997 
Q 3138 488 2766 206 
Q 2394 -75 1816 -75 
Q 1088 -75 661 373 
Q 234 822 234 1631 
Q 234 2469 665 2931 
Q 1097 3394 1784 3394 
Q 2450 3394 2872 2941 
Q 3294 2488 3294 1666 
Q 3294 1616 3291 1516 
L 816 1516 
Q 847 969 1125 678 
Q 1403 388 1819 388 
Q 2128 388 2347 550 
Q 2566 713 2694 1069 
z
M 847 1978 
L 2700 1978 
Q 2663 2397 2488 2606 
Q 2219 2931 1791 2931 
Q 1403 2931 1139 2672 
Q 875 2413 847 1978 
z
" transform="scale(0.015625)"/>
       <path id="ArialMT-6d" d="M 422 0 
L 422 3319 
L 925 3319 
L 925 2853 
Q 1081 3097 1340 3245 
Q 1600 3394 1931 3394 
Q 2300 3394 2536 3241 
Q 2772 3088 2869 2813 
Q 3263 3394 3894 3394 
Q 4388 3394 4653 3120 
Q 4919 2847 4919 2278 
L 4919 0 
L 4359 0 
L 4359 2091 
Q 4359 2428 4304 2576 
Q 4250 2725 4106 2815 
Q 3963 2906 3769 2906 
Q 3419 2906 3187 2673 
Q 2956 2441 2956 1928 
L 2956 0 
L 2394 0 
L 2394 2156 
Q 2394 2531 2256 2718 
Q 2119 2906 1806 2906 
Q 1569 2906 1367 2781 
Q 1166 2656 1075 2415 
Q 984 2175 984 1722 
L 984 0 
L 422 0 
z
" transform="scale(0.015625)"/>
       <path id="ArialMT-69" d="M 425 3934 
L 425 4581 
L 988 4581 
L 988 3934 
L 425 3934 
z
M 425 0 
L 425 3319 
L 988 3319 
L 988 0 
L 425 0 
z
" transform="scale(0.015625)"/>
       <path id="ArialMT-63" d="M 2588 1216 
L 3141 1144 
Q 3050 572 2676 248 
Q 2303 -75 1759 -75 
Q 1078 -75 664 370 
Q 250 816 250 1647 
Q 250 2184 428 2587 
Q 606 2991 970 3192 
Q 1334 3394 1763 3394 
Q 2303 3394 2647 3120 
Q 2991 2847 3088 2344 
L 2541 2259 
Q 2463 2594 2264 2762 
Q 2066 2931 1784 2931 
Q 1359 2931 1093 2626 
Q 828 2322 828 1663 
Q 828 994 1084 691 
Q 1341 388 1753 388 
Q 2084 388 2306 591 
Q 2528 794 2588 1216 
z
" transform="scale(0.015625)"/>
       <path id="ArialMT-61" d="M 2588 409 
Q 2275 144 1986 34 
Q 1697 -75 1366 -75 
Q 819 -75 525 192 
Q 231 459 231 875 
Q 231 1119 342 1320 
Q 453 1522 633 1644 
Q 813 1766 1038 1828 
Q 1203 1872 1538 1913 
Q 2219 1994 2541 2106 
Q 2544 2222 2544 2253 
Q 2544 2597 2384 2738 
Q 2169 2928 1744 2928 
Q 1347 2928 1158 2789 
Q 969 2650 878 2297 
L 328 2372 
Q 403 2725 575 2942 
Q 747 3159 1072 3276 
Q 1397 3394 1825 3394 
Q 2250 3394 2515 3294 
Q 2781 3194 2906 3042 
Q 3031 2891 3081 2659 
Q 3109 2516 3109 2141 
L 3109 1391 
Q 3109 606 3145 398 
Q 3181 191 3288 0 
L 2700 0 
Q 2613 175 2588 409 
z
M 2541 1666 
Q 2234 1541 1622 1453 
Q 1275 1403 1131 1340 
Q 988 1278 909 1158 
Q 831 1038 831 891 
Q 831 666 1001 516 
Q 1172 366 1500 366 
Q 1825 366 2078 508 
Q 2331 650 2450 897 
Q 2541 1088 2541 1459 
L 2541 1666 
z
" transform="scale(0.015625)"/>
       <path id="ArialMT-6c" d="M 409 0 
L 409 4581 
L 972 4581 
L 972 0 
L 409 0 
z
" transform="scale(0.015625)"/>
       <path id="ArialMT-20" transform="scale(0.015625)"/>
       <path id="ArialMT-73" d="M 197 991 
L 753 1078 
Q 800 744 1014 566 
Q 1228 388 1613 388 
Q 2000 388 2187 545 
Q 2375 703 2375 916 
Q 2375 1106 2209 1216 
Q 2094 1291 1634 1406 
Q 1016 1563 777 1677 
Q 538 1791 414 1992 
Q 291 2194 291 2438 
Q 291 2659 392 2848 
Q 494 3038 669 3163 
Q 800 3259 1026 3326 
Q 1253 3394 1513 3394 
Q 1903 3394 2198 3281 
Q 2494 3169 2634 2976 
Q 2775 2784 2828 2463 
L 2278 2388 
Q 2241 2644 2061 2787 
Q 1881 2931 1553 2931 
Q 1166 2931 1000 2803 
Q 834 2675 834 2503 
Q 834 2394 903 2306 
Q 972 2216 1119 2156 
Q 1203 2125 1616 2013 
Q 2213 1853 2448 1751 
Q 2684 1650 2818 1456 
Q 2953 1263 2953 975 
Q 2953 694 2789 445 
Q 2625 197 2315 61 
Q 2006 -75 1616 -75 
Q 969 -75 630 194 
Q 291 463 197 991 
z
" transform="scale(0.015625)"/>
       <path id="ArialMT-66" d="M 556 0 
L 556 2881 
L 59 2881 
L 59 3319 
L 556 3319 
L 556 3672 
Q 556 4006 616 4169 
Q 697 4388 901 4523 
Q 1106 4659 1475 4659 
Q 1713 4659 2000 4603 
L 1916 4113 
Q 1741 4144 1584 4144 
Q 1328 4144 1222 4034 
Q 1116 3925 1116 3625 
L 1116 3319 
L 1763 3319 
L 1763 2881 
L 1116 2881 
L 1116 0 
L 556 0 
z
" transform="scale(0.015625)"/>
       <path id="ArialMT-74" d="M 1650 503 
L 1731 6 
Q 1494 -44 1306 -44 
Q 1000 -44 831 53 
Q 663 150 594 308 
Q 525 466 525 972 
L 525 2881 
L 113 2881 
L 113 3319 
L 525 3319 
L 525 4141 
L 1084 4478 
L 1084 3319 
L 1650 3319 
L 1650 2881 
L 1084 2881 
L 1084 941 
Q 1084 700 1114 631 
Q 1144 563 1211 522 
Q 1278 481 1403 481 
Q 1497 481 1650 503 
z
" transform="scale(0.015625)"/>
       <path id="ArialMT-28" d="M 1497 -1347 
Q 1031 -759 709 28 
Q 388 816 388 1659 
Q 388 2403 628 3084 
Q 909 3875 1497 4659 
L 1900 4659 
Q 1522 4009 1400 3731 
Q 1209 3300 1100 2831 
Q 966 2247 966 1656 
Q 966 153 1900 -1347 
L 1497 -1347 
z
" transform="scale(0.015625)"/>
       <path id="ArialMT-70" d="M 422 -1272 
L 422 3319 
L 934 3319 
L 934 2888 
Q 1116 3141 1344 3267 
Q 1572 3394 1897 3394 
Q 2322 3394 2647 3175 
Q 2972 2956 3137 2557 
Q 3303 2159 3303 1684 
Q 3303 1175 3120 767 
Q 2938 359 2589 142 
Q 2241 -75 1856 -75 
Q 1575 -75 1351 44 
Q 1128 163 984 344 
L 984 -1272 
L 422 -1272 
z
M 931 1641 
Q 931 1000 1190 694 
Q 1450 388 1819 388 
Q 2194 388 2461 705 
Q 2728 1022 2728 1688 
Q 2728 2322 2467 2637 
Q 2206 2953 1844 2953 
Q 1484 2953 1207 2617 
Q 931 2281 931 1641 
z
" transform="scale(0.015625)"/>
       <path id="ArialMT-29" d="M 791 -1347 
L 388 -1347 
Q 1322 153 1322 1656 
Q 1322 2244 1188 2822 
Q 1081 3291 891 3722 
Q 769 4003 388 4659 
L 791 4659 
Q 1378 3875 1659 3084 
Q 1900 2403 1900 1659 
Q 1900 816 1576 28 
Q 1253 -759 791 -1347 
z
" transform="scale(0.015625)"/>
      </defs>
      <use xlink:href="#ArialMT-43"/>
      <use xlink:href="#ArialMT-68" x="72.216797"/>
      <use xlink:href="#ArialMT-65" x="127.832031"/>
      <use xlink:href="#ArialMT-6d" x="183.447266"/>
      <use xlink:href="#ArialMT-69" x="266.748047"/>
      <use xlink:href="#ArialMT-63" x="288.964844"/>
      <use xlink:href="#ArialMT-61" x="338.964844"/>
      <use xlink:href="#ArialMT-6c" x="394.580078"/>
      <use xlink:href="#ArialMT-20" x="416.796875"/>
      <use xlink:href="#ArialMT-73" x="444.580078"/>
      <use xlink:href="#ArialMT-68" x="494.580078"/>
      <use xlink:href="#ArialMT-69" x="550.195312"/>
      <use xlink:href="#ArialMT-66" x="572.412109"/>
      <use xlink:href="#ArialMT-74" x="600.195312"/>
      <use xlink:href="#ArialMT-20" x="627.978516"/>
      <use xlink:href="#ArialMT-28" x="655.761719"/>
      <use xlink:href="#ArialMT-70" x="689.0625"/>
      <use xlink:href="#ArialMT-70" x="744.677734"/>
      <use xlink:href="#ArialMT-6d" x="800.292969"/>
      <use xlink:href="#ArialMT-29" x="883.59375"/>
     </g>
    </g>
   </g>
   <g id="matplotlib.axis_2">
    <g id="ytick_1">
     <g id="line2d_16"/>
    </g>
    <g id="ytick_2">
     <g id="line2d_17"/>
    </g>
    <g id="ytick_3">
     <g id="line2d_18"/>
    </g>
    <g id="ytick_4">
     <g id="line2d_19"/>
    </g>
    <g id="ytick_5">
     <g id="line2d_20"/>
    </g>
    <g id="text_5">
     <!-- Intensity -->
     <g transform="translate(17.220938 128.397344) rotate(-90) scale(0.14 -0.14)">
      <defs>
       <path id="ArialMT-49" d="M 597 0 
L 597 4581 
L 1203 4581 
L 1203 0 
L 597 0 
z
" transform="scale(0.015625)"/>
       <path id="ArialMT-6e" d="M 422 0 
L 422 3319 
L 928 3319 
L 928 2847 
Q 1294 3394 1984 3394 
Q 2284 3394 2536 3286 
Q 2788 3178 2913 3003 
Q 3038 2828 3088 2588 
Q 3119 2431 3119 2041 
L 3119 0 
L 2556 0 
L 2556 2019 
Q 2556 2363 2490 2533 
Q 2425 2703 2258 2804 
Q 2091 2906 1866 2906 
Q 1506 2906 1245 2678 
Q 984 2450 984 1813 
L 984 0 
L 422 0 
z
" transform="scale(0.015625)"/>
       <path id="ArialMT-79" d="M 397 -1278 
L 334 -750 
Q 519 -800 656 -800 
Q 844 -800 956 -737 
Q 1069 -675 1141 -563 
Q 1194 -478 1313 -144 
Q 1328 -97 1363 -6 
L 103 3319 
L 709 3319 
L 1400 1397 
Q 1534 1031 1641 628 
Q 1738 1016 1872 1384 
L 2581 3319 
L 3144 3319 
L 1881 -56 
Q 1678 -603 1566 -809 
Q 1416 -1088 1222 -1217 
Q 1028 -1347 759 -1347 
Q 597 -1347 397 -1278 
z
" transform="scale(0.015625)"/>
      </defs>
      <use xlink:href="#ArialMT-49"/>
      <use xlink:href="#ArialMT-6e" x="27.783203"/>
      <use xlink:href="#ArialMT-74" x="83.398438"/>
      <use xlink:href="#ArialMT-65" x="111.181641"/>
      <use xlink:href="#ArialMT-6e" x="166.796875"/>
      <use xlink:href="#ArialMT-73" x="222.412109"/>
      <use xlink:href="#ArialMT-69" x="272.412109"/>
      <use xlink:href="#ArialMT-74" x="294.628906"/>
      <use xlink:href="#ArialMT-79" x="322.412109"/>
     </g>
    </g>
   </g>
   <g id="line2d_21">
    <path d="M -1 136.971706 
L 4.091373 136.926454 
L 6.195221 136.825579 
L 7.3313 136.815593 
L 9.14061 136.866891 
L 12.843384 136.720062 
L 15.999157 136.661269 
L 19.365315 136.773336 
L 21.469164 136.721133 
L 28.580173 136.618525 
L 30.894406 136.470061 
L 32.577485 136.571604 
L 37.079722 136.172132 
L 40.44588 135.733846 
L 44.106577 134.633836 
L 46.084195 133.571607 
L 47.388581 132.582318 
L 48.482582 131.362143 
L 50.081507 129.282249 
L 51.343817 127.168997 
L 52.395741 125.068278 
L 53.615973 122.100271 
L 55.004514 118.150632 
L 56.056438 114.375897 
L 56.982131 110.210316 
L 59.001826 100.54781 
L 59.296365 100.15821 
L 59.50675 100.168515 
L 59.759212 100.479131 
L 60.137905 101.43035 
L 61.105675 104.813829 
L 62.115522 107.846154 
L 63.041216 109.946851 
L 66.575682 116.828966 
L 68.721608 120.188199 
L 71.540765 124.403629 
L 73.223844 126.434529 
L 74.654461 127.862121 
L 77.431542 130.149662 
L 79.745775 131.492559 
L 81.807547 132.604124 
L 83.99555 133.431274 
L 85.468244 133.886708 
L 88.287401 134.70101 
L 89.549711 134.947188 
L 90.938251 135.231935 
L 94.262332 135.949341 
L 95.987488 136.176891 
L 98.638338 136.453627 
L 100.742186 136.617908 
L 101.625803 136.630503 
L 102.63565 136.680935 
L 104.150421 136.756776 
L 118.246208 136.972627 
L 119.676826 137.06218 
L 120.770827 137.067906 
L 122.832599 136.901097 
L 124.515678 136.889371 
L 126.324988 136.927825 
L 128.344683 136.923004 
L 129.859454 136.972844 
L 134.025074 137.0537 
L 135.161153 137.04455 
L 136.423462 137.077986 
L 140.336621 137.13392 
L 144.249779 137.183383 
L 145.427935 137.13128 
L 147.489707 137.152722 
L 149.509401 137.266666 
L 152.496867 137.113148 
L 157.546104 137.044094 
L 158.892567 137.012053 
L 161.375109 137.049964 
L 163.731419 137.051736 
L 164.867498 137.06847 
L 167.0555 137.085303 
L 168.696502 137.067987 
L 169.70635 137.026659 
L 173.87197 136.673418 
L 175.597126 136.732937 
L 176.606974 136.542464 
L 178.037591 136.330458 
L 179.426131 136.226138 
L 186.95791 136.346843 
L 188.725143 136.42525 
L 190.197837 136.589192 
L 192.175455 137.015817 
L 193.437764 137.026408 
L 195.16292 137.016158 
L 203.115469 137.102288 
L 206.271242 137.20688 
L 207.239012 137.231078 
L 208.585476 137.209261 
L 209.974016 137.223412 
L 213.171866 137.138338 
L 214.392098 137.113276 
L 215.570254 137.074318 
L 219.062643 136.959126 
L 221.04026 136.820656 
L 223.186186 136.64357 
L 225.247958 136.540628 
L 227.562192 136.535649 
L 231.1675 136.648248 
L 231.1675 136.648248 
" clip-path="url(#p7f3d0ba72d)" style="fill: none; stroke: #58a265; stroke-linecap: square"/>
   </g>
   <g id="line2d_22">
    <path d="M -1 163.358898 
L 5.017066 163.479356 
L 10.402919 163.345304 
L 12.969615 163.384924 
L 19.912316 163.319663 
L 21.469164 163.314553 
L 22.689396 163.233152 
L 25.00363 163.27347 
L 32.577485 163.208236 
L 35.228335 163.142574 
L 39.856802 163.040065 
L 42.25519 162.747247 
L 48.019736 161.760475 
L 49.913199 161.22656 
L 52.059125 160.406531 
L 52.942742 159.797272 
L 55.593591 157.484847 
L 57.402901 155.624731 
L 57.907825 155.490948 
L 58.496903 155.604555 
L 60.89529 156.283257 
L 61.694753 156.204628 
L 62.746677 155.817197 
L 65.565834 154.732388 
L 66.659836 154.510047 
L 67.71176 154.59569 
L 68.595377 154.818513 
L 69.352762 155.263579 
L 72.592689 157.479512 
L 73.097613 157.605911 
L 74.233692 157.623267 
L 74.696538 158.151104 
L 75.496001 159.030798 
L 76.253386 159.491429 
L 77.094926 159.742947 
L 78.609697 160.195316 
L 79.787852 160.494961 
L 82.901549 161.039715 
L 86.141476 161.000209 
L 87.992863 161.100074 
L 90.938251 161.253836 
L 93.841562 161.802084 
L 95.145949 162.044724 
L 96.534489 162.144414 
L 97.838875 162.585324 
L 100.195186 162.892738 
L 101.794111 162.955962 
L 116.815591 163.178309 
L 120.981212 162.988815 
L 126.198757 163.198331 
L 128.597144 163.09947 
L 130.700993 163.224248 
L 131.837072 163.269832 
L 134.78246 163.44059 
L 136.928386 163.374384 
L 138.190695 163.278439 
L 142.188008 163.432912 
L 144.712626 163.386886 
L 146.774398 163.400623 
L 148.289169 163.37077 
L 149.719786 163.473532 
L 152.202328 163.352855 
L 154.937331 163.435869 
L 158.261412 163.426157 
L 159.944491 163.436599 
L 161.290955 163.459324 
L 162.88988 163.496406 
L 164.362574 163.466202 
L 166.971346 163.404351 
L 170.842428 163.377205 
L 172.988354 163.386955 
L 179.384054 163.4521 
L 180.898825 163.3832 
L 182.245289 163.388991 
L 183.802137 163.401533 
L 185.022369 163.440949 
L 186.284678 163.443356 
L 187.967757 163.415575 
L 193.016995 163.479611 
L 195.078766 163.456269 
L 196.298999 163.56776 
L 201.642775 163.43943 
L 203.620392 163.422973 
L 207.239012 163.358861 
L 212.330326 163.469962 
L 218.221103 163.386485 
L 219.777951 163.356754 
L 220.871953 163.336425 
L 222.428801 163.403309 
L 225.332112 163.300902 
L 227.393884 163.210562 
L 228.487885 163.186802 
L 229.750194 163.228579 
L 231.1675 163.166058 
L 231.1675 163.166058 
" clip-path="url(#p7f3d0ba72d)" style="fill: none; stroke: #0e0e77; stroke-linecap: square"/>
   </g>
   <g id="line2d_23">
    <path d="M -1 110.043398 
L 2.071678 110.21546 
L 3.123602 110.241675 
L 7.205069 110.105874 
L 28.117326 109.914186 
L 36.743106 109.540726 
L 37.668799 109.467339 
L 41.371573 108.793166 
L 42.591806 108.435943 
L 43.685807 108.056794 
L 44.906039 107.36518 
L 46.547041 106.185691 
L 47.598966 105.204277 
L 48.987506 103.556566 
L 50.03943 101.959109 
L 51.30174 99.544217 
L 52.311587 97.175639 
L 53.531819 93.70899 
L 54.709975 89.674033 
L 56.350977 83.041081 
L 59.296365 69.902288 
L 61.947215 58.791075 
L 63.12537 54.729207 
L 63.924832 52.722168 
L 64.598064 51.589472 
L 65.102988 51.143025 
L 65.523758 51.066538 
L 65.986604 51.241178 
L 66.617759 51.748883 
L 67.333067 52.598872 
L 68.006299 53.758706 
L 68.721608 55.481968 
L 69.731455 58.60227 
L 72.71892 68.100849 
L 74.275769 72.147488 
L 75.580155 75.031673 
L 77.221157 78.152901 
L 79.53539 81.754128 
L 86.015245 91.867612 
L 87.572093 93.894313 
L 89.760096 96.514008 
L 91.316944 98.05025 
L 94.220255 100.718123 
L 95.777103 101.776883 
L 97.376028 102.586503 
L 99.101184 103.110154 
L 100.068955 103.483047 
L 101.541649 104.30464 
L 104.781576 106.416582 
L 107.09581 107.503867 
L 110.588199 108.550195 
L 112.018816 108.814108 
L 115.805744 109.274876 
L 120.30798 109.518303 
L 138.779773 110.088498 
L 149.088632 110.178318 
L 150.771711 110.176259 
L 155.989256 110.159648 
L 158.093105 110.181047 
L 165.162036 110.247368 
L 166.045653 110.208519 
L 167.812886 110.201136 
L 172.946277 110.240413 
L 174.671433 110.128905 
L 179.005362 110.257934 
L 180.267671 110.297877 
L 182.623981 110.224419 
L 185.022369 110.256581 
L 186.873756 110.208323 
L 211.278402 110.391527 
L 214.350021 110.21954 
L 218.389411 110.259016 
L 219.609643 110.134775 
L 221.166491 110.066611 
L 222.975801 109.916231 
L 224.574726 109.669837 
L 225.584574 109.503142 
L 226.594421 109.300115 
L 228.235423 108.96899 
L 231.1675 108.603325 
L 231.1675 108.603325 
" clip-path="url(#p7f3d0ba72d)" style="fill: none; stroke: #000000; stroke-linecap: square"/>
   </g>
   <g id="line2d_24">
    <path d="M -1 189.946218 
L 0.598984 189.973979 
L 3.081525 189.954314 
L 5.395759 189.902349 
L 8.29907 190.045763 
L 16.041234 189.872054 
L 17.76639 189.910841 
L 21.721626 189.875551 
L 24.919476 189.904993 
L 25.761015 189.816401 
L 26.770863 189.731125 
L 32.872024 189.832753 
L 38.678647 189.639494 
L 40.656265 189.511521 
L 41.792343 189.503703 
L 42.718037 189.407438 
L 46.799503 188.454957 
L 48.145966 187.765886 
L 49.282045 187.019948 
L 50.544354 185.811595 
L 51.30174 184.769572 
L 52.143279 183.237483 
L 52.816511 181.500993 
L 53.700127 178.522888 
L 54.49959 175.985512 
L 54.794129 175.633783 
L 55.004514 175.66184 
L 55.256975 175.960114 
L 55.761899 177.027681 
L 57.024208 179.699276 
L 57.781594 180.8344 
L 58.66521 181.770753 
L 59.50675 182.333915 
L 60.47452 182.740369 
L 61.31606 183.123148 
L 64.682218 185.113781 
L 67.459298 186.389394 
L 74.570307 188.269734 
L 76.043001 188.599681 
L 77.473619 188.838391 
L 84.290089 189.528768 
L 88.119094 189.730172 
L 90.475404 189.574975 
L 92.453022 189.844783 
L 96.871105 189.701831 
L 100.321417 189.82777 
L 101.794111 189.80555 
L 109.283812 189.984079 
L 110.840661 189.871271 
L 112.229201 189.86772 
L 113.575664 189.94075 
L 114.501357 189.960977 
L 116.394821 189.903651 
L 118.835286 189.935582 
L 120.181749 189.913422 
L 121.822751 189.999934 
L 128.765452 189.877187 
L 131.079686 189.953672 
L 132.678611 189.935882 
L 134.656229 189.978584 
L 142.061777 189.907828 
L 143.40824 189.866552 
L 145.596243 189.987032 
L 146.984783 189.958256 
L 148.667862 190.037745 
L 154.306177 189.99747 
L 157.46195 189.999597 
L 173.703663 190.079997 
L 175.176357 190.048017 
L 177.111898 189.945155 
L 190.15576 189.962342 
L 191.880916 190.056672 
L 193.900611 190.007566 
L 196.256922 190.033507 
L 198.739463 189.920585 
L 200.675004 190.02513 
L 202.063544 190.034986 
L 203.2417 190.07509 
L 204.798548 190.045342 
L 216.958794 189.917537 
L 218.936412 189.994349 
L 220.871953 189.797122 
L 224.364342 189.814273 
L 226.173652 189.832146 
L 228.656193 189.807826 
L 230.970427 189.778342 
L 231.1675 189.783708 
L 231.1675 189.783708 
" clip-path="url(#p7f3d0ba72d)" style="fill: none; stroke: #626161; stroke-linecap: square"/>
   </g>
   <g id="patch_7">
    <path d="M 27.6675 197.46 
L 27.6675 7.2 
" style="fill: none; stroke: #000000; stroke-width: 0.8; stroke-linejoin: miter; stroke-linecap: square"/>
   </g>
   <g id="patch_8">
    <path d="M 27.6675 197.46 
L 222.9675 197.46 
" style="fill: none; stroke: #000000; stroke-width: 0.8; stroke-linejoin: miter; stroke-linecap: square"/>
   </g>
  </g>
 </g>
 <defs>
  <clipPath id="p7f3d0ba72d">
   <rect x="27.6675" y="7.2" width="195.3" height="190.26"/>
  </clipPath>
 </defs>
</svg>
