<?xml version="1.0" encoding="utf-8" standalone="no"?>
<!DOCTYPE svg PUBLIC "-//W3C//DTD SVG 1.1//EN"
  "http://www.w3.org/Graphics/SVG/1.1/DTD/svg11.dtd">
<svg xmlns:xlink="http://www.w3.org/1999/xlink" width="230.1675pt" height="237.943438pt" viewBox="0 0 230.1675 237.943438" xmlns="http://www.w3.org/2000/svg" version="1.1">
 <metadata>
  <rdf:RDF xmlns:dc="http://purl.org/dc/elements/1.1/" xmlns:cc="http://creativecommons.org/ns#" xmlns:rdf="http://www.w3.org/1999/02/22-rdf-syntax-ns#">
   <cc:Work>
    <dc:type rdf:resource="http://purl.org/dc/dcmitype/StillImage"/>
    <dc:date>2023-10-02T16:00:57.650796</dc:date>
    <dc:format>image/svg+xml</dc:format>
    <dc:creator>
     <cc:Agent>
      <dc:title>Matplotlib v3.7.1, https://matplotlib.org/</dc:title>
     </cc:Agent>
    </dc:creator>
   </cc:Work>
  </rdf:RDF>
 </metadata>
 <defs>
  <style type="text/css">*{stroke-linejoin: round; stroke-linecap: butt}</style>
 </defs>
 <g id="figure_1">
  <g id="patch_1">
   <path d="M 0 237.943438 
L 230.1675 237.943438 
L 230.1675 0 
L 0 0 
z
" style="fill: #ffffff"/>
  </g>
  <g id="axes_1">
   <g id="patch_2">
    <path d="M 27.6675 197.46 
L 222.9675 197.46 
L 222.9675 7.2 
L 27.6675 7.2 
z
" style="fill: #ffffff"/>
   </g>
   <g id="matplotlib.axis_1">
    <g id="xtick_1">
     <g id="line2d_1">
      <defs>
       <path id="m80f36111af" d="M 0 0 
L 0 3.5 
" style="stroke: #000000; stroke-width: 0.8"/>
      </defs>
      <g>
       <use xlink:href="#m80f36111af" x="181.1175" y="197.46" style="stroke: #000000; stroke-width: 0.8"/>
      </g>
     </g>
     <g id="text_1">
      <!-- −40 -->
      <g transform="translate(172.63625 211.617813) scale(0.1 -0.1)">
       <defs>
        <path id="ArialMT-2212" d="M 3381 1997 
L 356 1997 
L 356 2522 
L 3381 2522 
L 3381 1997 
z
" transform="scale(0.015625)"/>
        <path id="ArialMT-34" d="M 2069 0 
L 2069 1097 
L 81 1097 
L 81 1613 
L 2172 4581 
L 2631 4581 
L 2631 1613 
L 3250 1613 
L 3250 1097 
L 2631 1097 
L 2631 0 
L 2069 0 
z
M 2069 1613 
L 2069 3678 
L 634 1613 
L 2069 1613 
z
" transform="scale(0.015625)"/>
        <path id="ArialMT-30" d="M 266 2259 
Q 266 3072 433 3567 
Q 600 4063 929 4331 
Q 1259 4600 1759 4600 
Q 2128 4600 2406 4451 
Q 2684 4303 2865 4023 
Q 3047 3744 3150 3342 
Q 3253 2941 3253 2259 
Q 3253 1453 3087 958 
Q 2922 463 2592 192 
Q 2263 -78 1759 -78 
Q 1097 -78 719 397 
Q 266 969 266 2259 
z
M 844 2259 
Q 844 1131 1108 757 
Q 1372 384 1759 384 
Q 2147 384 2411 759 
Q 2675 1134 2675 2259 
Q 2675 3391 2411 3762 
Q 2147 4134 1753 4134 
Q 1366 4134 1134 3806 
Q 844 3388 844 2259 
z
" transform="scale(0.015625)"/>
       </defs>
       <use xlink:href="#ArialMT-2212"/>
       <use xlink:href="#ArialMT-34" x="58.398438"/>
       <use xlink:href="#ArialMT-30" x="114.013672"/>
      </g>
     </g>
    </g>
    <g id="xtick_2">
     <g id="line2d_2">
      <g>
       <use xlink:href="#m80f36111af" x="125.3175" y="197.46" style="stroke: #000000; stroke-width: 0.8"/>
      </g>
     </g>
     <g id="text_2">
      <!-- −20 -->
      <g transform="translate(116.83625 211.617813) scale(0.1 -0.1)">
       <defs>
        <path id="ArialMT-32" d="M 3222 541 
L 3222 0 
L 194 0 
Q 188 203 259 391 
Q 375 700 629 1000 
Q 884 1300 1366 1694 
Q 2113 2306 2375 2664 
Q 2638 3022 2638 3341 
Q 2638 3675 2398 3904 
Q 2159 4134 1775 4134 
Q 1369 4134 1125 3890 
Q 881 3647 878 3216 
L 300 3275 
Q 359 3922 746 4261 
Q 1134 4600 1788 4600 
Q 2447 4600 2831 4234 
Q 3216 3869 3216 3328 
Q 3216 3053 3103 2787 
Q 2991 2522 2730 2228 
Q 2469 1934 1863 1422 
Q 1356 997 1212 845 
Q 1069 694 975 541 
L 3222 541 
z
" transform="scale(0.015625)"/>
       </defs>
       <use xlink:href="#ArialMT-2212"/>
       <use xlink:href="#ArialMT-32" x="58.398438"/>
       <use xlink:href="#ArialMT-30" x="114.013672"/>
      </g>
     </g>
    </g>
    <g id="xtick_3">
     <g id="line2d_3">
      <g>
       <use xlink:href="#m80f36111af" x="69.5175" y="197.46" style="stroke: #000000; stroke-width: 0.8"/>
      </g>
     </g>
     <g id="text_3">
      <!-- 0 -->
      <g transform="translate(66.737031 211.617813) scale(0.1 -0.1)">
       <use xlink:href="#ArialMT-30"/>
      </g>
     </g>
    </g>
    <g id="xtick_4">
     <g id="line2d_4">
      <defs>
       <path id="m977df967cc" d="M 0 0 
L 0 2 
" style="stroke: #000000; stroke-width: 0.6"/>
      </defs>
      <g>
       <use xlink:href="#m977df967cc" x="222.9675" y="197.46" style="stroke: #000000; stroke-width: 0.6"/>
      </g>
     </g>
    </g>
    <g id="xtick_5">
     <g id="line2d_5">
      <g>
       <use xlink:href="#m977df967cc" x="209.0175" y="197.46" style="stroke: #000000; stroke-width: 0.6"/>
      </g>
     </g>
    </g>
    <g id="xtick_6">
     <g id="line2d_6">
      <g>
       <use xlink:href="#m977df967cc" x="195.0675" y="197.46" style="stroke: #000000; stroke-width: 0.6"/>
      </g>
     </g>
    </g>
    <g id="xtick_7">
     <g id="line2d_7">
      <g>
       <use xlink:href="#m977df967cc" x="167.1675" y="197.46" style="stroke: #000000; stroke-width: 0.6"/>
      </g>
     </g>
    </g>
    <g id="xtick_8">
     <g id="line2d_8">
      <g>
       <use xlink:href="#m977df967cc" x="153.2175" y="197.46" style="stroke: #000000; stroke-width: 0.6"/>
      </g>
     </g>
    </g>
    <g id="xtick_9">
     <g id="line2d_9">
      <g>
       <use xlink:href="#m977df967cc" x="139.2675" y="197.46" style="stroke: #000000; stroke-width: 0.6"/>
      </g>
     </g>
    </g>
    <g id="xtick_10">
     <g id="line2d_10">
      <g>
       <use xlink:href="#m977df967cc" x="111.3675" y="197.46" style="stroke: #000000; stroke-width: 0.6"/>
      </g>
     </g>
    </g>
    <g id="xtick_11">
     <g id="line2d_11">
      <g>
       <use xlink:href="#m977df967cc" x="97.4175" y="197.46" style="stroke: #000000; stroke-width: 0.6"/>
      </g>
     </g>
    </g>
    <g id="xtick_12">
     <g id="line2d_12">
      <g>
       <use xlink:href="#m977df967cc" x="83.4675" y="197.46" style="stroke: #000000; stroke-width: 0.6"/>
      </g>
     </g>
    </g>
    <g id="xtick_13">
     <g id="line2d_13">
      <g>
       <use xlink:href="#m977df967cc" x="55.5675" y="197.46" style="stroke: #000000; stroke-width: 0.6"/>
      </g>
     </g>
    </g>
    <g id="xtick_14">
     <g id="line2d_14">
      <g>
       <use xlink:href="#m977df967cc" x="41.6175" y="197.46" style="stroke: #000000; stroke-width: 0.6"/>
      </g>
     </g>
    </g>
    <g id="xtick_15">
     <g id="line2d_15">
      <g>
       <use xlink:href="#m977df967cc" x="27.6675" y="197.46" style="stroke: #000000; stroke-width: 0.6"/>
      </g>
     </g>
    </g>
    <g id="text_4">
     <!-- Chemical shift (ppm) -->
     <g transform="translate(61.138438 227.796875) scale(0.14 -0.14)">
      <defs>
       <path id="ArialMT-43" d="M 3763 1606 
L 4369 1453 
Q 4178 706 3683 314 
Q 3188 -78 2472 -78 
Q 1731 -78 1267 223 
Q 803 525 561 1097 
Q 319 1669 319 2325 
Q 319 3041 592 3573 
Q 866 4106 1370 4382 
Q 1875 4659 2481 4659 
Q 3169 4659 3637 4309 
Q 4106 3959 4291 3325 
L 3694 3184 
Q 3534 3684 3231 3912 
Q 2928 4141 2469 4141 
Q 1941 4141 1586 3887 
Q 1231 3634 1087 3207 
Q 944 2781 944 2328 
Q 944 1744 1114 1308 
Q 1284 872 1643 656 
Q 2003 441 2422 441 
Q 2931 441 3284 734 
Q 3638 1028 3763 1606 
z
" transform="scale(0.015625)"/>
       <path id="ArialMT-68" d="M 422 0 
L 422 4581 
L 984 4581 
L 984 2938 
Q 1378 3394 1978 3394 
Q 2347 3394 2619 3248 
Q 2891 3103 3008 2847 
Q 3125 2591 3125 2103 
L 3125 0 
L 2563 0 
L 2563 2103 
Q 2563 2525 2380 2717 
Q 2197 2909 1863 2909 
Q 1613 2909 1392 2779 
Q 1172 2650 1078 2428 
Q 984 2206 984 1816 
L 984 0 
L 422 0 
z
" transform="scale(0.015625)"/>
       <path id="ArialMT-65" d="M 2694 1069 
L 3275 997 
Q 3138 488 2766 206 
Q 2394 -75 1816 -75 
Q 1088 -75 661 373 
Q 234 822 234 1631 
Q 234 2469 665 2931 
Q 1097 3394 1784 3394 
Q 2450 3394 2872 2941 
Q 3294 2488 3294 1666 
Q 3294 1616 3291 1516 
L 816 1516 
Q 847 969 1125 678 
Q 1403 388 1819 388 
Q 2128 388 2347 550 
Q 2566 713 2694 1069 
z
M 847 1978 
L 2700 1978 
Q 2663 2397 2488 2606 
Q 2219 2931 1791 2931 
Q 1403 2931 1139 2672 
Q 875 2413 847 1978 
z
" transform="scale(0.015625)"/>
       <path id="ArialMT-6d" d="M 422 0 
L 422 3319 
L 925 3319 
L 925 2853 
Q 1081 3097 1340 3245 
Q 1600 3394 1931 3394 
Q 2300 3394 2536 3241 
Q 2772 3088 2869 2813 
Q 3263 3394 3894 3394 
Q 4388 3394 4653 3120 
Q 4919 2847 4919 2278 
L 4919 0 
L 4359 0 
L 4359 2091 
Q 4359 2428 4304 2576 
Q 4250 2725 4106 2815 
Q 3963 2906 3769 2906 
Q 3419 2906 3187 2673 
Q 2956 2441 2956 1928 
L 2956 0 
L 2394 0 
L 2394 2156 
Q 2394 2531 2256 2718 
Q 2119 2906 1806 2906 
Q 1569 2906 1367 2781 
Q 1166 2656 1075 2415 
Q 984 2175 984 1722 
L 984 0 
L 422 0 
z
" transform="scale(0.015625)"/>
       <path id="ArialMT-69" d="M 425 3934 
L 425 4581 
L 988 4581 
L 988 3934 
L 425 3934 
z
M 425 0 
L 425 3319 
L 988 3319 
L 988 0 
L 425 0 
z
" transform="scale(0.015625)"/>
       <path id="ArialMT-63" d="M 2588 1216 
L 3141 1144 
Q 3050 572 2676 248 
Q 2303 -75 1759 -75 
Q 1078 -75 664 370 
Q 250 816 250 1647 
Q 250 2184 428 2587 
Q 606 2991 970 3192 
Q 1334 3394 1763 3394 
Q 2303 3394 2647 3120 
Q 2991 2847 3088 2344 
L 2541 2259 
Q 2463 2594 2264 2762 
Q 2066 2931 1784 2931 
Q 1359 2931 1093 2626 
Q 828 2322 828 1663 
Q 828 994 1084 691 
Q 1341 388 1753 388 
Q 2084 388 2306 591 
Q 2528 794 2588 1216 
z
" transform="scale(0.015625)"/>
       <path id="ArialMT-61" d="M 2588 409 
Q 2275 144 1986 34 
Q 1697 -75 1366 -75 
Q 819 -75 525 192 
Q 231 459 231 875 
Q 231 1119 342 1320 
Q 453 1522 633 1644 
Q 813 1766 1038 1828 
Q 1203 1872 1538 1913 
Q 2219 1994 2541 2106 
Q 2544 2222 2544 2253 
Q 2544 2597 2384 2738 
Q 2169 2928 1744 2928 
Q 1347 2928 1158 2789 
Q 969 2650 878 2297 
L 328 2372 
Q 403 2725 575 2942 
Q 747 3159 1072 3276 
Q 1397 3394 1825 3394 
Q 2250 3394 2515 3294 
Q 2781 3194 2906 3042 
Q 3031 2891 3081 2659 
Q 3109 2516 3109 2141 
L 3109 1391 
Q 3109 606 3145 398 
Q 3181 191 3288 0 
L 2700 0 
Q 2613 175 2588 409 
z
M 2541 1666 
Q 2234 1541 1622 1453 
Q 1275 1403 1131 1340 
Q 988 1278 909 1158 
Q 831 1038 831 891 
Q 831 666 1001 516 
Q 1172 366 1500 366 
Q 1825 366 2078 508 
Q 2331 650 2450 897 
Q 2541 1088 2541 1459 
L 2541 1666 
z
" transform="scale(0.015625)"/>
       <path id="ArialMT-6c" d="M 409 0 
L 409 4581 
L 972 4581 
L 972 0 
L 409 0 
z
" transform="scale(0.015625)"/>
       <path id="ArialMT-20" transform="scale(0.015625)"/>
       <path id="ArialMT-73" d="M 197 991 
L 753 1078 
Q 800 744 1014 566 
Q 1228 388 1613 388 
Q 2000 388 2187 545 
Q 2375 703 2375 916 
Q 2375 1106 2209 1216 
Q 2094 1291 1634 1406 
Q 1016 1563 777 1677 
Q 538 1791 414 1992 
Q 291 2194 291 2438 
Q 291 2659 392 2848 
Q 494 3038 669 3163 
Q 800 3259 1026 3326 
Q 1253 3394 1513 3394 
Q 1903 3394 2198 3281 
Q 2494 3169 2634 2976 
Q 2775 2784 2828 2463 
L 2278 2388 
Q 2241 2644 2061 2787 
Q 1881 2931 1553 2931 
Q 1166 2931 1000 2803 
Q 834 2675 834 2503 
Q 834 2394 903 2306 
Q 972 2216 1119 2156 
Q 1203 2125 1616 2013 
Q 2213 1853 2448 1751 
Q 2684 1650 2818 1456 
Q 2953 1263 2953 975 
Q 2953 694 2789 445 
Q 2625 197 2315 61 
Q 2006 -75 1616 -75 
Q 969 -75 630 194 
Q 291 463 197 991 
z
" transform="scale(0.015625)"/>
       <path id="ArialMT-66" d="M 556 0 
L 556 2881 
L 59 2881 
L 59 3319 
L 556 3319 
L 556 3672 
Q 556 4006 616 4169 
Q 697 4388 901 4523 
Q 1106 4659 1475 4659 
Q 1713 4659 2000 4603 
L 1916 4113 
Q 1741 4144 1584 4144 
Q 1328 4144 1222 4034 
Q 1116 3925 1116 3625 
L 1116 3319 
L 1763 3319 
L 1763 2881 
L 1116 2881 
L 1116 0 
L 556 0 
z
" transform="scale(0.015625)"/>
       <path id="ArialMT-74" d="M 1650 503 
L 1731 6 
Q 1494 -44 1306 -44 
Q 1000 -44 831 53 
Q 663 150 594 308 
Q 525 466 525 972 
L 525 2881 
L 113 2881 
L 113 3319 
L 525 3319 
L 525 4141 
L 1084 4478 
L 1084 3319 
L 1650 3319 
L 1650 2881 
L 1084 2881 
L 1084 941 
Q 1084 700 1114 631 
Q 1144 563 1211 522 
Q 1278 481 1403 481 
Q 1497 481 1650 503 
z
" transform="scale(0.015625)"/>
       <path id="ArialMT-28" d="M 1497 -1347 
Q 1031 -759 709 28 
Q 388 816 388 1659 
Q 388 2403 628 3084 
Q 909 3875 1497 4659 
L 1900 4659 
Q 1522 4009 1400 3731 
Q 1209 3300 1100 2831 
Q 966 2247 966 1656 
Q 966 153 1900 -1347 
L 1497 -1347 
z
" transform="scale(0.015625)"/>
       <path id="ArialMT-70" d="M 422 -1272 
L 422 3319 
L 934 3319 
L 934 2888 
Q 1116 3141 1344 3267 
Q 1572 3394 1897 3394 
Q 2322 3394 2647 3175 
Q 2972 2956 3137 2557 
Q 3303 2159 3303 1684 
Q 3303 1175 3120 767 
Q 2938 359 2589 142 
Q 2241 -75 1856 -75 
Q 1575 -75 1351 44 
Q 1128 163 984 344 
L 984 -1272 
L 422 -1272 
z
M 931 1641 
Q 931 1000 1190 694 
Q 1450 388 1819 388 
Q 2194 388 2461 705 
Q 2728 1022 2728 1688 
Q 2728 2322 2467 2637 
Q 2206 2953 1844 2953 
Q 1484 2953 1207 2617 
Q 931 2281 931 1641 
z
" transform="scale(0.015625)"/>
       <path id="ArialMT-29" d="M 791 -1347 
L 388 -1347 
Q 1322 153 1322 1656 
Q 1322 2244 1188 2822 
Q 1081 3291 891 3722 
Q 769 4003 388 4659 
L 791 4659 
Q 1378 3875 1659 3084 
Q 1900 2403 1900 1659 
Q 1900 816 1576 28 
Q 1253 -759 791 -1347 
z
" transform="scale(0.015625)"/>
      </defs>
      <use xlink:href="#ArialMT-43"/>
      <use xlink:href="#ArialMT-68" x="72.216797"/>
      <use xlink:href="#ArialMT-65" x="127.832031"/>
      <use xlink:href="#ArialMT-6d" x="183.447266"/>
      <use xlink:href="#ArialMT-69" x="266.748047"/>
      <use xlink:href="#ArialMT-63" x="288.964844"/>
      <use xlink:href="#ArialMT-61" x="338.964844"/>
      <use xlink:href="#ArialMT-6c" x="394.580078"/>
      <use xlink:href="#ArialMT-20" x="416.796875"/>
      <use xlink:href="#ArialMT-73" x="444.580078"/>
      <use xlink:href="#ArialMT-68" x="494.580078"/>
      <use xlink:href="#ArialMT-69" x="550.195312"/>
      <use xlink:href="#ArialMT-66" x="572.412109"/>
      <use xlink:href="#ArialMT-74" x="600.195312"/>
      <use xlink:href="#ArialMT-20" x="627.978516"/>
      <use xlink:href="#ArialMT-28" x="655.761719"/>
      <use xlink:href="#ArialMT-70" x="689.0625"/>
      <use xlink:href="#ArialMT-70" x="744.677734"/>
      <use xlink:href="#ArialMT-6d" x="800.292969"/>
      <use xlink:href="#ArialMT-29" x="883.59375"/>
     </g>
    </g>
   </g>
   <g id="matplotlib.axis_2">
    <g id="ytick_1">
     <g id="line2d_16"/>
    </g>
    <g id="ytick_2">
     <g id="line2d_17"/>
    </g>
    <g id="ytick_3">
     <g id="line2d_18"/>
    </g>
    <g id="ytick_4">
     <g id="line2d_19"/>
    </g>
    <g id="ytick_5">
     <g id="line2d_20"/>
    </g>
    <g id="ytick_6">
     <g id="line2d_21"/>
    </g>
    <g id="ytick_7">
     <g id="line2d_22"/>
    </g>
    <g id="ytick_8">
     <g id="line2d_23"/>
    </g>
    <g id="ytick_9">
     <g id="line2d_24"/>
    </g>
    <g id="text_5">
     <!-- Intensity -->
     <g transform="translate(17.220938 128.397344) rotate(-90) scale(0.14 -0.14)">
      <defs>
       <path id="ArialMT-49" d="M 597 0 
L 597 4581 
L 1203 4581 
L 1203 0 
L 597 0 
z
" transform="scale(0.015625)"/>
       <path id="ArialMT-6e" d="M 422 0 
L 422 3319 
L 928 3319 
L 928 2847 
Q 1294 3394 1984 3394 
Q 2284 3394 2536 3286 
Q 2788 3178 2913 3003 
Q 3038 2828 3088 2588 
Q 3119 2431 3119 2041 
L 3119 0 
L 2556 0 
L 2556 2019 
Q 2556 2363 2490 2533 
Q 2425 2703 2258 2804 
Q 2091 2906 1866 2906 
Q 1506 2906 1245 2678 
Q 984 2450 984 1813 
L 984 0 
L 422 0 
z
" transform="scale(0.015625)"/>
       <path id="ArialMT-79" d="M 397 -1278 
L 334 -750 
Q 519 -800 656 -800 
Q 844 -800 956 -737 
Q 1069 -675 1141 -563 
Q 1194 -478 1313 -144 
Q 1328 -97 1363 -6 
L 103 3319 
L 709 3319 
L 1400 1397 
Q 1534 1031 1641 628 
Q 1738 1016 1872 1384 
L 2581 3319 
L 3144 3319 
L 1881 -56 
Q 1678 -603 1566 -809 
Q 1416 -1088 1222 -1217 
Q 1028 -1347 759 -1347 
Q 597 -1347 397 -1278 
z
" transform="scale(0.015625)"/>
      </defs>
      <use xlink:href="#ArialMT-49"/>
      <use xlink:href="#ArialMT-6e" x="27.783203"/>
      <use xlink:href="#ArialMT-74" x="83.398438"/>
      <use xlink:href="#ArialMT-65" x="111.181641"/>
      <use xlink:href="#ArialMT-6e" x="166.796875"/>
      <use xlink:href="#ArialMT-73" x="222.412109"/>
      <use xlink:href="#ArialMT-69" x="272.412109"/>
      <use xlink:href="#ArialMT-74" x="294.628906"/>
      <use xlink:href="#ArialMT-79" x="322.412109"/>
     </g>
    </g>
   </g>
   <g id="line2d_25">
    <path d="M -1 128.723303 
L 3.628526 128.681397 
L 7.878301 128.594538 
L 9.771764 128.595905 
L 13.348307 128.4027 
L 15.494233 128.331816 
L 19.365315 128.497882 
L 21.300856 128.438447 
L 28.538096 128.326934 
L 30.894406 128.153251 
L 32.493331 128.274487 
L 36.490644 127.891136 
L 40.614188 127.263722 
L 44.316962 125.948965 
L 46.462887 124.571442 
L 47.430658 123.688453 
L 48.566736 122.234325 
L 50.081507 119.985283 
L 51.343817 117.58386 
L 52.395741 115.19668 
L 53.615973 111.823944 
L 54.962437 107.489021 
L 55.972284 103.424973 
L 56.897977 98.79011 
L 59.043903 87.236824 
L 59.338442 86.8704 
L 59.548827 86.935743 
L 59.801289 87.345533 
L 60.179982 88.48505 
L 62.620446 97.005209 
L 64.008986 100.191206 
L 66.912298 106.4603 
L 69.731455 111.398843 
L 72.298151 115.536914 
L 73.939153 117.616727 
L 75.411847 119.120121 
L 77.389465 120.940251 
L 79.325006 122.218484 
L 81.975855 123.821878 
L 83.743088 124.584059 
L 85.047474 125.076706 
L 86.436015 125.622579 
L 87.782478 126.059841 
L 91.527329 126.962175 
L 92.495099 127.246492 
L 99.059107 128.130438 
L 100.153109 128.205314 
L 101.415418 128.349577 
L 102.593573 128.386892 
L 103.982113 128.473421 
L 106.759194 128.466453 
L 108.316042 128.493756 
L 110.29366 128.600607 
L 111.640123 128.648343 
L 113.323202 128.683614 
L 115.090435 128.713735 
L 117.11013 128.751601 
L 119.592672 128.815974 
L 120.686673 128.844338 
L 122.916753 128.648892 
L 124.263216 128.648649 
L 125.483448 128.644788 
L 142.103854 128.861764 
L 143.155778 128.918229 
L 145.470012 128.902664 
L 147.531784 128.934316 
L 149.425247 129.066379 
L 152.623098 128.884474 
L 165.751114 128.879615 
L 167.181731 128.841643 
L 168.612348 128.825743 
L 169.580119 128.802393 
L 170.968659 128.728564 
L 172.230968 128.531479 
L 173.367047 128.33259 
L 176.017896 128.38699 
L 178.794977 127.877078 
L 180.225594 127.881675 
L 182.581904 128.02521 
L 184.30706 128.050897 
L 189.356298 128.13257 
L 190.281991 128.314986 
L 191.96507 128.747574 
L 193.185302 128.802815 
L 195.541613 128.775934 
L 197.477154 128.837865 
L 198.739463 128.91415 
L 200.422542 128.895722 
L 201.43239 128.91707 
L 203.115469 128.871691 
L 206.187088 128.976688 
L 207.154858 129.026616 
L 208.585476 128.993251 
L 209.889862 129.015007 
L 213.129789 128.909487 
L 214.350021 128.89024 
L 215.444023 128.838704 
L 218.515642 128.776256 
L 227.015191 128.211568 
L 230.591734 128.334068 
L 231.1675 128.355736 
L 231.1675 128.355736 
" clip-path="url(#p74b31f237c)" style="fill: none; stroke: #58a265; stroke-linecap: square"/>
   </g>
   <g id="line2d_26">
    <path d="M -1 158.708748 
L 4.806681 158.850132 
L 7.205069 158.733628 
L 8.29907 158.688395 
L 9.266841 158.642161 
L 10.150457 158.669551 
L 11.959767 158.755697 
L 13.684923 158.735401 
L 14.947232 158.619608 
L 15.830849 158.633804 
L 17.009004 158.675435 
L 19.323238 158.596407 
L 20.838009 158.716771 
L 21.763703 158.604956 
L 22.647319 158.562878 
L 24.877399 158.610498 
L 32.030485 158.582334 
L 34.933796 158.459978 
L 36.953491 158.368526 
L 38.468262 158.396769 
L 39.60434 158.367211 
L 41.918574 158.070832 
L 46.757426 157.16185 
L 49.744892 156.344577 
L 51.554202 155.628264 
L 52.437818 155.093133 
L 53.531819 154.113034 
L 55.299052 152.394158 
L 57.571209 149.835006 
L 58.034056 149.774688 
L 58.66521 149.962267 
L 60.642828 150.649982 
L 61.484368 150.630143 
L 62.241753 150.371722 
L 66.32322 148.689878 
L 67.038529 148.668918 
L 68.384992 148.912011 
L 69.058223 149.283214 
L 70.320533 150.329169 
L 72.592689 152.027627 
L 73.055536 152.172501 
L 73.56046 152.047381 
L 73.98123 152.027249 
L 74.317845 152.277148 
L 74.949 153.160804 
L 75.580155 153.864107 
L 76.33754 154.35461 
L 77.17908 154.621402 
L 78.56762 155.09676 
L 79.661621 155.425486 
L 83.027779 156.068472 
L 87.067169 156.131827 
L 91.359021 156.389509 
L 93.715331 156.900248 
L 95.061795 157.213156 
L 96.618643 157.370401 
L 97.670567 157.794251 
L 99.564031 158.094715 
L 101.66788 158.248044 
L 106.885425 158.465626 
L 107.853195 158.484489 
L 108.90512 158.537456 
L 110.125352 158.54501 
L 112.145047 158.562057 
L 116.478975 158.525072 
L 121.69652 158.348349 
L 125.946295 158.547525 
L 128.849606 158.449537 
L 130.364377 158.575316 
L 131.879149 158.612107 
L 134.78246 158.80158 
L 136.844232 158.741439 
L 138.148618 158.61459 
L 142.356316 158.779346 
L 144.207702 158.702625 
L 146.521936 158.776722 
L 148.457477 158.751733 
L 149.593555 158.850123 
L 152.496867 158.73181 
L 154.137869 158.828253 
L 158.598028 158.812312 
L 159.860337 158.803541 
L 161.164724 158.810637 
L 162.88988 158.865007 
L 164.236343 158.827977 
L 166.592654 158.767862 
L 179.089515 158.797502 
L 180.309748 158.78844 
L 182.287366 158.746628 
L 183.717983 158.762782 
L 184.896138 158.788545 
L 186.158447 158.815769 
L 187.967757 158.773153 
L 192.890764 158.85585 
L 194.952535 158.794755 
L 196.341076 158.943982 
L 201.222005 158.770164 
L 202.989238 158.816418 
L 207.196935 158.706642 
L 212.162019 158.840188 
L 218.852258 158.772374 
L 219.988336 158.680681 
L 220.91403 158.688573 
L 222.30257 158.76904 
L 225.458343 158.643749 
L 227.393884 158.540185 
L 228.445808 158.507613 
L 229.666041 158.561611 
L 231.1675 158.489612 
L 231.1675 158.489612 
" clip-path="url(#p74b31f237c)" style="fill: none; stroke: #0e0e77; stroke-linecap: square"/>
   </g>
   <g id="line2d_27">
    <path d="M -1 98.122952 
L 1.945447 98.298399 
L 2.955294 98.358843 
L 7.709993 98.19636 
L 14.105693 98.172813 
L 15.073463 98.165222 
L 16.462004 98.218847 
L 18.860391 98.156539 
L 20.291008 98.201612 
L 22.731473 98.138308 
L 23.909628 98.078647 
L 25.045707 98.018348 
L 26.350093 97.994662 
L 28.790558 97.948092 
L 31.525561 97.779408 
L 33.082409 97.668828 
L 35.85949 97.518942 
L 39.730571 97.218233 
L 40.824573 96.941139 
L 44.569424 95.317778 
L 46.126272 94.110281 
L 47.346504 92.921987 
L 48.608813 91.30572 
L 49.702815 89.572137 
L 50.712662 87.524483 
L 51.890817 84.696036 
L 53.026896 81.279819 
L 54.205051 77.050482 
L 55.425283 71.790138 
L 57.192516 63.199732 
L 60.811136 45.119047 
L 62.410061 37.939193 
L 63.377832 34.45913 
L 64.135217 32.51746 
L 64.724295 31.530527 
L 65.187142 31.149411 
L 65.565834 31.1106 
L 65.986604 31.302247 
L 66.617759 31.879186 
L 67.333067 32.845081 
L 68.006299 34.163075 
L 68.721608 36.121328 
L 69.731455 39.667125 
L 72.71892 50.460964 
L 74.275769 55.059418 
L 75.580155 58.336902 
L 77.221157 61.883751 
L 79.40916 65.74826 
L 86.22563 77.805405 
L 88.03494 80.447785 
L 89.718019 82.696153 
L 91.190713 84.356608 
L 94.388563 87.67174 
L 95.861257 88.785051 
L 97.333951 89.631289 
L 98.932876 90.196109 
L 99.900647 90.578383 
L 101.373341 91.472464 
L 102.930189 92.785046 
L 103.89796 93.475803 
L 107.09581 95.237122 
L 110.377814 96.361451 
L 111.808431 96.691608 
L 116.14236 97.272981 
L 127.797682 97.817637 
L 131.247994 97.993012 
L 132.97315 98.103364 
L 141.304391 98.242596 
L 143.82901 98.225843 
L 145.722474 98.147007 
L 150.098479 98.288715 
L 155.989256 98.255054 
L 157.966874 98.283352 
L 159.102952 98.343526 
L 162.511187 98.314818 
L 164.530882 98.251736 
L 165.793191 98.335809 
L 167.013423 98.313228 
L 171.431506 98.418333 
L 172.862123 98.359607 
L 174.461048 98.224893 
L 177.953437 98.190269 
L 180.309748 98.408482 
L 182.455674 98.319005 
L 185.1486 98.352781 
L 186.663371 98.305525 
L 193.059071 98.377427 
L 194.068919 98.397062 
L 195.58369 98.472587 
L 203.704546 98.527892 
L 204.882702 98.548265 
L 206.355396 98.485763 
L 210.142324 98.606015 
L 211.951634 98.42106 
L 213.087712 98.337299 
L 219.525489 98.238438 
L 220.91403 98.154157 
L 222.639186 98.018711 
L 224.869265 97.612875 
L 228.319577 96.88916 
L 231.1675 96.486505 
L 231.1675 96.486505 
" clip-path="url(#p74b31f237c)" style="fill: none; stroke: #000000; stroke-linecap: square"/>
   </g>
   <g id="line2d_28">
    <path d="M -1 188.921612 
L 0.472753 188.946974 
L 2.744909 188.957983 
L 5.353682 188.867975 
L 8.383224 189.031045 
L 13.179999 188.904768 
L 14.610617 188.8596 
L 15.788772 188.811332 
L 17.513928 188.872818 
L 19.870239 188.852675 
L 25.55063 188.818912 
L 26.770863 188.677187 
L 32.703716 188.801311 
L 43.096729 188.218745 
L 44.990193 187.887573 
L 46.000041 187.567935 
L 47.430658 186.885695 
L 49.113737 185.751239 
L 50.207738 184.628638 
L 50.965124 183.612928 
L 51.806663 182.062524 
L 52.479895 180.389058 
L 53.237281 177.808339 
L 54.625821 172.822648 
L 54.878283 172.639372 
L 55.088667 172.770168 
L 55.383206 173.288127 
L 56.477208 176.058813 
L 57.402901 177.982054 
L 58.244441 179.174743 
L 59.001826 179.921522 
L 59.969597 180.529216 
L 61.694753 181.452088 
L 63.840678 182.965086 
L 67.290991 184.823987 
L 71.288303 186.07296 
L 72.676843 186.604305 
L 73.644614 186.880541 
L 75.832617 187.329199 
L 77.137003 187.613618 
L 81.176393 188.134182 
L 83.027779 188.339256 
L 84.248012 188.443639 
L 88.161171 188.670796 
L 90.349173 188.475587 
L 92.705484 188.785614 
L 94.556871 188.705389 
L 95.777103 188.625802 
L 96.871105 188.643898 
L 100.237263 188.795578 
L 101.66788 188.755925 
L 109.073428 189.002225 
L 110.335737 188.884622 
L 112.692048 188.818732 
L 113.659818 188.928106 
L 114.501357 188.938383 
L 116.310667 188.867912 
L 118.793209 188.913847 
L 120.139672 188.87886 
L 121.780674 188.984173 
L 128.723375 188.843646 
L 131.037609 188.927299 
L 132.510303 188.918273 
L 134.109228 188.938689 
L 135.708153 188.908326 
L 136.928386 188.984493 
L 138.990157 188.974537 
L 143.786933 188.882626 
L 145.259627 188.996844 
L 147.321399 188.978807 
L 148.625785 189.02672 
L 154.432408 188.984343 
L 159.607876 189.012663 
L 162.384956 188.943496 
L 165.119959 189.070025 
L 168.444041 189.005791 
L 170.968659 189.037165 
L 174.166509 189.092929 
L 175.428819 189.004284 
L 176.859436 188.921995 
L 190.408222 188.974564 
L 191.754685 189.056839 
L 194.068919 189.000946 
L 196.509384 188.994375 
L 198.487001 188.896486 
L 200.085926 188.97195 
L 204.083239 189.068239 
L 207.154858 189.021118 
L 211.572941 188.926666 
L 214.097559 188.85732 
L 215.191561 188.895487 
L 216.664255 188.861197 
L 219.062643 188.952131 
L 220.535337 188.744775 
L 231.1675 188.736941 
L 231.1675 188.736941 
" clip-path="url(#p74b31f237c)" style="fill: none; stroke: #626161; stroke-linecap: square"/>
   </g>
   <g id="patch_3">
    <path d="M 27.6675 197.46 
L 27.6675 7.2 
" style="fill: none; stroke: #000000; stroke-width: 0.8; stroke-linejoin: miter; stroke-linecap: square"/>
   </g>
   <g id="patch_4">
    <path d="M 27.6675 197.46 
L 222.9675 197.46 
" style="fill: none; stroke: #000000; stroke-width: 0.8; stroke-linejoin: miter; stroke-linecap: square"/>
   </g>
  </g>
 </g>
 <defs>
  <clipPath id="p74b31f237c">
   <rect x="27.6675" y="7.2" width="195.3" height="190.26"/>
  </clipPath>
 </defs>
</svg>
