<svg xmlns="http://www.w3.org/2000/svg" xmlns:xlink="http://www.w3.org/1999/xlink" width="3.15in" height="3.3in" viewBox="0 0 226.83 237.94"><defs><style>.cls-1,.cls-6,.cls-7{fill:none;}.cls-2{fill:#fff;}.cls-3,.cls-4,.cls-7{stroke:#000;}.cls-3,.cls-4,.cls-6{stroke-linejoin:round;}.cls-3,.cls-7{stroke-width:0.8px;}.cls-4{stroke-width:0.6px;}.cls-5{clip-path:url(#clip-path);}.cls-6{stroke:#0e0e77;}.cls-6,.cls-7{stroke-linecap:square;}.cls-8{fill:#0e0e77;}</style><clipPath id="clip-path" transform="translate(1.58 0)"><rect class="cls-1" x="12.76" y="7.2" width="195.3" height="190.26"/></clipPath></defs><g id="Layer_1" data-name="Layer 1"><g id="figure_1" data-name="figure 1"><g id="patch_1" data-name="patch 1"><path class="cls-2" d="M0,237.94H223.74V0H0Z" transform="translate(1.58 0)"/></g><g id="axes_1" data-name="axes 1"><g id="patch_2" data-name="patch 2"><path class="cls-2" d="M12.76,197.46h195.3V7.2H12.76Z" transform="translate(1.58 0)"/></g><g id="matplotlib.axis_1" data-name="matplotlib.axis 1"><g id="xtick_1" data-name="xtick 1"><g id="line2d_1" data-name="line2d 1"><path id="m869360bce3" class="cls-3" d="M208.06,197.46V201" transform="translate(1.58 0)"/></g><g id="text_1" data-name="text 1"><path id="ArialMT-2212" d="M204.86,208.5h-4.72v-.82h4.72Z" transform="translate(1.58 0)"/><path id="ArialMT-31" d="M209.14,211.62h-.87V206a4.69,4.69,0,0,1-.84.6,6,6,0,0,1-.92.46v-.85a5.32,5.32,0,0,0,1.29-.84,3.23,3.23,0,0,0,.78-1h.56Z" transform="translate(1.58 0)"/><path id="ArialMT-30" d="M211.4,208.09a6.43,6.43,0,0,1,.26-2.05,2.55,2.55,0,0,1,.77-1.19,2,2,0,0,1,1.3-.42,2.18,2.18,0,0,1,1,.23,2,2,0,0,1,.72.67,3.38,3.38,0,0,1,.44,1.07,6.89,6.89,0,0,1,.16,1.69,6.3,6.3,0,0,1-.26,2,2.53,2.53,0,0,1-.77,1.2,2.19,2.19,0,0,1-2.93-.32A4.75,4.75,0,0,1,211.4,208.09Zm.9,0a4.58,4.58,0,0,0,.41,2.35,1.25,1.25,0,0,0,1,.58,1.23,1.23,0,0,0,1-.59,6.91,6.91,0,0,0,0-4.69,1.23,1.23,0,0,0-1-.58,1.14,1.14,0,0,0-1,.51A4.58,4.58,0,0,0,212.3,208.09Z" transform="translate(1.58 0)"/></g></g><g id="xtick_2" data-name="xtick 2"><g id="line2d_2" data-name="line2d 2"><path id="m869360bce3-2" data-name="m869360bce3" class="cls-3" d="M159.24,197.46V201" transform="translate(1.58 0)"/></g><g id="text_2" data-name="text 2"><path id="ArialMT-2212-2" data-name="ArialMT-2212" d="M158.82,208.5h-4.73v-.82h4.73Z" transform="translate(1.58 0)"/><path id="ArialMT-35" d="M159.79,209.74l.92-.08a1.69,1.69,0,0,0,.48,1,1.32,1.32,0,0,0,.9.34,1.39,1.39,0,0,0,1.07-.48,1.77,1.77,0,0,0,.44-1.27,1.65,1.65,0,0,0-.42-1.19,1.46,1.46,0,0,0-1.1-.43,1.52,1.52,0,0,0-.77.19,1.53,1.53,0,0,0-.54.5l-.82-.11.69-3.67h3.56v.84h-2.86l-.38,1.92a2.32,2.32,0,0,1,1.35-.45,2.16,2.16,0,0,1,1.58.65,2.27,2.27,0,0,1,.65,1.67,2.59,2.59,0,0,1-.57,1.68,2.51,2.51,0,0,1-3.47.32A2.11,2.11,0,0,1,159.79,209.74Z" transform="translate(1.58 0)"/></g></g><g id="xtick_3" data-name="xtick 3"><g id="line2d_3" data-name="line2d 3"><path id="m869360bce3-3" data-name="m869360bce3" class="cls-3" d="M110.41,197.46V201" transform="translate(1.58 0)"/></g><g id="text_3" data-name="text 3"><path id="ArialMT-30-2" data-name="ArialMT-30" d="M108.05,208.09a6.43,6.43,0,0,1,.26-2.05,2.55,2.55,0,0,1,.77-1.19,2,2,0,0,1,1.3-.42,2.18,2.18,0,0,1,1,.23,2,2,0,0,1,.72.67,3.38,3.38,0,0,1,.44,1.07,6.89,6.89,0,0,1,.16,1.69,6.3,6.3,0,0,1-.26,2,2.53,2.53,0,0,1-.77,1.2,2.19,2.19,0,0,1-2.93-.32A4.75,4.75,0,0,1,108.05,208.09Zm.9,0a4.58,4.58,0,0,0,.41,2.35,1.25,1.25,0,0,0,1,.58,1.23,1.23,0,0,0,1-.59,6.91,6.91,0,0,0,0-4.69,1.23,1.23,0,0,0-1-.58,1.14,1.14,0,0,0-1,.51A4.58,4.58,0,0,0,109,208.09Z" transform="translate(1.58 0)"/></g></g><g id="xtick_4" data-name="xtick 4"><g id="line2d_4" data-name="line2d 4"><path id="m869360bce3-4" data-name="m869360bce3" class="cls-3" d="M61.59,197.46V201" transform="translate(1.58 0)"/></g><g id="text_4" data-name="text 4"><path id="ArialMT-35-2" data-name="ArialMT-35" d="M59.22,209.74l.92-.08a1.69,1.69,0,0,0,.48,1,1.32,1.32,0,0,0,.9.34,1.39,1.39,0,0,0,1.07-.48,1.77,1.77,0,0,0,.44-1.27,1.65,1.65,0,0,0-.42-1.19,1.46,1.46,0,0,0-1.1-.43,1.52,1.52,0,0,0-.77.19,1.53,1.53,0,0,0-.54.5l-.82-.11.69-3.67h3.56v.84H60.77l-.38,1.92a2.32,2.32,0,0,1,1.35-.45,2.16,2.16,0,0,1,1.58.65,2.27,2.27,0,0,1,.65,1.67,2.59,2.59,0,0,1-.57,1.68,2.51,2.51,0,0,1-3.47.32A2.11,2.11,0,0,1,59.22,209.74Z" transform="translate(1.58 0)"/></g></g><g id="xtick_5" data-name="xtick 5"><g id="line2d_5" data-name="line2d 5"><path id="m869360bce3-5" data-name="m869360bce3" class="cls-3" d="M12.76,197.46V201" transform="translate(1.58 0)"/></g><g id="text_5" data-name="text 5"><path id="ArialMT-31-2" data-name="ArialMT-31" d="M10.92,211.62h-.87V206a4.35,4.35,0,0,1-.84.6,6,6,0,0,1-.92.46v-.85a5.32,5.32,0,0,0,1.29-.84,3.23,3.23,0,0,0,.78-1h.56Z" transform="translate(1.58 0)"/><path id="ArialMT-30-3" data-name="ArialMT-30" d="M13.18,208.09a6.43,6.43,0,0,1,.26-2.05,2.55,2.55,0,0,1,.77-1.19,2,2,0,0,1,1.3-.42,2.18,2.18,0,0,1,1,.23,2,2,0,0,1,.72.67,3.38,3.38,0,0,1,.44,1.07,6.89,6.89,0,0,1,.16,1.69,6.3,6.3,0,0,1-.26,2,2.46,2.46,0,0,1-.77,1.2,2.19,2.19,0,0,1-2.93-.32A4.75,4.75,0,0,1,13.18,208.09Zm.9,0a4.58,4.58,0,0,0,.41,2.35,1.25,1.25,0,0,0,1,.58,1.23,1.23,0,0,0,1-.59,6.91,6.91,0,0,0,0-4.69,1.23,1.23,0,0,0-1-.58,1.15,1.15,0,0,0-1,.51A4.58,4.58,0,0,0,14.08,208.09Z" transform="translate(1.58 0)"/></g></g><g id="xtick_6" data-name="xtick 6"><g id="line2d_6" data-name="line2d 6"><path id="me55c6fb2a6" class="cls-4" d="M198.3,197.46v2" transform="translate(1.58 0)"/></g></g><g id="xtick_7" data-name="xtick 7"><g id="line2d_7" data-name="line2d 7"><path id="me55c6fb2a6-2" data-name="me55c6fb2a6" class="cls-4" d="M188.53,197.46v2" transform="translate(1.58 0)"/></g></g><g id="xtick_8" data-name="xtick 8"><g id="line2d_8" data-name="line2d 8"><path id="me55c6fb2a6-3" data-name="me55c6fb2a6" class="cls-4" d="M178.77,197.46v2" transform="translate(1.58 0)"/></g></g><g id="xtick_9" data-name="xtick 9"><g id="line2d_9" data-name="line2d 9"><path id="me55c6fb2a6-4" data-name="me55c6fb2a6" class="cls-4" d="M169,197.46v2" transform="translate(1.58 0)"/></g></g><g id="xtick_10" data-name="xtick 10"><g id="line2d_10" data-name="line2d 10"><path id="me55c6fb2a6-5" data-name="me55c6fb2a6" class="cls-4" d="M149.47,197.46v2" transform="translate(1.58 0)"/></g></g><g id="xtick_11" data-name="xtick 11"><g id="line2d_11" data-name="line2d 11"><path id="me55c6fb2a6-6" data-name="me55c6fb2a6" class="cls-4" d="M139.71,197.46v2" transform="translate(1.58 0)"/></g></g><g id="xtick_12" data-name="xtick 12"><g id="line2d_12" data-name="line2d 12"><path id="me55c6fb2a6-7" data-name="me55c6fb2a6" class="cls-4" d="M129.94,197.46v2" transform="translate(1.58 0)"/></g></g><g id="xtick_13" data-name="xtick 13"><g id="line2d_13" data-name="line2d 13"><path id="me55c6fb2a6-8" data-name="me55c6fb2a6" class="cls-4" d="M120.18,197.46v2" transform="translate(1.58 0)"/></g></g><g id="xtick_14" data-name="xtick 14"><g id="line2d_14" data-name="line2d 14"><path id="me55c6fb2a6-9" data-name="me55c6fb2a6" class="cls-4" d="M100.65,197.46v2" transform="translate(1.58 0)"/></g></g><g id="xtick_15" data-name="xtick 15"><g id="line2d_15" data-name="line2d 15"><path id="me55c6fb2a6-10" data-name="me55c6fb2a6" class="cls-4" d="M90.88,197.46v2" transform="translate(1.58 0)"/></g></g><g id="xtick_16" data-name="xtick 16"><g id="line2d_16" data-name="line2d 16"><path id="me55c6fb2a6-11" data-name="me55c6fb2a6" class="cls-4" d="M81.12,197.46v2" transform="translate(1.58 0)"/></g></g><g id="xtick_17" data-name="xtick 17"><g id="line2d_17" data-name="line2d 17"><path id="me55c6fb2a6-12" data-name="me55c6fb2a6" class="cls-4" d="M71.35,197.46v2" transform="translate(1.58 0)"/></g></g><g id="xtick_18" data-name="xtick 18"><g id="line2d_18" data-name="line2d 18"><path id="me55c6fb2a6-13" data-name="me55c6fb2a6" class="cls-4" d="M51.82,197.46v2" transform="translate(1.58 0)"/></g></g><g id="xtick_19" data-name="xtick 19"><g id="line2d_19" data-name="line2d 19"><path id="me55c6fb2a6-14" data-name="me55c6fb2a6" class="cls-4" d="M42.06,197.46v2" transform="translate(1.58 0)"/></g></g><g id="xtick_20" data-name="xtick 20"><g id="line2d_20" data-name="line2d 20"><path id="me55c6fb2a6-15" data-name="me55c6fb2a6" class="cls-4" d="M32.29,197.46v2" transform="translate(1.58 0)"/></g></g><g id="xtick_21" data-name="xtick 21"><g id="line2d_21" data-name="line2d 21"><path id="me55c6fb2a6-16" data-name="me55c6fb2a6" class="cls-4" d="M22.53,197.46v2" transform="translate(1.58 0)"/></g></g><g id="text_6" data-name="text 6"><path id="ArialMT-43" d="M54.46,224.28l1.33.34a4.47,4.47,0,0,1-1.5,2.49,4.15,4.15,0,0,1-2.65.86,4.78,4.78,0,0,1-2.64-.66,4.15,4.15,0,0,1-1.54-1.91,6.9,6.9,0,0,1-.53-2.69,5.91,5.91,0,0,1,.6-2.73,4,4,0,0,1,1.7-1.77,5,5,0,0,1,2.43-.6,4.11,4.11,0,0,1,2.53.76,4,4,0,0,1,1.43,2.15l-1.31.31a3.07,3.07,0,0,0-1-1.59,2.72,2.72,0,0,0-1.67-.5,3.24,3.24,0,0,0-1.93.55,2.93,2.93,0,0,0-1.09,1.49,5.94,5.94,0,0,0-.31,1.92,6.11,6.11,0,0,0,.37,2.24,2.75,2.75,0,0,0,1.16,1.42,3.18,3.18,0,0,0,1.7.47,2.87,2.87,0,0,0,1.89-.64A3.29,3.29,0,0,0,54.46,224.28Z" transform="translate(1.58 0)"/><path id="ArialMT-68" d="M57.27,227.8v-10h1.22v3.59a2.78,2.78,0,0,1,2.18-1,3,3,0,0,1,1.4.32,1.85,1.85,0,0,1,.85.88,4,4,0,0,1,.26,1.63v4.6H62v-4.6a1.9,1.9,0,0,0-.4-1.35,1.5,1.5,0,0,0-1.13-.42,2,2,0,0,0-1,.29,1.61,1.61,0,0,0-.69.77,3.42,3.42,0,0,0-.21,1.33v4Z" transform="translate(1.58 0)"/><path id="ArialMT-65" d="M70,225.46l1.27.16a3.12,3.12,0,0,1-1.11,1.73,3.8,3.8,0,0,1-4.61-.37,3.83,3.83,0,0,1-.93-2.75,4,4,0,0,1,.94-2.84,3.19,3.19,0,0,1,2.45-1,3.1,3.1,0,0,1,2.38,1,3.91,3.91,0,0,1,.92,2.79v.33H65.91a2.77,2.77,0,0,0,.68,1.83,2,2,0,0,0,1.52.64,1.86,1.86,0,0,0,1.15-.36A2.32,2.32,0,0,0,70,225.46Zm-4-2h4a2.36,2.36,0,0,0-.46-1.37,1.86,1.86,0,0,0-1.52-.71,1.94,1.94,0,0,0-1.43.56A2.24,2.24,0,0,0,66,223.47Z" transform="translate(1.58 0)"/><path id="ArialMT-6d" d="M72.84,227.8v-7.26h1.1v1a2.58,2.58,0,0,1,2.2-1.19,2.31,2.31,0,0,1,1.32.34,1.74,1.74,0,0,1,.73.93,2.63,2.63,0,0,1,2.24-1.27,2.19,2.19,0,0,1,1.66.6,2.54,2.54,0,0,1,.58,1.84v5H81.45v-4.58a3.36,3.36,0,0,0-.12-1.06,1,1,0,0,0-.43-.52,1.39,1.39,0,0,0-.74-.2,1.7,1.7,0,0,0-1.27.51,2.23,2.23,0,0,0-.51,1.63v4.22H77.15v-4.72a2.06,2.06,0,0,0-.3-1.23,1.15,1.15,0,0,0-1-.41,1.84,1.84,0,0,0-1,.27,1.58,1.58,0,0,0-.63.8,4.32,4.32,0,0,0-.2,1.52v3.77Z" transform="translate(1.58 0)"/><path id="ArialMT-69" d="M84.51,219.19v-1.41h1.23v1.41Zm0,8.61v-7.26h1.23v7.26Z" transform="translate(1.58 0)"/><path id="ArialMT-63" d="M92.35,225.14l1.21.15a3.09,3.09,0,0,1-1,2,2.91,2.91,0,0,1-2,.71,3.1,3.1,0,0,1-2.39-1,4,4,0,0,1-.91-2.8,5,5,0,0,1,.39-2.05,2.76,2.76,0,0,1,1.19-1.33,3.56,3.56,0,0,1,1.73-.44,3,3,0,0,1,1.94.6,2.76,2.76,0,0,1,1,1.7l-1.19.19a2,2,0,0,0-.61-1.1,1.55,1.55,0,0,0-1-.37,1.92,1.92,0,0,0-1.51.66,3.17,3.17,0,0,0-.58,2.11,3.27,3.27,0,0,0,.56,2.13,1.82,1.82,0,0,0,1.46.66,1.71,1.71,0,0,0,1.21-.45A2.17,2.17,0,0,0,92.35,225.14Z" transform="translate(1.58 0)"/><path id="ArialMT-61" d="M99.35,226.9a4.63,4.63,0,0,1-1.32.82,3.76,3.76,0,0,1-1.35.24,2.62,2.62,0,0,1-1.84-.58,1.94,1.94,0,0,1-.65-1.5,1.9,1.9,0,0,1,.25-1,2,2,0,0,1,.63-.71,2.88,2.88,0,0,1,.89-.4,7.53,7.53,0,0,1,1.09-.19,11.9,11.9,0,0,0,2.2-.42v-.32a1.33,1.33,0,0,0-.35-1.06,2,2,0,0,0-1.4-.42,2.12,2.12,0,0,0-1.28.31,1.81,1.81,0,0,0-.61,1.07l-1.21-.16a3,3,0,0,1,.54-1.25,2.41,2.41,0,0,1,1.09-.73,4.88,4.88,0,0,1,1.65-.26,4.51,4.51,0,0,1,1.51.22,2,2,0,0,1,.85.55,1.93,1.93,0,0,1,.39.84,7.09,7.09,0,0,1,.06,1.13v1.64a16,16,0,0,0,.08,2.18,2.6,2.6,0,0,0,.31.87H99.59A2.7,2.7,0,0,1,99.35,226.9Zm-.1-2.75a9.35,9.35,0,0,1-2,.47,4.09,4.09,0,0,0-1.08.25,1,1,0,0,0-.48.39,1,1,0,0,0-.18.59,1,1,0,0,0,.38.82A1.6,1.6,0,0,0,97,227a2.61,2.61,0,0,0,1.26-.31,2,2,0,0,0,.82-.86,2.93,2.93,0,0,0,.2-1.22Z" transform="translate(1.58 0)"/><path id="ArialMT-6c" d="M102.37,227.8v-10h1.23v10Z" transform="translate(1.58 0)"/><path id="ArialMT-20" d="M104.58,227.8" transform="translate(1.58 0)"/><path id="ArialMT-73" d="M108.9,225.63l1.22-.19a1.71,1.71,0,0,0,.57,1.12A2,2,0,0,0,112,227a1.93,1.93,0,0,0,1.26-.35,1,1,0,0,0,.41-.81.75.75,0,0,0-.36-.65,5.38,5.38,0,0,0-1.26-.42,12.67,12.67,0,0,1-1.88-.59,1.79,1.79,0,0,1-1.06-1.67,1.81,1.81,0,0,1,.22-.89,1.93,1.93,0,0,1,.61-.69,2.58,2.58,0,0,1,.78-.36,3.62,3.62,0,0,1,1.06-.15,4.07,4.07,0,0,1,1.5.25,2,2,0,0,1,1,.67,2.55,2.55,0,0,1,.43,1.12l-1.2.16a1.35,1.35,0,0,0-.48-.87,1.73,1.73,0,0,0-1.11-.31,2,2,0,0,0-1.21.28.8.8,0,0,0-.36.65.68.68,0,0,0,.15.43,1.16,1.16,0,0,0,.47.33c.12,0,.49.15,1.09.31a15.49,15.49,0,0,1,1.82.58,1.71,1.71,0,0,1,1.1,1.69,2.06,2.06,0,0,1-.36,1.16,2.21,2.21,0,0,1-1,.84,3.73,3.73,0,0,1-1.53.3,3.43,3.43,0,0,1-2.16-.59A2.76,2.76,0,0,1,108.9,225.63Z" transform="translate(1.58 0)"/><path id="ArialMT-68-2" data-name="ArialMT-68" d="M116.4,227.8v-10h1.23v3.59a2.75,2.75,0,0,1,2.17-1,2.92,2.92,0,0,1,1.4.32,1.85,1.85,0,0,1,.85.88,4,4,0,0,1,.26,1.63v4.6h-1.23v-4.6a1.9,1.9,0,0,0-.4-1.35,1.49,1.49,0,0,0-1.13-.42,2,2,0,0,0-1,.29,1.61,1.61,0,0,0-.69.77,3.45,3.45,0,0,0-.2,1.33v4Z" transform="translate(1.58 0)"/><path id="ArialMT-69-2" data-name="ArialMT-69" d="M124.19,219.19v-1.41h1.23v1.41Zm0,8.61v-7.26h1.23v7.26Z" transform="translate(1.58 0)"/><path id="ArialMT-66" d="M127.59,227.8v-6.31H126.5v-1h1.09v-.78a3.24,3.24,0,0,1,.13-1.08,1.58,1.58,0,0,1,.62-.78,2.26,2.26,0,0,1,1.26-.29,6.06,6.06,0,0,1,1.14.12l-.18,1.07a3.75,3.75,0,0,0-.73-.07,1.08,1.08,0,0,0-.79.24,1.34,1.34,0,0,0-.23.9v.67h1.42v1h-1.42v6.31Z" transform="translate(1.58 0)"/><path id="ArialMT-74" d="M133.87,226.7l.18,1.08a4.17,4.17,0,0,1-.93.11,2.1,2.1,0,0,1-1-.21,1.17,1.17,0,0,1-.52-.56,4.39,4.39,0,0,1-.15-1.45v-4.18h-.9v-1h.9v-1.8l1.22-.74v2.54h1.24v1h-1.24v4.25a1.94,1.94,0,0,0,.07.68.49.49,0,0,0,.21.24,1,1,0,0,0,.42.08A4,4,0,0,0,133.87,226.7Z" transform="translate(1.58 0)"/><path id="ArialMT-20-2" data-name="ArialMT-20" d="M134.15,227.8" transform="translate(1.58 0)"/><path id="ArialMT-28" d="M141.31,230.74a12.26,12.26,0,0,1-1.72-3,9.53,9.53,0,0,1-.18-6.69,13.25,13.25,0,0,1,1.9-3.44h.88a22.5,22.5,0,0,0-1.09,2,10.75,10.75,0,0,0-.66,2,11.84,11.84,0,0,0-.29,2.57,12.32,12.32,0,0,0,2,6.57Z" transform="translate(1.58 0)"/><path id="ArialMT-70" d="M143.62,230.58v-10h1.12v.94a2.8,2.8,0,0,1,.9-.83,2.52,2.52,0,0,1,1.21-.28,2.85,2.85,0,0,1,1.64.48,3,3,0,0,1,1.07,1.35,5.18,5.18,0,0,1,0,3.92,3.09,3.09,0,0,1-1.17,1.37,3,3,0,0,1-1.6.47,2.32,2.32,0,0,1-1.1-.26,2.4,2.4,0,0,1-.81-.66v3.54Zm1.12-6.37a3.22,3.22,0,0,0,.56,2.07,1.75,1.75,0,0,0,2.78,0,3.27,3.27,0,0,0,.59-2.15,3.19,3.19,0,0,0-.57-2.07,1.73,1.73,0,0,0-1.37-.69,1.76,1.76,0,0,0-1.39.73A3.31,3.31,0,0,0,144.74,224.21Z" transform="translate(1.58 0)"/><path id="ArialMT-70-2" data-name="ArialMT-70" d="M151.41,230.58v-10h1.12v.94a2.7,2.7,0,0,1,.9-.83,2.49,2.49,0,0,1,1.21-.28,2.87,2.87,0,0,1,1.64.48,3,3,0,0,1,1.07,1.35,5,5,0,0,1,.36,1.91,4.81,4.81,0,0,1-.4,2,3,3,0,0,1-2.76,1.84,2.39,2.39,0,0,1-1.11-.26,2.46,2.46,0,0,1-.8-.66v3.54Zm1.11-6.37a3.16,3.16,0,0,0,.57,2.07,1.74,1.74,0,0,0,1.38.67,1.76,1.76,0,0,0,1.4-.7,3.27,3.27,0,0,0,.58-2.15,3.19,3.19,0,0,0-.57-2.07,1.71,1.71,0,0,0-1.36-.69,1.76,1.76,0,0,0-1.39.73A3.25,3.25,0,0,0,152.52,224.21Z" transform="translate(1.58 0)"/><path id="ArialMT-6d-2" data-name="ArialMT-6d" d="M159.2,227.8v-7.26h1.1v1a2.48,2.48,0,0,1,.9-.86,2.54,2.54,0,0,1,1.3-.33,2.31,2.31,0,0,1,1.32.34,1.79,1.79,0,0,1,.73.93,2.61,2.61,0,0,1,2.24-1.27,2.21,2.21,0,0,1,1.66.6,2.54,2.54,0,0,1,.58,1.84v5h-1.22v-4.58a3.36,3.36,0,0,0-.12-1.06,1,1,0,0,0-.44-.52,1.33,1.33,0,0,0-.73-.2,1.74,1.74,0,0,0-1.28.51,2.27,2.27,0,0,0-.5,1.63v4.22h-1.23v-4.72a2.06,2.06,0,0,0-.3-1.23,1.15,1.15,0,0,0-1-.41,1.84,1.84,0,0,0-1,.27,1.65,1.65,0,0,0-.64.8,4.61,4.61,0,0,0-.19,1.52v3.77Z" transform="translate(1.58 0)"/><path id="ArialMT-29" d="M171.67,230.74h-.89a12.24,12.24,0,0,0,2.05-6.57,11.1,11.1,0,0,0-.3-2.55,10,10,0,0,0-.65-2,19.52,19.52,0,0,0-1.1-2h.89a13.21,13.21,0,0,1,1.89,3.44,9.05,9.05,0,0,1,.53,3.12,9.17,9.17,0,0,1-.71,3.57A12.57,12.57,0,0,1,171.67,230.74Z" transform="translate(1.58 0)"/></g></g><g id="line2d_29" data-name="line2d 29"><g class="cls-5"><path class="cls-6" d="M-1,178.16l.82.15,1.33.53,1.18.39.88.05,1-.19L6,178.46l2.06-.92,1.62-1,4.42-3.17,3.68-2.82L19.85,169l2.21-1.71,2.8-1.84.88-1,4.13-5.11,4.27-4.43,1-1,.88-1.21,1.33-2.29,1.47-2.44,3.39-5,5.89-11.59,1.18-3.2,1.17-3.84,1.18-4.57,2.06-9.15,2.21-9.35,2.07-9,1.76-8.86,1.77-10L63.89,58.5,66,46l1-5.12.88-3.34L68.45,36,69,35l.44-.36.44-.07.45.2.59.59.73,1.11L73,39l4.27,8.52.88,1,.89.66.88.39.74.12.73-.12.59-.32.59-.54.74-1,1-1.83L86,42.42,91.87,29.5l2.35-5,1.62-3.15,1.62-2.64,1.33-1.79.74-.68.58-.3.59-.09.74.15,1,.52,2.06,1.3.89.84.73,1,.74,1.39.88,2.16,1,3.18,1.33,5,6.92,27.49,1.62,5.54,2.8,8.73.59,1.14.44.45.29.08.3-.08.44-.4.74-1.14.73-1,.44-.23.3.11.29.36.45,1.06.44,1.68.59,3.11,1,6.94L130.16,96l1,5.28,1,4.13,1.18,3.75,1,2.54.88,1.63,1,1.43,2.36,3.08,1.47,2.38,1.77,3.31,1.62,2.94,1,1.42,3.83,4.63,1.47,1.88,2.06,2.5,2.36,3.27.59.4.59.12.73-.15,1.48-.45.73.06.89.35,1.32.55.74.08.74-.13,1-.43,3.38-1.6.74,0,.74.19.88.48,2.06,1.29.88.26,1.18.1,3,.17,1.18.32,1.47.67,1.18.49.88.12,1.33-.1h1l.73.22.89.52,1.62,1.31L189.8,148l3.24,3.16,1.33,1.74,3.53,4.92,1,1,.74.38.59.08.73-.18,1.62-.64.45.06.44.26.59.69.59,1.06,1,2.45,1.47,3.44.88,1.48,1,1.23,2.51,2.39,1.32,1,1.48.82,1.91,1.1,2.36,1.42,1.17.4,1.33.18,3.57.31h0" transform="translate(1.58 0)"/></g></g><g id="patch_3" data-name="patch 3"><path class="cls-7" d="M12.76,197.46V7.2" transform="translate(1.58 0)"/></g><g id="patch_4" data-name="patch 4"><path class="cls-7" d="M12.76,197.46h195.3" transform="translate(1.58 0)"/></g></g></g></g><g id="Other_Lable" data-name="Other Lable"><path d="M16.69,11.37l.71-.09a1.68,1.68,0,0,0,.42.88,1,1,0,0,0,.73.27,1.15,1.15,0,0,0,.85-.35,1.18,1.18,0,0,0,.35-.87,1.1,1.1,0,0,0-1.14-1.14,2.2,2.2,0,0,0-.51.08l.08-.63h.12a1.46,1.46,0,0,0,.82-.24.81.81,0,0,0,.37-.74.86.86,0,0,0-.27-.65,1,1,0,0,0-.69-.26,1,1,0,0,0-.7.26,1.35,1.35,0,0,0-.35.79l-.72-.12a1.83,1.83,0,0,1,.6-1.12,1.69,1.69,0,0,1,1.16-.4,1.9,1.9,0,0,1,.88.21,1.38,1.38,0,0,1,.61.56,1.43,1.43,0,0,1,.22.75,1.22,1.22,0,0,1-.21.69,1.29,1.29,0,0,1-.6.49,1.39,1.39,0,0,1,.81.5,1.5,1.5,0,0,1,.28.94,1.74,1.74,0,0,1-.55,1.3,2,2,0,0,1-1.42.53,1.8,1.8,0,0,1-1.27-.46A1.72,1.72,0,0,1,16.69,11.37Z" transform="translate(1.58 0)"/><path d="M23.92,12.92h-.71V8.35a4,4,0,0,1-.68.49,4,4,0,0,1-.76.37V8.52a4.34,4.34,0,0,0,1.05-.69,2.68,2.68,0,0,0,.64-.78h.46Z" transform="translate(1.58 0)"/><path d="M26.5,17.58v-10h3.78a9.73,9.73,0,0,1,1.53.09A3.1,3.1,0,0,1,33,8.12a2.36,2.36,0,0,1,.81,1,3.09,3.09,0,0,1,.3,1.37,3.08,3.08,0,0,1-.81,2.16,3.9,3.9,0,0,1-2.94.89H27.83v4.07Zm1.33-5.26h2.59a2.72,2.72,0,0,0,1.82-.48,1.68,1.68,0,0,0,.54-1.34,1.83,1.83,0,0,0-.31-1.08,1.52,1.52,0,0,0-.84-.59,5.62,5.62,0,0,0-1.24-.09H27.83Z" transform="translate(1.58 0)"/></g><g id="Names"><path class="cls-8" d="M152.62,18.28V11.13h.83v2.94h3.23V11.13h.83v7.15h-.83V14.91h-3.23v3.37Z" transform="translate(1.58 0)"/><path class="cls-8" d="M158.79,12.14v-1h.76v1Zm0,6.14V13.1h.76v5.18Z" transform="translate(1.58 0)"/><path class="cls-8" d="M160.58,18.71l.74.13a.88.88,0,0,0,.26.58,1.17,1.17,0,0,0,.78.24,1.25,1.25,0,0,0,.82-.24,1.27,1.27,0,0,0,.39-.69,5.82,5.82,0,0,0,.05-1.12,1.49,1.49,0,0,1-1.24.67,1.62,1.62,0,0,1-1.45-.77,3.27,3.27,0,0,1-.51-1.85,3.83,3.83,0,0,1,.24-1.37,2.06,2.06,0,0,1,.68-1,1.68,1.68,0,0,1,1-.34,1.58,1.58,0,0,1,1.32.74V13.1h.7v4.48a5,5,0,0,1-.21,1.72,1.82,1.82,0,0,1-.68.8,2.16,2.16,0,0,1-1.15.29,1.93,1.93,0,0,1-1.3-.42A1.52,1.52,0,0,1,160.58,18.71Zm.63-3.11a2.53,2.53,0,0,0,.35,1.49,1.07,1.07,0,0,0,1.77,0,2.39,2.39,0,0,0,.36-1.46,2.32,2.32,0,0,0-.37-1.44,1.08,1.08,0,0,0-.89-.48,1,1,0,0,0-.86.48A2.29,2.29,0,0,0,161.21,15.6Z" transform="translate(1.58 0)"/><path class="cls-8" d="M165.56,18.28V11.13h.76v2.56a1.64,1.64,0,0,1,1.35-.71,1.67,1.67,0,0,1,.88.23,1.31,1.31,0,0,1,.53.63,3.42,3.42,0,0,1,.15,1.16v3.28h-.76V15a1.47,1.47,0,0,0-.25-1,.87.87,0,0,0-.7-.3,1.15,1.15,0,0,0-.64.2,1.17,1.17,0,0,0-.43.55,3,3,0,0,0-.13,1v2.83Z" transform="translate(1.58 0)"/><path class="cls-8" d="M170.1,16.14v-.89h2.35v.89Z" transform="translate(1.58 0)"/><path class="cls-8" d="M172.71,18.28l2.39-7.15H176l2.55,7.15h-.94l-.72-2.16h-2.61l-.68,2.16Zm1.8-2.93h2.11l-.65-2c-.2-.6-.35-1.09-.44-1.48a9.79,9.79,0,0,1-.34,1.37Z" transform="translate(1.58 0)"/><path class="cls-8" d="M179.09,18.28V11.13h.76v7.15Z" transform="translate(1.58 0)"/><path class="cls-8" d="M184,18.28v-.76a1.59,1.59,0,0,1-1.43.88,1.71,1.71,0,0,1-.74-.17,1.29,1.29,0,0,1-.52-.45,1.66,1.66,0,0,1-.23-.65,5.08,5.08,0,0,1,0-.82V13.1h.76V16a5.93,5.93,0,0,0,.05.93.94.94,0,0,0,.31.55.85.85,0,0,0,.57.19,1.11,1.11,0,0,0,.65-.2,1.07,1.07,0,0,0,.43-.55,3.26,3.26,0,0,0,.12-1V13.1h.77v5.18Z" transform="translate(1.58 0)"/><path class="cls-8" d="M185.88,18.28V13.1h.68v.73a1.7,1.7,0,0,1,.57-.62,1.44,1.44,0,0,1,.8-.23,1.33,1.33,0,0,1,.82.24,1.19,1.19,0,0,1,.45.67,1.6,1.6,0,0,1,1.4-.91,1.25,1.25,0,0,1,1,.43,2,2,0,0,1,.36,1.31v3.56h-.76V15a2.76,2.76,0,0,0-.07-.76.68.68,0,0,0-.27-.37.75.75,0,0,0-.46-.15,1,1,0,0,0-.79.37,1.75,1.75,0,0,0-.32,1.16v3h-.76V14.92a1.58,1.58,0,0,0-.19-.88.66.66,0,0,0-.61-.3,1,1,0,0,0-.6.2,1.16,1.16,0,0,0-.4.57,3.73,3.73,0,0,0-.12,1.08v2.69Z" transform="translate(1.58 0)"/><path class="cls-8" d="M193.13,12.14v-1h.77v1Zm0,6.14V13.1h.77v5.18Z" transform="translate(1.58 0)"/><path class="cls-8" d="M195.06,18.28V13.1h.69v.74a1.58,1.58,0,0,1,1.44-.86,1.72,1.72,0,0,1,.75.17,1.3,1.3,0,0,1,.51.44,2,2,0,0,1,.24.65,7.46,7.46,0,0,1,0,.86v3.18H198V15.13a2.61,2.61,0,0,0-.09-.8.84.84,0,0,0-.31-.43,1,1,0,0,0-.54-.16,1.15,1.15,0,0,0-.84.36,1.92,1.92,0,0,0-.35,1.35v2.83Z" transform="translate(1.58 0)"/><path class="cls-8" d="M202.86,18.28v-.76a1.6,1.6,0,0,1-1.43.88,1.72,1.72,0,0,1-.75-.17,1.26,1.26,0,0,1-.51-.45,1.66,1.66,0,0,1-.24-.65,5.08,5.08,0,0,1-.05-.82V13.1h.77V16a4.87,4.87,0,0,0,0,.93.93.93,0,0,0,.3.55.88.88,0,0,0,.58.19,1.13,1.13,0,0,0,.65-.2,1.05,1.05,0,0,0,.42-.55,2.94,2.94,0,0,0,.13-1V13.1h.76v5.18Z" transform="translate(1.58 0)"/><path class="cls-8" d="M204.74,18.28V13.1h.69v.73a1.76,1.76,0,0,1,.56-.62,1.47,1.47,0,0,1,.8-.23,1.36,1.36,0,0,1,.83.24,1.29,1.29,0,0,1,.45.67,1.58,1.58,0,0,1,1.39-.91,1.29,1.29,0,0,1,1,.43,2,2,0,0,1,.36,1.31v3.56h-.76V15a2.67,2.67,0,0,0-.08-.76.68.68,0,0,0-.27-.37.73.73,0,0,0-.46-.15,1,1,0,0,0-.79.37,1.75,1.75,0,0,0-.31,1.16v3h-.77V14.92a1.68,1.68,0,0,0-.18-.88.68.68,0,0,0-.62-.3,1,1,0,0,0-.59.2,1,1,0,0,0-.4.57,3.73,3.73,0,0,0-.12,1.08v2.69Z" transform="translate(1.58 0)"/></g></svg>