<?xml version="1.0" encoding="utf-8"?>
<!-- Generator: Adobe Illustrator 26.0.1, SVG Export Plug-In . SVG Version: 6.00 Build 0)  -->
<svg version="1.1" id="Layer_1" xmlns="http://www.w3.org/2000/svg" xmlns:xlink="http://www.w3.org/1999/xlink" x="0px" y="0px"
	 viewBox="0 0 230.2 237.9" style="enable-background:new 0 0 230.2 237.9;" xml:space="preserve">
<style type="text/css">
	.st0{fill:#FFFFFF;}
	.st1{stroke:#000000;stroke-width:0.8;stroke-linejoin:round;}
	
		.st2{clip-path:url(#SVGID_00000108293945178559776950000007998371972891240325_);fill:none;stroke:#58A265;stroke-linecap:square;stroke-linejoin:round;}
	
		.st3{clip-path:url(#SVGID_00000128480591844331375420000010326164748351612053_);fill:none;stroke:#0E0E77;stroke-linecap:square;stroke-linejoin:round;}
	
		.st4{clip-path:url(#SVGID_00000119817284393244578240000009121683481937157547_);fill:none;stroke:#000000;stroke-linecap:square;stroke-linejoin:round;}
	
		.st5{clip-path:url(#SVGID_00000026850899287841289880000009761819143865927086_);fill:none;stroke:#626161;stroke-linecap:square;stroke-linejoin:round;}
	.st6{fill:none;stroke:#000000;stroke-width:0.8;stroke-linecap:square;}
	.st7{display:none;}
	.st8{display:inline;fill:#FFFFFF;}
	
		.st9{clip-path:url(#SVGID_00000160188682115546805120000005450802870199693755_);fill:none;stroke:#0E0E77;stroke-linecap:square;stroke-linejoin:round;}
</style>
<g id="figure_1">
	<g id="patch_1">
		<path class="st0" d="M0,237.9h230.2V0H0V237.9z"/>
	</g>
	<g id="axes_1">
		<g id="patch_2">
			<path class="st0" d="M27.7,197.5H223V7.2H27.7V197.5z"/>
		</g>
		<g id="matplotlib.axis_1">
			<g id="xtick_1">
				<g id="line2d_1">
					<g>
						<g>
							<path id="mfbfff7cfd5" class="st1" d="M198.6,197.5v3.5"/>
						</g>
					</g>
				</g>
				<g id="text_1">
					<g transform="translate(190.07375 211.617813) scale(0.1 -0.1)">
						<g>
							<path id="ArialMT-2212" d="M52.8,31.2H5.6v8.2h47.3V31.2z"/>
						</g>
						<g>
							<path id="ArialMT-32" d="M108.7,8.5V0H61.4c-0.1,2.1,0.3,4.2,1,6.1c1.2,3.2,3.1,6.4,5.8,9.5c2.7,3.1,6.5,6.7,11.5,10.8
								c7.8,6.4,13,11.4,15.8,15.2c2.7,3.7,4.1,7.3,4.1,10.6c0,3.5-1.2,6.4-3.8,8.8c-2.5,2.4-5.7,3.6-9.7,3.6
								c-4.2,0-7.6-1.3-10.2-3.8c-2.5-2.5-3.8-6-3.9-10.5l-9,0.9c0.6,6.7,2.9,11.9,7,15.4c4,3.5,9.5,5.3,16.3,5.3
								c6.9,0,12.3-1.9,16.3-5.7c4-3.8,6-8.5,6-14.2c0-2.9-0.6-5.7-1.8-8.5c-1.2-2.8-3.1-5.7-5.8-8.7s-7.2-7.3-13.5-12.6
								c-5.3-4.4-8.7-7.4-10.2-9c-1.5-1.6-2.7-3.2-3.7-4.8H108.7z"/>
						</g>
						<g>
							<path id="ArialMT-30" d="M118.2,35.3c0,8.5,0.9,15.3,2.6,20.4c1.7,5.2,4.3,9.1,7.8,11.9c3.4,2.8,7.8,4.2,13,4.2
								c3.8,0,7.2-0.8,10.1-2.3c2.9-1.5,5.3-3.8,7.2-6.7c1.9-2.9,3.4-6.5,4.5-10.6c1.1-4.2,1.6-9.8,1.6-16.9
								c0-8.4-0.9-15.2-2.6-20.3c-1.7-5.2-4.3-9.1-7.7-12c-3.4-2.8-7.8-4.2-13-4.2c-6.9,0-12.3,2.5-16.2,7.4
								C120.5,12.2,118.2,21.9,118.2,35.3z M127.2,35.3c0-11.8,1.4-19.6,4.1-23.5c2.8-3.9,6.1-5.8,10.2-5.8c4,0,7.4,2,10.2,5.9
								s4.1,11.7,4.1,23.4c0,11.8-1.4,19.6-4.1,23.5c-2.8,3.9-6.2,5.8-10.3,5.8c-4,0-7.3-1.7-9.7-5.1
								C128.7,55.1,127.2,47.1,127.2,35.3z"/>
						</g>
					</g>
				</g>
			</g>
			<g id="xtick_2">
				<g id="line2d_2">
					<g>
						<g>
							<path id="mfbfff7cfd5_00000049914239747682351840000008162213931969870220_" class="st1" d="M149.7,197.5v3.5"/>
						</g>
					</g>
				</g>
				<g id="text_2">
					<g transform="translate(141.24875 211.617813) scale(0.1 -0.1)">
						<g>
							<path id="ArialMT-2212_00000067224663060031376820000003874617594443419806_" d="M52.8,31.2H5.6v8.2h47.3V31.2z"/>
						</g>
						<g>
							<path id="ArialMT-31" d="M95.6,0h-8.8v56c-2.1-2-4.9-4-8.3-6s-6.5-3.5-9.2-4.5v8.5c4.9,2.3,9.2,5.1,12.9,8.4
								c3.7,3.3,6.3,6.5,7.8,9.6h5.7V0z"/>
						</g>
						<g>
							<path id="ArialMT-30_00000102523957775777212980000016009139913404147352_" d="M118.2,35.3c0,8.5,0.9,15.3,2.6,20.4
								c1.7,5.2,4.3,9.1,7.8,11.9c3.4,2.8,7.8,4.2,13,4.2c3.8,0,7.2-0.8,10.1-2.3c2.9-1.5,5.3-3.8,7.2-6.7c1.9-2.9,3.4-6.5,4.5-10.6
								c1.1-4.2,1.6-9.8,1.6-16.9c0-8.4-0.9-15.2-2.6-20.3c-1.7-5.2-4.3-9.1-7.7-12c-3.4-2.8-7.8-4.2-13-4.2
								c-6.9,0-12.3,2.5-16.2,7.4C120.5,12.2,118.2,21.9,118.2,35.3z M127.2,35.3c0-11.8,1.4-19.6,4.1-23.5
								c2.8-3.9,6.1-5.8,10.2-5.8c4,0,7.4,2,10.2,5.9s4.1,11.7,4.1,23.4c0,11.8-1.4,19.6-4.1,23.5c-2.8,3.9-6.2,5.8-10.3,5.8
								c-4,0-7.3-1.7-9.7-5.1C128.7,55.1,127.2,47.1,127.2,35.3z"/>
						</g>
					</g>
				</g>
			</g>
			<g id="xtick_3">
				<g id="line2d_3">
					<g>
						<g>
							<path id="mfbfff7cfd5_00000060028250004399549710000005105561815599823774_" class="st1" d="M100.9,197.5v3.5"/>
						</g>
					</g>
				</g>
				<g id="text_3">
					<g transform="translate(98.124531 211.617813) scale(0.1 -0.1)">
						<g>
							<path id="ArialMT-30_00000077322974652637235190000005384648544557607327_" d="M4.2,35.3c0,8.5,0.9,15.3,2.6,20.4
								c1.7,5.2,4.3,9.1,7.8,11.9c3.4,2.8,7.8,4.2,13,4.2c3.8,0,7.2-0.8,10.1-2.3c2.9-1.5,5.3-3.8,7.2-6.7c1.9-2.9,3.4-6.5,4.5-10.6
								c1.1-4.2,1.6-9.8,1.6-16.9c0-8.4-0.9-15.2-2.6-20.3c-1.7-5.2-4.3-9.1-7.7-12c-3.4-2.8-7.8-4.2-13-4.2
								c-6.9,0-12.3,2.5-16.2,7.4C6.5,12.2,4.2,21.9,4.2,35.3z M13.2,35.3c0-11.8,1.4-19.6,4.1-23.5C20.1,7.9,23.5,6,27.5,6
								c4,0,7.4,2,10.2,5.9s4.1,11.7,4.1,23.4c0,11.8-1.4,19.6-4.1,23.5c-2.8,3.9-6.2,5.8-10.3,5.8c-4,0-7.3-1.7-9.7-5.1
								C14.7,55.1,13.2,47.1,13.2,35.3z"/>
						</g>
					</g>
				</g>
			</g>
			<g id="xtick_4">
				<g id="line2d_4">
					<g>
						<g>
							<path id="mfbfff7cfd5_00000070113080660032333260000017427902665848793259_" class="st1" d="M52.1,197.5v3.5"/>
						</g>
					</g>
				</g>
				<g id="text_4">
					<g transform="translate(46.519063 211.617813) scale(0.1 -0.1)">
						<g>
							<path id="ArialMT-31_00000065778292152440929140000011249904701625805473_" d="M37.3,0h-8.8v56c-2.1-2-4.9-4-8.3-6
								s-6.5-3.5-9.2-4.5v8.5c4.9,2.3,9.2,5.1,12.9,8.4c3.7,3.3,6.3,6.5,7.8,9.6h5.7V0z"/>
						</g>
						<g>
							<path id="ArialMT-30_00000135663044736231503520000004947704273856598448_" d="M59.8,35.3c0,8.5,0.9,15.3,2.6,20.4
								c1.7,5.2,4.3,9.1,7.8,11.9c3.4,2.8,7.8,4.2,13,4.2c3.8,0,7.2-0.8,10.1-2.3c2.9-1.5,5.3-3.8,7.2-6.7c1.9-2.9,3.4-6.5,4.5-10.6
								c1.1-4.2,1.6-9.8,1.6-16.9c0-8.4-0.9-15.2-2.6-20.3c-1.7-5.2-4.3-9.1-7.7-12c-3.4-2.8-7.8-4.2-13-4.2
								c-6.9,0-12.3,2.5-16.2,7.4C62.1,12.2,59.8,21.9,59.8,35.3z M68.8,35.3c0-11.8,1.4-19.6,4.1-23.5C75.7,7.9,79.1,6,83.1,6
								c4,0,7.4,2,10.2,5.9s4.1,11.7,4.1,23.4c0,11.8-1.4,19.6-4.1,23.5c-2.8,3.9-6.2,5.8-10.3,5.8c-4,0-7.3-1.7-9.7-5.1
								C70.3,55.1,68.8,47.1,68.8,35.3z"/>
						</g>
					</g>
				</g>
			</g>
			<g id="text_5">
				<g transform="translate(61.138438 227.796875) scale(0.14 -0.14)">
					<g>
						<path id="ArialMT-43" d="M58.8,25.1l9.5-2.4c-2-7.8-5.6-13.7-10.7-17.8S46.1-1.2,38.6-1.2c-7.7,0-14,1.6-18.8,4.7
							c-4.8,3.1-8.5,7.7-11,13.7S5,29.5,5,36.3c0,7.5,1.4,14,4.3,19.5c2.9,5.6,6.9,9.8,12.2,12.6c5.3,2.9,11,4.3,17.4,4.3
							c7.2,0,13.2-1.8,18.1-5.5c4.9-3.6,8.3-8.8,10.2-15.4l-9.3-2.2c-1.7,5.2-4.1,9-7.2,11.4c-3.2,2.4-7.1,3.6-11.9,3.6
							c-5.5,0-10.1-1.3-13.8-4c-3.7-2.6-6.3-6.2-7.8-10.6c-1.5-4.4-2.2-9-2.2-13.7c0-6.1,0.9-11.4,2.7-15.9
							c1.8-4.5,4.5-7.9,8.3-10.2c3.8-2.2,7.8-3.4,12.2-3.4c5.3,0,9.8,1.5,13.5,4.6C55,14.5,57.5,19.1,58.8,25.1z"/>
					</g>
					<g>
						<path id="ArialMT-68" d="M78.8,0v71.6h8.8V45.9c4.1,4.8,9.3,7.1,15.5,7.1c3.8,0,7.2-0.8,10-2.3c2.8-1.5,4.9-3.6,6.1-6.3
							s1.8-6.5,1.8-11.6V0h-8.8v32.9c0,4.4-1,7.6-2.9,9.6s-4.6,3-8.1,3c-2.6,0-5.1-0.7-7.4-2c-2.3-1.3-3.9-3.2-4.9-5.5
							c-1-2.3-1.5-5.5-1.5-9.6V0H78.8z"/>
					</g>
					<g>
						<path id="ArialMT-65" d="M169.9,16.7l9.1-1.1c-1.4-5.3-4.1-9.4-8-12.4c-3.9-2.9-8.8-4.4-14.8-4.4c-7.6,0-13.6,2.3-18,7
							c-4.4,4.7-6.7,11.2-6.7,19.7c0,8.7,2.2,15.5,6.7,20.3c4.5,4.8,10.3,7.2,17.5,7.2c6.9,0,12.6-2.4,17-7.1
							c4.4-4.7,6.6-11.4,6.6-19.9c0-0.5,0-1.3,0-2.3h-38.7c0.3-5.7,1.9-10.1,4.8-13.1c2.9-3,6.5-4.5,10.8-4.5c3.2,0,6,0.8,8.2,2.5
							C166.8,10.3,168.6,13,169.9,16.7z M141.1,30.9h29c-0.4,4.4-1.5,7.6-3.3,9.8c-2.8,3.4-6.4,5.1-10.9,5.1c-4,0-7.4-1.3-10.2-4
							S141.4,35.4,141.1,30.9z"/>
					</g>
					<g>
						<path id="ArialMT-6d" d="M190,0v51.9h7.9v-7.3c1.6,2.5,3.8,4.6,6.5,6.1c2.7,1.6,5.8,2.3,9.2,2.3c3.8,0,7-0.8,9.5-2.4
							c2.5-1.6,4.2-3.8,5.2-6.7c4.1,6.1,9.4,9.1,16,9.1c5.1,0,9.1-1.4,11.9-4.3c2.8-2.8,4.2-7.2,4.2-13.2V0h-8.8v32.7
							c0,3.5-0.3,6-0.9,7.6c-0.6,1.6-1.6,2.8-3.1,3.7c-1.5,0.9-3.2,1.4-5.3,1.4c-3.6,0-6.7-1.2-9.1-3.6c-2.4-2.4-3.6-6.3-3.6-11.6V0
							h-8.8v33.7c0,3.9-0.7,6.8-2.2,8.8c-1.4,2-3.8,2.9-7,2.9c-2.5,0-4.8-0.7-6.9-2c-2.1-1.3-3.6-3.2-4.6-5.7
							c-0.9-2.5-1.4-6.1-1.4-10.8V0H190z"/>
					</g>
					<g>
						<path id="ArialMT-69" d="M273.4,61.5v10.1h8.8V61.5H273.4z M273.4,0v51.9h8.8V0H273.4z"/>
					</g>
					<g>
						<path id="ArialMT-63" d="M329.4,19l8.6-1.1c-0.9-6-3.4-10.6-7.3-14c-3.9-3.4-8.7-5-14.3-5c-7.1,0-12.8,2.3-17.1,7
							c-4.3,4.6-6.5,11.3-6.5,20c0,5.6,0.9,10.5,2.8,14.7c1.9,4.2,4.7,7.4,8.5,9.5c3.8,2.1,7.9,3.2,12.4,3.2
							c5.6,0,10.2-1.4,13.8-4.3c3.6-2.8,5.9-6.9,6.9-12.1l-8.5-1.3c-0.8,3.5-2.3,6.1-4.3,7.9c-2.1,1.8-4.6,2.6-7.5,2.6
							c-4.4,0-8-1.6-10.8-4.8c-2.8-3.2-4.1-8.2-4.1-15c0-7,1.3-12,4-15.2c2.7-3.2,6.2-4.7,10.5-4.7c3.4,0,6.3,1.1,8.6,3.2
							S328.8,14.6,329.4,19z"/>
					</g>
					<g>
						<path id="ArialMT-61" d="M379.4,6.4c-3.3-2.8-6.4-4.7-9.4-5.9c-3-1.1-6.2-1.7-9.7-1.7c-5.7,0-10.1,1.4-13.1,4.2
							s-4.6,6.3-4.6,10.7c0,2.5,0.6,4.9,1.7,7c1.2,2.1,2.7,3.8,4.5,5.1s4,2.2,6.3,2.9c1.7,0.5,4.3,0.9,7.8,1.3
							c7.1,0.8,12.3,1.8,15.7,3c0,1.2,0,2,0,2.3c0,3.6-0.8,6.1-2.5,7.6c-2.2,2-5.6,3-10,3c-4.1,0-7.2-0.7-9.2-2.2s-3.4-4-4.4-7.7
							l-8.6,1.2c0.8,3.7,2.1,6.6,3.9,8.9s4.4,4,7.8,5.2c3.4,1.2,7.3,1.8,11.8,1.8c4.4,0,8-0.5,10.8-1.6c2.8-1,4.8-2.4,6.1-3.9
							c1.3-1.6,2.2-3.6,2.7-6c0.3-1.5,0.4-4.2,0.4-8.1V21.7c0-8.2,0.2-13.3,0.6-15.5c0.4-2.2,1.1-4.2,2.2-6.2h-9.2
							C380.2,1.8,379.7,4,379.4,6.4z M378.7,26c-3.2-1.3-8-2.4-14.4-3.3c-3.6-0.5-6.2-1.1-7.7-1.8c-1.5-0.6-2.6-1.6-3.5-2.8
							c-0.8-1.2-1.2-2.6-1.2-4.2c0-2.3,0.9-4.3,2.7-5.9c1.8-1.6,4.4-2.3,7.8-2.3c3.4,0,6.4,0.7,9,2.2s4.6,3.5,5.8,6.1
							c0.9,2,1.4,4.9,1.4,8.8V26z"/>
					</g>
					<g>
						<path id="ArialMT-6c" d="M401,0v71.6h8.8V0H401z"/>
					</g>
					<g>
						<path id="ArialMT-20" d="M416.8,0"/>
					</g>
					<g>
						<path id="ArialMT-73" d="M447.7,15.5l8.7,1.4c0.5-3.5,1.8-6.1,4.1-8s5.3-2.8,9.4-2.8c4,0,7,0.8,9,2.5c2,1.6,2.9,3.6,2.9,5.8
							c0,2-0.9,3.5-2.6,4.7c-1.2,0.8-4.2,1.8-9,3c-6.4,1.6-10.9,3-13.4,4.2s-4.4,2.8-5.7,4.9c-1.3,2.1-1.9,4.4-1.9,7
							c0,2.3,0.5,4.4,1.6,6.4c1.1,2,2.5,3.6,4.3,4.9c1.4,1,3.2,1.8,5.6,2.5c2.4,0.7,4.9,1.1,7.6,1.1c4.1,0,7.6-0.6,10.7-1.8
							c3.1-1.2,5.4-2.8,6.8-4.8c1.5-2,2.5-4.7,3-8l-8.6-1.2c-0.4,2.7-1.5,4.7-3.4,6.2c-1.9,1.5-4.5,2.2-7.9,2.2c-4,0-6.9-0.7-8.6-2
							s-2.6-2.9-2.6-4.7c0-1.1,0.4-2.2,1.1-3.1c0.7-0.9,1.8-1.7,3.4-2.3c0.9-0.3,3.5-1.1,7.8-2.2c6.2-1.7,10.6-3,13-4.1
							c2.5-1.1,4.4-2.6,5.8-4.6c1.4-2,2.1-4.5,2.1-7.5c0-2.9-0.9-5.7-2.6-8.3c-1.7-2.6-4.2-4.6-7.4-6c-3.2-1.4-6.9-2.1-10.9-2.1
							c-6.7,0-11.9,1.4-15.4,4.2S448.6,10,447.7,15.5z"/>
					</g>
					<g>
						<path id="ArialMT-68_00000037654995162230262250000004684396568325370011_" d="M501.2,0v71.6h8.8V45.9
							c4.1,4.8,9.3,7.1,15.5,7.1c3.8,0,7.2-0.8,10-2.3c2.8-1.5,4.9-3.6,6.1-6.3s1.8-6.5,1.8-11.6V0h-8.8v32.9c0,4.4-1,7.6-2.9,9.6
							s-4.6,3-8.1,3c-2.6,0-5.1-0.7-7.4-2c-2.3-1.3-3.9-3.2-4.9-5.5c-1-2.3-1.5-5.5-1.5-9.6V0H501.2z"/>
					</g>
					<g>
						<path id="ArialMT-69_00000103981484782045514620000000019317402431880074_" d="M556.8,61.5v10.1h8.8V61.5H556.8z M556.8,0
							v51.9h8.8V0H556.8z"/>
					</g>
					<g>
						<path id="ArialMT-66" d="M581.1,0v45h-7.8v6.8h7.8v5.5c0,3.5,0.3,6.1,0.9,7.8c0.8,2.3,2.3,4.1,4.5,5.5c2.1,1.4,5.1,2.1,9,2.1
							c2.5,0,5.2-0.3,8.2-0.9l-1.3-7.7c-1.8,0.3-3.6,0.5-5.2,0.5c-2.7,0-4.6-0.6-5.7-1.7c-1.1-1.1-1.7-3.3-1.7-6.4v-4.8H600V45
							h-10.1V0H581.1z"/>
					</g>
					<g>
						<path id="ArialMT-74" d="M626,7.9l1.3-7.8c-2.5-0.5-4.7-0.8-6.6-0.8c-3.2,0-5.7,0.5-7.4,1.5c-1.8,1-3,2.3-3.7,4
							s-1.1,5.1-1.1,10.4V45H602v6.8h6.4v12.8l8.7,5.3V51.9h8.8V45h-8.8V14.7c0-2.5,0.2-4.1,0.5-4.8c0.3-0.7,0.8-1.3,1.5-1.7
							c0.7-0.4,1.7-0.6,3-0.6C623.1,7.5,624.4,7.6,626,7.9z"/>
					</g>
					<g>
						<path id="ArialMT-20_00000054966309710678336210000000725986738492597927_" d="M628,0"/>
					</g>
					<g>
						<path id="ArialMT-28" d="M679.2-21c-4.9,6.1-9,13.3-12.3,21.5c-3.3,8.2-5,16.7-5,25.5c0,7.7,1.2,15.2,3.8,22.3
							c2.9,8.2,7.5,16.4,13.6,24.6h6.3c-3.9-6.8-6.5-11.6-7.8-14.5c-2-4.5-3.6-9.2-4.7-14.1c-1.4-6.1-2.1-12.2-2.1-18.4
							c0-15.7,4.9-31.3,14.6-46.9H679.2z"/>
					</g>
					<g>
						<path id="ArialMT-70" d="M695.7-19.9v71.7h8v-6.7c1.9,2.6,4,4.6,6.4,5.9c2.4,1.3,5.3,2,8.6,2c4.4,0,8.3-1.1,11.7-3.4
							s5.9-5.5,7.7-9.7c1.7-4.1,2.6-8.7,2.6-13.6c0-5.3-1-10.1-2.9-14.3c-1.9-4.2-4.7-7.5-8.3-9.8c-3.6-2.3-7.4-3.4-11.5-3.4
							c-2.9,0-5.6,0.6-7.9,1.9c-2.3,1.2-4.2,2.8-5.7,4.7v-25.2H695.7z M703.6,25.6c0-6.7,1.3-11.6,4-14.8c2.7-3.2,6-4.8,9.8-4.8
							c3.9,0,7.2,1.7,10,5s4.2,8.4,4.2,15.4c0,6.6-1.4,11.5-4.1,14.8c-2.7,3.3-6,4.9-9.7,4.9c-3.8,0-7.1-1.8-10-5.2
							C705,37.4,703.6,32.3,703.6,25.6z"/>
					</g>
					<g>
						<path id="ArialMT-70_00000142861925419784306490000016712312742028045206_" d="M751.3-19.9v71.7h8v-6.7c1.9,2.6,4,4.6,6.4,5.9
							c2.4,1.3,5.3,2,8.6,2c4.4,0,8.3-1.1,11.7-3.4s5.9-5.5,7.7-9.7c1.7-4.1,2.6-8.7,2.6-13.6c0-5.3-1-10.1-2.9-14.3
							c-1.9-4.2-4.7-7.5-8.3-9.8c-3.6-2.3-7.4-3.4-11.5-3.4c-2.9,0-5.6,0.6-7.9,1.9c-2.3,1.2-4.2,2.8-5.7,4.7v-25.2H751.3z
							 M759.2,25.6c0-6.7,1.3-11.6,4-14.8c2.7-3.2,6-4.8,9.8-4.8c3.9,0,7.2,1.7,10,5s4.2,8.4,4.2,15.4c0,6.6-1.4,11.5-4.1,14.8
							c-2.7,3.3-6,4.9-9.7,4.9c-3.8,0-7.1-1.8-10-5.2C760.7,37.4,759.2,32.3,759.2,25.6z"/>
					</g>
					<g>
						<path id="ArialMT-6d_00000094604005964658857150000006691453721033588615_" d="M806.9,0v51.9h7.9v-7.3
							c1.6,2.5,3.8,4.6,6.5,6.1c2.7,1.6,5.8,2.3,9.2,2.3c3.8,0,7-0.8,9.5-2.4s4.2-3.8,5.2-6.7c4.1,6.1,9.4,9.1,16,9.1
							c5.1,0,9.1-1.4,11.9-4.3c2.8-2.8,4.2-7.2,4.2-13.2V0h-8.8v32.7c0,3.5-0.3,6-0.9,7.6c-0.6,1.6-1.6,2.8-3.1,3.7
							c-1.5,0.9-3.2,1.4-5.3,1.4c-3.6,0-6.7-1.2-9.1-3.6c-2.4-2.4-3.6-6.3-3.6-11.6V0h-8.8v33.7c0,3.9-0.7,6.8-2.2,8.8
							c-1.4,2-3.8,2.9-7,2.9c-2.5,0-4.8-0.7-6.9-2c-2.1-1.3-3.6-3.2-4.6-5.7c-0.9-2.5-1.4-6.1-1.4-10.8V0H806.9z"/>
					</g>
					<g>
						<path id="ArialMT-29" d="M896-21h-6.3c9.7,15.6,14.6,31.3,14.6,46.9c0,6.1-0.7,12.2-2.1,18.2c-1.1,4.9-2.7,9.6-4.6,14.1
							c-1.3,2.9-3.9,7.8-7.9,14.6h6.3c6.1-8.2,10.6-16.4,13.6-24.6c2.5-7.1,3.8-14.5,3.8-22.3c0-8.8-1.7-17.3-5.1-25.5
							C904.9-7.8,900.8-14.9,896-21z"/>
					</g>
				</g>
			</g>
		</g>
		<g id="matplotlib.axis_2">
			<g id="ytick_1">
				<g id="line2d_5">
				</g>
			</g>
			<g id="ytick_2">
				<g id="line2d_6">
				</g>
			</g>
			<g id="ytick_3">
				<g id="line2d_7">
				</g>
			</g>
			<g id="ytick_4">
				<g id="line2d_8">
				</g>
			</g>
			<g id="ytick_5">
				<g id="line2d_9">
				</g>
			</g>
			<g id="ytick_6">
				<g id="line2d_10">
				</g>
			</g>
			<g id="ytick_7">
				<g id="line2d_11">
				</g>
			</g>
			<g id="ytick_8">
				<g id="line2d_12">
				</g>
			</g>
			<g id="ytick_9">
				<g id="line2d_13">
				</g>
			</g>
			<g id="text_6">
				<g transform="translate(17.220938 128.397344) rotate(-90) scale(0.14 -0.14)">
					<g>
						<path id="ArialMT-49" d="M9.3,0v71.6h9.5V0H9.3z"/>
					</g>
					<g>
						<path id="ArialMT-6e" d="M34.4,0v51.9h7.9v-7.4c3.8,5.7,9.3,8.5,16.5,8.5c3.1,0,6-0.6,8.6-1.7s4.6-2.6,5.9-4.4
							c1.3-1.8,2.2-4,2.7-6.5c0.3-1.6,0.5-4.5,0.5-8.5V0h-8.8v31.5c0,3.6-0.3,6.3-1,8c-0.7,1.8-1.9,3.2-3.6,4.2
							c-1.7,1.1-3.8,1.6-6.1,1.6c-3.8,0-7-1.2-9.7-3.6s-4.1-6.9-4.1-13.5V0H34.4z"/>
					</g>
					<g>
						<path id="ArialMT-74_00000022540855644940024090000016882770679787158679_" d="M109.2,7.9l1.3-7.8c-2.5-0.5-4.7-0.8-6.6-0.8
							c-3.2,0-5.7,0.5-7.4,1.5c-1.8,1-3,2.3-3.7,4s-1.1,5.1-1.1,10.4V45h-6.4v6.8h6.4v12.8l8.7,5.3V51.9h8.8V45h-8.8V14.7
							c0-2.5,0.2-4.1,0.5-4.8c0.3-0.7,0.8-1.3,1.5-1.7c0.7-0.4,1.7-0.6,3-0.6C106.3,7.5,107.6,7.6,109.2,7.9z"/>
					</g>
					<g>
						<path id="ArialMT-65_00000069398746459881664070000016326295362577192324_" d="M153.3,16.7l9.1-1.1c-1.4-5.3-4.1-9.4-8-12.4
							c-3.9-2.9-8.8-4.4-14.8-4.4c-7.6,0-13.6,2.3-18,7c-4.4,4.7-6.7,11.2-6.7,19.7c0,8.7,2.2,15.5,6.7,20.3
							c4.5,4.8,10.3,7.2,17.5,7.2c6.9,0,12.6-2.4,17-7.1c4.4-4.7,6.6-11.4,6.6-19.9c0-0.5,0-1.3,0-2.3h-38.7
							c0.3-5.7,1.9-10.1,4.8-13.1c2.9-3,6.5-4.5,10.8-4.5c3.2,0,6,0.8,8.2,2.5C150.1,10.3,151.9,13,153.3,16.7z M124.4,30.9h29
							c-0.4,4.4-1.5,7.6-3.3,9.8c-2.8,3.4-6.4,5.1-10.9,5.1c-4,0-7.4-1.3-10.2-4C126.2,39.1,124.7,35.4,124.4,30.9z"/>
					</g>
					<g>
						<path id="ArialMT-6e_00000151506225854046557360000016524582120745644943_" d="M173.4,0v51.9h7.9v-7.4
							c3.8,5.7,9.3,8.5,16.5,8.5c3.1,0,6-0.6,8.6-1.7s4.6-2.6,5.9-4.4c1.3-1.8,2.2-4,2.7-6.5c0.3-1.6,0.5-4.5,0.5-8.5V0h-8.8v31.5
							c0,3.6-0.3,6.3-1,8c-0.7,1.8-1.9,3.2-3.6,4.2c-1.7,1.1-3.8,1.6-6.1,1.6c-3.8,0-7-1.2-9.7-3.6s-4.1-6.9-4.1-13.5V0H173.4z"/>
					</g>
					<g>
						<path id="ArialMT-73_00000156581484847463394650000006082492899576814751_" d="M225.5,15.5l8.7,1.4c0.5-3.5,1.8-6.1,4.1-8
							c2.2-1.9,5.3-2.8,9.4-2.8c4,0,7,0.8,9,2.5c2,1.6,2.9,3.6,2.9,5.8c0,2-0.9,3.5-2.6,4.7c-1.2,0.8-4.2,1.8-9,3
							c-6.4,1.6-10.9,3-13.4,4.2c-2.5,1.2-4.4,2.8-5.7,4.9c-1.3,2.1-1.9,4.4-1.9,7c0,2.3,0.5,4.4,1.6,6.4c1.1,2,2.5,3.6,4.3,4.9
							c1.4,1,3.2,1.8,5.6,2.5c2.4,0.7,4.9,1.1,7.6,1.1c4.1,0,7.6-0.6,10.7-1.8c3.1-1.2,5.4-2.8,6.8-4.8c1.5-2,2.5-4.7,3-8l-8.6-1.2
							c-0.4,2.7-1.5,4.7-3.4,6.2c-1.9,1.5-4.5,2.2-7.9,2.2c-4,0-6.9-0.7-8.6-2c-1.7-1.3-2.6-2.9-2.6-4.7c0-1.1,0.4-2.2,1.1-3.1
							c0.7-0.9,1.8-1.7,3.4-2.3c0.9-0.3,3.5-1.1,7.8-2.2c6.2-1.7,10.6-3,13-4.1c2.5-1.1,4.4-2.6,5.8-4.6c1.4-2,2.1-4.5,2.1-7.5
							c0-2.9-0.9-5.7-2.6-8.3c-1.7-2.6-4.2-4.6-7.4-6c-3.2-1.4-6.9-2.1-10.9-2.1c-6.7,0-11.9,1.4-15.4,4.2S226.5,10,225.5,15.5z"/>
					</g>
					<g>
						<path id="ArialMT-69_00000178175785117358865440000009385290368933840561_" d="M279.1,61.5v10.1h8.8V61.5H279.1z M279.1,0
							v51.9h8.8V0H279.1z"/>
					</g>
					<g>
						<path id="ArialMT-74_00000021841955709886738860000001198067669128462507_" d="M320.4,7.9l1.3-7.8c-2.5-0.5-4.7-0.8-6.6-0.8
							c-3.2,0-5.7,0.5-7.4,1.5c-1.8,1-3,2.3-3.7,4s-1.1,5.1-1.1,10.4V45h-6.4v6.8h6.4v12.8l8.7,5.3V51.9h8.8V45h-8.8V14.7
							c0-2.5,0.2-4.1,0.5-4.8c0.3-0.7,0.8-1.3,1.5-1.7c0.7-0.4,1.7-0.6,3-0.6C317.5,7.5,318.8,7.6,320.4,7.9z"/>
					</g>
					<g>
						<path id="ArialMT-79" d="M328.6-20l-1,8.3c1.9-0.5,3.6-0.8,5-0.8c2,0,3.5,0.3,4.7,1c1.2,0.6,2.1,1.6,2.9,2.7
							c0.6,0.9,1.4,3.1,2.7,6.5c0.2,0.5,0.4,1.2,0.8,2.2l-19.7,52h9.5l10.8-30c1.4-3.8,2.7-7.8,3.8-12c1,4,2.2,8,3.6,11.8l11.1,30.2
							h8.8L351.8-0.9c-2.1-5.7-3.8-9.6-4.9-11.8c-1.6-2.9-3.4-5-5.4-6.4c-2-1.4-4.4-2-7.2-2C332.6-21,330.7-20.7,328.6-20z"/>
					</g>
				</g>
			</g>
		</g>
		<g id="line2d_14">
			<g>
				<defs>
					<rect id="SVGID_1_" x="27.7" y="7.2" width="195.3" height="190.3"/>
				</defs>
				<clipPath id="SVGID_00000127040035732608940920000015531388266676405394_">
					<use xlink:href="#SVGID_1_"  style="overflow:visible;"/>
				</clipPath>
				
					<path style="clip-path:url(#SVGID_00000127040035732608940920000015531388266676405394_);fill:none;stroke:#58A265;stroke-linecap:square;stroke-linejoin:round;" d="
					M-1,128.5l9.1-0.1l6.3,0.1l8.5,0l4.6-0.1l3.3-0.2l1.8-0.1l4.6,0.1l3.1-0.2l8.6-0.6l1.8-0.3l5.6-1.1l3.3-1.2l2.1-1l1.4-1l2.7-2.2
					l1.5-1.4l2.2-2.5l1.5-2l1.8-2.8l2.1-3.7l1.4-3l1.4-3.6l1.3-3.8l3.1-10l0.5-0.7l0.4-0.2l0.4,0.1l0.4,0.3l0.5,0.8l0.8,1.7l1.9,4.2
					l1.3,2.2l1.3,1.9l5.8,7.4l2.3,2.4l7.1,6.9l2.4,1.8l2.3,1.5l4.4,2.5l2,0.8l6.6,2.4l3.2,0.8l2.3,0.5l2.4,0.5l2.4,0.5l7.6,1.1
					l2.1,0.2l2.3,0.2l2.3,0.2l2.1,0.1l1.8,0.2l1.5,0.1l2,0.1l2.2,0.1l2.1,0l2.4,0.1l4.9,0l2.7,0l3.5,0.1l2.4,0l2.9,0l3.1,0l3.5,0
					l4.3,0.1l1.9,0l3.9-0.2l2.4,0l2.1,0l29.1,0.2l1.8,0.1l1.4,0l0,0"/>
			</g>
		</g>
		<g id="line2d_15">
			<g>
				<defs>
					<rect id="SVGID_00000011747106520993358590000014910891519115309201_" x="27.7" y="7.2" width="195.3" height="190.3"/>
				</defs>
				<clipPath id="SVGID_00000026883886512079403470000004901496876289852602_">
					<use xlink:href="#SVGID_00000011747106520993358590000014910891519115309201_"  style="overflow:visible;"/>
				</clipPath>
				
					<path style="clip-path:url(#SVGID_00000026883886512079403470000004901496876289852602_);fill:none;stroke:#0E0E77;stroke-linecap:square;stroke-linejoin:round;" d="
					M-1,158.7l5.2,0l2.9-0.1l1.9,0l4-0.1l2.7,0.1l1.6-0.1l1.5,0l3.9,0l12.5,0l5-0.1l3.8-0.1l2.4,0l2,0l4-0.3l8.4-0.9l5.2-0.8
					l2.7-0.6l1.6-0.5l1.4-0.6l4.4-2.5l3.4-2.3l0.7-0.1l0.9,0.1l1.9,0.5l1.6,0.3l1.6,0.1l1.3-0.2l2.9-0.8l4.3-1l1.3-0.1l2.3,0.2
					l1.2,0.3l1.4,0.6l3.7,1.7l2.1,0.7l0.7,0l1-0.1l0.5,0.2l0.7,0.5l1.3,1l1.1,0.5l1.3,0.3l10.3,1.6l1.8,0l1.7,0l2.6-0.1l3,0.1l5,0.1
					l4.6,0.5l3.3,0.4l2.1,0.1l3,0.6l3.3,0.3l2.6,0.1l8.9,0.2l2.1,0.1l1.8,0l2.1,0l3.6,0l7.6,0l9.1-0.2l7.4,0.2l5.1-0.1l2.7,0.1
					l2.7,0l5.1,0.2l3.6-0.1l2.3-0.1l7.4,0.2l2.8-0.1l0,0"/>
			</g>
		</g>
		<g id="line2d_16">
			<g>
				<defs>
					<rect id="SVGID_00000114032713662313285280000008827467163917461635_" x="27.7" y="7.2" width="195.3" height="190.3"/>
				</defs>
				<clipPath id="SVGID_00000084523619952914542370000014749599921258800564_">
					<use xlink:href="#SVGID_00000114032713662313285280000008827467163917461635_"  style="overflow:visible;"/>
				</clipPath>
				
					<path style="clip-path:url(#SVGID_00000084523619952914542370000014749599921258800564_);fill:none;stroke:#000000;stroke-linecap:square;stroke-linejoin:round;" d="
					M-1,98.3l4.6-0.1l2.1,0l2.4,0.1l4.2-0.1l2.5,0l4.2-0.1l2.1-0.1L23,98l2.4,0l6.2-0.1l3.4-0.2l3.3-0.1l2.3-0.1l2.7-0.1l1.5,0
					l6.6-0.7l2.1-0.4l2-0.4l1.8-0.6l2.6-1.1L62,93l1.9-1.4l1.8-1.5l1.4-1.5l1.9-2.4l1.4-2.1l1.7-2.9l1.6-3.3l1.5-3.6l2.4-6.2
					l2.4-6.8l4.3-12.3l3.5-9.5l1.6-3.7l1.1-2l1-1.4l0.9-0.9l0.7-0.4l0.7-0.1l0.7,0.1l1,0.4l1.1,0.7l1,1l1,1.2l1,1.7l1.3,2.6
					l5.6,11.6l2.1,3.5l2,3l2.5,3.3l1.6,1.8l3.9,3.9l10.1,10.3l2.7,2.4l5,3.9l2.1,1.4l6.2,3.6l2.3,1l2.5,0.8l2.7,0.6l1.9,0.4l2.5,0.9
					l2.3,1.1l2,0.9l5.2,1.7l4,0.9l8.6,1.1l10.8,0.5l5.7,0.2l5.5,0.2l3.8,0l12.5,0.3l1.8,0l2.9,0l9.4,0.1l0.2,0l0,0"/>
			</g>
		</g>
		<g id="line2d_17">
			<g>
				<defs>
					<rect id="SVGID_00000113313839773520701460000016138718656579974543_" x="27.7" y="7.2" width="195.3" height="190.3"/>
				</defs>
				<clipPath id="SVGID_00000051365573857102516660000002094154045581528994_">
					<use xlink:href="#SVGID_00000113313839773520701460000016138718656579974543_"  style="overflow:visible;"/>
				</clipPath>
				
					<path style="clip-path:url(#SVGID_00000051365573857102516660000002094154045581528994_);fill:none;stroke:#626161;stroke-linecap:square;stroke-linejoin:round;" d="
					M-1,188.9l20.8-0.1l5.1-0.1l1.5,0l8.8,0.1l4.3-0.1l15.5-0.5l5.2-0.7l2.1-0.6l2.8-1.1l1.8-1.1l1.2-0.9l1.3-1.3l1.1-1.4l1-1.6
					l1.2-2.5l1.8-3.8l0.4-0.4l0.4-0.1l0.4,0.2l0.5,0.6l3.7,4.8l1.3,1l1.2,0.7l1.5,0.6l1.6,0.4l1.2,0.4l5.1,2l6,1.8l11.3,2l2.6,0.3
					l2.4,0.3l6.9,0.5l3.8,0.2l2.9,0.1l4.5,0.2l2.1-0.1l2.6-0.2l1.5,0.2l2.1,0.2l1.9-0.1l2.4,0l2.1-0.1l1.9,0l6,0.2l2.4,0l13,0.2
					l2.1-0.1l4.5-0.1l4.9,0l4.3,0.1l1.9-0.1l1.5,0l3,0.1l11.5-0.1l22.6,0.1l4.1-0.1l0.5,0l0,0"/>
			</g>
		</g>
		<g id="patch_3">
			<path class="st6" d="M27.7,197.5V7.2"/>
		</g>
		<g id="patch_4">
			<path class="st6" d="M27.7,197.5H223"/>
		</g>
	</g>
</g>
<g id="figure_1_00000174602925260163429400000018203357789662126496_">
	<g id="patch_1_00000166668417942691764610000008830076590285132700_" class="st7">
		<path class="st8" d="M141.8,86.4H226V1.5h-84.2V86.4z"/>
	</g>
	<g id="axes_1_00000174577207256920847190000004083603451776870532_">
		<g id="patch_2_00000080888055570065568770000013439164423761093555_">
			<path class="st0" d="M154.5,63.1h55.8V8.7h-55.8V63.1z"/>
		</g>
		<g id="matplotlib.axis_1_00000116230129696785044430000008926609558255329439_">
			<g id="xtick_1_00000101081875662751342360000009724403393974490784_">
				<g id="line2d_1_00000100345506040236156290000001089086206156526752_">
					<g>
						<g>
							<path id="m240b03064e" class="st1" d="M210.3,63.1v3.5"/>
						</g>
					</g>
				</g>
				<g id="text_1_00000155854676484897671650000012841992237683132548_">
					<g transform="translate(60.079687 75.717812) scale(0.1 -0.1)">
						<g>
							<path id="ArialMT-2212_00000119113522661464137290000000138307651167221412_" d="M1470.5,16.1h-47.3v8.2h47.3V16.1z"/>
						</g>
						<g>
							<path id="ArialMT-31_00000150061047088685338690000015297964257541273223_" d="M1513.3-15.1h-8.8v56c-2.1-2-4.9-4-8.3-6
								s-6.5-3.5-9.2-4.5v8.5c4.9,2.3,9.2,5.1,12.9,8.4c3.7,3.3,6.3,6.5,7.8,9.6h5.7V-15.1z"/>
						</g>
						<g>
							<path id="ArialMT-30_00000048500256457577809370000003057705726605002930_" d="M1535.8,20.2c0,8.5,0.9,15.3,2.6,20.4
								c1.7,5.2,4.3,9.1,7.8,11.9c3.4,2.8,7.8,4.2,13,4.2c3.8,0,7.2-0.8,10.1-2.3c2.9-1.5,5.3-3.8,7.2-6.7c1.9-2.9,3.4-6.5,4.5-10.6
								c1.1-4.2,1.6-9.8,1.6-16.9c0-8.4-0.9-15.2-2.6-20.3c-1.7-5.2-4.3-9.1-7.7-12c-3.4-2.8-7.8-4.2-13-4.2
								c-6.9,0-12.3,2.5-16.2,7.4C1538.2-2.9,1535.8,6.8,1535.8,20.2z M1544.8,20.2c0-11.8,1.4-19.6,4.1-23.5
								c2.8-3.9,6.1-5.8,10.2-5.8c4,0,7.4,2,10.2,5.9s4.1,11.7,4.1,23.4c0,11.8-1.4,19.6-4.1,23.5c-2.8,3.9-6.2,5.8-10.3,5.8
								c-4,0-7.3-1.7-9.7-5.1C1546.4,40,1544.8,32,1544.8,20.2z"/>
						</g>
					</g>
				</g>
			</g>
			<g id="xtick_2_00000003819683682931070730000003665424400772827806_">
				<g id="line2d_2_00000076582018938160017610000000045835667472004796_">
					<g>
						<g>
							<path id="m240b03064e_00000063622147198281638670000004751068438290817932_" class="st1" d="M182.4,63.1v3.5"/>
						</g>
					</g>
				</g>
				<g id="text_2_00000051374611296761491890000017600239456606697624_">
					<g transform="translate(37.880469 75.717812) scale(0.1 -0.1)">
						<g>
							<path id="ArialMT-30_00000078734485440847458170000007383913377623313309_" d="M1421.8,20.2c0,8.5,0.9,15.3,2.6,20.4
								c1.7,5.2,4.3,9.1,7.8,11.9c3.4,2.8,7.8,4.2,13,4.2c3.8,0,7.2-0.8,10.1-2.3c2.9-1.5,5.3-3.8,7.2-6.7c1.9-2.9,3.4-6.5,4.5-10.6
								c1.1-4.2,1.6-9.8,1.6-16.9c0-8.4-0.9-15.2-2.6-20.3c-1.7-5.2-4.3-9.1-7.7-12c-3.4-2.8-7.8-4.2-13-4.2
								c-6.9,0-12.3,2.5-16.2,7.4C1424.2-2.9,1421.8,6.8,1421.8,20.2z M1430.8,20.2c0-11.8,1.4-19.6,4.1-23.5
								c2.8-3.9,6.1-5.8,10.2-5.8c4,0,7.4,2,10.2,5.9s4.1,11.7,4.1,23.4c0,11.8-1.4,19.6-4.1,23.5c-2.8,3.9-6.2,5.8-10.3,5.8
								c-4,0-7.3-1.7-9.7-5.1C1432.3,40,1430.8,32,1430.8,20.2z"/>
						</g>
					</g>
				</g>
			</g>
			<g id="xtick_3_00000125570244562993898730000010186200976517493402_">
				<g id="line2d_3_00000162313795044673964620000014342513712826549661_">
					<g>
						<g>
							<path id="m240b03064e_00000083084273287703386280000004034646274820849570_" class="st1" d="M154.5,63.1v3.5"/>
						</g>
					</g>
				</g>
				<g id="text_3_00000067227537196710226720000008109667917149720756_">
					<g transform="translate(7.2 75.717812) scale(0.1 -0.1)">
						<g>
							<path id="ArialMT-31_00000036241855739920864160000010095865708899217573_" d="M1454.9-15.1h-8.8v56c-2.1-2-4.9-4-8.3-6
								s-6.5-3.5-9.2-4.5v8.5c4.9,2.3,9.2,5.1,12.9,8.4c3.7,3.3,6.3,6.5,7.8,9.6h5.7V-15.1z"/>
						</g>
						<g>
							<path id="ArialMT-30_00000098203760070909968730000015909449245542780047_" d="M1477.4,20.2c0,8.5,0.9,15.3,2.6,20.4
								c1.7,5.2,4.3,9.1,7.8,11.9c3.4,2.8,7.8,4.2,13,4.2c3.8,0,7.2-0.8,10.1-2.3c2.9-1.5,5.3-3.8,7.2-6.7c1.9-2.9,3.4-6.5,4.5-10.6
								c1.1-4.2,1.6-9.8,1.6-16.9c0-8.4-0.9-15.2-2.6-20.3c-1.7-5.2-4.3-9.1-7.7-12c-3.4-2.8-7.8-4.2-13-4.2
								c-6.9,0-12.3,2.5-16.2,7.4C1479.8-2.9,1477.4,6.8,1477.4,20.2z M1486.4,20.2c0-11.8,1.4-19.6,4.1-23.5
								c2.8-3.9,6.1-5.8,10.2-5.8c4,0,7.4,2,10.2,5.9s4.1,11.7,4.1,23.4c0,11.8-1.4,19.6-4.1,23.5c-2.8,3.9-6.2,5.8-10.3,5.8
								c-4,0-7.3-1.7-9.7-5.1C1488,40,1486.4,32,1486.4,20.2z"/>
						</g>
					</g>
				</g>
			</g>
		</g>
		<g id="matplotlib.axis_2_00000065762248319302731320000013930453848411815096_">
			<g id="ytick_1_00000060000873783155702430000016060152748644996012_">
				<g id="line2d_4_00000163041901945651270590000010857473191044684189_">
				</g>
			</g>
			<g id="ytick_2_00000013152962488823946580000006006102105169526931_">
				<g id="line2d_5_00000096058991601427011890000006048773379380651931_">
				</g>
			</g>
		</g>
		<g id="line2d_6_00000090268041962369791470000009147166888020756864_">
			<g>
				<defs>
					<rect id="SVGID_00000121237095628922328280000011917263258012008886_" x="154.5" y="8.7" width="55.8" height="54.4"/>
				</defs>
				<clipPath id="SVGID_00000176025129672242497230000011479022772242506132_">
					<use xlink:href="#SVGID_00000121237095628922328280000011917263258012008886_"  style="overflow:visible;"/>
				</clipPath>
				
					<path style="clip-path:url(#SVGID_00000176025129672242497230000011479022772242506132_);fill:none;stroke:#0E0E77;stroke-linecap:square;stroke-linejoin:round;" d="
					M140.8,58.7l0.8,0.3l0.6,0l1-0.2l1.1,0.2l1.1-0.4l0.7-0.1l1-0.1l0.8-0.1l0.8-0.1l1.8-0.5l0.5,0.1l0.9,0.2l0.6-0.2l1.1-0.5
					l1.8-1.3l2-1.5l0.8-0.6l3.4-4l0.8-1.3l0.6-1l1.9-3.9l0.6-2.1l1.1-4.6l1.4-6.5l1-5.8l1.1-6.4l0.4-1.4l0.3-0.4l0.2,0l0.3,0.3
					l0.6,1.1l1.3,2.4l0.5,0.4l0.5,0.1l0.3-0.2l0.4-0.5l0.6-1.3l3-6.4l0.8-1.1l0.4-0.2l0.3,0.1l0.8,0.5l0.4,0.4l0.4,0.8l0.5,1.5
					l1,4.1l1.9,7.2l0.8,2.1L186,28l0.2-0.2l0.5-0.6l0.2,0.2l0.2,0.7l0.4,2.3l0.8,5.2l0.6,2.1l0.5,1.2l0.7,0.9l0.8,1.1l1.6,2.5
					l0.8,0.9l1.8,2.3l0.3,0.1l1.1-0.1L197,47l0.5-0.1l1.2-0.5l0.4,0.2L200,47l1.9,0.4l0.5,0.2l1,0.1l0.8,0.6l1.6,1.5l0.7,0.9
					l1.1,1.4l0.4,0.2l0.3-0.1l0.5-0.1l0.3,0.2l0.3,0.6l0.9,1.9l0.7,0.7l0.9,0.7l2.1,1l1.6,0l1-0.2l1.4,0.3l2.5,1.1l0.8-0.1l1.4,0.4
					l1.6-0.2l1.1,0.2l0.7,0.1l0.8,0.1l0.1,0l0,0"/>
			</g>
		</g>
		<g id="patch_3_00000026158116767561872410000014841496138956509839_">
			<path class="st6" d="M154.5,63.1h55.8"/>
		</g>
	</g>
</g>
</svg>
