<?xml version="1.0" encoding="utf-8" standalone="no"?>
<!DOCTYPE svg PUBLIC "-//W3C//DTD SVG 1.1//EN"
  "http://www.w3.org/Graphics/SVG/1.1/DTD/svg11.dtd">
<svg xmlns:xlink="http://www.w3.org/1999/xlink" width="230.1675pt" height="237.943438pt" viewBox="0 0 230.1675 237.943438" xmlns="http://www.w3.org/2000/svg" version="1.1">
 <metadata>
  <rdf:RDF xmlns:dc="http://purl.org/dc/elements/1.1/" xmlns:cc="http://creativecommons.org/ns#" xmlns:rdf="http://www.w3.org/1999/02/22-rdf-syntax-ns#">
   <cc:Work>
    <dc:type rdf:resource="http://purl.org/dc/dcmitype/StillImage"/>
    <dc:date>2023-10-02T15:40:37.796554</dc:date>
    <dc:format>image/svg+xml</dc:format>
    <dc:creator>
     <cc:Agent>
      <dc:title>Matplotlib v3.7.1, https://matplotlib.org/</dc:title>
     </cc:Agent>
    </dc:creator>
   </cc:Work>
  </rdf:RDF>
 </metadata>
 <defs>
  <style type="text/css">*{stroke-linejoin: round; stroke-linecap: butt}</style>
 </defs>
 <g id="figure_1">
  <g id="patch_1">
   <path d="M 0 237.943438 
L 230.1675 237.943438 
L 230.1675 0 
L 0 0 
z
" style="fill: #ffffff"/>
  </g>
  <g id="axes_1">
   <g id="patch_2">
    <path d="M 27.6675 197.46 
L 222.9675 197.46 
L 222.9675 7.2 
L 27.6675 7.2 
z
" style="fill: #ffffff"/>
   </g>
   <g id="matplotlib.axis_1">
    <g id="xtick_1">
     <g id="line2d_1">
      <defs>
       <path id="m08f5ddf801" d="M 0 0 
L 0 3.5 
" style="stroke: #000000; stroke-width: 0.8"/>
      </defs>
      <g>
       <use xlink:href="#m08f5ddf801" x="198.555" y="197.46" style="stroke: #000000; stroke-width: 0.8"/>
      </g>
     </g>
     <g id="text_1">
      <!-- −20 -->
      <g transform="translate(190.07375 211.617813) scale(0.1 -0.1)">
       <defs>
        <path id="ArialMT-2212" d="M 3381 1997 
L 356 1997 
L 356 2522 
L 3381 2522 
L 3381 1997 
z
" transform="scale(0.015625)"/>
        <path id="ArialMT-32" d="M 3222 541 
L 3222 0 
L 194 0 
Q 188 203 259 391 
Q 375 700 629 1000 
Q 884 1300 1366 1694 
Q 2113 2306 2375 2664 
Q 2638 3022 2638 3341 
Q 2638 3675 2398 3904 
Q 2159 4134 1775 4134 
Q 1369 4134 1125 3890 
Q 881 3647 878 3216 
L 300 3275 
Q 359 3922 746 4261 
Q 1134 4600 1788 4600 
Q 2447 4600 2831 4234 
Q 3216 3869 3216 3328 
Q 3216 3053 3103 2787 
Q 2991 2522 2730 2228 
Q 2469 1934 1863 1422 
Q 1356 997 1212 845 
Q 1069 694 975 541 
L 3222 541 
z
" transform="scale(0.015625)"/>
        <path id="ArialMT-30" d="M 266 2259 
Q 266 3072 433 3567 
Q 600 4063 929 4331 
Q 1259 4600 1759 4600 
Q 2128 4600 2406 4451 
Q 2684 4303 2865 4023 
Q 3047 3744 3150 3342 
Q 3253 2941 3253 2259 
Q 3253 1453 3087 958 
Q 2922 463 2592 192 
Q 2263 -78 1759 -78 
Q 1097 -78 719 397 
Q 266 969 266 2259 
z
M 844 2259 
Q 844 1131 1108 757 
Q 1372 384 1759 384 
Q 2147 384 2411 759 
Q 2675 1134 2675 2259 
Q 2675 3391 2411 3762 
Q 2147 4134 1753 4134 
Q 1366 4134 1134 3806 
Q 844 3388 844 2259 
z
" transform="scale(0.015625)"/>
       </defs>
       <use xlink:href="#ArialMT-2212"/>
       <use xlink:href="#ArialMT-32" x="58.398438"/>
       <use xlink:href="#ArialMT-30" x="114.013672"/>
      </g>
     </g>
    </g>
    <g id="xtick_2">
     <g id="line2d_2">
      <g>
       <use xlink:href="#m08f5ddf801" x="149.73" y="197.46" style="stroke: #000000; stroke-width: 0.8"/>
      </g>
     </g>
     <g id="text_2">
      <!-- −10 -->
      <g transform="translate(141.24875 211.617813) scale(0.1 -0.1)">
       <defs>
        <path id="ArialMT-31" d="M 2384 0 
L 1822 0 
L 1822 3584 
Q 1619 3391 1289 3197 
Q 959 3003 697 2906 
L 697 3450 
Q 1169 3672 1522 3987 
Q 1875 4303 2022 4600 
L 2384 4600 
L 2384 0 
z
" transform="scale(0.015625)"/>
       </defs>
       <use xlink:href="#ArialMT-2212"/>
       <use xlink:href="#ArialMT-31" x="58.398438"/>
       <use xlink:href="#ArialMT-30" x="114.013672"/>
      </g>
     </g>
    </g>
    <g id="xtick_3">
     <g id="line2d_3">
      <g>
       <use xlink:href="#m08f5ddf801" x="100.905" y="197.46" style="stroke: #000000; stroke-width: 0.8"/>
      </g>
     </g>
     <g id="text_3">
      <!-- 0 -->
      <g transform="translate(98.124531 211.617813) scale(0.1 -0.1)">
       <use xlink:href="#ArialMT-30"/>
      </g>
     </g>
    </g>
    <g id="xtick_4">
     <g id="line2d_4">
      <g>
       <use xlink:href="#m08f5ddf801" x="52.08" y="197.46" style="stroke: #000000; stroke-width: 0.8"/>
      </g>
     </g>
     <g id="text_4">
      <!-- 10 -->
      <g transform="translate(46.519063 211.617813) scale(0.1 -0.1)">
       <use xlink:href="#ArialMT-31"/>
       <use xlink:href="#ArialMT-30" x="55.615234"/>
      </g>
     </g>
    </g>
    <g id="xtick_5">
     <g id="line2d_5">
      <defs>
       <path id="m6eeae6cc32" d="M 0 0 
L 0 2 
" style="stroke: #000000; stroke-width: 0.6"/>
      </defs>
      <g>
       <use xlink:href="#m6eeae6cc32" x="222.9675" y="197.46" style="stroke: #000000; stroke-width: 0.6"/>
      </g>
     </g>
    </g>
    <g id="xtick_6">
     <g id="line2d_6">
      <g>
       <use xlink:href="#m6eeae6cc32" x="174.1425" y="197.46" style="stroke: #000000; stroke-width: 0.6"/>
      </g>
     </g>
    </g>
    <g id="xtick_7">
     <g id="line2d_7">
      <g>
       <use xlink:href="#m6eeae6cc32" x="125.3175" y="197.46" style="stroke: #000000; stroke-width: 0.6"/>
      </g>
     </g>
    </g>
    <g id="xtick_8">
     <g id="line2d_8">
      <g>
       <use xlink:href="#m6eeae6cc32" x="76.4925" y="197.46" style="stroke: #000000; stroke-width: 0.6"/>
      </g>
     </g>
    </g>
    <g id="xtick_9">
     <g id="line2d_9">
      <g>
       <use xlink:href="#m6eeae6cc32" x="27.6675" y="197.46" style="stroke: #000000; stroke-width: 0.6"/>
      </g>
     </g>
    </g>
    <g id="text_5">
     <!-- Chemical shift (ppm) -->
     <g transform="translate(61.138438 227.796875) scale(0.14 -0.14)">
      <defs>
       <path id="ArialMT-43" d="M 3763 1606 
L 4369 1453 
Q 4178 706 3683 314 
Q 3188 -78 2472 -78 
Q 1731 -78 1267 223 
Q 803 525 561 1097 
Q 319 1669 319 2325 
Q 319 3041 592 3573 
Q 866 4106 1370 4382 
Q 1875 4659 2481 4659 
Q 3169 4659 3637 4309 
Q 4106 3959 4291 3325 
L 3694 3184 
Q 3534 3684 3231 3912 
Q 2928 4141 2469 4141 
Q 1941 4141 1586 3887 
Q 1231 3634 1087 3207 
Q 944 2781 944 2328 
Q 944 1744 1114 1308 
Q 1284 872 1643 656 
Q 2003 441 2422 441 
Q 2931 441 3284 734 
Q 3638 1028 3763 1606 
z
" transform="scale(0.015625)"/>
       <path id="ArialMT-68" d="M 422 0 
L 422 4581 
L 984 4581 
L 984 2938 
Q 1378 3394 1978 3394 
Q 2347 3394 2619 3248 
Q 2891 3103 3008 2847 
Q 3125 2591 3125 2103 
L 3125 0 
L 2563 0 
L 2563 2103 
Q 2563 2525 2380 2717 
Q 2197 2909 1863 2909 
Q 1613 2909 1392 2779 
Q 1172 2650 1078 2428 
Q 984 2206 984 1816 
L 984 0 
L 422 0 
z
" transform="scale(0.015625)"/>
       <path id="ArialMT-65" d="M 2694 1069 
L 3275 997 
Q 3138 488 2766 206 
Q 2394 -75 1816 -75 
Q 1088 -75 661 373 
Q 234 822 234 1631 
Q 234 2469 665 2931 
Q 1097 3394 1784 3394 
Q 2450 3394 2872 2941 
Q 3294 2488 3294 1666 
Q 3294 1616 3291 1516 
L 816 1516 
Q 847 969 1125 678 
Q 1403 388 1819 388 
Q 2128 388 2347 550 
Q 2566 713 2694 1069 
z
M 847 1978 
L 2700 1978 
Q 2663 2397 2488 2606 
Q 2219 2931 1791 2931 
Q 1403 2931 1139 2672 
Q 875 2413 847 1978 
z
" transform="scale(0.015625)"/>
       <path id="ArialMT-6d" d="M 422 0 
L 422 3319 
L 925 3319 
L 925 2853 
Q 1081 3097 1340 3245 
Q 1600 3394 1931 3394 
Q 2300 3394 2536 3241 
Q 2772 3088 2869 2813 
Q 3263 3394 3894 3394 
Q 4388 3394 4653 3120 
Q 4919 2847 4919 2278 
L 4919 0 
L 4359 0 
L 4359 2091 
Q 4359 2428 4304 2576 
Q 4250 2725 4106 2815 
Q 3963 2906 3769 2906 
Q 3419 2906 3187 2673 
Q 2956 2441 2956 1928 
L 2956 0 
L 2394 0 
L 2394 2156 
Q 2394 2531 2256 2718 
Q 2119 2906 1806 2906 
Q 1569 2906 1367 2781 
Q 1166 2656 1075 2415 
Q 984 2175 984 1722 
L 984 0 
L 422 0 
z
" transform="scale(0.015625)"/>
       <path id="ArialMT-69" d="M 425 3934 
L 425 4581 
L 988 4581 
L 988 3934 
L 425 3934 
z
M 425 0 
L 425 3319 
L 988 3319 
L 988 0 
L 425 0 
z
" transform="scale(0.015625)"/>
       <path id="ArialMT-63" d="M 2588 1216 
L 3141 1144 
Q 3050 572 2676 248 
Q 2303 -75 1759 -75 
Q 1078 -75 664 370 
Q 250 816 250 1647 
Q 250 2184 428 2587 
Q 606 2991 970 3192 
Q 1334 3394 1763 3394 
Q 2303 3394 2647 3120 
Q 2991 2847 3088 2344 
L 2541 2259 
Q 2463 2594 2264 2762 
Q 2066 2931 1784 2931 
Q 1359 2931 1093 2626 
Q 828 2322 828 1663 
Q 828 994 1084 691 
Q 1341 388 1753 388 
Q 2084 388 2306 591 
Q 2528 794 2588 1216 
z
" transform="scale(0.015625)"/>
       <path id="ArialMT-61" d="M 2588 409 
Q 2275 144 1986 34 
Q 1697 -75 1366 -75 
Q 819 -75 525 192 
Q 231 459 231 875 
Q 231 1119 342 1320 
Q 453 1522 633 1644 
Q 813 1766 1038 1828 
Q 1203 1872 1538 1913 
Q 2219 1994 2541 2106 
Q 2544 2222 2544 2253 
Q 2544 2597 2384 2738 
Q 2169 2928 1744 2928 
Q 1347 2928 1158 2789 
Q 969 2650 878 2297 
L 328 2372 
Q 403 2725 575 2942 
Q 747 3159 1072 3276 
Q 1397 3394 1825 3394 
Q 2250 3394 2515 3294 
Q 2781 3194 2906 3042 
Q 3031 2891 3081 2659 
Q 3109 2516 3109 2141 
L 3109 1391 
Q 3109 606 3145 398 
Q 3181 191 3288 0 
L 2700 0 
Q 2613 175 2588 409 
z
M 2541 1666 
Q 2234 1541 1622 1453 
Q 1275 1403 1131 1340 
Q 988 1278 909 1158 
Q 831 1038 831 891 
Q 831 666 1001 516 
Q 1172 366 1500 366 
Q 1825 366 2078 508 
Q 2331 650 2450 897 
Q 2541 1088 2541 1459 
L 2541 1666 
z
" transform="scale(0.015625)"/>
       <path id="ArialMT-6c" d="M 409 0 
L 409 4581 
L 972 4581 
L 972 0 
L 409 0 
z
" transform="scale(0.015625)"/>
       <path id="ArialMT-20" transform="scale(0.015625)"/>
       <path id="ArialMT-73" d="M 197 991 
L 753 1078 
Q 800 744 1014 566 
Q 1228 388 1613 388 
Q 2000 388 2187 545 
Q 2375 703 2375 916 
Q 2375 1106 2209 1216 
Q 2094 1291 1634 1406 
Q 1016 1563 777 1677 
Q 538 1791 414 1992 
Q 291 2194 291 2438 
Q 291 2659 392 2848 
Q 494 3038 669 3163 
Q 800 3259 1026 3326 
Q 1253 3394 1513 3394 
Q 1903 3394 2198 3281 
Q 2494 3169 2634 2976 
Q 2775 2784 2828 2463 
L 2278 2388 
Q 2241 2644 2061 2787 
Q 1881 2931 1553 2931 
Q 1166 2931 1000 2803 
Q 834 2675 834 2503 
Q 834 2394 903 2306 
Q 972 2216 1119 2156 
Q 1203 2125 1616 2013 
Q 2213 1853 2448 1751 
Q 2684 1650 2818 1456 
Q 2953 1263 2953 975 
Q 2953 694 2789 445 
Q 2625 197 2315 61 
Q 2006 -75 1616 -75 
Q 969 -75 630 194 
Q 291 463 197 991 
z
" transform="scale(0.015625)"/>
       <path id="ArialMT-66" d="M 556 0 
L 556 2881 
L 59 2881 
L 59 3319 
L 556 3319 
L 556 3672 
Q 556 4006 616 4169 
Q 697 4388 901 4523 
Q 1106 4659 1475 4659 
Q 1713 4659 2000 4603 
L 1916 4113 
Q 1741 4144 1584 4144 
Q 1328 4144 1222 4034 
Q 1116 3925 1116 3625 
L 1116 3319 
L 1763 3319 
L 1763 2881 
L 1116 2881 
L 1116 0 
L 556 0 
z
" transform="scale(0.015625)"/>
       <path id="ArialMT-74" d="M 1650 503 
L 1731 6 
Q 1494 -44 1306 -44 
Q 1000 -44 831 53 
Q 663 150 594 308 
Q 525 466 525 972 
L 525 2881 
L 113 2881 
L 113 3319 
L 525 3319 
L 525 4141 
L 1084 4478 
L 1084 3319 
L 1650 3319 
L 1650 2881 
L 1084 2881 
L 1084 941 
Q 1084 700 1114 631 
Q 1144 563 1211 522 
Q 1278 481 1403 481 
Q 1497 481 1650 503 
z
" transform="scale(0.015625)"/>
       <path id="ArialMT-28" d="M 1497 -1347 
Q 1031 -759 709 28 
Q 388 816 388 1659 
Q 388 2403 628 3084 
Q 909 3875 1497 4659 
L 1900 4659 
Q 1522 4009 1400 3731 
Q 1209 3300 1100 2831 
Q 966 2247 966 1656 
Q 966 153 1900 -1347 
L 1497 -1347 
z
" transform="scale(0.015625)"/>
       <path id="ArialMT-70" d="M 422 -1272 
L 422 3319 
L 934 3319 
L 934 2888 
Q 1116 3141 1344 3267 
Q 1572 3394 1897 3394 
Q 2322 3394 2647 3175 
Q 2972 2956 3137 2557 
Q 3303 2159 3303 1684 
Q 3303 1175 3120 767 
Q 2938 359 2589 142 
Q 2241 -75 1856 -75 
Q 1575 -75 1351 44 
Q 1128 163 984 344 
L 984 -1272 
L 422 -1272 
z
M 931 1641 
Q 931 1000 1190 694 
Q 1450 388 1819 388 
Q 2194 388 2461 705 
Q 2728 1022 2728 1688 
Q 2728 2322 2467 2637 
Q 2206 2953 1844 2953 
Q 1484 2953 1207 2617 
Q 931 2281 931 1641 
z
" transform="scale(0.015625)"/>
       <path id="ArialMT-29" d="M 791 -1347 
L 388 -1347 
Q 1322 153 1322 1656 
Q 1322 2244 1188 2822 
Q 1081 3291 891 3722 
Q 769 4003 388 4659 
L 791 4659 
Q 1378 3875 1659 3084 
Q 1900 2403 1900 1659 
Q 1900 816 1576 28 
Q 1253 -759 791 -1347 
z
" transform="scale(0.015625)"/>
      </defs>
      <use xlink:href="#ArialMT-43"/>
      <use xlink:href="#ArialMT-68" x="72.216797"/>
      <use xlink:href="#ArialMT-65" x="127.832031"/>
      <use xlink:href="#ArialMT-6d" x="183.447266"/>
      <use xlink:href="#ArialMT-69" x="266.748047"/>
      <use xlink:href="#ArialMT-63" x="288.964844"/>
      <use xlink:href="#ArialMT-61" x="338.964844"/>
      <use xlink:href="#ArialMT-6c" x="394.580078"/>
      <use xlink:href="#ArialMT-20" x="416.796875"/>
      <use xlink:href="#ArialMT-73" x="444.580078"/>
      <use xlink:href="#ArialMT-68" x="494.580078"/>
      <use xlink:href="#ArialMT-69" x="550.195312"/>
      <use xlink:href="#ArialMT-66" x="572.412109"/>
      <use xlink:href="#ArialMT-74" x="600.195312"/>
      <use xlink:href="#ArialMT-20" x="627.978516"/>
      <use xlink:href="#ArialMT-28" x="655.761719"/>
      <use xlink:href="#ArialMT-70" x="689.0625"/>
      <use xlink:href="#ArialMT-70" x="744.677734"/>
      <use xlink:href="#ArialMT-6d" x="800.292969"/>
      <use xlink:href="#ArialMT-29" x="883.59375"/>
     </g>
    </g>
   </g>
   <g id="matplotlib.axis_2">
    <g id="ytick_1">
     <g id="line2d_10"/>
    </g>
    <g id="ytick_2">
     <g id="line2d_11"/>
    </g>
    <g id="ytick_3">
     <g id="line2d_12"/>
    </g>
    <g id="ytick_4">
     <g id="line2d_13"/>
    </g>
    <g id="ytick_5">
     <g id="line2d_14"/>
    </g>
    <g id="ytick_6">
     <g id="line2d_15"/>
    </g>
    <g id="ytick_7">
     <g id="line2d_16"/>
    </g>
    <g id="ytick_8">
     <g id="line2d_17"/>
    </g>
    <g id="ytick_9">
     <g id="line2d_18"/>
    </g>
    <g id="text_6">
     <!-- Intensity -->
     <g transform="translate(17.220938 128.397344) rotate(-90) scale(0.14 -0.14)">
      <defs>
       <path id="ArialMT-49" d="M 597 0 
L 597 4581 
L 1203 4581 
L 1203 0 
L 597 0 
z
" transform="scale(0.015625)"/>
       <path id="ArialMT-6e" d="M 422 0 
L 422 3319 
L 928 3319 
L 928 2847 
Q 1294 3394 1984 3394 
Q 2284 3394 2536 3286 
Q 2788 3178 2913 3003 
Q 3038 2828 3088 2588 
Q 3119 2431 3119 2041 
L 3119 0 
L 2556 0 
L 2556 2019 
Q 2556 2363 2490 2533 
Q 2425 2703 2258 2804 
Q 2091 2906 1866 2906 
Q 1506 2906 1245 2678 
Q 984 2450 984 1813 
L 984 0 
L 422 0 
z
" transform="scale(0.015625)"/>
       <path id="ArialMT-79" d="M 397 -1278 
L 334 -750 
Q 519 -800 656 -800 
Q 844 -800 956 -737 
Q 1069 -675 1141 -563 
Q 1194 -478 1313 -144 
Q 1328 -97 1363 -6 
L 103 3319 
L 709 3319 
L 1400 1397 
Q 1534 1031 1641 628 
Q 1738 1016 1872 1384 
L 2581 3319 
L 3144 3319 
L 1881 -56 
Q 1678 -603 1566 -809 
Q 1416 -1088 1222 -1217 
Q 1028 -1347 759 -1347 
Q 597 -1347 397 -1278 
z
" transform="scale(0.015625)"/>
      </defs>
      <use xlink:href="#ArialMT-49"/>
      <use xlink:href="#ArialMT-6e" x="27.783203"/>
      <use xlink:href="#ArialMT-74" x="83.398438"/>
      <use xlink:href="#ArialMT-65" x="111.181641"/>
      <use xlink:href="#ArialMT-6e" x="166.796875"/>
      <use xlink:href="#ArialMT-73" x="222.412109"/>
      <use xlink:href="#ArialMT-69" x="272.412109"/>
      <use xlink:href="#ArialMT-74" x="294.628906"/>
      <use xlink:href="#ArialMT-79" x="322.412109"/>
     </g>
    </g>
   </g>
   <g id="line2d_19">
    <path d="M -1 128.500343 
L 8.131516 128.401773 
L 14.464101 128.456811 
L 23.005727 128.463427 
L 27.571079 128.391739 
L 30.884641 128.174797 
L 32.725508 128.115668 
L 37.364495 128.227973 
L 40.457153 128.029097 
L 49.072414 127.447935 
L 50.913281 127.154446 
L 56.509519 126.043882 
L 59.823081 124.890764 
L 61.958487 123.870892 
L 63.357547 122.909434 
L 66.082031 120.732955 
L 67.554725 119.30414 
L 69.763766 116.785458 
L 71.236461 114.767441 
L 73.003694 111.948881 
L 75.065465 108.23494 
L 76.464525 105.218438 
L 77.863584 101.658935 
L 79.115374 97.825678 
L 82.208032 87.817701 
L 82.723475 87.077471 
L 83.091649 86.8704 
L 83.459822 86.935743 
L 83.827996 87.254466 
L 84.343439 88.050597 
L 85.15342 89.797151 
L 87.067923 94.019445 
L 88.319713 96.227438 
L 89.645138 98.109568 
L 95.46228 105.509524 
L 97.744955 107.894721 
L 104.813887 114.753375 
L 107.170198 116.589386 
L 109.452874 118.116379 
L 113.870956 120.578654 
L 115.859094 121.40453 
L 122.486217 123.77568 
L 125.726144 124.564262 
L 128.00882 125.063733 
L 130.365131 125.587571 
L 132.721442 126.04086 
L 140.305817 127.149144 
L 142.441223 127.382093 
L 144.723899 127.583426 
L 147.006575 127.797674 
L 149.141982 127.912012 
L 150.982849 128.07477 
L 152.529178 128.131803 
L 154.517315 128.205314 
L 156.726356 128.349577 
L 158.788128 128.386892 
L 161.218074 128.473421 
L 166.077964 128.466453 
L 168.802449 128.493756 
L 172.26328 128.600607 
L 174.61959 128.648343 
L 177.564979 128.683614 
L 180.657636 128.713735 
L 184.192102 128.751601 
L 188.53655 128.815974 
L 190.451053 128.844338 
L 194.353692 128.648892 
L 196.710003 128.648649 
L 198.845409 128.644788 
L 227.931119 128.861764 
L 229.771987 128.918229 
L 231.1675 128.944148 
L 231.1675 128.944148 
" clip-path="url(#p92773a17ba)" style="fill: none; stroke: #58a265; stroke-linecap: square"/>
   </g>
   <g id="line2d_20">
    <path d="M -1 158.709782 
L 4.228877 158.707063 
L 7.10063 158.644514 
L 9.015133 158.675435 
L 13.065041 158.596407 
L 15.715891 158.716771 
L 17.335855 158.604956 
L 18.882183 158.562878 
L 22.784823 158.610498 
L 35.302723 158.582334 
L 40.309883 158.459749 
L 44.138888 158.361802 
L 46.568834 158.396769 
L 48.556971 158.367211 
L 52.60688 158.070832 
L 61.001236 157.171696 
L 66.155666 156.371296 
L 68.88015 155.772351 
L 70.500114 155.300395 
L 71.899173 154.661445 
L 76.317255 152.19119 
L 79.704452 149.919922 
L 80.440799 149.772373 
L 81.324416 149.839643 
L 83.238918 150.296023 
L 84.858882 150.609062 
L 86.478845 150.660355 
L 87.730635 150.47704 
L 90.602389 149.713322 
L 94.946837 148.73711 
L 96.272261 148.656068 
L 98.554937 148.842435 
L 99.733093 149.143464 
L 101.132152 149.759581 
L 104.813887 151.465162 
L 106.875659 152.160956 
L 107.612006 152.119126 
L 108.642892 152.01446 
L 109.158335 152.190986 
L 109.894682 152.728147 
L 111.220107 153.711464 
L 112.324628 154.19691 
L 113.576418 154.510027 
L 123.885277 156.092143 
L 125.726144 156.113659 
L 127.419743 156.088273 
L 129.996957 156.02842 
L 133.015981 156.140266 
L 138.023141 156.282545 
L 142.588493 156.786889 
L 145.902054 157.214455 
L 147.963826 157.272362 
L 150.982849 157.888614 
L 154.296411 158.156921 
L 156.873626 158.245312 
L 165.783425 158.423462 
L 167.918832 158.486855 
L 169.7597 158.533225 
L 171.895106 158.546921 
L 175.503207 158.562057 
L 183.087582 158.525072 
L 192.218286 158.348349 
L 199.655391 158.547525 
L 204.736186 158.449537 
L 207.387035 158.575316 
L 210.037885 158.612107 
L 215.11868 158.80158 
L 218.72678 158.741439 
L 221.009456 158.61459 
L 228.372927 158.779346 
L 231.1675 158.68328 
L 231.1675 158.68328 
" clip-path="url(#p92773a17ba)" style="fill: none; stroke: #0e0e77; stroke-linecap: square"/>
   </g>
   <g id="line2d_21">
    <path d="M -1 98.261028 
L 3.566164 98.198339 
L 5.627936 98.165222 
L 8.057881 98.218847 
L 12.25506 98.156539 
L 14.75864 98.201612 
L 18.955818 98.136623 
L 21.091225 98.078647 
L 23.005727 98.015721 
L 25.435672 97.991948 
L 31.620988 97.897613 
L 35.008184 97.739279 
L 38.321746 97.680976 
L 40.604422 97.599209 
L 43.255272 97.540593 
L 44.801601 97.505179 
L 51.428724 96.758638 
L 53.490496 96.341519 
L 55.478633 95.930593 
L 57.319501 95.28865 
L 59.896716 94.146322 
L 61.958487 93.017414 
L 63.87299 91.654095 
L 65.640223 90.152622 
L 67.039282 88.683595 
L 68.953785 86.29126 
L 70.352844 84.229214 
L 72.046442 81.279819 
L 73.666406 78.023218 
L 75.212735 74.430799 
L 77.569046 68.252018 
L 79.925356 61.4608 
L 84.196169 49.200853 
L 87.730635 39.700213 
L 89.350599 35.997538 
L 90.455119 33.965832 
L 91.486005 32.51746 
L 92.369622 31.63933 
L 93.105969 31.216036 
L 93.768681 31.098095 
L 94.505028 31.223785 
L 95.46228 31.658067 
L 96.5668 32.402895 
L 97.597686 33.363813 
L 98.554937 34.570735 
L 99.585823 36.253997 
L 100.911248 38.883754 
L 106.507486 50.460964 
L 108.569258 53.994765 
L 110.557395 57.037116 
L 113.060975 60.353682 
L 114.680938 62.19642 
L 118.583578 66.12847 
L 128.671533 76.423615 
L 131.322382 78.81149 
L 136.329542 82.748646 
L 138.464949 84.130659 
L 144.650264 87.779035 
L 146.93294 88.757164 
L 149.43652 89.5947 
L 152.08737 90.150422 
L 154.001872 90.556551 
L 156.505452 91.410042 
L 158.788128 92.488889 
L 160.776265 93.374518 
L 166.00433 95.085153 
L 170.054239 95.986129 
L 178.669499 97.070086 
L 189.420167 97.520341 
L 195.090039 97.691034 
L 200.612642 97.864858 
L 204.368012 97.831339 
L 216.885913 98.081598 
L 218.72678 98.125435 
L 221.598534 98.169085 
L 230.950142 98.225843 
L 231.1675 98.213458 
L 231.1675 98.213458 
" clip-path="url(#p92773a17ba)" style="fill: none; stroke: #000000; stroke-linecap: square"/>
   </g>
   <g id="line2d_22">
    <path d="M -1 188.894801 
L 19.839435 188.836852 
L 24.920229 188.708104 
L 26.466558 188.686551 
L 35.302723 188.814983 
L 39.647171 188.697883 
L 55.184094 188.152477 
L 60.412159 187.414223 
L 62.47393 186.809415 
L 65.272049 185.713563 
L 67.112917 184.628638 
L 68.291072 183.745248 
L 69.542862 182.487683 
L 70.647383 181.085613 
L 71.604634 179.465628 
L 72.78279 176.981434 
L 74.550022 173.155089 
L 74.991831 172.718508 
L 75.360004 172.646026 
L 75.728178 172.823455 
L 76.243621 173.384099 
L 79.925356 178.188602 
L 81.177146 179.174743 
L 82.355302 179.854582 
L 83.827996 180.420594 
L 85.447959 180.814145 
L 86.626115 181.198222 
L 91.706909 183.198836 
L 97.744955 184.959896 
L 109.0847 186.957649 
L 111.661915 187.276938 
L 114.091861 187.600186 
L 121.013523 188.124706 
L 124.768893 188.36077 
L 127.640647 188.505366 
L 132.132364 188.712093 
L 134.267771 188.601788 
L 136.844985 188.441138 
L 138.317679 188.60509 
L 140.379451 188.812484 
L 142.293954 188.735122 
L 144.650264 188.70426 
L 146.785671 188.629643 
L 148.700173 188.640707 
L 154.738219 188.791275 
L 157.168165 188.755925 
L 170.127873 189.002225 
L 172.26328 188.88748 
L 176.754997 188.821846 
L 181.688522 188.851788 
L 185.959335 188.928692 
L 187.873838 188.864891 
L 189.420167 188.873572 
L 192.43919 188.982652 
L 203.926204 188.841408 
L 226.532059 188.960209 
L 230.655603 188.864068 
L 231.1675 188.90744 
L 231.1675 188.90744 
" clip-path="url(#p92773a17ba)" style="fill: none; stroke: #626161; stroke-linecap: square"/>
   </g>
   <g id="patch_3">
    <path d="M 27.6675 197.46 
L 27.6675 7.2 
" style="fill: none; stroke: #000000; stroke-width: 0.8; stroke-linejoin: miter; stroke-linecap: square"/>
   </g>
   <g id="patch_4">
    <path d="M 27.6675 197.46 
L 222.9675 197.46 
" style="fill: none; stroke: #000000; stroke-width: 0.8; stroke-linejoin: miter; stroke-linecap: square"/>
   </g>
  </g>
 </g>
 <defs>
  <clipPath id="p92773a17ba">
   <rect x="27.6675" y="7.2" width="195.3" height="190.26"/>
  </clipPath>
 </defs>
</svg>
