<?xml version="1.0" encoding="utf-8" standalone="no"?>
<!DOCTYPE svg PUBLIC "-//W3C//DTD SVG 1.1//EN"
  "http://www.w3.org/Graphics/SVG/1.1/DTD/svg11.dtd">
<svg xmlns:xlink="http://www.w3.org/1999/xlink" width="238.64875pt" height="237.943437pt" viewBox="0 0 238.64875 237.943437" xmlns="http://www.w3.org/2000/svg" version="1.1">
 <metadata>
  <rdf:RDF xmlns:dc="http://purl.org/dc/elements/1.1/" xmlns:cc="http://creativecommons.org/ns#" xmlns:rdf="http://www.w3.org/1999/02/22-rdf-syntax-ns#">
   <cc:Work>
    <dc:type rdf:resource="http://purl.org/dc/dcmitype/StillImage"/>
    <dc:date>2023-10-02T15:40:35.797629</dc:date>
    <dc:format>image/svg+xml</dc:format>
    <dc:creator>
     <cc:Agent>
      <dc:title>Matplotlib v3.7.1, https://matplotlib.org/</dc:title>
     </cc:Agent>
    </dc:creator>
   </cc:Work>
  </rdf:RDF>
 </metadata>
 <defs>
  <style type="text/css">*{stroke-linejoin: round; stroke-linecap: butt}</style>
 </defs>
 <g id="figure_1">
  <g id="patch_1">
   <path d="M 0 237.943437 
L 238.64875 237.943437 
L 238.64875 0 
L 0 0 
z
" style="fill: #ffffff"/>
  </g>
  <g id="axes_1">
   <g id="patch_2">
    <path d="M 27.6675 197.46 
L 222.9675 197.46 
L 222.9675 7.2 
L 27.6675 7.2 
z
" style="fill: #ffffff"/>
   </g>
   <g id="matplotlib.axis_1">
    <g id="xtick_1">
     <g id="line2d_1">
      <defs>
       <path id="md7b07f695d" d="M 0 0 
L 0 3.5 
" style="stroke: #000000; stroke-width: 0.8"/>
      </defs>
      <g>
       <use xlink:href="#md7b07f695d" x="222.9675" y="197.46" style="stroke: #000000; stroke-width: 0.8"/>
      </g>
     </g>
     <g id="text_1">
      <!-- −20 -->
      <g transform="translate(214.48625 211.617812) scale(0.1 -0.1)">
       <defs>
        <path id="ArialMT-2212" d="M 3381 1997 
L 356 1997 
L 356 2522 
L 3381 2522 
L 3381 1997 
z
" transform="scale(0.015625)"/>
        <path id="ArialMT-32" d="M 3222 541 
L 3222 0 
L 194 0 
Q 188 203 259 391 
Q 375 700 629 1000 
Q 884 1300 1366 1694 
Q 2113 2306 2375 2664 
Q 2638 3022 2638 3341 
Q 2638 3675 2398 3904 
Q 2159 4134 1775 4134 
Q 1369 4134 1125 3890 
Q 881 3647 878 3216 
L 300 3275 
Q 359 3922 746 4261 
Q 1134 4600 1788 4600 
Q 2447 4600 2831 4234 
Q 3216 3869 3216 3328 
Q 3216 3053 3103 2787 
Q 2991 2522 2730 2228 
Q 2469 1934 1863 1422 
Q 1356 997 1212 845 
Q 1069 694 975 541 
L 3222 541 
z
" transform="scale(0.015625)"/>
        <path id="ArialMT-30" d="M 266 2259 
Q 266 3072 433 3567 
Q 600 4063 929 4331 
Q 1259 4600 1759 4600 
Q 2128 4600 2406 4451 
Q 2684 4303 2865 4023 
Q 3047 3744 3150 3342 
Q 3253 2941 3253 2259 
Q 3253 1453 3087 958 
Q 2922 463 2592 192 
Q 2263 -78 1759 -78 
Q 1097 -78 719 397 
Q 266 969 266 2259 
z
M 844 2259 
Q 844 1131 1108 757 
Q 1372 384 1759 384 
Q 2147 384 2411 759 
Q 2675 1134 2675 2259 
Q 2675 3391 2411 3762 
Q 2147 4134 1753 4134 
Q 1366 4134 1134 3806 
Q 844 3388 844 2259 
z
" transform="scale(0.015625)"/>
       </defs>
       <use xlink:href="#ArialMT-2212"/>
       <use xlink:href="#ArialMT-32" x="58.398438"/>
       <use xlink:href="#ArialMT-30" x="114.013672"/>
      </g>
     </g>
    </g>
    <g id="xtick_2">
     <g id="line2d_2">
      <g>
       <use xlink:href="#md7b07f695d" x="183.9075" y="197.46" style="stroke: #000000; stroke-width: 0.8"/>
      </g>
     </g>
     <g id="text_2">
      <!-- 0 -->
      <g transform="translate(181.127031 211.617812) scale(0.1 -0.1)">
       <use xlink:href="#ArialMT-30"/>
      </g>
     </g>
    </g>
    <g id="xtick_3">
     <g id="line2d_3">
      <g>
       <use xlink:href="#md7b07f695d" x="144.8475" y="197.46" style="stroke: #000000; stroke-width: 0.8"/>
      </g>
     </g>
     <g id="text_3">
      <!-- 20 -->
      <g transform="translate(139.286563 211.617812) scale(0.1 -0.1)">
       <use xlink:href="#ArialMT-32"/>
       <use xlink:href="#ArialMT-30" x="55.615234"/>
      </g>
     </g>
    </g>
    <g id="xtick_4">
     <g id="line2d_4">
      <g>
       <use xlink:href="#md7b07f695d" x="105.7875" y="197.46" style="stroke: #000000; stroke-width: 0.8"/>
      </g>
     </g>
     <g id="text_4">
      <!-- 40 -->
      <g transform="translate(100.226563 211.617812) scale(0.1 -0.1)">
       <defs>
        <path id="ArialMT-34" d="M 2069 0 
L 2069 1097 
L 81 1097 
L 81 1613 
L 2172 4581 
L 2631 4581 
L 2631 1613 
L 3250 1613 
L 3250 1097 
L 2631 1097 
L 2631 0 
L 2069 0 
z
M 2069 1613 
L 2069 3678 
L 634 1613 
L 2069 1613 
z
" transform="scale(0.015625)"/>
       </defs>
       <use xlink:href="#ArialMT-34"/>
       <use xlink:href="#ArialMT-30" x="55.615234"/>
      </g>
     </g>
    </g>
    <g id="xtick_5">
     <g id="line2d_5">
      <g>
       <use xlink:href="#md7b07f695d" x="66.7275" y="197.46" style="stroke: #000000; stroke-width: 0.8"/>
      </g>
     </g>
     <g id="text_5">
      <!-- 60 -->
      <g transform="translate(61.166563 211.617812) scale(0.1 -0.1)">
       <defs>
        <path id="ArialMT-36" d="M 3184 3459 
L 2625 3416 
Q 2550 3747 2413 3897 
Q 2184 4138 1850 4138 
Q 1581 4138 1378 3988 
Q 1113 3794 959 3422 
Q 806 3050 800 2363 
Q 1003 2672 1297 2822 
Q 1591 2972 1913 2972 
Q 2475 2972 2870 2558 
Q 3266 2144 3266 1488 
Q 3266 1056 3080 686 
Q 2894 316 2569 119 
Q 2244 -78 1831 -78 
Q 1128 -78 684 439 
Q 241 956 241 2144 
Q 241 3472 731 4075 
Q 1159 4600 1884 4600 
Q 2425 4600 2770 4297 
Q 3116 3994 3184 3459 
z
M 888 1484 
Q 888 1194 1011 928 
Q 1134 663 1356 523 
Q 1578 384 1822 384 
Q 2178 384 2434 671 
Q 2691 959 2691 1453 
Q 2691 1928 2437 2201 
Q 2184 2475 1800 2475 
Q 1419 2475 1153 2201 
Q 888 1928 888 1484 
z
" transform="scale(0.015625)"/>
       </defs>
       <use xlink:href="#ArialMT-36"/>
       <use xlink:href="#ArialMT-30" x="55.615234"/>
      </g>
     </g>
    </g>
    <g id="xtick_6">
     <g id="line2d_6">
      <g>
       <use xlink:href="#md7b07f695d" x="27.6675" y="197.46" style="stroke: #000000; stroke-width: 0.8"/>
      </g>
     </g>
     <g id="text_6">
      <!-- 80 -->
      <g transform="translate(22.106563 211.617812) scale(0.1 -0.1)">
       <defs>
        <path id="ArialMT-38" d="M 1131 2484 
Q 781 2613 612 2850 
Q 444 3088 444 3419 
Q 444 3919 803 4259 
Q 1163 4600 1759 4600 
Q 2359 4600 2725 4251 
Q 3091 3903 3091 3403 
Q 3091 3084 2923 2848 
Q 2756 2613 2416 2484 
Q 2838 2347 3058 2040 
Q 3278 1734 3278 1309 
Q 3278 722 2862 322 
Q 2447 -78 1769 -78 
Q 1091 -78 675 323 
Q 259 725 259 1325 
Q 259 1772 486 2073 
Q 713 2375 1131 2484 
z
M 1019 3438 
Q 1019 3113 1228 2906 
Q 1438 2700 1772 2700 
Q 2097 2700 2305 2904 
Q 2513 3109 2513 3406 
Q 2513 3716 2298 3927 
Q 2084 4138 1766 4138 
Q 1444 4138 1231 3931 
Q 1019 3725 1019 3438 
z
M 838 1322 
Q 838 1081 952 856 
Q 1066 631 1291 507 
Q 1516 384 1775 384 
Q 2178 384 2440 643 
Q 2703 903 2703 1303 
Q 2703 1709 2433 1975 
Q 2163 2241 1756 2241 
Q 1359 2241 1098 1978 
Q 838 1716 838 1322 
z
" transform="scale(0.015625)"/>
       </defs>
       <use xlink:href="#ArialMT-38"/>
       <use xlink:href="#ArialMT-30" x="55.615234"/>
      </g>
     </g>
    </g>
    <g id="xtick_7">
     <g id="line2d_7">
      <defs>
       <path id="m6c7174c945" d="M 0 0 
L 0 2 
" style="stroke: #000000; stroke-width: 0.6"/>
      </defs>
      <g>
       <use xlink:href="#m6c7174c945" x="213.2025" y="197.46" style="stroke: #000000; stroke-width: 0.6"/>
      </g>
     </g>
    </g>
    <g id="xtick_8">
     <g id="line2d_8">
      <g>
       <use xlink:href="#m6c7174c945" x="203.4375" y="197.46" style="stroke: #000000; stroke-width: 0.6"/>
      </g>
     </g>
    </g>
    <g id="xtick_9">
     <g id="line2d_9">
      <g>
       <use xlink:href="#m6c7174c945" x="193.6725" y="197.46" style="stroke: #000000; stroke-width: 0.6"/>
      </g>
     </g>
    </g>
    <g id="xtick_10">
     <g id="line2d_10">
      <g>
       <use xlink:href="#m6c7174c945" x="174.1425" y="197.46" style="stroke: #000000; stroke-width: 0.6"/>
      </g>
     </g>
    </g>
    <g id="xtick_11">
     <g id="line2d_11">
      <g>
       <use xlink:href="#m6c7174c945" x="164.3775" y="197.46" style="stroke: #000000; stroke-width: 0.6"/>
      </g>
     </g>
    </g>
    <g id="xtick_12">
     <g id="line2d_12">
      <g>
       <use xlink:href="#m6c7174c945" x="154.6125" y="197.46" style="stroke: #000000; stroke-width: 0.6"/>
      </g>
     </g>
    </g>
    <g id="xtick_13">
     <g id="line2d_13">
      <g>
       <use xlink:href="#m6c7174c945" x="135.0825" y="197.46" style="stroke: #000000; stroke-width: 0.6"/>
      </g>
     </g>
    </g>
    <g id="xtick_14">
     <g id="line2d_14">
      <g>
       <use xlink:href="#m6c7174c945" x="125.3175" y="197.46" style="stroke: #000000; stroke-width: 0.6"/>
      </g>
     </g>
    </g>
    <g id="xtick_15">
     <g id="line2d_15">
      <g>
       <use xlink:href="#m6c7174c945" x="115.5525" y="197.46" style="stroke: #000000; stroke-width: 0.6"/>
      </g>
     </g>
    </g>
    <g id="xtick_16">
     <g id="line2d_16">
      <g>
       <use xlink:href="#m6c7174c945" x="96.0225" y="197.46" style="stroke: #000000; stroke-width: 0.6"/>
      </g>
     </g>
    </g>
    <g id="xtick_17">
     <g id="line2d_17">
      <g>
       <use xlink:href="#m6c7174c945" x="86.2575" y="197.46" style="stroke: #000000; stroke-width: 0.6"/>
      </g>
     </g>
    </g>
    <g id="xtick_18">
     <g id="line2d_18">
      <g>
       <use xlink:href="#m6c7174c945" x="76.4925" y="197.46" style="stroke: #000000; stroke-width: 0.6"/>
      </g>
     </g>
    </g>
    <g id="xtick_19">
     <g id="line2d_19">
      <g>
       <use xlink:href="#m6c7174c945" x="56.9625" y="197.46" style="stroke: #000000; stroke-width: 0.6"/>
      </g>
     </g>
    </g>
    <g id="xtick_20">
     <g id="line2d_20">
      <g>
       <use xlink:href="#m6c7174c945" x="47.1975" y="197.46" style="stroke: #000000; stroke-width: 0.6"/>
      </g>
     </g>
    </g>
    <g id="xtick_21">
     <g id="line2d_21">
      <g>
       <use xlink:href="#m6c7174c945" x="37.4325" y="197.46" style="stroke: #000000; stroke-width: 0.6"/>
      </g>
     </g>
    </g>
    <g id="text_7">
     <!-- Chemical shift (ppm) -->
     <g transform="translate(61.138438 227.796875) scale(0.14 -0.14)">
      <defs>
       <path id="ArialMT-43" d="M 3763 1606 
L 4369 1453 
Q 4178 706 3683 314 
Q 3188 -78 2472 -78 
Q 1731 -78 1267 223 
Q 803 525 561 1097 
Q 319 1669 319 2325 
Q 319 3041 592 3573 
Q 866 4106 1370 4382 
Q 1875 4659 2481 4659 
Q 3169 4659 3637 4309 
Q 4106 3959 4291 3325 
L 3694 3184 
Q 3534 3684 3231 3912 
Q 2928 4141 2469 4141 
Q 1941 4141 1586 3887 
Q 1231 3634 1087 3207 
Q 944 2781 944 2328 
Q 944 1744 1114 1308 
Q 1284 872 1643 656 
Q 2003 441 2422 441 
Q 2931 441 3284 734 
Q 3638 1028 3763 1606 
z
" transform="scale(0.015625)"/>
       <path id="ArialMT-68" d="M 422 0 
L 422 4581 
L 984 4581 
L 984 2938 
Q 1378 3394 1978 3394 
Q 2347 3394 2619 3248 
Q 2891 3103 3008 2847 
Q 3125 2591 3125 2103 
L 3125 0 
L 2563 0 
L 2563 2103 
Q 2563 2525 2380 2717 
Q 2197 2909 1863 2909 
Q 1613 2909 1392 2779 
Q 1172 2650 1078 2428 
Q 984 2206 984 1816 
L 984 0 
L 422 0 
z
" transform="scale(0.015625)"/>
       <path id="ArialMT-65" d="M 2694 1069 
L 3275 997 
Q 3138 488 2766 206 
Q 2394 -75 1816 -75 
Q 1088 -75 661 373 
Q 234 822 234 1631 
Q 234 2469 665 2931 
Q 1097 3394 1784 3394 
Q 2450 3394 2872 2941 
Q 3294 2488 3294 1666 
Q 3294 1616 3291 1516 
L 816 1516 
Q 847 969 1125 678 
Q 1403 388 1819 388 
Q 2128 388 2347 550 
Q 2566 713 2694 1069 
z
M 847 1978 
L 2700 1978 
Q 2663 2397 2488 2606 
Q 2219 2931 1791 2931 
Q 1403 2931 1139 2672 
Q 875 2413 847 1978 
z
" transform="scale(0.015625)"/>
       <path id="ArialMT-6d" d="M 422 0 
L 422 3319 
L 925 3319 
L 925 2853 
Q 1081 3097 1340 3245 
Q 1600 3394 1931 3394 
Q 2300 3394 2536 3241 
Q 2772 3088 2869 2813 
Q 3263 3394 3894 3394 
Q 4388 3394 4653 3120 
Q 4919 2847 4919 2278 
L 4919 0 
L 4359 0 
L 4359 2091 
Q 4359 2428 4304 2576 
Q 4250 2725 4106 2815 
Q 3963 2906 3769 2906 
Q 3419 2906 3187 2673 
Q 2956 2441 2956 1928 
L 2956 0 
L 2394 0 
L 2394 2156 
Q 2394 2531 2256 2718 
Q 2119 2906 1806 2906 
Q 1569 2906 1367 2781 
Q 1166 2656 1075 2415 
Q 984 2175 984 1722 
L 984 0 
L 422 0 
z
" transform="scale(0.015625)"/>
       <path id="ArialMT-69" d="M 425 3934 
L 425 4581 
L 988 4581 
L 988 3934 
L 425 3934 
z
M 425 0 
L 425 3319 
L 988 3319 
L 988 0 
L 425 0 
z
" transform="scale(0.015625)"/>
       <path id="ArialMT-63" d="M 2588 1216 
L 3141 1144 
Q 3050 572 2676 248 
Q 2303 -75 1759 -75 
Q 1078 -75 664 370 
Q 250 816 250 1647 
Q 250 2184 428 2587 
Q 606 2991 970 3192 
Q 1334 3394 1763 3394 
Q 2303 3394 2647 3120 
Q 2991 2847 3088 2344 
L 2541 2259 
Q 2463 2594 2264 2762 
Q 2066 2931 1784 2931 
Q 1359 2931 1093 2626 
Q 828 2322 828 1663 
Q 828 994 1084 691 
Q 1341 388 1753 388 
Q 2084 388 2306 591 
Q 2528 794 2588 1216 
z
" transform="scale(0.015625)"/>
       <path id="ArialMT-61" d="M 2588 409 
Q 2275 144 1986 34 
Q 1697 -75 1366 -75 
Q 819 -75 525 192 
Q 231 459 231 875 
Q 231 1119 342 1320 
Q 453 1522 633 1644 
Q 813 1766 1038 1828 
Q 1203 1872 1538 1913 
Q 2219 1994 2541 2106 
Q 2544 2222 2544 2253 
Q 2544 2597 2384 2738 
Q 2169 2928 1744 2928 
Q 1347 2928 1158 2789 
Q 969 2650 878 2297 
L 328 2372 
Q 403 2725 575 2942 
Q 747 3159 1072 3276 
Q 1397 3394 1825 3394 
Q 2250 3394 2515 3294 
Q 2781 3194 2906 3042 
Q 3031 2891 3081 2659 
Q 3109 2516 3109 2141 
L 3109 1391 
Q 3109 606 3145 398 
Q 3181 191 3288 0 
L 2700 0 
Q 2613 175 2588 409 
z
M 2541 1666 
Q 2234 1541 1622 1453 
Q 1275 1403 1131 1340 
Q 988 1278 909 1158 
Q 831 1038 831 891 
Q 831 666 1001 516 
Q 1172 366 1500 366 
Q 1825 366 2078 508 
Q 2331 650 2450 897 
Q 2541 1088 2541 1459 
L 2541 1666 
z
" transform="scale(0.015625)"/>
       <path id="ArialMT-6c" d="M 409 0 
L 409 4581 
L 972 4581 
L 972 0 
L 409 0 
z
" transform="scale(0.015625)"/>
       <path id="ArialMT-20" transform="scale(0.015625)"/>
       <path id="ArialMT-73" d="M 197 991 
L 753 1078 
Q 800 744 1014 566 
Q 1228 388 1613 388 
Q 2000 388 2187 545 
Q 2375 703 2375 916 
Q 2375 1106 2209 1216 
Q 2094 1291 1634 1406 
Q 1016 1563 777 1677 
Q 538 1791 414 1992 
Q 291 2194 291 2438 
Q 291 2659 392 2848 
Q 494 3038 669 3163 
Q 800 3259 1026 3326 
Q 1253 3394 1513 3394 
Q 1903 3394 2198 3281 
Q 2494 3169 2634 2976 
Q 2775 2784 2828 2463 
L 2278 2388 
Q 2241 2644 2061 2787 
Q 1881 2931 1553 2931 
Q 1166 2931 1000 2803 
Q 834 2675 834 2503 
Q 834 2394 903 2306 
Q 972 2216 1119 2156 
Q 1203 2125 1616 2013 
Q 2213 1853 2448 1751 
Q 2684 1650 2818 1456 
Q 2953 1263 2953 975 
Q 2953 694 2789 445 
Q 2625 197 2315 61 
Q 2006 -75 1616 -75 
Q 969 -75 630 194 
Q 291 463 197 991 
z
" transform="scale(0.015625)"/>
       <path id="ArialMT-66" d="M 556 0 
L 556 2881 
L 59 2881 
L 59 3319 
L 556 3319 
L 556 3672 
Q 556 4006 616 4169 
Q 697 4388 901 4523 
Q 1106 4659 1475 4659 
Q 1713 4659 2000 4603 
L 1916 4113 
Q 1741 4144 1584 4144 
Q 1328 4144 1222 4034 
Q 1116 3925 1116 3625 
L 1116 3319 
L 1763 3319 
L 1763 2881 
L 1116 2881 
L 1116 0 
L 556 0 
z
" transform="scale(0.015625)"/>
       <path id="ArialMT-74" d="M 1650 503 
L 1731 6 
Q 1494 -44 1306 -44 
Q 1000 -44 831 53 
Q 663 150 594 308 
Q 525 466 525 972 
L 525 2881 
L 113 2881 
L 113 3319 
L 525 3319 
L 525 4141 
L 1084 4478 
L 1084 3319 
L 1650 3319 
L 1650 2881 
L 1084 2881 
L 1084 941 
Q 1084 700 1114 631 
Q 1144 563 1211 522 
Q 1278 481 1403 481 
Q 1497 481 1650 503 
z
" transform="scale(0.015625)"/>
       <path id="ArialMT-28" d="M 1497 -1347 
Q 1031 -759 709 28 
Q 388 816 388 1659 
Q 388 2403 628 3084 
Q 909 3875 1497 4659 
L 1900 4659 
Q 1522 4009 1400 3731 
Q 1209 3300 1100 2831 
Q 966 2247 966 1656 
Q 966 153 1900 -1347 
L 1497 -1347 
z
" transform="scale(0.015625)"/>
       <path id="ArialMT-70" d="M 422 -1272 
L 422 3319 
L 934 3319 
L 934 2888 
Q 1116 3141 1344 3267 
Q 1572 3394 1897 3394 
Q 2322 3394 2647 3175 
Q 2972 2956 3137 2557 
Q 3303 2159 3303 1684 
Q 3303 1175 3120 767 
Q 2938 359 2589 142 
Q 2241 -75 1856 -75 
Q 1575 -75 1351 44 
Q 1128 163 984 344 
L 984 -1272 
L 422 -1272 
z
M 931 1641 
Q 931 1000 1190 694 
Q 1450 388 1819 388 
Q 2194 388 2461 705 
Q 2728 1022 2728 1688 
Q 2728 2322 2467 2637 
Q 2206 2953 1844 2953 
Q 1484 2953 1207 2617 
Q 931 2281 931 1641 
z
" transform="scale(0.015625)"/>
       <path id="ArialMT-29" d="M 791 -1347 
L 388 -1347 
Q 1322 153 1322 1656 
Q 1322 2244 1188 2822 
Q 1081 3291 891 3722 
Q 769 4003 388 4659 
L 791 4659 
Q 1378 3875 1659 3084 
Q 1900 2403 1900 1659 
Q 1900 816 1576 28 
Q 1253 -759 791 -1347 
z
" transform="scale(0.015625)"/>
      </defs>
      <use xlink:href="#ArialMT-43"/>
      <use xlink:href="#ArialMT-68" x="72.216797"/>
      <use xlink:href="#ArialMT-65" x="127.832031"/>
      <use xlink:href="#ArialMT-6d" x="183.447266"/>
      <use xlink:href="#ArialMT-69" x="266.748047"/>
      <use xlink:href="#ArialMT-63" x="288.964844"/>
      <use xlink:href="#ArialMT-61" x="338.964844"/>
      <use xlink:href="#ArialMT-6c" x="394.580078"/>
      <use xlink:href="#ArialMT-20" x="416.796875"/>
      <use xlink:href="#ArialMT-73" x="444.580078"/>
      <use xlink:href="#ArialMT-68" x="494.580078"/>
      <use xlink:href="#ArialMT-69" x="550.195312"/>
      <use xlink:href="#ArialMT-66" x="572.412109"/>
      <use xlink:href="#ArialMT-74" x="600.195312"/>
      <use xlink:href="#ArialMT-20" x="627.978516"/>
      <use xlink:href="#ArialMT-28" x="655.761719"/>
      <use xlink:href="#ArialMT-70" x="689.0625"/>
      <use xlink:href="#ArialMT-70" x="744.677734"/>
      <use xlink:href="#ArialMT-6d" x="800.292969"/>
      <use xlink:href="#ArialMT-29" x="883.59375"/>
     </g>
    </g>
   </g>
   <g id="matplotlib.axis_2">
    <g id="ytick_1">
     <g id="line2d_22"/>
    </g>
    <g id="ytick_2">
     <g id="line2d_23"/>
    </g>
    <g id="ytick_3">
     <g id="line2d_24"/>
    </g>
    <g id="ytick_4">
     <g id="line2d_25"/>
    </g>
    <g id="ytick_5">
     <g id="line2d_26"/>
    </g>
    <g id="ytick_6">
     <g id="line2d_27"/>
    </g>
    <g id="ytick_7">
     <g id="line2d_28"/>
    </g>
    <g id="text_8">
     <!-- Intensity -->
     <g transform="translate(17.220938 128.397344) rotate(-90) scale(0.14 -0.14)">
      <defs>
       <path id="ArialMT-49" d="M 597 0 
L 597 4581 
L 1203 4581 
L 1203 0 
L 597 0 
z
" transform="scale(0.015625)"/>
       <path id="ArialMT-6e" d="M 422 0 
L 422 3319 
L 928 3319 
L 928 2847 
Q 1294 3394 1984 3394 
Q 2284 3394 2536 3286 
Q 2788 3178 2913 3003 
Q 3038 2828 3088 2588 
Q 3119 2431 3119 2041 
L 3119 0 
L 2556 0 
L 2556 2019 
Q 2556 2363 2490 2533 
Q 2425 2703 2258 2804 
Q 2091 2906 1866 2906 
Q 1506 2906 1245 2678 
Q 984 2450 984 1813 
L 984 0 
L 422 0 
z
" transform="scale(0.015625)"/>
       <path id="ArialMT-79" d="M 397 -1278 
L 334 -750 
Q 519 -800 656 -800 
Q 844 -800 956 -737 
Q 1069 -675 1141 -563 
Q 1194 -478 1313 -144 
Q 1328 -97 1363 -6 
L 103 3319 
L 709 3319 
L 1400 1397 
Q 1534 1031 1641 628 
Q 1738 1016 1872 1384 
L 2581 3319 
L 3144 3319 
L 1881 -56 
Q 1678 -603 1566 -809 
Q 1416 -1088 1222 -1217 
Q 1028 -1347 759 -1347 
Q 597 -1347 397 -1278 
z
" transform="scale(0.015625)"/>
      </defs>
      <use xlink:href="#ArialMT-49"/>
      <use xlink:href="#ArialMT-6e" x="27.783203"/>
      <use xlink:href="#ArialMT-74" x="83.398438"/>
      <use xlink:href="#ArialMT-65" x="111.181641"/>
      <use xlink:href="#ArialMT-6e" x="166.796875"/>
      <use xlink:href="#ArialMT-73" x="222.412109"/>
      <use xlink:href="#ArialMT-69" x="272.412109"/>
      <use xlink:href="#ArialMT-74" x="294.628906"/>
      <use xlink:href="#ArialMT-79" x="322.412109"/>
     </g>
    </g>
   </g>
   <g id="line2d_29">
    <path d="M -1 126.552008 
L 12.425059 126.582389 
L 19.793917 126.561803 
L 43.80213 126.182829 
L 52.834923 125.397761 
L 56.400499 124.844037 
L 59.72837 124.128621 
L 64.244767 123.114748 
L 66.146408 122.853537 
L 68.048048 122.752775 
L 70.425099 122.929189 
L 72.80215 123.38886 
L 76.367726 124.306314 
L 80.884123 125.375306 
L 83.974289 125.84601 
L 87.539865 126.179624 
L 94.671017 126.465977 
L 102.990695 126.583144 
L 105.843156 126.587167 
L 116.064474 126.598109 
L 127.474318 126.585066 
L 129.375959 126.610846 
L 141.023508 126.548555 
L 153.384172 126.273528 
L 154.572698 126.064659 
L 156.236633 125.625341 
L 157.425159 124.953515 
L 157.900569 124.496431 
L 158.375979 123.779696 
L 158.851389 122.754421 
L 159.326799 121.326181 
L 159.802209 119.15115 
L 160.27762 115.681656 
L 160.990735 107.707723 
L 161.70385 99.307584 
L 162.17926 96.235371 
L 162.416965 95.88246 
L 162.65467 96.319273 
L 163.13008 99.088 
L 164.794016 112.249564 
L 165.507131 115.567533 
L 166.220247 117.709718 
L 166.933362 119.066996 
L 167.884182 120.339342 
L 168.835002 121.220626 
L 170.498938 122.356411 
L 172.638284 123.428875 
L 175.015335 124.295222 
L 177.63009 124.960582 
L 182.384192 125.704583 
L 189.75305 126.209119 
L 196.408792 126.406258 
L 203.777649 126.520908 
L 214.712083 126.592137 
L 230.162913 126.637452 
L 232.539964 126.612488 
L 239.64875 126.628249 
L 239.64875 126.628249 
" clip-path="url(#pbbd6872cd8)" style="fill: none; stroke: #58a265; stroke-linecap: square"/>
   </g>
   <g id="line2d_30">
    <path d="M -1 96.718286 
L 4.105381 96.806503 
L 16.703751 96.812594 
L 31.916876 96.477714 
L 39.048028 96.233204 
L 40.949669 96.182813 
L 47.843116 95.740713 
L 50.933282 95.202908 
L 53.310333 94.458127 
L 57.113614 92.787684 
L 58.064435 92.077769 
L 59.25296 90.880848 
L 60.203781 89.697118 
L 61.154601 88.159043 
L 61.867716 86.714752 
L 62.580831 84.782633 
L 63.293947 82.097889 
L 64.007062 78.535636 
L 66.146408 66.715911 
L 66.384113 66.388988 
L 66.621818 66.452269 
L 66.859523 66.905434 
L 67.334933 68.85143 
L 68.048048 73.435653 
L 69.236574 81.319339 
L 69.949689 84.859365 
L 70.662804 87.455397 
L 71.375919 89.317777 
L 72.32674 91.068578 
L 73.27756 92.28135 
L 74.466085 93.322197 
L 75.654611 94.079812 
L 77.556251 94.911744 
L 79.220187 95.353788 
L 80.884123 95.678261 
L 85.638224 96.227708 
L 94.195607 96.620256 
L 97.998888 96.711249 
L 103.2284 96.764103 
L 114.162834 96.781436 
L 116.77759 96.779208 
L 121.531691 96.748369 
L 131.75301 96.714183 
L 142.687444 96.252396 
L 145.064494 95.898383 
L 146.966135 95.410683 
L 148.15466 94.924048 
L 149.580891 94.196909 
L 150.769416 93.224357 
L 151.720237 92.278798 
L 152.671057 90.959835 
L 153.621877 89.272855 
L 154.334993 87.506126 
L 155.048108 85.132124 
L 155.761223 81.886346 
L 156.474338 77.301014 
L 158.613684 61.874163 
L 160.515325 49.486892 
L 160.990735 43.762837 
L 162.17926 27.010403 
L 162.416965 25.600672 
L 162.65467 25.438405 
L 162.892375 26.546686 
L 163.367786 31.949946 
L 164.794016 53.691657 
L 165.507131 60.627976 
L 166.220247 65.684027 
L 167.171067 70.77147 
L 168.359592 75.954064 
L 169.310413 79.279172 
L 170.498938 82.597281 
L 171.449758 84.648243 
L 172.875989 87.052278 
L 174.064514 88.566151 
L 175.490745 90.052377 
L 177.63009 91.720994 
L 180.007141 93.187395 
L 182.146487 94.131238 
L 184.523538 94.852603 
L 188.326819 95.62416 
L 191.65469 95.975805 
L 197.835022 96.380792 
L 201.400599 96.487959 
L 204.490765 96.5546 
L 208.056341 96.601871 
L 209.482571 96.632537 
L 212.810442 96.619115 
L 215.900608 96.675943 
L 236.58095 96.449763 
L 239.64875 96.258181 
L 239.64875 96.258181 
" clip-path="url(#pbbd6872cd8)" style="fill: none; stroke: #0e0e77; stroke-linecap: square"/>
   </g>
   <g id="line2d_31">
    <path d="M -1 156.392069 
L 35.007042 156.259389 
L 44.039835 155.720453 
L 52.834923 154.549357 
L 56.638204 153.942835 
L 60.203781 153.596803 
L 63.056241 153.488642 
L 67.572638 153.684693 
L 78.269367 155.0918 
L 83.023468 155.586156 
L 89.679211 156.004013 
L 99.662824 156.301728 
L 107.507092 156.406109 
L 112.974308 156.426285 
L 127.236613 156.412257 
L 148.392365 156.173557 
L 151.244826 155.997888 
L 154.334993 155.542388 
L 155.523518 155.157974 
L 156.474338 154.573019 
L 157.187453 153.932811 
L 157.900569 152.948801 
L 158.613684 151.389621 
L 159.326799 149.10475 
L 160.039914 145.685252 
L 160.990735 139.190519 
L 161.70385 135.001949 
L 161.941555 134.240411 
L 162.17926 133.890627 
L 162.416965 133.951562 
L 162.65467 134.383182 
L 163.13008 136.059731 
L 164.556311 142.1136 
L 165.269426 144.126418 
L 165.982541 145.530679 
L 166.695657 146.511573 
L 167.884182 147.728809 
L 169.310413 148.864918 
L 171.212053 150.094141 
L 173.351399 151.204294 
L 175.966155 152.236908 
L 179.056321 153.236843 
L 182.621897 154.14199 
L 186.662883 154.885392 
L 189.75305 155.261007 
L 196.171087 155.814545 
L 205.916995 156.239743 
L 224.220286 156.472771 
L 230.400618 156.496545 
L 239.64875 156.519374 
L 239.64875 156.519374 
" clip-path="url(#pbbd6872cd8)" style="fill: none; stroke: #000000; stroke-linecap: square"/>
   </g>
   <g id="line2d_32">
    <path d="M -1 186.384132 
L 7.670958 186.414618 
L 20.031622 186.411426 
L 26.211954 186.348979 
L 31.916876 186.279098 
L 40.711964 185.791092 
L 44.27754 185.299108 
L 47.130001 184.734028 
L 49.031642 184.208928 
L 51.408693 183.361592 
L 53.310333 182.475611 
L 55.687384 181.092541 
L 58.064435 179.40183 
L 61.392306 176.924106 
L 63.056241 175.96756 
L 64.244767 175.517411 
L 65.433292 175.299031 
L 66.384113 175.339791 
L 67.572638 175.592188 
L 68.761163 176.084441 
L 70.425099 177.066272 
L 72.564445 178.618343 
L 76.130021 181.283324 
L 78.507072 182.76256 
L 80.171007 183.58595 
L 82.072648 184.311769 
L 84.925109 185.093586 
L 88.25298 185.654457 
L 90.867736 185.889145 
L 98.712004 186.251462 
L 123.195627 186.443431 
L 140.785803 186.415847 
L 143.638264 186.39009 
L 153.859582 186.054742 
L 155.761223 185.57393 
L 156.712043 185.05263 
L 157.662864 184.297746 
L 158.138274 183.668567 
L 158.613684 182.713079 
L 159.089094 181.36783 
L 159.564504 179.490921 
L 160.039914 176.716839 
L 160.515325 172.629683 
L 161.941555 157.528425 
L 162.17926 156.441161 
L 162.416965 156.156484 
L 162.65467 156.663325 
L 163.13008 159.599484 
L 164.556311 171.5856 
L 165.269426 175.217867 
L 165.982541 177.565351 
L 166.695657 179.040959 
L 167.646477 180.354619 
L 168.597297 181.323716 
L 170.023528 182.280988 
L 171.449758 183.068635 
L 173.351399 183.856679 
L 176.916975 184.85309 
L 179.531731 185.319696 
L 182.859602 185.684772 
L 189.039934 186.057567 
L 209.007161 186.365211 
L 218.515364 186.387184 
L 239.64875 186.392912 
L 239.64875 186.392912 
" clip-path="url(#pbbd6872cd8)" style="fill: none; stroke: #626161; stroke-linecap: square"/>
   </g>
   <g id="patch_3">
    <path d="M 27.6675 197.46 
L 27.6675 7.2 
" style="fill: none; stroke: #000000; stroke-width: 0.8; stroke-linejoin: miter; stroke-linecap: square"/>
   </g>
   <g id="patch_4">
    <path d="M 27.6675 197.46 
L 222.9675 197.46 
" style="fill: none; stroke: #000000; stroke-width: 0.8; stroke-linejoin: miter; stroke-linecap: square"/>
   </g>
  </g>
 </g>
 <defs>
  <clipPath id="pbbd6872cd8">
   <rect x="27.6675" y="7.2" width="195.3" height="190.26"/>
  </clipPath>
 </defs>
</svg>
