<?xml version="1.0" encoding="utf-8" standalone="no"?>
<!DOCTYPE svg PUBLIC "-//W3C//DTD SVG 1.1//EN"
  "http://www.w3.org/Graphics/SVG/1.1/DTD/svg11.dtd">
<svg xmlns:xlink="http://www.w3.org/1999/xlink" width="84.242188pt" height="84.905312pt" viewBox="0 0 84.242188 84.905312" xmlns="http://www.w3.org/2000/svg" version="1.1">
 <metadata>
  <rdf:RDF xmlns:dc="http://purl.org/dc/elements/1.1/" xmlns:cc="http://creativecommons.org/ns#" xmlns:rdf="http://www.w3.org/1999/02/22-rdf-syntax-ns#">
   <cc:Work>
    <dc:type rdf:resource="http://purl.org/dc/dcmitype/StillImage"/>
    <dc:date>2023-09-29T18:18:48.272012</dc:date>
    <dc:format>image/svg+xml</dc:format>
    <dc:creator>
     <cc:Agent>
      <dc:title>Matplotlib v3.7.1, https://matplotlib.org/</dc:title>
     </cc:Agent>
    </dc:creator>
   </cc:Work>
  </rdf:RDF>
 </metadata>
 <defs>
  <style type="text/css">*{stroke-linejoin: round; stroke-linecap: butt}</style>
 </defs>
 <g id="figure_1">
  <g id="patch_1">
   <path d="M 0 84.905312 
L 84.242188 84.905312 
L 84.242188 0 
L 0 0 
z
" style="fill: #ffffff"/>
  </g>
  <g id="axes_1">
   <g id="patch_2">
    <path d="M 12.760938 61.56 
L 68.560937 61.56 
L 68.560937 7.2 
L 12.760938 7.2 
z
" style="fill: #ffffff"/>
   </g>
   <g id="matplotlib.axis_1">
    <g id="xtick_1">
     <g id="line2d_1">
      <defs>
       <path id="m240b03064e" d="M 0 0 
L 0 3.5 
" style="stroke: #000000; stroke-width: 0.8"/>
      </defs>
      <g>
       <use xlink:href="#m240b03064e" x="68.560937" y="61.56" style="stroke: #000000; stroke-width: 0.8"/>
      </g>
     </g>
     <g id="text_1">
      <!-- −10 -->
      <g transform="translate(60.079687 75.717812) scale(0.1 -0.1)">
       <defs>
        <path id="ArialMT-2212" d="M 3381 1997 
L 356 1997 
L 356 2522 
L 3381 2522 
L 3381 1997 
z
" transform="scale(0.015625)"/>
        <path id="ArialMT-31" d="M 2384 0 
L 1822 0 
L 1822 3584 
Q 1619 3391 1289 3197 
Q 959 3003 697 2906 
L 697 3450 
Q 1169 3672 1522 3987 
Q 1875 4303 2022 4600 
L 2384 4600 
L 2384 0 
z
" transform="scale(0.015625)"/>
        <path id="ArialMT-30" d="M 266 2259 
Q 266 3072 433 3567 
Q 600 4063 929 4331 
Q 1259 4600 1759 4600 
Q 2128 4600 2406 4451 
Q 2684 4303 2865 4023 
Q 3047 3744 3150 3342 
Q 3253 2941 3253 2259 
Q 3253 1453 3087 958 
Q 2922 463 2592 192 
Q 2263 -78 1759 -78 
Q 1097 -78 719 397 
Q 266 969 266 2259 
z
M 844 2259 
Q 844 1131 1108 757 
Q 1372 384 1759 384 
Q 2147 384 2411 759 
Q 2675 1134 2675 2259 
Q 2675 3391 2411 3762 
Q 2147 4134 1753 4134 
Q 1366 4134 1134 3806 
Q 844 3388 844 2259 
z
" transform="scale(0.015625)"/>
       </defs>
       <use xlink:href="#ArialMT-2212"/>
       <use xlink:href="#ArialMT-31" x="58.398438"/>
       <use xlink:href="#ArialMT-30" x="114.013672"/>
      </g>
     </g>
    </g>
    <g id="xtick_2">
     <g id="line2d_2">
      <g>
       <use xlink:href="#m240b03064e" x="40.660938" y="61.56" style="stroke: #000000; stroke-width: 0.8"/>
      </g>
     </g>
     <g id="text_2">
      <!-- 0 -->
      <g transform="translate(37.880469 75.717812) scale(0.1 -0.1)">
       <use xlink:href="#ArialMT-30"/>
      </g>
     </g>
    </g>
    <g id="xtick_3">
     <g id="line2d_3">
      <g>
       <use xlink:href="#m240b03064e" x="12.760938" y="61.56" style="stroke: #000000; stroke-width: 0.8"/>
      </g>
     </g>
     <g id="text_3">
      <!-- 10 -->
      <g transform="translate(7.2 75.717812) scale(0.1 -0.1)">
       <use xlink:href="#ArialMT-31"/>
       <use xlink:href="#ArialMT-30" x="55.615234"/>
      </g>
     </g>
    </g>
   </g>
   <g id="matplotlib.axis_2">
    <g id="ytick_1">
     <g id="line2d_4"/>
    </g>
    <g id="ytick_2">
     <g id="line2d_5"/>
    </g>
   </g>
   <g id="line2d_6">
    <path d="M -1 57.171667 
L -0.192236 57.42625 
L 0.438919 57.383272 
L 1.448766 57.219138 
L 2.584845 57.394073 
L 3.678846 56.994256 
L 4.352078 56.853815 
L 5.319848 56.757291 
L 6.077234 56.607365 
L 6.876696 56.543141 
L 8.643929 56.048967 
L 9.148853 56.117791 
L 10.074546 56.362234 
L 10.705701 56.179459 
L 11.757625 55.666534 
L 13.524858 54.367699 
L 15.544553 52.862868 
L 16.344016 52.282473 
L 19.710174 48.257055 
L 20.551713 46.95593 
L 21.182868 45.968295 
L 23.076332 42.10473 
L 23.707486 40.019401 
L 24.759411 35.446316 
L 26.190028 28.965234 
L 27.157798 23.211346 
L 28.2518 16.820915 
L 28.67257 15.417338 
L 28.967108 15.03151 
L 29.177493 15.04259 
L 29.472032 15.353439 
L 30.06111 16.448397 
L 31.323419 18.867758 
L 31.786266 19.23144 
L 32.249113 19.328527 
L 32.585728 19.17351 
L 32.964421 18.699944 
L 33.595576 17.447907 
L 36.625118 11.024489 
L 37.424581 9.89008 
L 37.803273 9.675707 
L 38.139889 9.732282 
L 38.939352 10.200809 
L 39.360121 10.63966 
L 39.780891 11.454037 
L 40.285815 12.984107 
L 41.295662 17.037775 
L 43.231203 24.228275 
L 43.988589 26.364885 
L 44.241051 26.511762 
L 44.451436 26.324023 
L 44.998436 25.695089 
L 45.166744 25.903399 
L 45.377129 26.606147 
L 45.755822 28.879634 
L 46.597361 34.075023 
L 47.186439 36.205803 
L 47.73344 37.447806 
L 48.406671 38.343359 
L 49.164057 39.485129 
L 50.720905 41.99716 
L 51.478291 42.940963 
L 53.245524 45.222774 
L 53.582139 45.331354 
L 54.634064 45.278606 
L 55.223141 45.459743 
L 55.685988 45.321198 
L 56.90622 44.83122 
L 57.32699 44.996764 
L 58.252684 45.472713 
L 60.188225 45.847141 
L 60.735225 46.001287 
L 61.745073 46.103855 
L 62.502458 46.69882 
L 64.101383 48.152337 
L 64.774615 49.017851 
L 65.868616 50.452322 
L 66.247309 50.647713 
L 66.583925 50.581222 
L 67.130926 50.434955 
L 67.383387 50.644991 
L 67.720003 51.291556 
L 68.60362 53.173125 
L 69.276851 53.873015 
L 70.160468 54.567468 
L 72.22224 55.556249 
L 73.863242 55.59005 
L 74.873089 55.375249 
L 76.261629 55.674683 
L 78.744171 56.792714 
L 79.501556 56.719573 
L 80.932174 57.079764 
L 82.531099 56.911992 
L 83.667177 57.103753 
L 84.382486 57.202407 
L 85.139871 57.316909 
L 85.242188 57.296654 
L 85.242188 57.296654 
" clip-path="url(#pb2e6085018)" style="fill: none; stroke: #0e0e77; stroke-linecap: square"/>
   </g>
   <g id="patch_3">
    <path d="M 12.760938 61.56 
L 68.560937 61.56 
" style="fill: none; stroke: #000000; stroke-width: 0.8; stroke-linejoin: miter; stroke-linecap: square"/>
   </g>
  </g>
 </g>
 <defs>
  <clipPath id="pb2e6085018">
   <rect x="12.760938" y="7.2" width="55.8" height="54.36"/>
  </clipPath>
 </defs>
</svg>
