<svg xmlns="http://www.w3.org/2000/svg" xmlns:xlink="http://www.w3.org/1999/xlink" width="3.24in" height="3.3in" viewBox="0 0 233.19 237.94"><defs><style>.cls-1,.cls-10,.cls-11,.cls-7,.cls-8,.cls-9{fill:none;}.cls-2{fill:#fff;}.cls-3{clip-path:url(#clip-path);}.cls-4{fill:#262626;stroke:#262626;}.cls-11,.cls-5,.cls-6,.cls-9{stroke:#000;}.cls-10,.cls-5,.cls-6,.cls-7,.cls-8,.cls-9{stroke-linejoin:round;}.cls-11,.cls-5{stroke-width:0.8px;}.cls-6{stroke-width:0.6px;}.cls-7{stroke:#58a265;}.cls-10,.cls-11,.cls-7,.cls-8,.cls-9{stroke-linecap:square;}.cls-8{stroke:#0e0e77;}.cls-10{stroke:#626161;}.cls-12{fill:#0e7723;}.cls-13{fill:#626161;}.cls-14{fill:#0e0e77;}</style><clipPath id="clip-path" transform="translate(1.94 0.72)"><rect class="cls-1" x="27.25" y="6.48" width="195.3" height="190.26"/></clipPath></defs><g id="Layer_1" data-name="Layer 1"><path class="cls-2" d="M-.41,237.22H229.75V-.72H-.41Z" transform="translate(1.94 0.72)"/><g id="patch_2" data-name="patch 2"><path class="cls-2" d="M27.25,196.74h195.3V6.48H27.25Z" transform="translate(1.94 0.72)"/></g><g id="patch_3" data-name="patch 3"><g class="cls-3"><path class="cls-4" d="M74.68,28.32H35.62V41.26H74.68Z" transform="translate(1.94 0.72)"/></g></g><g id="patch_4" data-name="patch 4"><g class="cls-3"><path class="cls-4" d="M111,26H60.73V13.1H111Z" transform="translate(1.94 0.72)"/></g></g><g id="patch_5" data-name="patch 5"><g class="cls-3"><path class="cls-4" d="M175.12,28.32H111V41.26h64.17Z" transform="translate(1.94 0.72)"/></g></g><g id="patch_6" data-name="patch 6"><g class="cls-3"><path class="cls-4" d="M208.6,26H166.75V13.1H208.6Z" transform="translate(1.94 0.72)"/></g></g><g id="matplotlib.axis_1" data-name="matplotlib.axis 1"><g id="xtick_1" data-name="xtick 1"><g id="line2d_1" data-name="line2d 1"><path id="m5d8e2a40be" class="cls-5" d="M180.7,196.74v3.5" transform="translate(1.94 0.72)"/></g><g id="text_1" data-name="text 1"><path id="ArialMT-2212" d="M177.5,207.78h-4.72V207h4.72Z" transform="translate(1.94 0.72)"/><path id="ArialMT-34" d="M181.29,210.9v-1.71h-3.1v-.81l3.27-4.64h.71v4.64h1v.81h-1v1.71Zm0-2.52v-3.23l-2.24,3.23Z" transform="translate(1.94 0.72)"/><path id="ArialMT-30" d="M184,207.37a6.61,6.61,0,0,1,.26-2,2.47,2.47,0,0,1,.78-1.2,2,2,0,0,1,1.29-.42,2.15,2.15,0,0,1,1,.23,2,2,0,0,1,.72.67,3.63,3.63,0,0,1,.45,1.07,7.48,7.48,0,0,1,.16,1.69,6.59,6.59,0,0,1-.26,2,2.47,2.47,0,0,1-.78,1.2,2.18,2.18,0,0,1-2.92-.32A4.75,4.75,0,0,1,184,207.37Zm.9,0a4.58,4.58,0,0,0,.41,2.35,1.22,1.22,0,0,0,1,.58,1.21,1.21,0,0,0,1-.59,6.91,6.91,0,0,0,0-4.69,1.21,1.21,0,0,0-1-.58,1.12,1.12,0,0,0-1,.51A4.47,4.47,0,0,0,184.94,207.37Z" transform="translate(1.94 0.72)"/></g></g><g id="xtick_2" data-name="xtick 2"><g id="line2d_2" data-name="line2d 2"><path id="m5d8e2a40be-2" data-name="m5d8e2a40be" class="cls-5" d="M124.9,196.74v3.5" transform="translate(1.94 0.72)"/></g><g id="text_2" data-name="text 2"><path id="ArialMT-2212-2" data-name="ArialMT-2212" d="M121.7,207.78H117V207h4.72Z" transform="translate(1.94 0.72)"/><path id="ArialMT-32" d="M127.3,210.05v.85h-4.73a1.4,1.4,0,0,1,.1-.61,3.29,3.29,0,0,1,.57-.95,8.46,8.46,0,0,1,1.16-1.09,10.07,10.07,0,0,0,1.57-1.51,1.8,1.8,0,0,0,.41-1.06,1.16,1.16,0,0,0-.37-.88,1.34,1.34,0,0,0-1-.36,1.38,1.38,0,0,0-1,.38,1.49,1.49,0,0,0-.39,1.05l-.9-.09a2.19,2.19,0,0,1,.7-1.54,2.39,2.39,0,0,1,1.63-.53,2.28,2.28,0,0,1,1.63.57,1.89,1.89,0,0,1,.6,1.42,2,2,0,0,1-.18.84,3.41,3.41,0,0,1-.58.88,16.21,16.21,0,0,1-1.36,1.26,13,13,0,0,0-1,.9,2.53,2.53,0,0,0-.37.47Z" transform="translate(1.94 0.72)"/><path id="ArialMT-30-2" data-name="ArialMT-30" d="M128.24,207.37a6.61,6.61,0,0,1,.26-2,2.47,2.47,0,0,1,.78-1.2,2,2,0,0,1,1.29-.42,2.15,2.15,0,0,1,1,.23,2,2,0,0,1,.72.67,3.63,3.63,0,0,1,.45,1.07,7.48,7.48,0,0,1,.16,1.69,6.59,6.59,0,0,1-.26,2,2.47,2.47,0,0,1-.78,1.2,2.18,2.18,0,0,1-2.92-.32A4.75,4.75,0,0,1,128.24,207.37Zm.9,0a4.58,4.58,0,0,0,.41,2.35,1.22,1.22,0,0,0,1,.58,1.21,1.21,0,0,0,1-.59,6.91,6.91,0,0,0,0-4.69,1.21,1.21,0,0,0-1-.58,1.12,1.12,0,0,0-1,.51A4.47,4.47,0,0,0,129.14,207.37Z" transform="translate(1.94 0.72)"/></g></g><g id="xtick_3" data-name="xtick 3"><g id="line2d_3" data-name="line2d 3"><path id="m5d8e2a40be-3" data-name="m5d8e2a40be" class="cls-5" d="M69.1,196.74v3.5" transform="translate(1.94 0.72)"/></g><g id="text_3" data-name="text 3"><path id="ArialMT-30-3" data-name="ArialMT-30" d="M66.74,207.37a6.61,6.61,0,0,1,.26-2,2.53,2.53,0,0,1,.77-1.2,2,2,0,0,1,1.3-.42,2.15,2.15,0,0,1,1,.23,2,2,0,0,1,.72.67,3.38,3.38,0,0,1,.44,1.07,6.87,6.87,0,0,1,.17,1.69,6.59,6.59,0,0,1-.26,2,2.54,2.54,0,0,1-.78,1.2,2.18,2.18,0,0,1-2.92-.32A4.68,4.68,0,0,1,66.74,207.37Zm.9,0a4.58,4.58,0,0,0,.41,2.35,1.22,1.22,0,0,0,1,.58,1.21,1.21,0,0,0,1-.59,6.91,6.91,0,0,0,0-4.69,1.21,1.21,0,0,0-1-.58,1.15,1.15,0,0,0-1,.51A4.58,4.58,0,0,0,67.64,207.37Z" transform="translate(1.94 0.72)"/></g></g><g id="xtick_4" data-name="xtick 4"><g id="line2d_4" data-name="line2d 4"><path id="mf203b6fd42" class="cls-6" d="M222.55,196.74v2" transform="translate(1.94 0.72)"/></g></g><g id="xtick_5" data-name="xtick 5"><g id="line2d_5" data-name="line2d 5"><path id="mf203b6fd42-2" data-name="mf203b6fd42" class="cls-6" d="M208.6,196.74v2" transform="translate(1.94 0.72)"/></g></g><g id="xtick_6" data-name="xtick 6"><g id="line2d_6" data-name="line2d 6"><path id="mf203b6fd42-3" data-name="mf203b6fd42" class="cls-6" d="M194.65,196.74v2" transform="translate(1.94 0.72)"/></g></g><g id="xtick_7" data-name="xtick 7"><g id="line2d_7" data-name="line2d 7"><path id="mf203b6fd42-4" data-name="mf203b6fd42" class="cls-6" d="M166.75,196.74v2" transform="translate(1.94 0.72)"/></g></g><g id="xtick_8" data-name="xtick 8"><g id="line2d_8" data-name="line2d 8"><path id="mf203b6fd42-5" data-name="mf203b6fd42" class="cls-6" d="M152.8,196.74v2" transform="translate(1.94 0.72)"/></g></g><g id="xtick_9" data-name="xtick 9"><g id="line2d_9" data-name="line2d 9"><path id="mf203b6fd42-6" data-name="mf203b6fd42" class="cls-6" d="M138.85,196.74v2" transform="translate(1.94 0.72)"/></g></g><g id="xtick_10" data-name="xtick 10"><g id="line2d_10" data-name="line2d 10"><path id="mf203b6fd42-7" data-name="mf203b6fd42" class="cls-6" d="M111,196.74v2" transform="translate(1.94 0.72)"/></g></g><g id="xtick_11" data-name="xtick 11"><g id="line2d_11" data-name="line2d 11"><path id="mf203b6fd42-8" data-name="mf203b6fd42" class="cls-6" d="M97,196.74v2" transform="translate(1.94 0.72)"/></g></g><g id="xtick_12" data-name="xtick 12"><g id="line2d_12" data-name="line2d 12"><path id="mf203b6fd42-9" data-name="mf203b6fd42" class="cls-6" d="M83.05,196.74v2" transform="translate(1.94 0.72)"/></g></g><g id="xtick_13" data-name="xtick 13"><g id="line2d_13" data-name="line2d 13"><path id="mf203b6fd42-10" data-name="mf203b6fd42" class="cls-6" d="M55.15,196.74v2" transform="translate(1.94 0.72)"/></g></g><g id="xtick_14" data-name="xtick 14"><g id="line2d_14" data-name="line2d 14"><path id="mf203b6fd42-11" data-name="mf203b6fd42" class="cls-6" d="M41.2,196.74v2" transform="translate(1.94 0.72)"/></g></g><g id="xtick_15" data-name="xtick 15"><g id="line2d_15" data-name="line2d 15"><path id="mf203b6fd42-12" data-name="mf203b6fd42" class="cls-6" d="M27.25,196.74v2" transform="translate(1.94 0.72)"/></g></g><g id="text_4" data-name="text 4"><path id="ArialMT-43" d="M69,223.57l1.32.33a4.47,4.47,0,0,1-1.5,2.49,4.13,4.13,0,0,1-2.65.86,4.72,4.72,0,0,1-2.63-.66A4.11,4.11,0,0,1,62,224.68a6.9,6.9,0,0,1-.53-2.69,5.91,5.91,0,0,1,.6-2.73,4.21,4.21,0,0,1,1.7-1.77,5,5,0,0,1,2.43-.6,4.11,4.11,0,0,1,2.53.76,4,4,0,0,1,1.43,2.15l-1.31.31a3.07,3.07,0,0,0-1-1.59,2.71,2.71,0,0,0-1.66-.5,3.27,3.27,0,0,0-1.94.56,2.92,2.92,0,0,0-1.09,1.48,6,6,0,0,0-.31,1.93,6.1,6.1,0,0,0,.37,2.23,2.75,2.75,0,0,0,1.16,1.42,3.18,3.18,0,0,0,1.7.47,2.87,2.87,0,0,0,1.89-.64A3.36,3.36,0,0,0,69,223.57Z" transform="translate(1.94 0.72)"/><path id="ArialMT-68" d="M71.76,227.08v-10H73v3.59a2.76,2.76,0,0,1,2.17-1,2.92,2.92,0,0,1,1.4.32,1.85,1.85,0,0,1,.85.88,3.89,3.89,0,0,1,.26,1.63v4.6H76.44v-4.6a1.9,1.9,0,0,0-.4-1.35,1.49,1.49,0,0,0-1.13-.42,2,2,0,0,0-1,.29,1.61,1.61,0,0,0-.69.77,3.67,3.67,0,0,0-.2,1.34v4Z" transform="translate(1.94 0.72)"/><path id="ArialMT-65" d="M84.51,224.74l1.27.16a3.06,3.06,0,0,1-1.11,1.73,3.34,3.34,0,0,1-2.08.61,3.28,3.28,0,0,1-2.52-1,3.79,3.79,0,0,1-.94-2.75,4,4,0,0,1,1-2.84,3.17,3.17,0,0,1,2.44-1,3.1,3.1,0,0,1,2.38,1,4,4,0,0,1,.93,2.79c0,.08,0,.19,0,.33H80.41a2.82,2.82,0,0,0,.67,1.84,2,2,0,0,0,1.52.63,1.89,1.89,0,0,0,1.15-.35A2.34,2.34,0,0,0,84.51,224.74Zm-4-2h4.06a2.44,2.44,0,0,0-.47-1.37,1.86,1.86,0,0,0-1.52-.71,2,2,0,0,0-1.43.56A2.28,2.28,0,0,0,80.47,222.75Z" transform="translate(1.94 0.72)"/><path id="ArialMT-6d" d="M87.33,227.08v-7.26h1.1v1a2.59,2.59,0,0,1,.91-.86,2.53,2.53,0,0,1,1.29-.33A2.39,2.39,0,0,1,92,220a1.74,1.74,0,0,1,.73.93,2.63,2.63,0,0,1,2.25-1.27,2.21,2.21,0,0,1,1.66.6,2.61,2.61,0,0,1,.58,1.85v5H95.94V222.5a3.36,3.36,0,0,0-.12-1.06,1,1,0,0,0-.43-.52,1.39,1.39,0,0,0-.74-.2,1.72,1.72,0,0,0-1.27.51,2.23,2.23,0,0,0-.51,1.63v4.22H91.64v-4.72a2.11,2.11,0,0,0-.3-1.23,1.15,1.15,0,0,0-1-.41,1.78,1.78,0,0,0-1,.27,1.53,1.53,0,0,0-.64.81,4.5,4.5,0,0,0-.2,1.51v3.77Z" transform="translate(1.94 0.72)"/><path id="ArialMT-69" d="M99,218.47v-1.41h1.23v1.41Zm0,8.61v-7.26h1.23v7.26Z" transform="translate(1.94 0.72)"/><path id="ArialMT-63" d="M106.84,224.42l1.21.16a3.14,3.14,0,0,1-1,2,2.94,2.94,0,0,1-2,.7,3.12,3.12,0,0,1-2.4-1,4,4,0,0,1-.9-2.79,5,5,0,0,1,.39-2.06,2.68,2.68,0,0,1,1.18-1.32,3.47,3.47,0,0,1,1.74-.45,3,3,0,0,1,1.93.6,2.76,2.76,0,0,1,1,1.7l-1.19.19a2,2,0,0,0-.61-1.1,1.55,1.55,0,0,0-1-.37,1.92,1.92,0,0,0-1.51.66,3.17,3.17,0,0,0-.58,2.11,3.31,3.31,0,0,0,.56,2.13,1.83,1.83,0,0,0,1.46.66,1.73,1.73,0,0,0,1.21-.44A2.22,2.22,0,0,0,106.84,224.42Z" transform="translate(1.94 0.72)"/><path id="ArialMT-61" d="M113.84,226.18a4.49,4.49,0,0,1-1.32.82,3.76,3.76,0,0,1-1.35.24,2.64,2.64,0,0,1-1.84-.58,1.94,1.94,0,0,1-.65-1.5,2,2,0,0,1,.25-1,2.06,2.06,0,0,1,.63-.71,3,3,0,0,1,.89-.4,9.66,9.66,0,0,1,1.09-.19,11,11,0,0,0,2.2-.42v-.32a1.33,1.33,0,0,0-.35-1.06,2,2,0,0,0-1.4-.42,2.14,2.14,0,0,0-1.28.31,1.86,1.86,0,0,0-.61,1.07l-1.2-.16a3,3,0,0,1,.54-1.25,2.4,2.4,0,0,1,1.08-.73,4.93,4.93,0,0,1,1.65-.26,4.51,4.51,0,0,1,1.51.22,2.1,2.1,0,0,1,.86.55,1.92,1.92,0,0,1,.38.84,7.09,7.09,0,0,1,.06,1.13V224a17.94,17.94,0,0,0,.08,2.17,2.84,2.84,0,0,0,.31.87h-1.28A2.71,2.71,0,0,1,113.84,226.18Zm-.1-2.75a8.78,8.78,0,0,1-2,.47,4.54,4.54,0,0,0-1.08.25,1,1,0,0,0-.48.4,1,1,0,0,0-.17.58,1,1,0,0,0,.37.82,1.6,1.6,0,0,0,1.09.33,2.65,2.65,0,0,0,1.27-.31,2,2,0,0,0,.81-.85,3,3,0,0,0,.2-1.23Z" transform="translate(1.94 0.72)"/><path id="ArialMT-6c" d="M116.86,227.08v-10h1.23v10Z" transform="translate(1.94 0.72)"/><path id="ArialMT-20" d="M119.08,227.08" transform="translate(1.94 0.72)"/><path id="ArialMT-73" d="M123.4,224.91l1.21-.19a1.71,1.71,0,0,0,.57,1.12,2,2,0,0,0,1.31.39,1.92,1.92,0,0,0,1.26-.34,1,1,0,0,0,.41-.82.75.75,0,0,0-.36-.65,5.38,5.38,0,0,0-1.26-.42,11,11,0,0,1-1.87-.59,1.88,1.88,0,0,1-.8-.69,1.82,1.82,0,0,1-.27-1,1.93,1.93,0,0,1,.83-1.59,2.58,2.58,0,0,1,.78-.36,3.69,3.69,0,0,1,1.07-.15,4.27,4.27,0,0,1,1.49.25,2,2,0,0,1,1,.67,2.68,2.68,0,0,1,.42,1.12l-1.2.16a1.31,1.31,0,0,0-.48-.87,1.73,1.73,0,0,0-1.11-.31,2,2,0,0,0-1.21.28.8.8,0,0,0-.36.65.66.66,0,0,0,.15.43,1.07,1.07,0,0,0,.47.33c.13,0,.49.15,1.09.31a15.49,15.49,0,0,1,1.82.58,1.92,1.92,0,0,1,.81.64,1.79,1.79,0,0,1,.3,1.06,2,2,0,0,1-.36,1.15,2.24,2.24,0,0,1-1,.84,3.73,3.73,0,0,1-1.53.3,3.39,3.39,0,0,1-2.16-.59A2.71,2.71,0,0,1,123.4,224.91Z" transform="translate(1.94 0.72)"/><path id="ArialMT-68-2" data-name="ArialMT-68" d="M130.89,227.08v-10h1.23v3.59a2.76,2.76,0,0,1,2.17-1,2.92,2.92,0,0,1,1.4.32,1.92,1.92,0,0,1,.86.88,4.09,4.09,0,0,1,.25,1.63v4.6h-1.23v-4.6a1.9,1.9,0,0,0-.4-1.35,1.49,1.49,0,0,0-1.13-.42,2,2,0,0,0-1,.29,1.61,1.61,0,0,0-.69.77,3.67,3.67,0,0,0-.2,1.34v4Z" transform="translate(1.94 0.72)"/><path id="ArialMT-69-2" data-name="ArialMT-69" d="M138.68,218.47v-1.41h1.23v1.41Zm0,8.61v-7.26h1.23v7.26Z" transform="translate(1.94 0.72)"/><path id="ArialMT-66" d="M142.08,227.08v-6.3H141v-1h1.09v-.77a3.31,3.31,0,0,1,.13-1.09,1.63,1.63,0,0,1,.62-.78,2.35,2.35,0,0,1,1.26-.29,6.16,6.16,0,0,1,1.15.12l-.19,1.07a4.61,4.61,0,0,0-.72-.07,1.05,1.05,0,0,0-.79.24,1.28,1.28,0,0,0-.24.9v.67h1.42v1H143.3v6.3Z" transform="translate(1.94 0.72)"/><path id="ArialMT-74" d="M148.36,226l.18,1.09a4.77,4.77,0,0,1-.93.1,2.13,2.13,0,0,1-1-.21,1.13,1.13,0,0,1-.52-.56,4.39,4.39,0,0,1-.15-1.45v-4.17H145v-1h.9V218l1.22-.74v2.54h1.24v1h-1.24V225a1.94,1.94,0,0,0,.07.68.49.49,0,0,0,.21.24.82.82,0,0,0,.42.09A4.31,4.31,0,0,0,148.36,226Z" transform="translate(1.94 0.72)"/><path id="ArialMT-20-2" data-name="ArialMT-20" d="M148.64,227.08" transform="translate(1.94 0.72)"/><path id="ArialMT-28" d="M155.81,230a12.28,12.28,0,0,1-1.73-3,9.53,9.53,0,0,1-.18-6.69,13,13,0,0,1,1.91-3.44h.88c-.55.94-.92,1.62-1.1,2a10.83,10.83,0,0,0-.65,2,11.14,11.14,0,0,0-.3,2.57,12.32,12.32,0,0,0,2.05,6.56Z" transform="translate(1.94 0.72)"/><path id="ArialMT-70" d="M158.12,229.86v-10h1.12v.94a2.78,2.78,0,0,1,.89-.83,2.54,2.54,0,0,1,1.21-.28,2.85,2.85,0,0,1,1.64.48,3,3,0,0,1,1.08,1.35,5,5,0,0,1,.36,1.91,4.94,4.94,0,0,1-.4,2,3,3,0,0,1-1.16,1.37,3.07,3.07,0,0,1-1.61.47,2.24,2.24,0,0,1-1.1-.26,2.46,2.46,0,0,1-.8-.65v3.53Zm1.11-6.37a3.16,3.16,0,0,0,.57,2.07,1.72,1.72,0,0,0,1.37.67,1.79,1.79,0,0,0,1.41-.69,3.31,3.31,0,0,0,.58-2.15,3.21,3.21,0,0,0-.57-2.08,1.72,1.72,0,0,0-1.36-.69,1.78,1.78,0,0,0-1.4.73A3.33,3.33,0,0,0,159.23,223.49Z" transform="translate(1.94 0.72)"/><path id="ArialMT-70-2" data-name="ArialMT-70" d="M165.9,229.86v-10H167v.94a2.91,2.91,0,0,1,.9-.83,2.49,2.49,0,0,1,1.21-.28,2.85,2.85,0,0,1,1.64.48,3,3,0,0,1,1.07,1.35,5,5,0,0,1,.36,1.91,4.78,4.78,0,0,1-.4,2,3,3,0,0,1-1.16,1.37,3,3,0,0,1-1.6.47,2.27,2.27,0,0,1-1.11-.26,2.57,2.57,0,0,1-.8-.65v3.53Zm1.12-6.37a3.16,3.16,0,0,0,.56,2.07,1.74,1.74,0,0,0,1.38.67,1.77,1.77,0,0,0,1.4-.69,3.3,3.3,0,0,0,.59-2.15,3.21,3.21,0,0,0-.57-2.08,1.73,1.73,0,0,0-1.37-.69,1.76,1.76,0,0,0-1.39.73A3.33,3.33,0,0,0,167,223.49Z" transform="translate(1.94 0.72)"/><path id="ArialMT-6d-2" data-name="ArialMT-6d" d="M173.69,227.08v-7.26h1.1v1a2.59,2.59,0,0,1,.91-.86,2.53,2.53,0,0,1,1.29-.33,2.39,2.39,0,0,1,1.32.34,1.74,1.74,0,0,1,.73.93,2.63,2.63,0,0,1,2.24-1.27,2.19,2.19,0,0,1,1.66.6,2.57,2.57,0,0,1,.59,1.85v5H182.3V222.5a3.36,3.36,0,0,0-.12-1.06,1,1,0,0,0-.43-.52,1.39,1.39,0,0,0-.74-.2,1.72,1.72,0,0,0-1.27.51,2.23,2.23,0,0,0-.51,1.63v4.22H178v-4.72a2.11,2.11,0,0,0-.3-1.23,1.15,1.15,0,0,0-1-.41,1.78,1.78,0,0,0-1,.27,1.53,1.53,0,0,0-.64.81,4.26,4.26,0,0,0-.2,1.51v3.77Z" transform="translate(1.94 0.72)"/><path id="ArialMT-29" d="M186.16,230h-.88a12.31,12.31,0,0,0,2-6.56,11.53,11.53,0,0,0-.29-2.55,11.66,11.66,0,0,0-.65-2c-.18-.41-.55-1.1-1.1-2.05h.88a13.25,13.25,0,0,1,1.9,3.44,9.33,9.33,0,0,1,.52,3.12,9.17,9.17,0,0,1-.71,3.57A12.57,12.57,0,0,1,186.16,230Z" transform="translate(1.94 0.72)"/></g></g><g id="matplotlib.axis_2" data-name="matplotlib.axis 2"><g id="text_5" data-name="text 5"><path id="ArialMT-49" d="M16.81,126.37h-10v-1.32h10Z" transform="translate(1.94 0.72)"/><path id="ArialMT-6e" d="M16.81,122.87H9.55v-1.11h1a2.6,2.6,0,0,1-1.2-2.31,3,3,0,0,1,.24-1.21,1.84,1.84,0,0,1,.62-.82,2.35,2.35,0,0,1,.91-.39,7.84,7.84,0,0,1,1.19-.06h4.47v1.23H12.39a3.42,3.42,0,0,0-1.12.14,1.24,1.24,0,0,0-.6.51,1.6,1.6,0,0,0-.22.86,2,2,0,0,0,.5,1.36,2.45,2.45,0,0,0,1.89.57h4Z" transform="translate(1.94 0.72)"/><path id="ArialMT-74-2" data-name="ArialMT-74" d="M15.71,112.39l1.08-.17a4,4,0,0,1,.11.93,2.15,2.15,0,0,1-.21,1,1.2,1.2,0,0,1-.56.51,4.39,4.39,0,0,1-1.45.15H10.5v.91H9.55v-.91H7.75L7,113.63H9.55v-1.24h.95v1.24h4.25a2.34,2.34,0,0,0,.68-.06.49.49,0,0,0,.23-.22.77.77,0,0,0,.09-.42A4.26,4.26,0,0,0,15.71,112.39Z" transform="translate(1.94 0.72)"/><path id="ArialMT-65-2" data-name="ArialMT-65" d="M14.47,106.22l.16-1.27a3.15,3.15,0,0,1,1.73,1.11,3.8,3.8,0,0,1-.37,4.61,3.83,3.83,0,0,1-2.75.93,4,4,0,0,1-2.84-.94,3.19,3.19,0,0,1-1-2.45,3.12,3.12,0,0,1,1-2.38,4,4,0,0,1,2.79-.92h.33v5.42a2.77,2.77,0,0,0,1.83-.68,2,2,0,0,0,.64-1.52A1.86,1.86,0,0,0,15.6,107,2.32,2.32,0,0,0,14.47,106.22Zm-2,4v-4.05a2.44,2.44,0,0,0-1.37.46,1.87,1.87,0,0,0-.71,1.53,1.93,1.93,0,0,0,.56,1.42A2.24,2.24,0,0,0,12.48,110.26Z" transform="translate(1.94 0.72)"/><path id="ArialMT-6e-2" data-name="ArialMT-6e" d="M16.81,103.4H9.55v-1.1h1A2.62,2.62,0,0,1,9.38,100a3,3,0,0,1,.24-1.21,1.84,1.84,0,0,1,.62-.82,2.35,2.35,0,0,1,.91-.39,7.47,7.47,0,0,1,1.19-.07h4.47v1.24H12.39a3.17,3.17,0,0,0-1.12.14,1.19,1.19,0,0,0-.6.51,1.6,1.6,0,0,0-.22.86,2,2,0,0,0,.5,1.35,2.45,2.45,0,0,0,1.89.57h4Z" transform="translate(1.94 0.72)"/><path id="ArialMT-73-2" data-name="ArialMT-73" d="M14.64,96.11l-.19-1.22a1.63,1.63,0,0,0,1.12-.57A2,2,0,0,0,16,93a1.9,1.9,0,0,0-.35-1.25,1,1,0,0,0-.81-.41.75.75,0,0,0-.65.36A5.38,5.38,0,0,0,13.73,93a12.44,12.44,0,0,1-.59,1.87,1.75,1.75,0,0,1-1.67,1.06,1.81,1.81,0,0,1-.89-.22,2,2,0,0,1-.69-.6,2.58,2.58,0,0,1-.36-.78,3.69,3.69,0,0,1-.15-1.07,4.07,4.07,0,0,1,.25-1.5,2,2,0,0,1,.67-1,2.55,2.55,0,0,1,1.12-.43l.16,1.21a1.3,1.3,0,0,0-.87.47,1.76,1.76,0,0,0-.31,1.11,2,2,0,0,0,.28,1.21.78.78,0,0,0,.65.37.68.68,0,0,0,.43-.15,1.13,1.13,0,0,0,.33-.48c.05-.12.15-.48.31-1.08A15.49,15.49,0,0,1,13,91.19a1.74,1.74,0,0,1,.64-.81,1.76,1.76,0,0,1,1.05-.3,2.06,2.06,0,0,1,1.16.36,2.24,2.24,0,0,1,.84,1A3.73,3.73,0,0,1,17,93a3.4,3.4,0,0,1-.59,2.15A2.71,2.71,0,0,1,14.64,96.11Z" transform="translate(1.94 0.72)"/><path id="ArialMT-69-3" data-name="ArialMT-69" d="M8.2,88.61H6.79V87.38H8.2Zm8.61,0H9.55V87.38h7.26Z" transform="translate(1.94 0.72)"/><path id="ArialMT-74-3" data-name="ArialMT-74" d="M15.71,82.82l1.08-.18a4.17,4.17,0,0,1,.11.93,2.1,2.1,0,0,1-.21,1,1.17,1.17,0,0,1-.56.52,4.39,4.39,0,0,1-1.45.15H10.5v.9H9.55v-.9H7.75L7,84.06H9.55V82.82h.95v1.24h4.25a1.94,1.94,0,0,0,.68-.07.43.43,0,0,0,.23-.21.82.82,0,0,0,.09-.42A4,4,0,0,0,15.71,82.82Z" transform="translate(1.94 0.72)"/><path id="ArialMT-79" d="M19.6,81.67l-1.15.14a2.86,2.86,0,0,0,.11-.7,1.35,1.35,0,0,0-.14-.66,1.12,1.12,0,0,0-.38-.4,5.63,5.63,0,0,0-.92-.38l-.3-.11L9.55,82.32V81l4.2-1.51c.53-.2,1.1-.37,1.68-.53-.56-.14-1.11-.31-1.65-.5L9.55,76.9V75.66l7.38,2.77a12.4,12.4,0,0,1,1.65.69,2.41,2.41,0,0,1,.89.75,1.76,1.76,0,0,1,.28,1A2.43,2.43,0,0,1,19.6,81.67Z" transform="translate(1.94 0.72)"/></g></g><g id="line2d_21" data-name="line2d 21"><g class="cls-3"><path class="cls-7" d="M-1.41,136.25l5.09,0,2.1-.1H6.92l1.81.05,3.7-.15,3.16-.06,3.36.11,2.11-.05,7.11-.1,2.31-.15,1.68.1,4.51-.4L40,135l3.66-1.1,2-1.07,1.3-1,1.1-1.22,1.6-2.08,1.26-2.11,1-2.1,1.22-3,1.39-3.95,1-3.77.93-4.17,2-9.66.29-.39h.21l.26.31.37.95,1,3.39,1,3,.93,2.1,3.53,6.88,2.15,3.36,2.82,4.22,1.68,2,1.43,1.42L77,129.43l2.31,1.34,2.06,1.12,2.19.82,1.47.46,2.82.81,1.27.25,1.38.28,3.33.72,1.72.23,2.65.28,2.11.16h.88l1,.05,1.52.08,14.09.21,1.43.09h1.1l2.06-.17h1.68l1.81,0h2l1.52.05,4.16.09h1.14l1.26,0,3.91.06,3.92,0,1.17-.05,2.07,0,2,.12,3-.16,5-.06,1.35,0,2.48,0h2.36l1.13,0,2.19,0,1.64,0,1,0,4.17-.36,1.72.06,1-.19,1.43-.21,1.39-.1,7.53.12,1.77.08,1.47.16,2,.43h3l7.95.08,3.16.11,1,0,1.35,0h1.39l3.2-.08,1.22,0,1.18,0,3.49-.12,2-.14,2.14-.17,2.06-.11h2.32l3.6.11h0" transform="translate(1.94 0.72)"/></g></g><g id="line2d_22" data-name="line2d 22"><g class="cls-3"><path class="cls-8" d="M-1.41,162.64l6,.12,5.39-.13,2.57,0,6.94-.07h1.56l1.22-.09,2.31,0,7.57-.06,2.65-.07,4.63-.1,2.4-.29,5.77-1,1.89-.53,2.15-.82.88-.61,2.65-2.31L57,154.91l.5-.14.59.12,2.4.67.8-.07,1-.39L65.15,154l1.1-.22,1,.09.88.22.76.45,3.24,2.21.5.13h1.14l.46.53.8.88.76.46.84.25,1.52.46,1.17.3,3.12.54,3.24,0,1.85.1,2.94.16,2.91.54,1.3.25,1.39.1,1.3.44,2.36.3,1.6.07,15,.22,4.17-.19,5.21.21,2.4-.1,2.11.13,1.13,0,3,.17,2.14-.06,1.27-.1,4,.15,2.53,0h2.06l1.52,0,1.43.11,2.48-.13,2.73.09h5l1.35,0,1.6,0,1.47,0,2.61-.06,3.87,0h2.14l6.4.06,1.51-.07h2.91l1.22,0h1.26l1.68,0,5,.06,2.06,0,1.22.11,5.35-.13,2,0,3.61-.06,5.1.11,5.89-.08,1.55,0,1.1,0,1.55.06,2.91-.1,2.06-.09,1.09,0,1.27,0,1.41-.06h0" transform="translate(1.94 0.72)"/></g></g><g id="line2d_23" data-name="line2d 23"><g class="cls-3"><path class="cls-9" d="M-1.41,109.32l3.07.18,1.05,0,4.08-.13,20.91-.19,8.63-.38.92-.07,3.71-.68,1.22-.35,1.09-.38,1.22-.69,1.64-1.18,1-1,1.39-1.65,1.06-1.6,1.26-2.41,1-2.37L53.12,93l1.18-4,1.64-6.64,2.94-13.14,2.65-11.11L62.71,54l.8-2,.67-1.13.51-.45.42-.07.46.17.63.51.72.85L67.59,53l.72,1.72,1,3.12,3,9.5,1.56,4.05,1.31,2.88,1.64,3.12L79.12,81,85.6,91.15l1.56,2,2.19,2.62,1.55,1.53L93.81,100l1.55,1.06,1.6.81,1.73.52,1,.37,1.48.83,3.24,2.11,2.31,1.09,3.49,1,1.43.27,3.79.46,4.5.24,18.48.57,10.3.09h1.69l5.22,0,2.1,0,7.07.07.88,0h1.77l5.13,0,1.73-.11,4.33.13,1.26,0,2.36-.07,2.4,0,1.85-.05,24.4.18,3.08-.17,4,0,1.22-.12,1.55-.07,1.81-.15,1.6-.25,1-.17,1-.2,1.64-.33,2.93-.37h0" transform="translate(1.94 0.72)"/></g></g><g id="line2d_24" data-name="line2d 24"><g class="cls-3"><path class="cls-10" d="M-1.41,189.23l1.59,0,2.49,0L5,189.18l2.9.15,7.75-.18,1.72,0,4,0,3.2,0,.84-.09,1-.09,6.1.1,5.8-.19,2-.13h1.14l.92-.1,4.09-.95,1.34-.69,1.14-.75,1.26-1.21.76-1,.84-1.53.67-1.74.89-3,.8-2.53.29-.35.21,0,.25.3.51,1.07L56.61,179l.76,1.14.88.93.84.57,1,.4.84.38,3.37,2,2.78,1.27,7.11,1.88,1.47.33,1.43.24,6.82.69,3.82.2,2.36-.15,2,.27,4.42-.15,3.45.13,1.47,0,7.49.18,1.56-.12h1.39l1.34.07.93,0,1.89-.05,2.44,0,1.35,0,1.64.09,6.94-.12,2.32.08,1.59,0,2,0,7.41-.07,1.34,0,2.19.12,1.39,0,1.68.08,5.64,0h3.16l16.24.08,1.47,0,1.94-.1h13l1.73.1,2-.05,2.35,0,2.49-.12,1.93.11h1.39l1.18,0,1.55,0,12.16-.13,2,.08,1.94-.2,3.49,0h1.81l2.48,0,2.32,0h.19" transform="translate(1.94 0.72)"/></g></g><g id="patch_7" data-name="patch 7"><path class="cls-11" d="M27.25,196.74V6.48" transform="translate(1.94 0.72)"/></g><g id="patch_8" data-name="patch 8"><path class="cls-11" d="M27.25,196.74h195.3" transform="translate(1.94 0.72)"/></g></g><g id="Names"><path d="M163.07,91.56V84.41h.82v2.94h3.24V84.41H168v7.15h-.83V88.19h-3.24v3.37Z" transform="translate(1.94 0.72)"/><path d="M169.24,85.42v-1H170v1Zm0,6.14V86.38H170v5.18Z" transform="translate(1.94 0.72)"/><path d="M171,92l.74.13a.85.85,0,0,0,.26.58,1.17,1.17,0,0,0,.78.24A1.09,1.09,0,0,0,174,92a5.76,5.76,0,0,0,0-1.12,1.49,1.49,0,0,1-1.25.67,1.62,1.62,0,0,1-1.44-.77,3.27,3.27,0,0,1-.51-1.85,3.83,3.83,0,0,1,.24-1.37,2.11,2.11,0,0,1,.67-1,1.74,1.74,0,0,1,1.05-.34,1.55,1.55,0,0,1,1.31.74v-.62h.71v4.48a5,5,0,0,1-.21,1.72,1.82,1.82,0,0,1-.68.8,2.18,2.18,0,0,1-1.15.29,1.93,1.93,0,0,1-1.3-.42A1.46,1.46,0,0,1,171,92Zm.63-3.11a2.53,2.53,0,0,0,.35,1.49,1.07,1.07,0,0,0,1.77,0,3.06,3.06,0,0,0,0-2.9,1.1,1.1,0,0,0-.89-.48,1,1,0,0,0-.86.48A2.29,2.29,0,0,0,171.66,88.88Z" transform="translate(1.94 0.72)"/><path d="M176,91.56V84.41h.76V87a1.64,1.64,0,0,1,1.35-.71,1.61,1.61,0,0,1,.87.23,1.21,1.21,0,0,1,.53.63,3.15,3.15,0,0,1,.16,1.16v3.28h-.76V88.28a1.53,1.53,0,0,0-.25-1,.87.87,0,0,0-.7-.3,1.15,1.15,0,0,0-.64.2,1.11,1.11,0,0,0-.43.55,2.74,2.74,0,0,0-.13,1v2.83Z" transform="translate(1.94 0.72)"/><path d="M180.55,89.42v-.89h2.35v.89Z" transform="translate(1.94 0.72)"/><path d="M183.75,93.55V86.38h.69v.67a1.88,1.88,0,0,1,.56-.59,1.4,1.4,0,0,1,.75-.2,1.65,1.65,0,0,1,1,.34,2,2,0,0,1,.67,1,4,4,0,0,1,.22,1.36,4.1,4.1,0,0,1-.24,1.44,2.09,2.09,0,0,1-.73,1,1.65,1.65,0,0,1-1,.34,1.31,1.31,0,0,1-.69-.18,1.73,1.73,0,0,1-.5-.47v2.52Zm.69-4.55a2.54,2.54,0,0,0,.35,1.48,1,1,0,0,0,.86.48,1.06,1.06,0,0,0,.87-.5,3.39,3.39,0,0,0,0-3,1,1,0,0,0-.85-.49,1.1,1.1,0,0,0-.87.52A2.64,2.64,0,0,0,184.44,89Z" transform="translate(1.94 0.72)"/><path d="M188.59,91.56V84.41h.76V87a1.64,1.64,0,0,1,1.35-.71,1.61,1.61,0,0,1,.87.23,1.21,1.21,0,0,1,.53.63,3.15,3.15,0,0,1,.16,1.16v3.28h-.76V88.28a1.47,1.47,0,0,0-.25-1,.87.87,0,0,0-.7-.3,1.15,1.15,0,0,0-.64.2,1.11,1.11,0,0,0-.43.55,2.74,2.74,0,0,0-.13,1v2.83Z" transform="translate(1.94 0.72)"/><path d="M193.14,89a2.86,2.86,0,0,1,.7-2.13,2,2,0,0,1,2.94.12,3,3,0,0,1,.59,1.94,3.91,3.91,0,0,1-.26,1.57,2,2,0,0,1-.76.89,2,2,0,0,1-1.09.32,1.89,1.89,0,0,1-1.53-.7A3,3,0,0,1,193.14,89Zm.79,0a2.37,2.37,0,0,0,.38,1.49,1.16,1.16,0,0,0,.95.5,1.17,1.17,0,0,0,1-.5,2.52,2.52,0,0,0,.37-1.52,2.35,2.35,0,0,0-.38-1.46,1.16,1.16,0,0,0-1.89,0A2.39,2.39,0,0,0,193.93,89Z" transform="translate(1.94 0.72)"/><path d="M198,90l.76-.14a1.27,1.27,0,0,0,.35.8,1.13,1.13,0,0,0,.82.28,1.06,1.06,0,0,0,.78-.25.76.76,0,0,0,.25-.58.54.54,0,0,0-.22-.46,3.09,3.09,0,0,0-.78-.3,8.46,8.46,0,0,1-1.17-.42,1.18,1.18,0,0,1-.49-.5,1.36,1.36,0,0,1-.17-.69,1.41,1.41,0,0,1,.14-.65,1.38,1.38,0,0,1,.37-.49,1.49,1.49,0,0,1,.49-.25,2,2,0,0,1,.66-.11,2.24,2.24,0,0,1,.93.18,1.32,1.32,0,0,1,.6.47,2.2,2.2,0,0,1,.26.81l-.75.11a1,1,0,0,0-.29-.62,1,1,0,0,0-.69-.23,1.15,1.15,0,0,0-.76.2.62.62,0,0,0-.22.47.54.54,0,0,0,.09.31.71.71,0,0,0,.29.24l.68.22a8.22,8.22,0,0,1,1.13.41,1.14,1.14,0,0,1,.51.46,1.44,1.44,0,0,1,.18.75,1.75,1.75,0,0,1-.22.83,1.51,1.51,0,0,1-.65.6,2.08,2.08,0,0,1-1,.21,1.92,1.92,0,0,1-1.34-.42A2,2,0,0,1,198,90Z" transform="translate(1.94 0.72)"/><path d="M202.62,93.55V86.38h.7v.67a1.85,1.85,0,0,1,.55-.59,1.4,1.4,0,0,1,.75-.2,1.65,1.65,0,0,1,1,.34,2,2,0,0,1,.67,1,4,4,0,0,1,.23,1.36,4.1,4.1,0,0,1-.25,1.44,2.14,2.14,0,0,1-.72,1,1.68,1.68,0,0,1-1,.34,1.34,1.34,0,0,1-.69-.18,1.73,1.73,0,0,1-.5-.47v2.52Zm.69-4.55a2.54,2.54,0,0,0,.35,1.48,1,1,0,0,0,.86.48,1.06,1.06,0,0,0,.87-.5,2.62,2.62,0,0,0,.36-1.53,2.54,2.54,0,0,0-.35-1.49,1,1,0,0,0-.85-.49,1.08,1.08,0,0,0-.86.52A2.64,2.64,0,0,0,203.31,89Z" transform="translate(1.94 0.72)"/><path d="M207.46,91.56V84.41h.76V87a1.69,1.69,0,0,1,2.23-.48,1.31,1.31,0,0,1,.53.63,3.38,3.38,0,0,1,.16,1.16v3.28h-.77V88.28a1.47,1.47,0,0,0-.25-1,.85.85,0,0,0-.7-.3,1.15,1.15,0,0,0-.64.2,1.17,1.17,0,0,0-.43.55,3,3,0,0,0-.13,1v2.83Z" transform="translate(1.94 0.72)"/><path d="M215.25,90.93a3,3,0,0,1-.82.58,2,2,0,0,1-.85.17,1.51,1.51,0,0,1-1.14-.42,1.44,1.44,0,0,1-.4-1.06,1.6,1.6,0,0,1,.15-.7,1.25,1.25,0,0,1,.4-.5,1.53,1.53,0,0,1,.55-.29,3.9,3.9,0,0,1,.68-.13,6.16,6.16,0,0,0,1.36-.31c0-.12,0-.19,0-.23a1.07,1.07,0,0,0-.22-.75,1.18,1.18,0,0,0-.87-.3,1.19,1.19,0,0,0-.8.22,1.35,1.35,0,0,0-.38.77l-.75-.12a2.21,2.21,0,0,1,.34-.89,1.42,1.42,0,0,1,.67-.52,2.56,2.56,0,0,1,1-.19,2.3,2.3,0,0,1,.94.16,1.17,1.17,0,0,1,.53.39,1.64,1.64,0,0,1,.24.6,6.56,6.56,0,0,1,0,.81v1.17c0,.82,0,1.34,0,1.55a2.15,2.15,0,0,0,.2.62h-.8A1.94,1.94,0,0,1,215.25,90.93Zm-.07-2a5,5,0,0,1-1.25.33,2.9,2.9,0,0,0-.67.18.7.7,0,0,0-.3.29.8.8,0,0,0-.1.41.78.78,0,0,0,.23.59.89.89,0,0,0,.68.23,1.39,1.39,0,0,0,.78-.22,1.33,1.33,0,0,0,.51-.61,2.43,2.43,0,0,0,.12-.88Z" transform="translate(1.94 0.72)"/><path d="M218.81,90.78l.11.78a2.54,2.54,0,0,1-.58.07,1.17,1.17,0,0,1-.64-.15.74.74,0,0,1-.32-.4,3.22,3.22,0,0,1-.1-1v-3h-.56v-.68h.56V85.1l.76-.53v1.81h.77v.68H218v3a2.06,2.06,0,0,0,0,.48.37.37,0,0,0,.13.17.51.51,0,0,0,.27.06Z" transform="translate(1.94 0.72)"/><path d="M222.65,89.89l.79.12a2.32,2.32,0,0,1-.69,1.23,1.88,1.88,0,0,1-1.3.44,1.93,1.93,0,0,1-1.57-.7,3,3,0,0,1-.58-2,3.18,3.18,0,0,1,.59-2,1.87,1.87,0,0,1,1.52-.72,1.81,1.81,0,0,1,1.48.71,3.1,3.1,0,0,1,.57,2v.24h-3.37a2.15,2.15,0,0,0,.43,1.31,1.17,1.17,0,0,0,.94.45,1.12,1.12,0,0,0,.72-.25A1.72,1.72,0,0,0,222.65,89.89Zm-2.51-1.42h2.52a2,2,0,0,0-.29-1,1.13,1.13,0,0,0-1-.51,1.15,1.15,0,0,0-.89.41A1.68,1.68,0,0,0,220.14,88.47Z" transform="translate(1.94 0.72)"/><path class="cls-12" d="M160.9,122.68v-7.16h.83v2.94H165v-2.94h.82v7.16H165V119.3h-3.24v3.38Z" transform="translate(1.94 0.72)"/><path class="cls-12" d="M167.07,116.53v-1h.76v1Zm0,6.15v-5.19h.76v5.19Z" transform="translate(1.94 0.72)"/><path class="cls-12" d="M168.86,123.1l.74.13a.85.85,0,0,0,.26.58,1.17,1.17,0,0,0,.78.24,1.25,1.25,0,0,0,.82-.24,1.24,1.24,0,0,0,.39-.69,6.37,6.37,0,0,0,.06-1.12,1.53,1.53,0,0,1-1.25.68,1.65,1.65,0,0,1-1.45-.78,3.34,3.34,0,0,1-.5-1.85,3.83,3.83,0,0,1,.23-1.37,2.11,2.11,0,0,1,.68-1,1.68,1.68,0,0,1,1-.34,1.56,1.56,0,0,1,1.32.75v-.63h.7V122a5,5,0,0,1-.21,1.72,1.71,1.71,0,0,1-.68.8,2.16,2.16,0,0,1-1.15.29,1.93,1.93,0,0,1-1.3-.42A1.51,1.51,0,0,1,168.86,123.1Zm.63-3.11a2.53,2.53,0,0,0,.35,1.49,1.07,1.07,0,0,0,1.77,0A2.39,2.39,0,0,0,172,120a2.34,2.34,0,0,0-.37-1.44,1.08,1.08,0,0,0-.88-.48,1.06,1.06,0,0,0-.87.48A2.31,2.31,0,0,0,169.49,120Z" transform="translate(1.94 0.72)"/><path class="cls-12" d="M173.84,122.68v-7.16h.76v2.57a1.63,1.63,0,0,1,1.36-.72,1.66,1.66,0,0,1,.87.23,1.31,1.31,0,0,1,.53.63,3.38,3.38,0,0,1,.16,1.16v3.29h-.77v-3.29a1.47,1.47,0,0,0-.25-1,.85.85,0,0,0-.7-.3,1.15,1.15,0,0,0-.64.2,1.17,1.17,0,0,0-.43.55,3,3,0,0,0-.13,1v2.84Z" transform="translate(1.94 0.72)"/><path class="cls-12" d="M178.38,120.53v-.89h2.35v.89Z" transform="translate(1.94 0.72)"/><path class="cls-12" d="M181.65,122.68v-7.16h1.24l1.48,5.07c.13.47.23.82.29,1,.07-.25.19-.64.34-1.14l1.49-5h1.11v7.16h-.8v-6l-1.81,6h-.74l-1.8-6.1v6.1Z" transform="translate(1.94 0.72)"/><path class="cls-12" d="M191.77,122a2.8,2.8,0,0,1-.81.58,2.05,2.05,0,0,1-.85.17,1.54,1.54,0,0,1-1.14-.41,1.48,1.48,0,0,1-.4-1.07,1.6,1.6,0,0,1,.15-.7,1.25,1.25,0,0,1,.4-.5,1.53,1.53,0,0,1,.55-.29,3.9,3.9,0,0,1,.68-.13,6.31,6.31,0,0,0,1.36-.31v-.22a1.08,1.08,0,0,0-.21-.76,1.18,1.18,0,0,0-.87-.3,1.19,1.19,0,0,0-.8.22,1.35,1.35,0,0,0-.38.77l-.75-.12a2.21,2.21,0,0,1,.34-.89,1.42,1.42,0,0,1,.67-.52,2.56,2.56,0,0,1,1-.19,2.48,2.48,0,0,1,.94.16,1.23,1.23,0,0,1,.53.39,1.64,1.64,0,0,1,.24.6,7.22,7.22,0,0,1,0,.81v1.17a14.76,14.76,0,0,0,.05,1.55,2,2,0,0,0,.2.63h-.8A2.4,2.4,0,0,1,191.77,122Zm-.06-2a5,5,0,0,1-1.25.33,3.32,3.32,0,0,0-.67.18.7.7,0,0,0-.3.29.8.8,0,0,0-.1.41.78.78,0,0,0,.23.59.88.88,0,0,0,.67.23,1.4,1.4,0,0,0,.79-.22,1.33,1.33,0,0,0,.51-.61,2.43,2.43,0,0,0,.12-.88Z" transform="translate(1.94 0.72)"/><path class="cls-12" d="M193.53,123.1l.74.13a.85.85,0,0,0,.26.58,1.17,1.17,0,0,0,.78.24,1.25,1.25,0,0,0,.82-.24,1.24,1.24,0,0,0,.39-.69,6.37,6.37,0,0,0,.06-1.12,1.52,1.52,0,0,1-1.25.68,1.62,1.62,0,0,1-1.44-.78,3.27,3.27,0,0,1-.51-1.85,3.83,3.83,0,0,1,.23-1.37,2.18,2.18,0,0,1,.68-1,1.68,1.68,0,0,1,1-.34,1.56,1.56,0,0,1,1.32.75v-.63h.7V122a5,5,0,0,1-.21,1.72,1.71,1.71,0,0,1-.68.8,2.16,2.16,0,0,1-1.15.29,2,2,0,0,1-1.3-.42A1.51,1.51,0,0,1,193.53,123.1Zm.63-3.11a2.46,2.46,0,0,0,.36,1.49,1.05,1.05,0,0,0,.88.47,1.08,1.08,0,0,0,.88-.47,2.39,2.39,0,0,0,.36-1.46,2.34,2.34,0,0,0-.37-1.44,1.08,1.08,0,0,0-.88-.48,1.06,1.06,0,0,0-.87.48A2.31,2.31,0,0,0,194.16,120Z" transform="translate(1.94 0.72)"/><path class="cls-12" d="M198.51,122.68v-5.19h.69v.74a1.57,1.57,0,0,1,1.43-.86,1.73,1.73,0,0,1,.76.17,1.3,1.3,0,0,1,.51.44,2.09,2.09,0,0,1,.24.65,7.6,7.6,0,0,1,0,.86v3.19h-.77v-3.16a2.66,2.66,0,0,0-.09-.8.84.84,0,0,0-.31-.43,1,1,0,0,0-.54-.16,1.15,1.15,0,0,0-.84.36,1.92,1.92,0,0,0-.35,1.35v2.84Z" transform="translate(1.94 0.72)"/><path class="cls-12" d="M206.44,121l.79.11a2.2,2.2,0,0,1-.69,1.23,1.87,1.87,0,0,1-1.29.44,1.93,1.93,0,0,1-1.58-.7,3,3,0,0,1-.58-2,3.13,3.13,0,0,1,.59-2,1.85,1.85,0,0,1,1.52-.73,1.81,1.81,0,0,1,1.48.71,3.1,3.1,0,0,1,.58,2c0,.06,0,.13,0,.24h-3.36a2.09,2.09,0,0,0,.42,1.31,1.17,1.17,0,0,0,.94.45,1.07,1.07,0,0,0,.72-.25A1.74,1.74,0,0,0,206.44,121Zm-2.51-1.43h2.52a2,2,0,0,0-.29-1,1.16,1.16,0,0,0-1.83-.1A1.69,1.69,0,0,0,203.93,119.58Z" transform="translate(1.94 0.72)"/><path class="cls-12" d="M207.88,121.13l.76-.14a1.22,1.22,0,0,0,.36.8,1.09,1.09,0,0,0,.81.28,1.06,1.06,0,0,0,.78-.25.77.77,0,0,0,.26-.58.55.55,0,0,0-.23-.46,2.78,2.78,0,0,0-.78-.3,7.3,7.3,0,0,1-1.17-.42,1.24,1.24,0,0,1-.49-.5,1.47,1.47,0,0,1-.17-.69,1.58,1.58,0,0,1,.14-.65,1.41,1.41,0,0,1,.38-.49,1.54,1.54,0,0,1,.48-.25,2.08,2.08,0,0,1,.66-.11,2.28,2.28,0,0,1,.94.18,1.29,1.29,0,0,1,.59.47,1.89,1.89,0,0,1,.26.81l-.75.12a1,1,0,0,0-.29-.63,1,1,0,0,0-.69-.22,1.09,1.09,0,0,0-.75.2.61.61,0,0,0-.23.46.48.48,0,0,0,.1.31.71.71,0,0,0,.29.24l.67.22a8.5,8.5,0,0,1,1.14.41,1.17,1.17,0,0,1,.5.46,1.44,1.44,0,0,1,.18.75,1.64,1.64,0,0,1-.22.83,1.49,1.49,0,0,1-.64.6,2.12,2.12,0,0,1-1,.21,1.94,1.94,0,0,1-1.34-.42A2.1,2.1,0,0,1,207.88,121.13Z" transform="translate(1.94 0.72)"/><path class="cls-12" d="M212.55,116.53v-1h.76v1Zm0,6.15v-5.19h.76v5.19Z" transform="translate(1.94 0.72)"/><path class="cls-12" d="M217.43,122.68v-.77a1.59,1.59,0,0,1-1.43.88,1.71,1.71,0,0,1-.74-.17,1.35,1.35,0,0,1-.52-.44,1.77,1.77,0,0,1-.23-.66,5.08,5.08,0,0,1,0-.82v-3.21h.76v2.88a5.86,5.86,0,0,0,.05.92.94.94,0,0,0,.31.55.87.87,0,0,0,.58.2,1.11,1.11,0,0,0,.64-.21,1.07,1.07,0,0,0,.43-.55,3.26,3.26,0,0,0,.12-1v-2.78h.77v5.19Z" transform="translate(1.94 0.72)"/><path class="cls-12" d="M219.32,122.68v-5.19H220v.73a1.7,1.7,0,0,1,.57-.62,1.44,1.44,0,0,1,.8-.23,1.33,1.33,0,0,1,.82.24,1.19,1.19,0,0,1,.45.67,1.61,1.61,0,0,1,1.4-.91,1.28,1.28,0,0,1,1,.43,2,2,0,0,1,.36,1.32v3.56h-.76v-3.27a2.76,2.76,0,0,0-.07-.76.68.68,0,0,0-.27-.37.75.75,0,0,0-.46-.15,1,1,0,0,0-.79.37,1.75,1.75,0,0,0-.32,1.16v3H222v-3.37a1.6,1.6,0,0,0-.19-.88.66.66,0,0,0-.61-.3,1,1,0,0,0-.6.2,1.08,1.08,0,0,0-.39.57,3.36,3.36,0,0,0-.13,1.08v2.7Z" transform="translate(1.94 0.72)"/><path class="cls-13" d="M164,183v-7.16h.82v6.31h3.07V183Z" transform="translate(1.94 0.72)"/><path class="cls-13" d="M168.47,180.38a2.86,2.86,0,0,1,.7-2.13,2,2,0,0,1,1.42-.58,1.93,1.93,0,0,1,1.52.7,3,3,0,0,1,.59,1.94,3.91,3.91,0,0,1-.26,1.57,2.1,2.1,0,0,1-.76.9,2,2,0,0,1-1.09.31,1.89,1.89,0,0,1-1.54-.7A3,3,0,0,1,168.47,180.38Zm.79,0a2.44,2.44,0,0,0,.37,1.49,1.15,1.15,0,0,0,1.9,0,2.45,2.45,0,0,0,.38-1.52,2.3,2.3,0,0,0-.38-1.45,1.15,1.15,0,0,0-.94-.5,1.16,1.16,0,0,0-1,.49A2.46,2.46,0,0,0,169.26,180.38Z" transform="translate(1.94 0.72)"/><path class="cls-13" d="M174.43,183l-1.38-5.19h.79l.71,3,.27,1.12c0-.06.09-.42.24-1.07l.71-3h.79l.68,3,.22,1,.26-1,.77-3h.75L177.83,183H177l-.72-3.11-.17-.88-.91,4Z" transform="translate(1.94 0.72)"/><path class="cls-13" d="M179.58,180.83v-.89h2.35v.89Z" transform="translate(1.94 0.72)"/><path class="cls-13" d="M182.78,185v-7.17h.7v.67a1.85,1.85,0,0,1,.55-.59,1.41,1.41,0,0,1,.76-.2,1.64,1.64,0,0,1,1,.34,2,2,0,0,1,.67,1,4,4,0,0,1,.23,1.36,4.1,4.1,0,0,1-.25,1.44,2.14,2.14,0,0,1-.72,1,1.68,1.68,0,0,1-1,.34,1.34,1.34,0,0,1-.69-.18,1.73,1.73,0,0,1-.5-.47V185Zm.69-4.55a2.54,2.54,0,0,0,.35,1.48,1,1,0,0,0,1.73,0,2.61,2.61,0,0,0,.37-1.53,2.54,2.54,0,0,0-.36-1.49,1.05,1.05,0,0,0-.85-.49,1.07,1.07,0,0,0-.86.53A2.6,2.6,0,0,0,183.47,180.41Z" transform="translate(1.94 0.72)"/><path class="cls-13" d="M187.62,183v-7.16h.76v2.57a1.63,1.63,0,0,1,1.36-.72,1.66,1.66,0,0,1,.87.23,1.31,1.31,0,0,1,.53.63,3.38,3.38,0,0,1,.16,1.16V183h-.77v-3.29a1.47,1.47,0,0,0-.25-1,.85.85,0,0,0-.7-.3,1.15,1.15,0,0,0-.64.2,1.17,1.17,0,0,0-.43.55,3,3,0,0,0-.13,1V183Z" transform="translate(1.94 0.72)"/><path class="cls-13" d="M192.17,180.38a2.9,2.9,0,0,1,.7-2.13,2,2,0,0,1,1.42-.58,1.91,1.91,0,0,1,1.52.7,2.9,2.9,0,0,1,.59,1.94,3.74,3.74,0,0,1-.26,1.57,2,2,0,0,1-.76.9,2,2,0,0,1-1.09.31,1.89,1.89,0,0,1-1.53-.7A3,3,0,0,1,192.17,180.38Zm.79,0a2.44,2.44,0,0,0,.38,1.49,1.13,1.13,0,0,0,.95.5,1.16,1.16,0,0,0,1-.5,2.52,2.52,0,0,0,.38-1.52,2.37,2.37,0,0,0-.38-1.45,1.17,1.17,0,0,0-1-.5,1.14,1.14,0,0,0-.95.49A2.46,2.46,0,0,0,193,180.38Z" transform="translate(1.94 0.72)"/><path class="cls-13" d="M197,181.43l.76-.14a1.22,1.22,0,0,0,.36.8,1.09,1.09,0,0,0,.81.28,1.06,1.06,0,0,0,.78-.25.76.76,0,0,0,.26-.57.56.56,0,0,0-.23-.47,2.78,2.78,0,0,0-.78-.3,7.3,7.3,0,0,1-1.17-.42,1.24,1.24,0,0,1-.49-.5,1.47,1.47,0,0,1-.17-.69,1.58,1.58,0,0,1,.14-.65,1.41,1.41,0,0,1,.38-.49,1.43,1.43,0,0,1,.48-.25,2.08,2.08,0,0,1,.66-.11,2.28,2.28,0,0,1,.94.18,1.3,1.3,0,0,1,.59.48,1.93,1.93,0,0,1,.26.8l-.75.12a1,1,0,0,0-.29-.63,1,1,0,0,0-.69-.22,1.09,1.09,0,0,0-.75.2.61.61,0,0,0-.23.46.48.48,0,0,0,.1.31.64.64,0,0,0,.29.24l.67.22a9.07,9.07,0,0,1,1.14.41,1.23,1.23,0,0,1,.5.46,1.44,1.44,0,0,1,.18.75,1.61,1.61,0,0,1-.22.83,1.49,1.49,0,0,1-.64.6,2.15,2.15,0,0,1-1,.21,1.94,1.94,0,0,1-1.34-.42A2.1,2.1,0,0,1,197,181.43Z" transform="translate(1.94 0.72)"/><path class="cls-13" d="M201.65,185v-7.17h.7v.67a1.77,1.77,0,0,1,.56-.59,1.35,1.35,0,0,1,.75-.2,1.69,1.69,0,0,1,1,.34,2.1,2.1,0,0,1,.66,1,3.74,3.74,0,0,1,.23,1.36,3.89,3.89,0,0,1-.25,1.44,2,2,0,0,1-.72,1,1.68,1.68,0,0,1-1,.34,1.3,1.3,0,0,1-.68-.18,1.61,1.61,0,0,1-.5-.47V185Zm.69-4.55a2.46,2.46,0,0,0,.36,1.48,1,1,0,0,0,1.72,0,3.31,3.31,0,0,0,0-3,1,1,0,0,0-.84-.49,1.07,1.07,0,0,0-.87.53A2.6,2.6,0,0,0,202.34,180.41Z" transform="translate(1.94 0.72)"/><path class="cls-13" d="M206.49,183v-7.16h.77v2.57a1.62,1.62,0,0,1,1.35-.72,1.66,1.66,0,0,1,.87.23,1.26,1.26,0,0,1,.53.63,3.15,3.15,0,0,1,.16,1.16V183h-.77v-3.29a1.54,1.54,0,0,0-.24-1,.89.89,0,0,0-.71-.3,1.15,1.15,0,0,0-1.07.75,3,3,0,0,0-.12,1V183Z" transform="translate(1.94 0.72)"/><path class="cls-13" d="M214.28,182.34a2.83,2.83,0,0,1-.82.58,2,2,0,0,1-.84.17,1.55,1.55,0,0,1-1.15-.41,1.52,1.52,0,0,1-.4-1.07,1.47,1.47,0,0,1,.16-.7,1.32,1.32,0,0,1,.39-.5,1.61,1.61,0,0,1,.55-.29,4.11,4.11,0,0,1,.68-.13,6.16,6.16,0,0,0,1.36-.31c0-.12,0-.19,0-.22a1,1,0,0,0-.22-.76,1.15,1.15,0,0,0-.87-.3,1.21,1.21,0,0,0-.8.22,1.42,1.42,0,0,0-.38.77l-.74-.12a2.21,2.21,0,0,1,.33-.89,1.45,1.45,0,0,1,.68-.52,2.48,2.48,0,0,1,1-.19,2.27,2.27,0,0,1,.94.16,1.17,1.17,0,0,1,.53.39,1.48,1.48,0,0,1,.24.6,5,5,0,0,1,0,.81v1.17a12.29,12.29,0,0,0,0,1.55,2,2,0,0,0,.19.63h-.8A2.07,2.07,0,0,1,214.28,182.34Zm-.07-2a5.25,5.25,0,0,1-1.24.34,2.72,2.72,0,0,0-.67.17.7.7,0,0,0-.3.29.81.81,0,0,0-.11.41.82.82,0,0,0,.23.59.91.91,0,0,0,.68.23,1.43,1.43,0,0,0,.79-.22,1.31,1.31,0,0,0,.5-.61,2.41,2.41,0,0,0,.12-.87Z" transform="translate(1.94 0.72)"/><path class="cls-13" d="M217.84,182.19l.12.78a2.6,2.6,0,0,1-.58.07,1.18,1.18,0,0,1-.65-.15.81.81,0,0,1-.32-.39,3.69,3.69,0,0,1-.1-1v-3h-.56v-.68h.56v-1.28l.77-.53v1.81h.76v.68h-.76v3a1.6,1.6,0,0,0,0,.48.31.31,0,0,0,.13.17.48.48,0,0,0,.26.06Z" transform="translate(1.94 0.72)"/><path class="cls-13" d="M221.68,181.31l.79.11a2.2,2.2,0,0,1-.69,1.23,1.87,1.87,0,0,1-1.29.44,1.91,1.91,0,0,1-1.57-.7,3,3,0,0,1-.58-2,3.15,3.15,0,0,1,.58-2,1.86,1.86,0,0,1,1.53-.73,1.81,1.81,0,0,1,1.47.71,3,3,0,0,1,.58,2,2.37,2.37,0,0,1,0,.24h-3.36a2.22,2.22,0,0,0,.42,1.31,1.18,1.18,0,0,0,.94.45,1.07,1.07,0,0,0,.72-.25A1.66,1.66,0,0,0,221.68,181.31Zm-2.51-1.42h2.52a1.91,1.91,0,0,0-.29-1,1.11,1.11,0,0,0-1-.5,1.12,1.12,0,0,0-.88.4A1.75,1.75,0,0,0,219.17,179.89Z" transform="translate(1.94 0.72)"/><path class="cls-14" d="M164.05,152.06V144.9h.83v2.94h3.23V144.9h.83v7.16h-.83v-3.37h-3.23v3.37Z" transform="translate(1.94 0.72)"/><path class="cls-14" d="M170.22,145.91v-1H171v1Zm0,6.15v-5.18H171v5.18Z" transform="translate(1.94 0.72)"/><path class="cls-14" d="M172,152.49l.74.13a.85.85,0,0,0,.26.57,1.13,1.13,0,0,0,.78.25,1.22,1.22,0,0,0,.82-.25,1.24,1.24,0,0,0,.39-.68,5.88,5.88,0,0,0,.05-1.13,1.48,1.48,0,0,1-1.25.68,1.64,1.64,0,0,1-1.44-.77,3.27,3.27,0,0,1-.51-1.85,3.79,3.79,0,0,1,.24-1.37,2.11,2.11,0,0,1,.67-1,1.67,1.67,0,0,1,1.05-.34,1.55,1.55,0,0,1,1.31.74v-.62h.71v4.48a4.85,4.85,0,0,1-.21,1.71,1.72,1.72,0,0,1-.68.8,2.09,2.09,0,0,1-1.15.3,1.93,1.93,0,0,1-1.3-.42A1.46,1.46,0,0,1,172,152.49Zm.63-3.11a2.5,2.5,0,0,0,.35,1.48,1.07,1.07,0,0,0,1.77,0,2.41,2.41,0,0,0,.36-1.47,2.37,2.37,0,0,0-.37-1.43,1.1,1.1,0,0,0-.89-.48,1,1,0,0,0-.86.47A2.34,2.34,0,0,0,172.64,149.38Z" transform="translate(1.94 0.72)"/><path class="cls-14" d="M177,152.06V144.9h.76v2.57a1.64,1.64,0,0,1,1.35-.71,1.53,1.53,0,0,1,.87.23,1.23,1.23,0,0,1,.53.62,3.22,3.22,0,0,1,.16,1.16v3.29h-.76v-3.29a1.46,1.46,0,0,0-.25-1,.87.87,0,0,0-.7-.31,1.09,1.09,0,0,0-.64.21,1.07,1.07,0,0,0-.43.55,2.71,2.71,0,0,0-.13.95v2.84Z" transform="translate(1.94 0.72)"/><path class="cls-14" d="M181.53,149.91V149h2.35v.88Z" transform="translate(1.94 0.72)"/><path class="cls-14" d="M184.14,152.06l2.39-7.16h.89l2.55,7.16H189l-.73-2.17h-2.6l-.69,2.17Zm1.8-2.94h2.11l-.65-2c-.2-.6-.35-1.1-.44-1.49a9.45,9.45,0,0,1-.34,1.37Z" transform="translate(1.94 0.72)"/><path class="cls-14" d="M190.51,152.06V144.9h.77v7.16Z" transform="translate(1.94 0.72)"/><path class="cls-14" d="M195.42,152.06v-.76a1.6,1.6,0,0,1-1.43.88,1.56,1.56,0,0,1-.74-.18,1.15,1.15,0,0,1-.52-.44,1.72,1.72,0,0,1-.23-.65,4.19,4.19,0,0,1-.05-.82v-3.21h.76v2.87a5.93,5.93,0,0,0,0,.93.92.92,0,0,0,.31.54.8.8,0,0,0,.57.2,1.18,1.18,0,0,0,.65-.2,1.17,1.17,0,0,0,.43-.55,3.33,3.33,0,0,0,.12-1v-2.77h.77v5.18Z" transform="translate(1.94 0.72)"/><path class="cls-14" d="M197.3,152.06v-5.18H198v.72a1.73,1.73,0,0,1,.56-.61,1.5,1.5,0,0,1,.81-.23,1.33,1.33,0,0,1,.82.24,1.29,1.29,0,0,1,.45.67,1.58,1.58,0,0,1,1.4-.91,1.27,1.27,0,0,1,1,.43,2,2,0,0,1,.36,1.31v3.56h-.76v-3.27a3.13,3.13,0,0,0-.07-.75.74.74,0,0,0-.27-.38.81.81,0,0,0-.46-.14,1,1,0,0,0-.79.36,1.78,1.78,0,0,0-.32,1.17v3H200v-3.37a1.72,1.72,0,0,0-.19-.88.69.69,0,0,0-.61-.29,1,1,0,0,0-.6.2,1.16,1.16,0,0,0-.4.57,3.73,3.73,0,0,0-.12,1.08v2.69Z" transform="translate(1.94 0.72)"/><path class="cls-14" d="M204.56,145.91v-1h.77v1Zm0,6.15v-5.18h.77v5.18Z" transform="translate(1.94 0.72)"/><path class="cls-14" d="M206.49,152.06v-5.18h.69v.73a1.56,1.56,0,0,1,1.43-.85,1.6,1.6,0,0,1,.76.17,1.3,1.3,0,0,1,.51.44,2,2,0,0,1,.24.65,7.39,7.39,0,0,1,0,.85v3.19h-.77v-3.15a2.73,2.73,0,0,0-.09-.81.82.82,0,0,0-.31-.42.91.91,0,0,0-.54-.16,1.15,1.15,0,0,0-.84.36,1.88,1.88,0,0,0-.36,1.35v2.83Z" transform="translate(1.94 0.72)"/><path class="cls-14" d="M214.29,152.06v-.76a1.62,1.62,0,0,1-2.18.7,1.26,1.26,0,0,1-.52-.44,1.72,1.72,0,0,1-.23-.65,5.18,5.18,0,0,1-.05-.82v-3.21h.77v2.87a6.36,6.36,0,0,0,0,.93.92.92,0,0,0,.31.54.84.84,0,0,0,.58.2,1.15,1.15,0,0,0,.64-.2,1.06,1.06,0,0,0,.43-.55,3,3,0,0,0,.13-1v-2.77H215v5.18Z" transform="translate(1.94 0.72)"/><path class="cls-14" d="M216.17,152.06v-5.18h.68v.72a1.76,1.76,0,0,1,.57-.61,1.47,1.47,0,0,1,.8-.23,1.36,1.36,0,0,1,.83.24,1.29,1.29,0,0,1,.45.67,1.58,1.58,0,0,1,1.39-.91,1.25,1.25,0,0,1,1,.43,1.93,1.93,0,0,1,.37,1.31v3.56h-.76v-3.27a2.59,2.59,0,0,0-.08-.75.74.74,0,0,0-.27-.38.78.78,0,0,0-.46-.14,1,1,0,0,0-.79.36,1.78,1.78,0,0,0-.31,1.17v3h-.77v-3.37a1.73,1.73,0,0,0-.18-.88.69.69,0,0,0-.62-.29,1,1,0,0,0-.59.2,1,1,0,0,0-.4.57,3.73,3.73,0,0,0-.12,1.08v2.69Z" transform="translate(1.94 0.72)"/></g><g id="Other_Lable" data-name="Other Lable"><path d="M33.57,12.43l.72-.1a1.55,1.55,0,0,0,.42.88,1,1,0,0,0,.72.27,1.2,1.2,0,0,0,1.21-1.22,1.13,1.13,0,0,0-1.15-1.14,2.21,2.21,0,0,0-.5.08l.08-.63h.11a1.49,1.49,0,0,0,.83-.24.81.81,0,0,0,.36-.73A.91.91,0,0,0,36.11,9a1,1,0,0,0-1.39,0,1.25,1.25,0,0,0-.36.79l-.72-.13a1.86,1.86,0,0,1,.6-1.12,1.76,1.76,0,0,1,1.16-.4,1.87,1.87,0,0,1,.88.21,1.45,1.45,0,0,1,.83,1.31,1.29,1.29,0,0,1-.2.69,1.49,1.49,0,0,1-.6.5,1.35,1.35,0,0,1,.8.49,1.52,1.52,0,0,1,.29.94,1.73,1.73,0,0,1-.56,1.3,1.93,1.93,0,0,1-1.41.53,1.87,1.87,0,0,1-1.28-.45A1.81,1.81,0,0,1,33.57,12.43Z" transform="translate(1.94 0.72)"/><path d="M40.81,14h-.72V9.4a3.63,3.63,0,0,1-.68.49,4.28,4.28,0,0,1-.75.37V9.57a4.34,4.34,0,0,0,1.05-.69,2.59,2.59,0,0,0,.64-.78h.46Z" transform="translate(1.94 0.72)"/><path d="M43.39,18.63v-10h3.78a8.4,8.4,0,0,1,1.52.1,3,3,0,0,1,1.24.46,2.49,2.49,0,0,1,.8,1A3,3,0,0,1,51,11.51a3,3,0,0,1-.82,2.16,3.9,3.9,0,0,1-2.94.89H44.71v4.07Zm1.32-5.25H47.3a2.75,2.75,0,0,0,1.83-.48,1.71,1.71,0,0,0,.54-1.35,1.84,1.84,0,0,0-.32-1.08,1.53,1.53,0,0,0-.84-.59,5.51,5.51,0,0,0-1.23-.09H44.71Z" transform="translate(1.94 0.72)"/><path class="cls-2" d="M55.79,37.44A5.91,5.91,0,0,0,57,38.1l-.28.66a5.47,5.47,0,0,1-1.53-.88,3.55,3.55,0,0,1-1.76.45,3.38,3.38,0,0,1-1.76-.47,3.06,3.06,0,0,1-1.22-1.32A4.13,4.13,0,0,1,50,34.63a4.24,4.24,0,0,1,.43-1.93,3.09,3.09,0,0,1,1.22-1.33,3.54,3.54,0,0,1,1.78-.45,3.45,3.45,0,0,1,1.78.47,3.11,3.11,0,0,1,1.22,1.32,4.25,4.25,0,0,1,.42,1.91,4.42,4.42,0,0,1-.27,1.59A3.38,3.38,0,0,1,55.79,37.44ZM53.7,36.23a3.43,3.43,0,0,1,1.35.68,2.94,2.94,0,0,0,.84-2.29,3.62,3.62,0,0,0-.3-1.52,2.16,2.16,0,0,0-.86-1,2.49,2.49,0,0,0-3,.36A3,3,0,0,0,51,34.63a3,3,0,0,0,.69,2.14,2.29,2.29,0,0,0,1.76.75,2.57,2.57,0,0,0,1-.19,3.13,3.13,0,0,0-.94-.41Z" transform="translate(1.94 0.72)"/><path class="cls-2" d="M57.61,32.82a3.83,3.83,0,0,1,.15-1.19,1.47,1.47,0,0,1,.45-.7,1.21,1.21,0,0,1,.76-.24,1.25,1.25,0,0,1,.59.13,1.12,1.12,0,0,1,.42.39,2.36,2.36,0,0,1,.26.62,4.33,4.33,0,0,1,.09,1A3.81,3.81,0,0,1,60.18,34a1.47,1.47,0,0,1-.45.7A1.12,1.12,0,0,1,59,35a1.15,1.15,0,0,1-.95-.44A2.76,2.76,0,0,1,57.61,32.82Zm.53,0a2.65,2.65,0,0,0,.24,1.37.73.73,0,0,0,.59.34.7.7,0,0,0,.59-.35,2.58,2.58,0,0,0,.24-1.36,2.6,2.6,0,0,0-.24-1.37.7.7,0,0,0-.59-.34.66.66,0,0,0-.57.3A2.7,2.7,0,0,0,58.14,32.82Z" transform="translate(1.94 0.72)"/><path class="cls-2" d="M86.46,22.24a5.59,5.59,0,0,0,1.22.67l-.28.66a5.63,5.63,0,0,1-1.54-.88,3.51,3.51,0,0,1-1.76.44,3.34,3.34,0,0,1-1.76-.47,3.15,3.15,0,0,1-1.22-1.31,4.3,4.3,0,0,1-.43-1.92,4.41,4.41,0,0,1,.43-1.93,3,3,0,0,1,1.23-1.32,3.53,3.53,0,0,1,1.77-.45,3.4,3.4,0,0,1,1.79.47,3,3,0,0,1,1.21,1.32,4.22,4.22,0,0,1,.42,1.91A4.42,4.42,0,0,1,87.27,21,3.26,3.26,0,0,1,86.46,22.24ZM84.38,21a3.59,3.59,0,0,1,1.35.69,2.94,2.94,0,0,0,.83-2.29,3.59,3.59,0,0,0-.29-1.52,2.41,2.41,0,0,0-3.9-.64,3,3,0,0,0-.7,2.16,3.07,3.07,0,0,0,.69,2.15,2.48,2.48,0,0,0,2.72.55,3,3,0,0,0-.93-.41Z" transform="translate(1.94 0.72)"/><path class="cls-2" d="M90.22,19.68H89.7V16.42a3,3,0,0,1-.48.35,2.61,2.61,0,0,1-.54.26v-.49a3.35,3.35,0,0,0,.75-.49,2,2,0,0,0,.46-.56h.33Z" transform="translate(1.94 0.72)"/><path class="cls-2" d="M143.62,37.92a6,6,0,0,0,1.22.66l-.28.66a5.47,5.47,0,0,1-1.54-.87,3.59,3.59,0,0,1-1.76.44,3.43,3.43,0,0,1-1.76-.47A3.12,3.12,0,0,1,138.28,37a4.55,4.55,0,0,1,0-3.84,3,3,0,0,1,1.22-1.32,3.64,3.64,0,0,1,3.56,0,3.17,3.17,0,0,1,1.22,1.32,4.73,4.73,0,0,1,.14,3.5A3.38,3.38,0,0,1,143.62,37.92Zm-2.08-1.21a3.5,3.5,0,0,1,1.35.68,2.92,2.92,0,0,0,.84-2.29,3.62,3.62,0,0,0-.3-1.52,2.28,2.28,0,0,0-.86-1,2.49,2.49,0,0,0-3,.36,3.06,3.06,0,0,0-.7,2.17,3,3,0,0,0,.69,2.14,2.3,2.3,0,0,0,1.77.75,2.38,2.38,0,0,0,1-.19,3.13,3.13,0,0,0-.94-.41Z" transform="translate(1.94 0.72)"/><path class="cls-2" d="M148.14,34.87v.49h-2.76a1.09,1.09,0,0,1,.06-.36,1.72,1.72,0,0,1,.34-.55,4.68,4.68,0,0,1,.67-.64,5.69,5.69,0,0,0,.92-.88,1.06,1.06,0,0,0,.24-.62.67.67,0,0,0-.22-.51.77.77,0,0,0-.57-.21.84.84,0,0,0-.59.22.89.89,0,0,0-.23.62l-.52-.06a1.23,1.23,0,0,1,.41-.89,1.35,1.35,0,0,1,.94-.31,1.32,1.32,0,0,1,.95.33,1.07,1.07,0,0,1,.35.83,1.23,1.23,0,0,1-.1.49,2,2,0,0,1-.34.51,8,8,0,0,1-.79.73c-.31.26-.5.44-.59.53a1.42,1.42,0,0,0-.22.28Z" transform="translate(1.94 0.72)"/><path class="cls-2" d="M188.35,22a5.59,5.59,0,0,0,1.22.67l-.28.66a5.77,5.77,0,0,1-1.54-.88,3.47,3.47,0,0,1-1.75.44,3.35,3.35,0,0,1-1.77-.47A3.22,3.22,0,0,1,183,21.08a4.57,4.57,0,0,1,0-3.85,3,3,0,0,1,1.22-1.32,3.53,3.53,0,0,1,1.77-.45,3.4,3.4,0,0,1,1.79.47A3,3,0,0,1,189,17.25a4.22,4.22,0,0,1,.42,1.91,4.42,4.42,0,0,1-.27,1.59A3.26,3.26,0,0,1,188.35,22Zm-2.08-1.21a3.44,3.44,0,0,1,1.35.69,2.94,2.94,0,0,0,.84-2.29,3.58,3.58,0,0,0-.3-1.52,2.3,2.3,0,0,0-.86-1,2.36,2.36,0,0,0-1.28-.36,2.32,2.32,0,0,0-1.76.73,3,3,0,0,0-.7,2.16,3.07,3.07,0,0,0,.69,2.15,2.32,2.32,0,0,0,1.77.74,2.38,2.38,0,0,0,1-.19,3.13,3.13,0,0,0-.94-.41Z" transform="translate(1.94 0.72)"/><path class="cls-2" d="M190.18,18.31l.51-.07a1.16,1.16,0,0,0,.3.63.74.74,0,0,0,.52.19.85.85,0,0,0,.86-.87.79.79,0,0,0-.82-.81,1.41,1.41,0,0,0-.36.06l.06-.45h.08a1,1,0,0,0,.59-.17.59.59,0,0,0,.26-.53.6.6,0,0,0-.19-.46.66.66,0,0,0-.49-.19.72.72,0,0,0-.5.19,1,1,0,0,0-.26.56l-.51-.09a1.33,1.33,0,0,1,.43-.8,1.28,1.28,0,0,1,.83-.28,1.39,1.39,0,0,1,.63.15,1.14,1.14,0,0,1,.44.4,1,1,0,0,1,.15.54.86.86,0,0,1-.15.49,1,1,0,0,1-.43.35,1,1,0,0,1,.58.36,1.11,1.11,0,0,1,.2.67,1.24,1.24,0,0,1-.4.93,1.4,1.4,0,0,1-1,.38,1.33,1.33,0,0,1-.92-.33A1.25,1.25,0,0,1,190.18,18.31Z" transform="translate(1.94 0.72)"/></g></svg>