<svg xmlns="http://www.w3.org/2000/svg" xmlns:xlink="http://www.w3.org/1999/xlink" width="3.36in" height="3.3in" viewBox="0 0 241.66 237.94"><defs><style>.cls-1,.cls-5,.cls-6,.cls-7,.cls-8,.cls-9{fill:none;}.cls-2{fill:#fff;}.cls-3,.cls-7,.cls-9{stroke:#000;}.cls-3,.cls-5,.cls-6,.cls-7,.cls-8{stroke-linejoin:round;}.cls-3,.cls-9{stroke-width:0.8px;}.cls-4{clip-path:url(#clip-path);}.cls-5{stroke:#58a265;}.cls-5,.cls-6,.cls-7,.cls-8,.cls-9{stroke-linecap:square;}.cls-6{stroke:#0e0e77;}.cls-8{stroke:#626161;}.cls-10{fill:#0e0e77;}.cls-11{fill:#0e7723;}.cls-12{fill:#626161;}</style><clipPath id="clip-path" transform="translate(1.98 -0.66)"><rect class="cls-1" x="27.19" y="7.86" width="195.3" height="190.26"/></clipPath></defs><g id="Layer_1" data-name="Layer 1"><g id="figure_1" data-name="figure 1"><g id="patch_1" data-name="patch 1"><path class="cls-2" d="M-.47,238.6H238.18V.66H-.47Z" transform="translate(1.98 -0.66)"/></g><g id="axes_1" data-name="axes 1"><g id="patch_2" data-name="patch 2"><path class="cls-2" d="M27.19,198.12h195.3V7.86H27.19Z" transform="translate(1.98 -0.66)"/></g><g id="matplotlib.axis_1" data-name="matplotlib.axis 1"><g id="xtick_1" data-name="xtick 1"><g id="line2d_1" data-name="line2d 1"><path id="m8dc28f6556" class="cls-3" d="M222.49,198.12v3.5" transform="translate(1.98 -0.66)"/></g><g id="text_1" data-name="text 1"><path id="ArialMT-2212" d="M219.3,209.15h-4.73v-.82h4.73Z" transform="translate(1.98 -0.66)"/><path id="ArialMT-32" d="M224.89,211.43v.85h-4.73a1.45,1.45,0,0,1,.1-.62,3.24,3.24,0,0,1,.58-.95,9,9,0,0,1,1.15-1.08,9.18,9.18,0,0,0,1.57-1.52,1.77,1.77,0,0,0,.42-1.06,1.15,1.15,0,0,0-.38-.87,1.34,1.34,0,0,0-1-.36,1.36,1.36,0,0,0-1,.38,1.42,1.42,0,0,0-.38,1.05l-.91-.09a2.21,2.21,0,0,1,.7-1.54,2.35,2.35,0,0,1,1.63-.53,2.28,2.28,0,0,1,1.63.57,1.87,1.87,0,0,1,.6,1.42,2.12,2.12,0,0,1-.18.84,3.21,3.21,0,0,1-.58.87,12.37,12.37,0,0,1-1.36,1.26c-.52.45-.86.75-1,.9a2.58,2.58,0,0,0-.37.48Z" transform="translate(1.98 -0.66)"/><path id="ArialMT-30" d="M225.83,208.75a6.73,6.73,0,0,1,.26-2.05,2.56,2.56,0,0,1,.78-1.19,2,2,0,0,1,1.29-.42,2.15,2.15,0,0,1,1,.23,1.92,1.92,0,0,1,.72.67,3.56,3.56,0,0,1,.45,1.06,7.58,7.58,0,0,1,.16,1.7,6.63,6.63,0,0,1-.26,2,2.57,2.57,0,0,1-.78,1.2,2,2,0,0,1-1.3.42,1.94,1.94,0,0,1-1.62-.75A4.69,4.69,0,0,1,225.83,208.75Zm.9,0a4.41,4.41,0,0,0,.42,2.34,1.17,1.17,0,0,0,2,0,6.91,6.91,0,0,0,0-4.69,1.21,1.21,0,0,0-1-.58,1.12,1.12,0,0,0-1,.51A4.45,4.45,0,0,0,226.73,208.75Z" transform="translate(1.98 -0.66)"/></g></g><g id="xtick_2" data-name="xtick 2"><g id="line2d_2" data-name="line2d 2"><path id="m8dc28f6556-2" data-name="m8dc28f6556" class="cls-3" d="M183.43,198.12v3.5" transform="translate(1.98 -0.66)"/></g><g id="text_2" data-name="text 2"><path id="ArialMT-30-2" data-name="ArialMT-30" d="M181.07,208.75a6.73,6.73,0,0,1,.26-2.05,2.49,2.49,0,0,1,.78-1.19,2,2,0,0,1,1.29-.42,2.15,2.15,0,0,1,1,.23,1.92,1.92,0,0,1,.72.67,3.56,3.56,0,0,1,.45,1.06,7.58,7.58,0,0,1,.16,1.7,6.63,6.63,0,0,1-.26,2,2.57,2.57,0,0,1-.78,1.2,2,2,0,0,1-1.3.42,1.94,1.94,0,0,1-1.62-.75A4.69,4.69,0,0,1,181.07,208.75Zm.9,0a4.41,4.41,0,0,0,.42,2.34,1.17,1.17,0,0,0,2,0,6.91,6.91,0,0,0,0-4.69,1.21,1.21,0,0,0-1-.58,1.12,1.12,0,0,0-1,.51A4.45,4.45,0,0,0,182,208.75Z" transform="translate(1.98 -0.66)"/></g></g><g id="xtick_3" data-name="xtick 3"><g id="line2d_3" data-name="line2d 3"><path id="m8dc28f6556-3" data-name="m8dc28f6556" class="cls-3" d="M144.37,198.12v3.5" transform="translate(1.98 -0.66)"/></g><g id="text_3" data-name="text 3"><path id="ArialMT-32-2" data-name="ArialMT-32" d="M143.85,211.43v.85h-4.73a1.45,1.45,0,0,1,.1-.62,3.24,3.24,0,0,1,.58-.95,9,9,0,0,1,1.15-1.08,9.18,9.18,0,0,0,1.57-1.52,1.77,1.77,0,0,0,.42-1.06,1.15,1.15,0,0,0-.38-.87,1.34,1.34,0,0,0-1-.36,1.36,1.36,0,0,0-1,.38,1.42,1.42,0,0,0-.38,1.05l-.91-.09a2.21,2.21,0,0,1,.7-1.54,2.35,2.35,0,0,1,1.63-.53,2.28,2.28,0,0,1,1.63.57,1.87,1.87,0,0,1,.6,1.42,2.12,2.12,0,0,1-.18.84,3,3,0,0,1-.58.87,12.37,12.37,0,0,1-1.36,1.26c-.52.45-.86.75-1,.9a2.58,2.58,0,0,0-.37.48Z" transform="translate(1.98 -0.66)"/><path id="ArialMT-30-3" data-name="ArialMT-30" d="M144.79,208.75a6.73,6.73,0,0,1,.26-2.05,2.56,2.56,0,0,1,.78-1.19,2,2,0,0,1,1.29-.42,2.15,2.15,0,0,1,1,.23,1.92,1.92,0,0,1,.72.67,3.56,3.56,0,0,1,.45,1.06,7.58,7.58,0,0,1,.16,1.7,6.63,6.63,0,0,1-.26,2,2.63,2.63,0,0,1-.77,1.2,2,2,0,0,1-1.31.42,1.94,1.94,0,0,1-1.62-.75A4.69,4.69,0,0,1,144.79,208.75Zm.9,0a4.41,4.41,0,0,0,.42,2.34,1.17,1.17,0,0,0,2,0,6.91,6.91,0,0,0,0-4.69,1.21,1.21,0,0,0-1-.58,1.12,1.12,0,0,0-1,.51A4.45,4.45,0,0,0,145.69,208.75Z" transform="translate(1.98 -0.66)"/></g></g><g id="xtick_4" data-name="xtick 4"><g id="line2d_4" data-name="line2d 4"><path id="m8dc28f6556-4" data-name="m8dc28f6556" class="cls-3" d="M105.31,198.12v3.5" transform="translate(1.98 -0.66)"/></g><g id="text_4" data-name="text 4"><path id="ArialMT-34" d="M103,212.28v-1.72H99.88v-.81l3.27-4.63h.71v4.63h1v.81h-1v1.72Zm0-2.53v-3.22l-2.25,3.22Z" transform="translate(1.98 -0.66)"/><path id="ArialMT-30-4" data-name="ArialMT-30" d="M105.73,208.75a6.73,6.73,0,0,1,.26-2.05,2.56,2.56,0,0,1,.78-1.19,2,2,0,0,1,1.29-.42,2.15,2.15,0,0,1,1,.23,1.92,1.92,0,0,1,.72.67,3.56,3.56,0,0,1,.45,1.06,7.58,7.58,0,0,1,.16,1.7,6.63,6.63,0,0,1-.26,2,2.63,2.63,0,0,1-.77,1.2,2,2,0,0,1-1.31.42,1.94,1.94,0,0,1-1.62-.75A4.69,4.69,0,0,1,105.73,208.75Zm.9,0a4.41,4.41,0,0,0,.42,2.34,1.17,1.17,0,0,0,2,0,6.91,6.91,0,0,0,0-4.69,1.21,1.21,0,0,0-1-.58,1.12,1.12,0,0,0-1,.51A4.45,4.45,0,0,0,106.63,208.75Z" transform="translate(1.98 -0.66)"/></g></g><g id="xtick_5" data-name="xtick 5"><g id="line2d_5" data-name="line2d 5"><path id="m8dc28f6556-5" data-name="m8dc28f6556" class="cls-3" d="M66.25,198.12v3.5" transform="translate(1.98 -0.66)"/></g><g id="text_5" data-name="text 5"><path id="ArialMT-36" d="M65.67,206.87l-.87.07a1.54,1.54,0,0,0-.34-.75,1.16,1.16,0,0,0-.88-.38,1.22,1.22,0,0,0-.73.23,2,2,0,0,0-.66.89,4.69,4.69,0,0,0-.25,1.65,2,2,0,0,1,.78-.71,2.07,2.07,0,0,1,1-.24,2,2,0,0,1,1.5.65A2.33,2.33,0,0,1,65.8,210a2.77,2.77,0,0,1-.29,1.25,2.17,2.17,0,0,1-.8.89,2.36,2.36,0,0,1-2.95-.5,4.1,4.1,0,0,1-.69-2.66,4.78,4.78,0,0,1,.77-3,2.18,2.18,0,0,1,1.8-.82,2,2,0,0,1,1.38.47A2,2,0,0,1,65.67,206.87ZM62.08,210a2.2,2.2,0,0,0,.19.87,1.52,1.52,0,0,0,.54.63,1.41,1.41,0,0,0,.73.22,1.25,1.25,0,0,0,1-.45,1.82,1.82,0,0,0,.4-1.23,1.6,1.6,0,0,0-.4-1.16,1.27,1.27,0,0,0-1-.43,1.32,1.32,0,0,0-1,.43A1.51,1.51,0,0,0,62.08,210Z" transform="translate(1.98 -0.66)"/><path id="ArialMT-30-5" data-name="ArialMT-30" d="M66.67,208.75a6.73,6.73,0,0,1,.26-2.05,2.56,2.56,0,0,1,.78-1.19,2,2,0,0,1,1.29-.42,2.15,2.15,0,0,1,1,.23,1.92,1.92,0,0,1,.72.67,3.56,3.56,0,0,1,.45,1.06,7.58,7.58,0,0,1,.16,1.7,6.63,6.63,0,0,1-.26,2,2.63,2.63,0,0,1-.77,1.2,2,2,0,0,1-1.31.42,1.94,1.94,0,0,1-1.62-.75A4.69,4.69,0,0,1,66.67,208.75Zm.9,0a4.41,4.41,0,0,0,.42,2.34,1.17,1.17,0,0,0,2,0,6.91,6.91,0,0,0,0-4.69,1.21,1.21,0,0,0-1-.58,1.12,1.12,0,0,0-1,.51A4.45,4.45,0,0,0,67.57,208.75Z" transform="translate(1.98 -0.66)"/></g></g><g id="xtick_6" data-name="xtick 6"><g id="line2d_6" data-name="line2d 6"><path id="m8dc28f6556-6" data-name="m8dc28f6556" class="cls-3" d="M27.19,198.12v3.5" transform="translate(1.98 -0.66)"/></g><g id="text_6" data-name="text 6"><path id="ArialMT-38" d="M23.4,208.39a1.65,1.65,0,0,1-.81-.57,1.46,1.46,0,0,1-.26-.89,1.7,1.7,0,0,1,.56-1.31,2.37,2.37,0,0,1,3,0,1.79,1.79,0,0,1,.57,1.33,1.44,1.44,0,0,1-.26.87,1.64,1.64,0,0,1-.79.56,2,2,0,0,1,1,.7,1.9,1.9,0,0,1,.35,1.14,2.05,2.05,0,0,1-.65,1.54,2.37,2.37,0,0,1-1.71.63,2.34,2.34,0,0,1-1.71-.63A2.07,2.07,0,0,1,22,210.2a1.9,1.9,0,0,1,.35-1.16A1.82,1.82,0,0,1,23.4,208.39Zm-.17-1.49a1.09,1.09,0,0,0,.32.83,1.15,1.15,0,0,0,.85.33,1.17,1.17,0,0,0,.84-.32,1.1,1.1,0,0,0,.32-.79,1.07,1.07,0,0,0-.34-.81,1.13,1.13,0,0,0-.83-.33,1.16,1.16,0,0,0-.83.32A1,1,0,0,0,23.23,206.9Zm-.29,3.31a1.61,1.61,0,0,0,.18.73,1.31,1.31,0,0,0,.53.54,1.57,1.57,0,0,0,.76.2,1.43,1.43,0,0,0,1-.41,1.39,1.39,0,0,0,.41-1,1.42,1.42,0,0,0-.42-1.05,1.46,1.46,0,0,0-1.06-.42,1.39,1.39,0,0,0-1,.41A1.43,1.43,0,0,0,22.94,210.21Z" transform="translate(1.98 -0.66)"/><path id="ArialMT-30-6" data-name="ArialMT-30" d="M27.61,208.75a6.73,6.73,0,0,1,.26-2.05,2.56,2.56,0,0,1,.78-1.19,2,2,0,0,1,1.29-.42,2.15,2.15,0,0,1,1,.23,1.92,1.92,0,0,1,.72.67,3.56,3.56,0,0,1,.45,1.06,7.58,7.58,0,0,1,.16,1.7,6.63,6.63,0,0,1-.26,2,2.63,2.63,0,0,1-.77,1.2,2,2,0,0,1-1.31.42,1.94,1.94,0,0,1-1.62-.75A4.69,4.69,0,0,1,27.61,208.75Zm.9,0a4.41,4.41,0,0,0,.42,2.34,1.17,1.17,0,0,0,2,0,6.91,6.91,0,0,0,0-4.69,1.21,1.21,0,0,0-1-.58,1.12,1.12,0,0,0-1,.51A4.45,4.45,0,0,0,28.51,208.75Z" transform="translate(1.98 -0.66)"/></g></g><g id="text_7" data-name="text 7"><path id="ArialMT-43" d="M68.9,224.94l1.32.34a4.47,4.47,0,0,1-1.5,2.49,4.13,4.13,0,0,1-2.65.85,4.72,4.72,0,0,1-2.63-.65,4.15,4.15,0,0,1-1.55-1.92,6.85,6.85,0,0,1-.53-2.68,5.85,5.85,0,0,1,.6-2.73,4.1,4.1,0,0,1,1.7-1.77,4.93,4.93,0,0,1,2.43-.61,4.09,4.09,0,0,1,2.53.77,4,4,0,0,1,1.43,2.15l-1.3.31a3.08,3.08,0,0,0-1-1.59,2.62,2.62,0,0,0-1.66-.5,3.27,3.27,0,0,0-1.94.55A3,3,0,0,0,63,221.44a5.94,5.94,0,0,0-.31,1.92,6.06,6.06,0,0,0,.37,2.23A2.82,2.82,0,0,0,64.26,227a3.27,3.27,0,0,0,1.7.47,2.85,2.85,0,0,0,1.89-.64A3.33,3.33,0,0,0,68.9,224.94Z" transform="translate(1.98 -0.66)"/><path id="ArialMT-68" d="M71.7,228.45v-10h1.23V222a2.73,2.73,0,0,1,2.17-1,2.92,2.92,0,0,1,1.4.32,1.83,1.83,0,0,1,.86.88,4,4,0,0,1,.25,1.62v4.6H76.38v-4.6a1.88,1.88,0,0,0-.4-1.34,1.47,1.47,0,0,0-1.13-.42,2,2,0,0,0-1,.29,1.59,1.59,0,0,0-.69.76,3.71,3.71,0,0,0-.2,1.34v4Z" transform="translate(1.98 -0.66)"/><path id="ArialMT-65" d="M84.46,226.12l1.27.15A3,3,0,0,1,84.61,228a3.76,3.76,0,0,1-4.6-.36,3.85,3.85,0,0,1-.94-2.75A4,4,0,0,1,80,222a3.2,3.2,0,0,1,2.44-1,3.09,3.09,0,0,1,2.38,1,3.92,3.92,0,0,1,.93,2.79c0,.07,0,.18,0,.33H80.35A2.77,2.77,0,0,0,81,227a2,2,0,0,0,1.52.64,1.88,1.88,0,0,0,1.16-.36A2.42,2.42,0,0,0,84.46,226.12Zm-4-2h4.06a2.5,2.5,0,0,0-.47-1.38,1.89,1.89,0,0,0-1.52-.71,2,2,0,0,0-1.43.57A2.31,2.31,0,0,0,80.41,224.13Z" transform="translate(1.98 -0.66)"/><path id="ArialMT-6d" d="M87.27,228.45v-7.26h1.1v1a2.56,2.56,0,0,1,.91-.85,2.53,2.53,0,0,1,1.29-.33,2.45,2.45,0,0,1,1.33.33,1.83,1.83,0,0,1,.72.94A2.62,2.62,0,0,1,94.87,221a2.21,2.21,0,0,1,1.66.6,2.58,2.58,0,0,1,.58,1.84v5H95.88v-4.57a3.36,3.36,0,0,0-.12-1.06,1,1,0,0,0-.43-.52,1.28,1.28,0,0,0-.74-.2,1.72,1.72,0,0,0-1.27.51,2.23,2.23,0,0,0-.51,1.63v4.21H91.58v-4.71a2.06,2.06,0,0,0-.3-1.23,1.11,1.11,0,0,0-1-.41,1.78,1.78,0,0,0-1,.27,1.56,1.56,0,0,0-.64.8,4.57,4.57,0,0,0-.2,1.52v3.76Z" transform="translate(1.98 -0.66)"/><path id="ArialMT-69" d="M98.94,219.85v-1.42h1.23v1.42Zm0,8.6v-7.26h1.23v7.26Z" transform="translate(1.98 -0.66)"/><path id="ArialMT-63" d="M106.78,225.79,108,226a3.09,3.09,0,0,1-1,2,3,3,0,0,1-2,.71,3.14,3.14,0,0,1-2.4-1,4,4,0,0,1-.9-2.79,5,5,0,0,1,.39-2,2.7,2.7,0,0,1,1.18-1.33A3.57,3.57,0,0,1,105,221a3,3,0,0,1,1.93.6,2.79,2.79,0,0,1,1,1.7l-1.2.18a2,2,0,0,0-.61-1.1,1.6,1.6,0,0,0-1-.37,1.93,1.93,0,0,0-1.51.67,3.2,3.2,0,0,0-.58,2.11,3.28,3.28,0,0,0,.56,2.12,1.85,1.85,0,0,0,1.47.67,1.69,1.69,0,0,0,1.2-.45A2.17,2.17,0,0,0,106.78,225.79Z" transform="translate(1.98 -0.66)"/><path id="ArialMT-61" d="M113.78,227.56a4.37,4.37,0,0,1-1.32.82,3.76,3.76,0,0,1-1.35.24,2.64,2.64,0,0,1-1.84-.59,1.91,1.91,0,0,1-.64-1.49,2,2,0,0,1,.24-1,1.91,1.91,0,0,1,.64-.71,2.83,2.83,0,0,1,.88-.4,7.8,7.8,0,0,1,1.09-.19,11.73,11.73,0,0,0,2.2-.42c0-.17,0-.28,0-.32a1.39,1.39,0,0,0-.35-1.07,2.11,2.11,0,0,0-1.4-.41,2.23,2.23,0,0,0-1.29.3,1.89,1.89,0,0,0-.61,1.08l-1.2-.16a3,3,0,0,1,.54-1.25,2.31,2.31,0,0,1,1.09-.73,4.82,4.82,0,0,1,1.64-.26,4.23,4.23,0,0,1,1.51.22,1.94,1.94,0,0,1,.86.55,1.92,1.92,0,0,1,.38.84,7,7,0,0,1,.06,1.13v1.64a17.7,17.7,0,0,0,.08,2.17,2.66,2.66,0,0,0,.31.87H114A2.58,2.58,0,0,1,113.78,227.56Zm-.1-2.75a9.35,9.35,0,0,1-2,.47,4.66,4.66,0,0,0-1.08.24,1.11,1.11,0,0,0-.48.4,1.1,1.1,0,0,0-.17.59,1.05,1.05,0,0,0,.37.82,1.65,1.65,0,0,0,1.09.32,2.52,2.52,0,0,0,1.27-.31,1.85,1.85,0,0,0,.81-.85,3,3,0,0,0,.2-1.23Z" transform="translate(1.98 -0.66)"/><path id="ArialMT-6c" d="M116.8,228.45v-10H118v10Z" transform="translate(1.98 -0.66)"/><path id="ArialMT-20" d="M119,228.45" transform="translate(1.98 -0.66)"/><path id="ArialMT-73" d="M123.34,226.29l1.21-.19a1.73,1.73,0,0,0,.57,1.12,2,2,0,0,0,1.32.39,1.9,1.9,0,0,0,1.25-.35,1,1,0,0,0,.41-.81.75.75,0,0,0-.36-.66,5.55,5.55,0,0,0-1.26-.41,12.05,12.05,0,0,1-1.87-.59,1.88,1.88,0,0,1-.8-.69,1.85,1.85,0,0,1-.27-1,1.89,1.89,0,0,1,.83-1.58,2.58,2.58,0,0,1,.78-.36,3.69,3.69,0,0,1,1.07-.15,4,4,0,0,1,1.49.25,2,2,0,0,1,1,.66,2.59,2.59,0,0,1,.42,1.13l-1.2.16a1.3,1.3,0,0,0-.47-.87,1.78,1.78,0,0,0-1.12-.32,2.09,2.09,0,0,0-1.21.28.83.83,0,0,0-.36.66.68.68,0,0,0,.15.43,1.16,1.16,0,0,0,.47.33c.13,0,.49.15,1.09.31a16,16,0,0,1,1.82.57,1.82,1.82,0,0,1,.81.65,1.76,1.76,0,0,1,.3,1,2.06,2.06,0,0,1-.36,1.16,2.37,2.37,0,0,1-1,.84,3.73,3.73,0,0,1-1.53.3,3.45,3.45,0,0,1-2.16-.59A2.71,2.71,0,0,1,123.34,226.29Z" transform="translate(1.98 -0.66)"/><path id="ArialMT-68-2" data-name="ArialMT-68" d="M130.83,228.45v-10h1.23V222a2.73,2.73,0,0,1,2.17-1,3,3,0,0,1,1.41.32,1.86,1.86,0,0,1,.85.88,4,4,0,0,1,.25,1.62v4.6h-1.23v-4.6a1.88,1.88,0,0,0-.4-1.34,1.47,1.47,0,0,0-1.13-.42,2,2,0,0,0-1,.29,1.59,1.59,0,0,0-.69.76,3.71,3.71,0,0,0-.2,1.34v4Z" transform="translate(1.98 -0.66)"/><path id="ArialMT-69-2" data-name="ArialMT-69" d="M138.62,219.85v-1.42h1.23v1.42Zm0,8.6v-7.26h1.23v7.26Z" transform="translate(1.98 -0.66)"/><path id="ArialMT-66" d="M142,228.45v-6.3h-1.09v-1H142v-.77a3.31,3.31,0,0,1,.13-1.09,1.65,1.65,0,0,1,.62-.77,2.26,2.26,0,0,1,1.26-.3,5.47,5.47,0,0,1,1.15.13l-.19,1.07a3.65,3.65,0,0,0-.72-.07,1.05,1.05,0,0,0-.79.24,1.26,1.26,0,0,0-.24.89v.67h1.42v1h-1.42v6.3Z" transform="translate(1.98 -0.66)"/><path id="ArialMT-74" d="M148.3,227.35l.18,1.09a4.85,4.85,0,0,1-.93.11,2.13,2.13,0,0,1-1-.21,1.22,1.22,0,0,1-.52-.56,4.39,4.39,0,0,1-.15-1.45v-4.18h-.9v-1h.9V219.4l1.22-.74v2.53h1.24v1h-1.24v4.25a2.14,2.14,0,0,0,.07.67.49.49,0,0,0,.21.24.82.82,0,0,0,.42.09A3,3,0,0,0,148.3,227.35Z" transform="translate(1.98 -0.66)"/><path id="ArialMT-20-2" data-name="ArialMT-20" d="M148.58,228.45" transform="translate(1.98 -0.66)"/><path id="ArialMT-28" d="M155.75,231.4a12.35,12.35,0,0,1-1.73-3,9.42,9.42,0,0,1-.17-6.68,13,13,0,0,1,1.9-3.45h.88c-.55,1-.92,1.63-1.1,2a12,12,0,0,0-.65,2,11.19,11.19,0,0,0-.29,2.57,12.37,12.37,0,0,0,2,6.57Z" transform="translate(1.98 -0.66)"/><path id="ArialMT-70" d="M158.06,231.24V221.19h1.12v.95a2.67,2.67,0,0,1,.89-.83,2.43,2.43,0,0,1,1.21-.28,2.85,2.85,0,0,1,1.64.48,2.91,2.91,0,0,1,1.08,1.35,5,5,0,0,1,.36,1.91,4.84,4.84,0,0,1-.4,2,3.06,3.06,0,0,1-2.77,1.84,2.35,2.35,0,0,1-1.1-.26,2.49,2.49,0,0,1-.8-.66v3.54Zm1.11-6.38a3.17,3.17,0,0,0,.57,2.08,1.77,1.77,0,0,0,1.37.67,1.8,1.8,0,0,0,1.41-.7,3.29,3.29,0,0,0,.58-2.15,3.19,3.19,0,0,0-.57-2.07,1.69,1.69,0,0,0-1.36-.7,1.79,1.79,0,0,0-1.4.74A3.3,3.3,0,0,0,159.17,224.86Z" transform="translate(1.98 -0.66)"/><path id="ArialMT-70-2" data-name="ArialMT-70" d="M165.84,231.24V221.19H167v.95a2.8,2.8,0,0,1,.9-.83,2.41,2.41,0,0,1,1.21-.28,2.85,2.85,0,0,1,1.64.48,3,3,0,0,1,1.07,1.35,5.18,5.18,0,0,1,0,3.92,3,3,0,0,1-1.17,1.36,2.93,2.93,0,0,1-1.6.48,2.32,2.32,0,0,1-1.1-.26,2.53,2.53,0,0,1-.81-.66v3.54Zm1.12-6.38a3.23,3.23,0,0,0,.56,2.08,1.75,1.75,0,0,0,2.78,0,3.29,3.29,0,0,0,.59-2.15,3.19,3.19,0,0,0-.57-2.07A1.71,1.71,0,0,0,169,222a1.78,1.78,0,0,0-1.39.74A3.3,3.3,0,0,0,167,224.86Z" transform="translate(1.98 -0.66)"/><path id="ArialMT-6d-2" data-name="ArialMT-6d" d="M173.63,228.45v-7.26h1.1v1a2.56,2.56,0,0,1,.91-.85,2.53,2.53,0,0,1,1.29-.33,2.39,2.39,0,0,1,1.32.33,1.8,1.8,0,0,1,.73.94,2.6,2.6,0,0,1,2.24-1.27,2.18,2.18,0,0,1,1.66.6,2.54,2.54,0,0,1,.59,1.84v5h-1.23v-4.57a3.36,3.36,0,0,0-.12-1.06,1,1,0,0,0-.43-.52,1.3,1.3,0,0,0-.74-.2,1.72,1.72,0,0,0-1.27.51,2.23,2.23,0,0,0-.51,1.63v4.21h-1.23v-4.71a2.06,2.06,0,0,0-.3-1.23,1.12,1.12,0,0,0-1-.41,1.78,1.78,0,0,0-1,.27,1.51,1.51,0,0,0-.64.8,4.57,4.57,0,0,0-.2,1.52v3.76Z" transform="translate(1.98 -0.66)"/><path id="ArialMT-29" d="M186.1,231.4h-.88a12.37,12.37,0,0,0,2-6.57,11.53,11.53,0,0,0-.29-2.55,12,12,0,0,0-.65-2c-.18-.41-.55-1.09-1.1-2.05h.88a13.3,13.3,0,0,1,1.9,3.45,9.5,9.5,0,0,1-.18,6.68A12.66,12.66,0,0,1,186.1,231.4Z" transform="translate(1.98 -0.66)"/></g></g><g id="matplotlib.axis_2" data-name="matplotlib.axis 2"><g id="text_8" data-name="text 8"><path id="ArialMT-49" d="M16.75,127.75h-10v-1.33h10Z" transform="translate(1.98 -0.66)"/><path id="ArialMT-6e" d="M16.75,124.24H9.49v-1.1h1a2.62,2.62,0,0,1-1.2-2.31,3,3,0,0,1,.24-1.21,1.93,1.93,0,0,1,.62-.83,2.34,2.34,0,0,1,.91-.38,6.49,6.49,0,0,1,1.19-.07h4.47v1.23H12.33a3.13,3.13,0,0,0-1.12.15,1.14,1.14,0,0,0-.6.51,1.68,1.68,0,0,0-.22.85,2,2,0,0,0,.5,1.36,2.45,2.45,0,0,0,1.89.57h4Z" transform="translate(1.98 -0.66)"/><path id="ArialMT-74-2" data-name="ArialMT-74" d="M15.65,113.77l1.08-.18a4.17,4.17,0,0,1,.11.93,2.13,2.13,0,0,1-.21,1,1.17,1.17,0,0,1-.56.52,4.39,4.39,0,0,1-1.45.15H10.45v.9h-1v-.9H7.69L7,115H9.49v-1.24h1V115h4.24a1.94,1.94,0,0,0,.68-.07.49.49,0,0,0,.24-.21.82.82,0,0,0,.09-.42A4.31,4.31,0,0,0,15.65,113.77Z" transform="translate(1.98 -0.66)"/><path id="ArialMT-65-2" data-name="ArialMT-65" d="M14.41,107.6l.16-1.27a3.06,3.06,0,0,1,1.73,1.11,3.34,3.34,0,0,1,.61,2.08,3.28,3.28,0,0,1-1,2.52,3.79,3.79,0,0,1-2.75.94,4,4,0,0,1-2.84-1,3.17,3.17,0,0,1-1-2.44,3.1,3.1,0,0,1,1-2.38,3.93,3.93,0,0,1,2.79-.93h.33v5.41a2.77,2.77,0,0,0,1.83-.67,2,2,0,0,0,.64-1.52,1.84,1.84,0,0,0-.36-1.15A2.26,2.26,0,0,0,14.41,107.6Zm-2,4v-4.06a2.44,2.44,0,0,0-1.37.47,1.86,1.86,0,0,0-.71,1.52A2,2,0,0,0,10.9,111,2.28,2.28,0,0,0,12.42,111.64Z" transform="translate(1.98 -0.66)"/><path id="ArialMT-6e-2" data-name="ArialMT-6e" d="M16.75,104.78H9.49v-1.11h1a2.6,2.6,0,0,1-1.2-2.31,3,3,0,0,1,.24-1.2,1.87,1.87,0,0,1,.62-.83,2.34,2.34,0,0,1,.91-.38,6.49,6.49,0,0,1,1.19-.07h4.47v1.23H12.33a3.13,3.13,0,0,0-1.12.15,1.17,1.17,0,0,0-.6.5,1.72,1.72,0,0,0-.22.86,2,2,0,0,0,.5,1.36,2.45,2.45,0,0,0,1.89.57h4Z" transform="translate(1.98 -0.66)"/><path id="ArialMT-73-2" data-name="ArialMT-73" d="M14.58,97.49l-.19-1.22a1.71,1.71,0,0,0,1.12-.57,2.45,2.45,0,0,0,.05-2.57,1.06,1.06,0,0,0-.82-.41.75.75,0,0,0-.65.36,5.38,5.38,0,0,0-.42,1.26,11.55,11.55,0,0,1-.59,1.88,1.85,1.85,0,0,1-.69.79,1.83,1.83,0,0,1-1,.27,1.81,1.81,0,0,1-.89-.22,1.93,1.93,0,0,1-.69-.61,2.58,2.58,0,0,1-.36-.78,3.62,3.62,0,0,1-.15-1.06,4.28,4.28,0,0,1,.25-1.5,2,2,0,0,1,.67-1,2.55,2.55,0,0,1,1.12-.43l.16,1.2a1.35,1.35,0,0,0-.87.48,1.73,1.73,0,0,0-.31,1.11,2,2,0,0,0,.28,1.21.8.8,0,0,0,.65.36.66.66,0,0,0,.43-.15,1.16,1.16,0,0,0,.33-.47c.05-.12.15-.49.31-1.09a15.49,15.49,0,0,1,.58-1.82,1.84,1.84,0,0,1,.64-.81,1.86,1.86,0,0,1,1.06-.29,2.05,2.05,0,0,1,1.15.36,2.21,2.21,0,0,1,.84,1,3.73,3.73,0,0,1,.3,1.53,3.37,3.37,0,0,1-.59,2.16A2.76,2.76,0,0,1,14.58,97.49Z" transform="translate(1.98 -0.66)"/><path id="ArialMT-69-3" data-name="ArialMT-69" d="M8.14,90H6.73V88.76H8.14Zm8.61,0H9.49V88.76h7.26Z" transform="translate(1.98 -0.66)"/><path id="ArialMT-74-3" data-name="ArialMT-74" d="M15.65,84.2,16.73,84a4.17,4.17,0,0,1,.11.93,2.13,2.13,0,0,1-.21,1,1.22,1.22,0,0,1-.56.52,4.39,4.39,0,0,1-1.45.15H10.45v.9h-1v-.9H7.69L7,85.44H9.49V84.2h1v1.24h4.24a2.22,2.22,0,0,0,.68-.07.49.49,0,0,0,.24-.21.82.82,0,0,0,.09-.42A4.31,4.31,0,0,0,15.65,84.2Z" transform="translate(1.98 -0.66)"/><path id="ArialMT-79" d="M19.54,83.05l-1.15.14a2.93,2.93,0,0,0,.11-.71,1.33,1.33,0,0,0-.14-.65,1.15,1.15,0,0,0-.38-.41,6.22,6.22,0,0,0-.92-.38l-.3-.1L9.49,83.69V82.37l4.2-1.52c.54-.19,1.1-.37,1.68-.52a15.74,15.74,0,0,1-1.65-.51L9.49,78.27V77l7.38,2.76a16,16,0,0,1,1.65.69,2.51,2.51,0,0,1,.89.75,1.79,1.79,0,0,1,.28,1A2.48,2.48,0,0,1,19.54,83.05Z" transform="translate(1.98 -0.66)"/></g></g><g id="line2d_14" data-name="line2d 14"><g class="cls-4"><path class="cls-5" d="M-1.47,127.21l13.42,0,7.37,0,24-.38,9-.78,3.57-.56,3.33-.71,4.51-1,1.9-.26,1.91-.1,2.37.18,2.38.46,3.56.91L80.41,126l3.09.47,3.57.34,7.13.28,8.32.12h2.85l10.22,0,11.41,0,1.9,0,11.65-.06,12.36-.28,1.19-.21,1.66-.44,1.19-.67.48-.46.47-.71.48-1,.47-1.43.48-2.17.47-3.47.72-8,.71-8.41.48-3.07.23-.35.24.44.48,2.77,1.66,13.16.71,3.31.72,2.15.71,1.35.95,1.28,1,.88L170,123l2.14,1.08,2.37.86,2.62.67,4.75.74,7.37.51,6.66.19,7.36.12,10.94.07,15.45,0,2.38,0,7.11,0h0" transform="translate(1.98 -0.66)"/></g></g><g id="line2d_15" data-name="line2d 15"><g class="cls-4"><path class="cls-6" d="M-1.47,97.38l5.1.08h12.6l15.21-.33,7.14-.25,1.9,0,6.89-.44,3.09-.54,2.38-.74,3.8-1.67,1-.71,1.19-1.2.95-1.19,1-1.53.71-1.45.72-1.93.71-2.68.71-3.57,2.14-11.82.24-.32.24.06.24.45.47,2,.72,4.58L68.76,82l.72,3.54.71,2.59L70.9,90l.95,1.75,1,1.21L74,94l1.19.76,1.9.83,1.67.44,1.66.33,4.76.55,8.55.39,3.81.09,5.23,0,10.93,0h2.61l4.76,0,10.22,0,10.93-.46,2.38-.35,1.9-.49,1.19-.49,1.43-.73,1.19-1,.95-.94.95-1.32,1-1.69.71-1.77.72-2.37.71-3.25L156,78l2.14-15.43L160,50.14l.48-5.72,1.19-16.75.23-1.41.24-.16.24,1.1.47,5.41,1.43,21.74.71,6.94.72,5.05.95,5.09,1.19,5.18,1,3.33L170,83.25l.95,2.06,1.42,2.4,1.19,1.51L175,90.71l2.14,1.67,2.37,1.46,2.14,1,2.38.72,3.8.77,3.33.35,6.18.41,3.57.11,3.09.06,3.56.05,1.43,0h3.33l3.09,0,20.68-.22,3.07-.19h0" transform="translate(1.98 -0.66)"/></g></g><g id="line2d_16" data-name="line2d 16"><g class="cls-4"><path class="cls-7" d="M-1.47,157.05l36-.13,9-.54,8.79-1.17,3.81-.61,3.56-.35,2.85-.1,4.52.19,10.7,1.41,4.75.49,6.66.42,10,.3,7.84.1,5.47,0h14.26l21.16-.24,2.85-.17,3.09-.46,1.19-.38.95-.59.71-.64.72-1,.71-1.56.71-2.29.72-3.42,1-6.49.71-4.19.24-.76.24-.35.23.06.24.43.48,1.68,1.42,6.05.72,2,.71,1.41.71,1,1.19,1.22,1.43,1.13,1.9,1.23,2.14,1.11,2.61,1,3.09,1,3.57.91,4,.74,3.09.38,6.42.55,9.74.43,18.31.23,6.18,0,9.25,0h0" transform="translate(1.98 -0.66)"/></g></g><g id="line2d_17" data-name="line2d 17"><g class="cls-4"><path class="cls-8" d="M-1.47,187l8.67,0H19.56l6.18-.06,5.7-.07,8.8-.49L43.8,186l2.86-.57,1.9-.52,2.38-.85,1.9-.89,2.37-1.38,2.38-1.69,3.33-2.48,1.66-1,1.19-.45L65,176l1,0,1.19.25,1.19.49,1.66,1,2.14,1.56,3.57,2.66L78,183.42l1.67.82,1.9.73,2.85.78,3.33.56,2.61.24,7.85.36,24.48.19,17.59,0,2.86,0,10.22-.34,1.9-.48,1-.52.95-.75.48-.63.47-1,.48-1.34.47-1.88.48-2.78.47-4.08,1.43-15.1.24-1.09.23-.29.24.51.48,2.94,1.42,12,.72,3.64.71,2.34.71,1.48.95,1.31,1,1,1.43,1,1.43.79,1.9.78,3.56,1,2.62.47,3.33.36,6.18.37,20,.31,9.51,0h21.14" transform="translate(1.98 -0.66)"/></g></g><g id="patch_3" data-name="patch 3"><path class="cls-9" d="M27.19,198.12V7.86" transform="translate(1.98 -0.66)"/></g><g id="patch_4" data-name="patch 4"><path class="cls-9" d="M27.19,198.12h195.3" transform="translate(1.98 -0.66)"/></g></g></g></g><g id="Names"><path class="cls-10" d="M88.28,84.48V77.32h.82v2.94h3.24V77.32h.82v7.16h-.82V81.1H89.1v3.38Z" transform="translate(1.98 -0.66)"/><path class="cls-10" d="M94.44,78.33v-1h.77v1Zm0,6.15V79.29h.77v5.19Z" transform="translate(1.98 -0.66)"/><path class="cls-10" d="M96.23,84.91,97,85a.85.85,0,0,0,.26.58,1.17,1.17,0,0,0,.78.24,1.1,1.1,0,0,0,1.21-.92,6.59,6.59,0,0,0,.06-1.13,1.52,1.52,0,0,1-1.25.68,1.64,1.64,0,0,1-1.44-.77,3.32,3.32,0,0,1-.51-1.86,4,4,0,0,1,.23-1.36,2.08,2.08,0,0,1,.68-1,1.65,1.65,0,0,1,1-.35,1.56,1.56,0,0,1,1.32.75v-.63h.71v4.48a4.9,4.9,0,0,1-.22,1.72,1.71,1.71,0,0,1-.68.8,2.14,2.14,0,0,1-1.14.29,2,2,0,0,1-1.31-.42A1.49,1.49,0,0,1,96.23,84.91Zm.63-3.12a2.46,2.46,0,0,0,.36,1.49,1.06,1.06,0,0,0,1.76,0,2.39,2.39,0,0,0,.36-1.46A2.3,2.3,0,0,0,99,80.39a1,1,0,0,0-1.75,0A2.33,2.33,0,0,0,96.86,81.79Z" transform="translate(1.98 -0.66)"/><path class="cls-10" d="M101.21,84.48V77.32H102v2.57a1.6,1.6,0,0,1,1.35-.72,1.66,1.66,0,0,1,.87.23,1.26,1.26,0,0,1,.53.63,3.42,3.42,0,0,1,.16,1.16v3.29h-.77V81.19a1.47,1.47,0,0,0-.25-1,.85.85,0,0,0-.7-.3,1.15,1.15,0,0,0-.64.2,1.17,1.17,0,0,0-.43.55,3,3,0,0,0-.12,1v2.84Z" transform="translate(1.98 -0.66)"/><path class="cls-10" d="M105.75,82.33v-.89h2.35v.89Z" transform="translate(1.98 -0.66)"/><path class="cls-10" d="M108.36,84.48l2.4-7.16h.89l2.55,7.16h-.94l-.73-2.17h-2.61l-.68,2.17Zm1.8-2.94h2.11l-.65-2c-.19-.61-.34-1.1-.44-1.49a10.92,10.92,0,0,1-.33,1.37Z" transform="translate(1.98 -0.66)"/><path class="cls-10" d="M114.74,84.48V77.32h.76v7.16Z" transform="translate(1.98 -0.66)"/><path class="cls-10" d="M119.65,84.48v-.76a1.61,1.61,0,0,1-1.43.87,1.59,1.59,0,0,1-.75-.17A1.32,1.32,0,0,1,117,84a1.62,1.62,0,0,1-.24-.66,5.08,5.08,0,0,1,0-.82V79.29h.77v2.88a6.36,6.36,0,0,0,0,.93.92.92,0,0,0,.31.54.89.89,0,0,0,.58.2,1.09,1.09,0,0,0,.64-.21,1,1,0,0,0,.43-.55,2.94,2.94,0,0,0,.13-1V79.29h.76v5.19Z" transform="translate(1.98 -0.66)"/><path class="cls-10" d="M121.53,84.48V79.29h.68V80a1.68,1.68,0,0,1,.57-.61,1.5,1.5,0,0,1,1.63,0,1.33,1.33,0,0,1,.45.67,1.59,1.59,0,0,1,1.39-.91,1.28,1.28,0,0,1,1,.43,2,2,0,0,1,.37,1.32v3.56h-.77V81.21a2.81,2.81,0,0,0-.07-.76.74.74,0,0,0-.73-.51,1,1,0,0,0-.79.36,1.75,1.75,0,0,0-.31,1.16v3h-.77V81.11a1.6,1.6,0,0,0-.19-.88.64.64,0,0,0-.61-.29,1,1,0,0,0-.59.19,1,1,0,0,0-.4.57,3.7,3.7,0,0,0-.13,1.09v2.69Z" transform="translate(1.98 -0.66)"/><path class="cls-10" d="M128.79,78.33v-1h.76v1Zm0,6.15V79.29h.76v5.19Z" transform="translate(1.98 -0.66)"/><path class="cls-10" d="M130.71,84.48V79.29h.69V80a1.58,1.58,0,0,1,1.44-.86,1.72,1.72,0,0,1,.75.17,1.17,1.17,0,0,1,.51.44,2.09,2.09,0,0,1,.24.65,5.76,5.76,0,0,1,0,.86v3.19h-.76V81.32a2.66,2.66,0,0,0-.09-.8.86.86,0,0,0-.32-.43.94.94,0,0,0-.53-.15,1.15,1.15,0,0,0-.85.35,2,2,0,0,0-.35,1.35v2.84Z" transform="translate(1.98 -0.66)"/><path class="cls-10" d="M138.51,84.48v-.76a1.61,1.61,0,0,1-1.43.87,1.59,1.59,0,0,1-.75-.17,1.32,1.32,0,0,1-.51-.44,2,2,0,0,1-.24-.66,5.39,5.39,0,0,1,0-.82V79.29h.76v2.88a5.93,5.93,0,0,0,0,.93.92.92,0,0,0,.31.54.84.84,0,0,0,.57.2,1.12,1.12,0,0,0,.65-.21,1.08,1.08,0,0,0,.43-.55,3.26,3.26,0,0,0,.12-1V79.29h.77v5.19Z" transform="translate(1.98 -0.66)"/><path class="cls-10" d="M140.39,84.48V79.29h.69V80a1.65,1.65,0,0,1,.56-.61,1.43,1.43,0,0,1,.81-.24,1.22,1.22,0,0,1,1.27.91,1.6,1.6,0,0,1,1.4-.91,1.3,1.3,0,0,1,1,.43,2,2,0,0,1,.36,1.32v3.56h-.76V81.21a3.29,3.29,0,0,0-.07-.76.72.72,0,0,0-.27-.37.74.74,0,0,0-.46-.14,1,1,0,0,0-.79.36,1.75,1.75,0,0,0-.32,1.16v3h-.76V81.11a1.69,1.69,0,0,0-.19-.88.66.66,0,0,0-.61-.29,1,1,0,0,0-.6.19,1.16,1.16,0,0,0-.4.57,3.76,3.76,0,0,0-.12,1.09v2.69Z" transform="translate(1.98 -0.66)"/><path class="cls-11" d="M85.13,116.72v-7.16H86v2.94h3.24v-2.94H90v7.16h-.82v-3.37H86v3.37Z" transform="translate(1.98 -0.66)"/><path class="cls-11" d="M91.29,110.57v-1h.77v1Zm0,6.15v-5.18h.77v5.18Z" transform="translate(1.98 -0.66)"/><path class="cls-11" d="M93.08,117.15l.75.13a.81.81,0,0,0,.26.57,1.08,1.08,0,0,0,.77.25,1.18,1.18,0,0,0,.82-.25,1.13,1.13,0,0,0,.39-.68,6.51,6.51,0,0,0,.06-1.13,1.48,1.48,0,0,1-1.25.68,1.64,1.64,0,0,1-1.44-.77,3.27,3.27,0,0,1-.51-1.85,4.06,4.06,0,0,1,.23-1.37,2.13,2.13,0,0,1,.68-1,1.64,1.64,0,0,1,1-.34,1.55,1.55,0,0,1,1.32.74v-.62h.71V116a4.67,4.67,0,0,1-.22,1.72,1.69,1.69,0,0,1-.68.79,2.06,2.06,0,0,1-1.14.3,2,2,0,0,1-1.31-.42A1.52,1.52,0,0,1,93.08,117.15Zm.64-3.11a2.48,2.48,0,0,0,.35,1.49A1.06,1.06,0,0,0,95,116a1.09,1.09,0,0,0,.89-.46,2.47,2.47,0,0,0,.35-1.46,2.39,2.39,0,0,0-.36-1.44,1.1,1.1,0,0,0-.89-.48,1.08,1.08,0,0,0-.87.47A2.34,2.34,0,0,0,93.72,114Z" transform="translate(1.98 -0.66)"/><path class="cls-11" d="M98.06,116.72v-7.16h.77v2.57a1.64,1.64,0,0,1,1.35-.71,1.57,1.57,0,0,1,.87.23,1.28,1.28,0,0,1,.53.62,3.25,3.25,0,0,1,.16,1.17v3.28H101v-3.28a1.53,1.53,0,0,0-.25-1,.87.87,0,0,0-.71-.3,1.1,1.1,0,0,0-.64.2,1.05,1.05,0,0,0-.42.55,2.74,2.74,0,0,0-.13,1v2.83Z" transform="translate(1.98 -0.66)"/><path class="cls-11" d="M102.61,114.57v-.88H105v.88Z" transform="translate(1.98 -0.66)"/><path class="cls-11" d="M105.87,116.72v-7.16h1.25l1.47,5.07c.14.47.24.83.3,1.06.07-.26.18-.64.33-1.15l1.49-5h1.11v7.16H111v-6l-1.81,6h-.75l-1.8-6.09v6.09Z" transform="translate(1.98 -0.66)"/><path class="cls-11" d="M116,116.08a3,3,0,0,1-.82.59,2.14,2.14,0,0,1-.84.17,1.42,1.42,0,0,1-1.55-1.49,1.58,1.58,0,0,1,.15-.69,1.47,1.47,0,0,1,.4-.51,1.79,1.79,0,0,1,.55-.28,5.18,5.18,0,0,1,.68-.14,5.72,5.72,0,0,0,1.36-.3c0-.12,0-.2,0-.23a1,1,0,0,0-.22-.76,1.18,1.18,0,0,0-.87-.29,1.27,1.27,0,0,0-.8.21,1.5,1.5,0,0,0-.38.77l-.74-.11a2.17,2.17,0,0,1,.33-.9,1.51,1.51,0,0,1,.68-.52,2.66,2.66,0,0,1,1-.18,2.27,2.27,0,0,1,.94.16,1.17,1.17,0,0,1,.53.39,1.64,1.64,0,0,1,.24.6,6.56,6.56,0,0,1,0,.81v1.17a12.39,12.39,0,0,0,.05,1.55,1.94,1.94,0,0,0,.19.62h-.8A1.94,1.94,0,0,1,116,116.08Zm-.07-2a4.87,4.87,0,0,1-1.24.33,2.27,2.27,0,0,0-.67.18.68.68,0,0,0-.3.28.88.88,0,0,0-.11.42.84.84,0,0,0,.23.59,1,1,0,0,0,.68.23,1.43,1.43,0,0,0,.79-.22,1.37,1.37,0,0,0,.5-.61,2.47,2.47,0,0,0,.12-.88Z" transform="translate(1.98 -0.66)"/><path class="cls-11" d="M117.75,117.15l.75.13a.81.81,0,0,0,.26.57,1.12,1.12,0,0,0,.77.25,1.18,1.18,0,0,0,.82-.25,1.2,1.2,0,0,0,.4-.68,8.34,8.34,0,0,0,0-1.13,1.48,1.48,0,0,1-1.25.68,1.64,1.64,0,0,1-1.44-.77,3.27,3.27,0,0,1-.51-1.85,4.06,4.06,0,0,1,.23-1.37,2.21,2.21,0,0,1,.68-1,1.67,1.67,0,0,1,1-.34,1.55,1.55,0,0,1,1.31.74v-.62h.71V116a4.67,4.67,0,0,1-.22,1.72,1.69,1.69,0,0,1-.68.79,2.06,2.06,0,0,1-1.14.3,2,2,0,0,1-1.31-.42A1.52,1.52,0,0,1,117.75,117.15Zm.64-3.11a2.48,2.48,0,0,0,.35,1.49,1.06,1.06,0,0,0,.88.46,1.09,1.09,0,0,0,.89-.46,3.14,3.14,0,0,0,0-2.9,1.1,1.1,0,0,0-.89-.48,1.08,1.08,0,0,0-.87.47A2.42,2.42,0,0,0,118.39,114Z" transform="translate(1.98 -0.66)"/><path class="cls-11" d="M122.73,116.72v-5.18h.69v.73a1.57,1.57,0,0,1,1.44-.85,1.72,1.72,0,0,1,.75.17,1.17,1.17,0,0,1,.51.44,2,2,0,0,1,.24.65,5.6,5.6,0,0,1,0,.85v3.19h-.76v-3.15a2.73,2.73,0,0,0-.09-.81.88.88,0,0,0-.85-.58,1.16,1.16,0,0,0-.85.36,2,2,0,0,0-.35,1.35v2.83Z" transform="translate(1.98 -0.66)"/><path class="cls-11" d="M130.66,115.05l.79.11a2.19,2.19,0,0,1-.69,1.24,2.11,2.11,0,0,1-2.86-.26,3,3,0,0,1-.58-2,3.09,3.09,0,0,1,.59-2,1.93,1.93,0,0,1,3,0,3.08,3.08,0,0,1,.57,2,2.2,2.2,0,0,1,0,.23h-3.36a2.19,2.19,0,0,0,.42,1.31,1.16,1.16,0,0,0,.94.46,1.08,1.08,0,0,0,.72-.26A1.66,1.66,0,0,0,130.66,115.05Zm-2.51-1.42h2.52a1.9,1.9,0,0,0-.29-1,1.11,1.11,0,0,0-.94-.51,1.14,1.14,0,0,0-.89.41A1.75,1.75,0,0,0,128.15,113.63Z" transform="translate(1.98 -0.66)"/><path class="cls-11" d="M132.11,115.17l.76-.13a1.29,1.29,0,0,0,.35.8,1.15,1.15,0,0,0,.81.28,1.13,1.13,0,0,0,.79-.25.77.77,0,0,0,.25-.58.56.56,0,0,0-.22-.47,3.49,3.49,0,0,0-.79-.3,6,6,0,0,1-1.16-.42,1.24,1.24,0,0,1-.5-.49,1.47,1.47,0,0,1-.16-.7,1.53,1.53,0,0,1,.13-.64,1.44,1.44,0,0,1,.38-.49,1.49,1.49,0,0,1,.49-.26,2,2,0,0,1,.66-.1,2.27,2.27,0,0,1,.93.18,1.18,1.18,0,0,1,.59.47,2,2,0,0,1,.27.8l-.75.12a.92.92,0,0,0-.3-.62,1,1,0,0,0-.69-.23,1.14,1.14,0,0,0-.75.2.62.62,0,0,0-.22.47.56.56,0,0,0,.09.31.69.69,0,0,0,.29.23c.08,0,.3.11.68.23a7.05,7.05,0,0,1,1.13.41,1.11,1.11,0,0,1,.5.46,1.35,1.35,0,0,1,.19.75,1.65,1.65,0,0,1-.23.83,1.49,1.49,0,0,1-.64.6,2.11,2.11,0,0,1-1,.21,1.91,1.91,0,0,1-1.34-.42A2,2,0,0,1,132.11,115.17Z" transform="translate(1.98 -0.66)"/><path class="cls-11" d="M136.77,110.57v-1h.77v1Zm0,6.15v-5.18h.77v5.18Z" transform="translate(1.98 -0.66)"/><path class="cls-11" d="M141.66,116.72V116a1.62,1.62,0,0,1-2.18.7,1.17,1.17,0,0,1-.51-.44,1.73,1.73,0,0,1-.24-.65,5.18,5.18,0,0,1,0-.82v-3.21h.77v2.87a4.87,4.87,0,0,0,.05.93.9.9,0,0,0,.3.54.84.84,0,0,0,.58.2,1.21,1.21,0,0,0,.65-.2,1.09,1.09,0,0,0,.42-.55,3,3,0,0,0,.13-1v-2.77h.76v5.18Z" transform="translate(1.98 -0.66)"/><path class="cls-11" d="M143.54,116.72v-5.18h.68v.72a1.85,1.85,0,0,1,.57-.61,1.47,1.47,0,0,1,.8-.23,1.36,1.36,0,0,1,.83.24,1.29,1.29,0,0,1,.45.67,1.58,1.58,0,0,1,1.39-.91,1.25,1.25,0,0,1,1,.43,1.93,1.93,0,0,1,.37,1.31v3.56h-.76v-3.26a2.62,2.62,0,0,0-.08-.76.74.74,0,0,0-.27-.38.78.78,0,0,0-.46-.14,1,1,0,0,0-.79.36,1.8,1.8,0,0,0-.31,1.17v3h-.77v-3.37a1.73,1.73,0,0,0-.18-.88.69.69,0,0,0-.62-.29,1,1,0,0,0-.59.2,1,1,0,0,0-.4.57,3.73,3.73,0,0,0-.12,1.08v2.69Z" transform="translate(1.98 -0.66)"/><path d="M87.29,149.64v-7.16h.83v2.94h3.24v-2.94h.82v7.16h-.82v-3.38H88.12v3.38Z" transform="translate(1.98 -0.66)"/><path d="M93.46,143.49v-1h.77v1Zm0,6.15v-5.19h.77v5.19Z" transform="translate(1.98 -0.66)"/><path d="M95.25,150.07l.74.13a.85.85,0,0,0,.26.57A1.18,1.18,0,0,0,97,151a1.11,1.11,0,0,0,1.21-.93A6.59,6.59,0,0,0,98.3,149a1.52,1.52,0,0,1-1.25.68,1.64,1.64,0,0,1-1.44-.77A3.29,3.29,0,0,1,95.1,147a3.79,3.79,0,0,1,.23-1.37,2.13,2.13,0,0,1,.68-1,1.63,1.63,0,0,1,1-.34,1.55,1.55,0,0,1,1.32.74v-.63h.71v4.49a4.87,4.87,0,0,1-.22,1.71,1.66,1.66,0,0,1-.68.8,2.06,2.06,0,0,1-1.14.29,2,2,0,0,1-1.31-.41A1.52,1.52,0,0,1,95.25,150.07Zm.63-3.12a2.46,2.46,0,0,0,.36,1.49,1,1,0,0,0,.88.47,1.06,1.06,0,0,0,.88-.46,2.43,2.43,0,0,0,.36-1.47,2.3,2.3,0,0,0-.37-1.43,1,1,0,0,0-1.75,0A2.33,2.33,0,0,0,95.88,147Z" transform="translate(1.98 -0.66)"/><path d="M100.23,149.64v-7.16H101v2.57a1.59,1.59,0,0,1,1.35-.71,1.66,1.66,0,0,1,.87.22,1.36,1.36,0,0,1,.53.63,3.46,3.46,0,0,1,.16,1.16v3.29h-.77v-3.29a1.47,1.47,0,0,0-.25-1,.85.85,0,0,0-.7-.3,1.18,1.18,0,0,0-1.07.76,3,3,0,0,0-.12,1v2.84Z" transform="translate(1.98 -0.66)"/><path d="M104.77,147.49v-.88h2.35v.88Z" transform="translate(1.98 -0.66)"/><path d="M108,151.63v-7.18h.7v.68a1.9,1.9,0,0,1,.55-.6,1.41,1.41,0,0,1,.76-.19,1.63,1.63,0,0,1,1,.34,2.12,2.12,0,0,1,.66,1,4,4,0,0,1,.23,1.37,3.8,3.8,0,0,1-.25,1.43,2.17,2.17,0,0,1-.72,1,1.75,1.75,0,0,1-1,.34,1.38,1.38,0,0,1-.69-.19,1.57,1.57,0,0,1-.49-.47v2.53Zm.69-4.55a2.48,2.48,0,0,0,.36,1.48,1,1,0,0,0,1.72,0,2.55,2.55,0,0,0,.37-1.54,2.5,2.5,0,0,0-.36-1.48,1,1,0,0,0-.85-.5,1.07,1.07,0,0,0-.86.53A2.62,2.62,0,0,0,108.66,147.08Z" transform="translate(1.98 -0.66)"/><path d="M112.81,149.64v-7.16h.77v2.57a1.59,1.59,0,0,1,1.35-.71,1.66,1.66,0,0,1,.87.22,1.36,1.36,0,0,1,.53.63,3.46,3.46,0,0,1,.16,1.16v3.29h-.77v-3.29a1.47,1.47,0,0,0-.25-1,.85.85,0,0,0-.7-.3,1.18,1.18,0,0,0-1.07.76,3,3,0,0,0-.12,1v2.84Z" transform="translate(1.98 -0.66)"/><path d="M117.37,147.05a2.93,2.93,0,0,1,.69-2.14,2,2,0,0,1,1.42-.57,1.88,1.88,0,0,1,1.52.7,2.86,2.86,0,0,1,.59,1.93,3.79,3.79,0,0,1-.26,1.58,2,2,0,0,1-.76.89,2,2,0,0,1-1.09.32,1.92,1.92,0,0,1-1.53-.7A3.07,3.07,0,0,1,117.37,147.05Zm.78,0a2.46,2.46,0,0,0,.38,1.49,1.17,1.17,0,0,0,1.9,0,2.54,2.54,0,0,0,.38-1.52,2.4,2.4,0,0,0-.38-1.46,1.17,1.17,0,0,0-1-.5,1.16,1.16,0,0,0-1,.5A2.44,2.44,0,0,0,118.15,147.05Z" transform="translate(1.98 -0.66)"/><path d="M122.19,148.09l.75-.14a1.27,1.27,0,0,0,.36.81,1.13,1.13,0,0,0,.81.27,1.1,1.1,0,0,0,.78-.24.8.8,0,0,0,.26-.58.56.56,0,0,0-.23-.47,2.78,2.78,0,0,0-.78-.3A6.42,6.42,0,0,1,123,147a1.22,1.22,0,0,1-.49-.49,1.51,1.51,0,0,1-.17-.7,1.53,1.53,0,0,1,.14-.64,1.32,1.32,0,0,1,.38-.49,1.54,1.54,0,0,1,.48-.26,2.07,2.07,0,0,1,.66-.1,2.29,2.29,0,0,1,.94.17,1.31,1.31,0,0,1,.59.48,1.89,1.89,0,0,1,.26.8l-.74.12a1,1,0,0,0-.3-.63,1,1,0,0,0-.69-.22,1.14,1.14,0,0,0-.75.2.61.61,0,0,0-.23.47.52.52,0,0,0,.1.31.69.69,0,0,0,.29.23c.08,0,.3.11.68.22a10.67,10.67,0,0,1,1.13.41,1.23,1.23,0,0,1,.5.46,1.5,1.5,0,0,1,.18.76,1.6,1.6,0,0,1-.22.82,1.49,1.49,0,0,1-.64.6,2,2,0,0,1-.95.22,2,2,0,0,1-1.35-.42A2.07,2.07,0,0,1,122.19,148.09Z" transform="translate(1.98 -0.66)"/><path d="M126.84,151.63v-7.18h.7v.68a1.81,1.81,0,0,1,.56-.6,1.35,1.35,0,0,1,.75-.19,1.63,1.63,0,0,1,1,.34,2.13,2.13,0,0,1,.67,1,4,4,0,0,1,.22,1.37,3.8,3.8,0,0,1-.25,1.43,2,2,0,0,1-.72,1,1.75,1.75,0,0,1-1,.34,1.31,1.31,0,0,1-.68-.19,1.6,1.6,0,0,1-.5-.47v2.53Zm.7-4.55a2.49,2.49,0,0,0,.35,1.48,1,1,0,0,0,.85.47,1.08,1.08,0,0,0,.88-.49A2.63,2.63,0,0,0,130,147a2.5,2.5,0,0,0-.36-1.48,1,1,0,0,0-.84-.5,1.07,1.07,0,0,0-.87.53A2.62,2.62,0,0,0,127.54,147.08Z" transform="translate(1.98 -0.66)"/><path d="M131.68,149.64v-7.16h.77v2.57a1.62,1.62,0,0,1,1.35-.71,1.66,1.66,0,0,1,.87.22,1.3,1.3,0,0,1,.53.63,3.22,3.22,0,0,1,.16,1.16v3.29h-.76v-3.29a1.53,1.53,0,0,0-.25-1,.87.87,0,0,0-.71-.3,1.11,1.11,0,0,0-.64.21,1,1,0,0,0-.42.55,2.67,2.67,0,0,0-.13,1v2.84Z" transform="translate(1.98 -0.66)"/><path d="M139.47,149a2.88,2.88,0,0,1-.82.59,2.14,2.14,0,0,1-.84.17,1.41,1.41,0,0,1-1.54-1.49,1.58,1.58,0,0,1,.15-.69,1.44,1.44,0,0,1,.39-.51,1.81,1.81,0,0,1,.55-.29,5.53,5.53,0,0,1,.68-.13,6,6,0,0,0,1.37-.3v-.23a1,1,0,0,0-.22-.76,1.15,1.15,0,0,0-.87-.3,1.22,1.22,0,0,0-.79.22,1.33,1.33,0,0,0-.38.77l-.75-.12a2.44,2.44,0,0,1,.33-.89,1.51,1.51,0,0,1,.68-.52,2.66,2.66,0,0,1,1-.18,2.46,2.46,0,0,1,.94.15,1.22,1.22,0,0,1,.77,1,5,5,0,0,1,0,.81v1.18a15,15,0,0,0,0,1.55,2.34,2.34,0,0,0,.19.62h-.8A2,2,0,0,1,139.47,149Zm-.06-2a5.09,5.09,0,0,1-1.25.33,2.72,2.72,0,0,0-.67.17.7.7,0,0,0-.3.29.85.85,0,0,0-.11.42.8.8,0,0,0,.23.58.91.91,0,0,0,.68.24,1.49,1.49,0,0,0,.79-.22,1.3,1.3,0,0,0,.5-.61,2.23,2.23,0,0,0,.13-.88Z" transform="translate(1.98 -0.66)"/><path d="M143,148.85l.11.78a2.67,2.67,0,0,1-.58.08,1.2,1.2,0,0,1-.65-.15.83.83,0,0,1-.32-.4,3.76,3.76,0,0,1-.09-1v-3H141v-.69h.56v-1.28l.76-.53v1.81H143v.69h-.77v3a1.6,1.6,0,0,0,0,.48.31.31,0,0,0,.13.17.4.4,0,0,0,.26.07A1.61,1.61,0,0,0,143,148.85Z" transform="translate(1.98 -0.66)"/><path d="M146.87,148l.79.11a2.26,2.26,0,0,1-.69,1.24,1.92,1.92,0,0,1-1.29.44,2,2,0,0,1-1.57-.7,3,3,0,0,1-.58-2,3.09,3.09,0,0,1,.59-2,1.86,1.86,0,0,1,1.52-.72,1.83,1.83,0,0,1,1.48.7,3.13,3.13,0,0,1,.57,2,2.2,2.2,0,0,1,0,.23h-3.36a2.19,2.19,0,0,0,.42,1.31,1.18,1.18,0,0,0,.94.45,1.07,1.07,0,0,0,.72-.25A1.66,1.66,0,0,0,146.87,148Zm-2.51-1.42h2.52a1.84,1.84,0,0,0-.29-1,1.11,1.11,0,0,0-.94-.51,1.13,1.13,0,0,0-.89.4A1.78,1.78,0,0,0,144.36,146.55Z" transform="translate(1.98 -0.66)"/><path class="cls-12" d="M88.2,182.64v-7.16H89v6.31h3.06v.85Z" transform="translate(1.98 -0.66)"/><path class="cls-12" d="M92.69,180.05a2.93,2.93,0,0,1,.7-2.14,2,2,0,0,1,1.42-.57,1.88,1.88,0,0,1,1.52.7,2.86,2.86,0,0,1,.59,1.93,3.79,3.79,0,0,1-.26,1.58,2,2,0,0,1-1.85,1.21,1.92,1.92,0,0,1-1.53-.7A3.07,3.07,0,0,1,92.69,180.05Zm.79,0a2.46,2.46,0,0,0,.38,1.49,1.17,1.17,0,0,0,1.9,0,2.54,2.54,0,0,0,.38-1.52,2.4,2.4,0,0,0-.38-1.46,1.17,1.17,0,0,0-1-.5,1.16,1.16,0,0,0-1,.5A2.44,2.44,0,0,0,93.48,180.05Z" transform="translate(1.98 -0.66)"/><path class="cls-12" d="M98.65,182.64l-1.38-5.19h.79l.72,3,.27,1.11c0-.06.09-.41.23-1.07l.72-3h.79l.67,3,.23,1,.26-1,.77-3h.74l-1.41,5.19h-.79l-.72-3.11-.18-.88-.91,4Z" transform="translate(1.98 -0.66)"/><path class="cls-12" d="M103.81,180.49v-.88h2.35v.88Z" transform="translate(1.98 -0.66)"/><path class="cls-12" d="M107,184.63v-7.18h.7v.68a1.81,1.81,0,0,1,.56-.6,1.35,1.35,0,0,1,.75-.19,1.63,1.63,0,0,1,1,.34,2.13,2.13,0,0,1,.67,1,4,4,0,0,1,.22,1.37,3.8,3.8,0,0,1-.25,1.43,2,2,0,0,1-.72,1,1.75,1.75,0,0,1-1,.34,1.31,1.31,0,0,1-.68-.19,1.6,1.6,0,0,1-.5-.47v2.53Zm.7-4.55a2.49,2.49,0,0,0,.35,1.48,1,1,0,0,0,.85.47,1.08,1.08,0,0,0,.88-.49,2.63,2.63,0,0,0,.36-1.54,2.59,2.59,0,0,0-.35-1.48,1,1,0,0,0-.85-.5,1.07,1.07,0,0,0-.87.53A2.62,2.62,0,0,0,107.7,180.08Z" transform="translate(1.98 -0.66)"/><path class="cls-12" d="M111.84,182.64v-7.16h.77v2.57a1.62,1.62,0,0,1,1.35-.71,1.66,1.66,0,0,1,.87.22,1.3,1.3,0,0,1,.53.63,3.22,3.22,0,0,1,.16,1.16v3.29h-.76v-3.29a1.53,1.53,0,0,0-.25-1,.87.87,0,0,0-.71-.3,1.11,1.11,0,0,0-.64.21,1,1,0,0,0-.42.55,2.67,2.67,0,0,0-.13,1v2.84Z" transform="translate(1.98 -0.66)"/><path class="cls-12" d="M116.4,180.05a2.89,2.89,0,0,1,.7-2.14,1.94,1.94,0,0,1,1.42-.57,1.9,1.9,0,0,1,1.52.7,2.91,2.91,0,0,1,.59,1.93,4,4,0,0,1-.26,1.58,2.08,2.08,0,0,1-.76.89,2,2,0,0,1-1.09.32,1.92,1.92,0,0,1-1.54-.7A3.07,3.07,0,0,1,116.4,180.05Zm.79,0a2.46,2.46,0,0,0,.37,1.49,1.16,1.16,0,0,0,1,.49,1.13,1.13,0,0,0,.94-.49,2.47,2.47,0,0,0,.38-1.52,2.4,2.4,0,0,0-.38-1.46,1.15,1.15,0,0,0-.94-.5,1.17,1.17,0,0,0-1,.5A2.44,2.44,0,0,0,117.19,180.05Z" transform="translate(1.98 -0.66)"/><path class="cls-12" d="M121.22,181.09,122,181a1.32,1.32,0,0,0,.35.81,1.15,1.15,0,0,0,.81.27,1.11,1.11,0,0,0,.79-.24.79.79,0,0,0,.25-.58.55.55,0,0,0-.22-.47,3.05,3.05,0,0,0-.79-.3A6,6,0,0,1,122,180a1.24,1.24,0,0,1-.5-.49,1.5,1.5,0,0,1-.16-.7,1.53,1.53,0,0,1,.13-.64,1.44,1.44,0,0,1,.38-.49,1.49,1.49,0,0,1,.49-.26,2,2,0,0,1,.66-.1,2.27,2.27,0,0,1,.93.17,1.25,1.25,0,0,1,.59.48,2,2,0,0,1,.27.8l-.75.12a.94.94,0,0,0-.3-.63,1,1,0,0,0-.69-.22,1.14,1.14,0,0,0-.75.2.6.6,0,0,0-.22.47.59.59,0,0,0,.09.31.69.69,0,0,0,.29.23c.08,0,.3.11.68.22a9.86,9.86,0,0,1,1.13.41,1.17,1.17,0,0,1,.5.46,1.41,1.41,0,0,1,.19.76,1.61,1.61,0,0,1-.23.82,1.43,1.43,0,0,1-.64.6,2,2,0,0,1-.95.22,1.92,1.92,0,0,1-1.34-.42A2,2,0,0,1,121.22,181.09Z" transform="translate(1.98 -0.66)"/><path class="cls-12" d="M125.88,184.63v-7.18h.69v.68a1.92,1.92,0,0,1,.56-.6,1.39,1.39,0,0,1,.75-.19,1.59,1.59,0,0,1,1,.34,2.06,2.06,0,0,1,.67,1,4.38,4.38,0,0,1,0,2.8,2.12,2.12,0,0,1-.73,1,1.69,1.69,0,0,1-1,.34,1.32,1.32,0,0,1-.69-.19,1.6,1.6,0,0,1-.5-.47v2.53Zm.69-4.55a2.56,2.56,0,0,0,.35,1.48,1.06,1.06,0,0,0,.86.47,1,1,0,0,0,.87-.49A2.63,2.63,0,0,0,129,180a2.59,2.59,0,0,0-.35-1.48,1,1,0,0,0-.85-.5,1.06,1.06,0,0,0-.86.53A2.54,2.54,0,0,0,126.57,180.08Z" transform="translate(1.98 -0.66)"/><path class="cls-12" d="M130.72,182.64v-7.16h.76v2.57a1.62,1.62,0,0,1,1.35-.71,1.67,1.67,0,0,1,.88.22,1.28,1.28,0,0,1,.52.63,3.22,3.22,0,0,1,.16,1.16v3.29h-.76v-3.29a1.47,1.47,0,0,0-.25-1,.87.87,0,0,0-.7-.3,1.09,1.09,0,0,0-.64.21,1,1,0,0,0-.43.55,2.67,2.67,0,0,0-.13,1v2.84Z" transform="translate(1.98 -0.66)"/><path class="cls-12" d="M138.5,182a2.85,2.85,0,0,1-.81.59,2.22,2.22,0,0,1-.85.17,1.41,1.41,0,0,1-1.54-1.49,1.58,1.58,0,0,1,.15-.69,1.44,1.44,0,0,1,.39-.51,1.86,1.86,0,0,1,.56-.29,5.17,5.17,0,0,1,.68-.13,5.85,5.85,0,0,0,1.36-.3v-.23a1.1,1.1,0,0,0-.21-.76,1.18,1.18,0,0,0-.87-.3,1.25,1.25,0,0,0-.8.22,1.39,1.39,0,0,0-.38.77l-.75-.12a2.27,2.27,0,0,1,.34-.89,1.48,1.48,0,0,1,.67-.52,2.74,2.74,0,0,1,1-.18,2.5,2.5,0,0,1,.94.15,1.32,1.32,0,0,1,.53.4,1.38,1.38,0,0,1,.23.59,5,5,0,0,1,0,.81v1.18a15,15,0,0,0,0,1.55,2,2,0,0,0,.2.62h-.8A2.31,2.31,0,0,1,138.5,182Zm-.06-2a5,5,0,0,1-1.25.33,2.86,2.86,0,0,0-.67.17.7.7,0,0,0-.3.29.84.84,0,0,0-.1.42.76.76,0,0,0,.23.58.89.89,0,0,0,.67.24,1.49,1.49,0,0,0,.79-.22,1.38,1.38,0,0,0,.51-.61,2.47,2.47,0,0,0,.12-.88Z" transform="translate(1.98 -0.66)"/><path class="cls-12" d="M142.07,181.85l.11.78a2.67,2.67,0,0,1-.58.08,1.14,1.14,0,0,1-.64-.15.85.85,0,0,1-.33-.4,3.76,3.76,0,0,1-.09-1v-3H140v-.69h.56v-1.28l.76-.53v1.81h.77v.69h-.77v3a1.6,1.6,0,0,0,0,.48.37.37,0,0,0,.13.17.4.4,0,0,0,.26.07A1.61,1.61,0,0,0,142.07,181.85Z" transform="translate(1.98 -0.66)"/><path class="cls-12" d="M145.91,181l.79.11a2.33,2.33,0,0,1-.7,1.24,1.89,1.89,0,0,1-1.29.44,2,2,0,0,1-1.57-.7,3,3,0,0,1-.58-2,3.15,3.15,0,0,1,.59-2,1.87,1.87,0,0,1,1.52-.72,1.82,1.82,0,0,1,1.48.7,3.13,3.13,0,0,1,.57,2v.23h-3.37a2.19,2.19,0,0,0,.42,1.31,1.2,1.2,0,0,0,.95.45,1,1,0,0,0,.71-.25A1.74,1.74,0,0,0,145.91,181Zm-2.52-1.42h2.53a1.93,1.93,0,0,0-.29-1,1.13,1.13,0,0,0-.95-.51,1.14,1.14,0,0,0-.89.4A1.78,1.78,0,0,0,143.39,179.55Z" transform="translate(1.98 -0.66)"/></g><g id="Other_Lable" data-name="Other Lable"><path d="M37.63,15.61v.69H33.77a1.15,1.15,0,0,1,.08-.49,2.5,2.5,0,0,1,.48-.78,6.79,6.79,0,0,1,.93-.89,7.84,7.84,0,0,0,1.29-1.23,1.55,1.55,0,0,0,.34-.87,1,1,0,0,0-.31-.72,1.11,1.11,0,0,0-.79-.29,1.09,1.09,0,0,0-.83.31,1.21,1.21,0,0,0-.32.86l-.73-.07a1.82,1.82,0,0,1,.57-1.26,1.91,1.91,0,0,1,1.32-.43,1.84,1.84,0,0,1,1.33.46,1.53,1.53,0,0,1,.49,1.16,1.7,1.7,0,0,1-.14.69,2.69,2.69,0,0,1-.48.71,12.36,12.36,0,0,1-1.1,1c-.43.36-.71.61-.83.73a2.55,2.55,0,0,0-.3.39Z" transform="translate(1.98 -0.66)"/><path d="M38.45,11.23v-.69h3.78v.55a8.62,8.62,0,0,0-1.11,1.58,9.89,9.89,0,0,0-.84,2A7.12,7.12,0,0,0,40,16.3h-.73a6.38,6.38,0,0,1,.27-1.66,8.93,8.93,0,0,1,.74-1.89,8,8,0,0,1,1-1.52Z" transform="translate(1.98 -0.66)"/><path d="M42.58,21l3.85-10h1.43L52,21H50.45l-1.17-3H45.09L44,21Zm2.89-4.12h3.4l-1-2.78c-.32-.84-.55-1.53-.71-2.07a13.29,13.29,0,0,1-.54,1.91Z" transform="translate(1.98 -0.66)"/><path d="M52.83,21v-10h1.23V21Z" transform="translate(1.98 -0.66)"/><path d="M60.74,62.55l3.84-10H66l4.11,10H68.6l-1.16-3H63.25l-1.11,3Zm2.89-4.12H67l-1-2.78c-.32-.84-.56-1.53-.71-2.07a13.29,13.29,0,0,1-.54,1.91Z" transform="translate(1.98 -0.66)"/><path d="M71,62.55v-10h1.23v10Z" transform="translate(1.98 -0.66)"/><path d="M73.76,59.51V52h1.58v.59h-.86v6.28h.86v.6Z" transform="translate(1.98 -0.66)"/><path d="M78.11,57.88v-1.4H75.58v-.65L78.24,52h.59v3.79h.79v.65h-.79v1.4Zm0-2.05V53.19l-1.83,2.64Z" transform="translate(1.98 -0.66)"/><path d="M81.75,59.51H80.17v-.6H81V52.63h-.86V52h1.58Z" transform="translate(1.98 -0.66)"/><path d="M155.45,22.61l3.85-10h1.43l4.1,10h-1.51l-1.17-3H158l-1.1,3Zm2.89-4.12h3.4l-1.05-2.77c-.32-.85-.55-1.54-.71-2.08a13.29,13.29,0,0,1-.54,1.91Z" transform="translate(1.98 -0.66)"/><path d="M165.7,22.61v-10h1.23v10Z" transform="translate(1.98 -0.66)"/><path d="M168.47,19.57V12.1h1.58v.6h-.86V19h.86v.6Z" transform="translate(1.98 -0.66)"/><path d="M174.25,13.53l-.72.06a1.24,1.24,0,0,0-.27-.61.92.92,0,0,0-.72-.31,1,1,0,0,0-.6.19,1.74,1.74,0,0,0-.53.72,3.69,3.69,0,0,0-.2,1.35,1.69,1.69,0,0,1,2.64-.25,1.94,1.94,0,0,1,.5,1.37,2.19,2.19,0,0,1-.24,1,1.72,1.72,0,0,1-.65.73,1.86,1.86,0,0,1-.94.25,1.82,1.82,0,0,1-1.46-.66,3.33,3.33,0,0,1-.57-2.18,3.86,3.86,0,0,1,.63-2.46,1.78,1.78,0,0,1,1.47-.67,1.58,1.58,0,0,1,1.66,1.45Zm-2.93,2.52a1.71,1.71,0,0,0,.15.71,1.26,1.26,0,0,0,.44.52,1.11,1.11,0,0,0,.6.18,1,1,0,0,0,.78-.37,1.44,1.44,0,0,0,.33-1,1.32,1.32,0,0,0-.33-.95,1.05,1.05,0,0,0-.81-.35,1.1,1.1,0,0,0-.82.35A1.24,1.24,0,0,0,171.32,16.05Z" transform="translate(1.98 -0.66)"/><path d="M176.46,19.57h-1.58V19h.86V12.7h-.86v-.6h1.58Z" transform="translate(1.98 -0.66)"/></g></svg>