<svg xmlns="http://www.w3.org/2000/svg" xmlns:xlink="http://www.w3.org/1999/xlink" width="3.24in" height="3.3in" viewBox="0 0 233.17 237.94"><defs><style>.cls-1,.cls-10,.cls-14,.cls-6,.cls-7,.cls-8,.cls-9{fill:none;}.cls-2{fill:#fff;}.cls-10,.cls-3,.cls-4,.cls-8{stroke:#000;}.cls-3,.cls-4,.cls-6,.cls-7,.cls-8,.cls-9{stroke-linejoin:round;}.cls-10,.cls-3{stroke-width:0.8px;}.cls-4{stroke-width:0.6px;}.cls-5{clip-path:url(#clip-path);}.cls-6{stroke:#58a265;}.cls-10,.cls-6,.cls-7,.cls-8,.cls-9{stroke-linecap:square;}.cls-7{stroke:#0e0e77;}.cls-9{stroke:#626161;}.cls-11{fill:#0e7723;}.cls-12{fill:#626161;}.cls-13{fill:#0e0e77;}.cls-14{stroke:#919191;stroke-miterlimit:10;stroke-dasharray:3;}</style><clipPath id="clip-path" transform="translate(2.01 0.26)"><rect class="cls-1" x="27.16" y="6.94" width="195.3" height="190.26"/></clipPath></defs><g id="Layer_1" data-name="Layer 1"><g id="figure_1" data-name="figure 1"><g id="patch_1" data-name="patch 1"><path class="cls-2" d="M-.51,237.68H229.66V-.26H-.51Z" transform="translate(2.01 0.26)"/></g><g id="axes_1" data-name="axes 1"><g id="patch_2" data-name="patch 2"><path class="cls-2" d="M27.16,197.2h195.3V6.94H27.16Z" transform="translate(2.01 0.26)"/></g><g id="matplotlib.axis_1" data-name="matplotlib.axis 1"><g id="xtick_1" data-name="xtick 1"><g id="line2d_1" data-name="line2d 1"><path id="m08f5ddf801" class="cls-3" d="M198.05,197.2v3.5" transform="translate(2.01 0.26)"/></g><g id="text_1" data-name="text 1"><path id="ArialMT-2212" d="M194.85,208.24h-4.73v-.82h4.73Z" transform="translate(2.01 0.26)"/><path id="ArialMT-32" d="M200.44,210.51v.85h-4.73a1.57,1.57,0,0,1,.1-.61,3.12,3.12,0,0,1,.58-.95,8.3,8.3,0,0,1,1.15-1.09,10.25,10.25,0,0,0,1.58-1.51,1.87,1.87,0,0,0,.41-1.06,1.17,1.17,0,0,0-.38-.88,1.34,1.34,0,0,0-1-.36,1.31,1.31,0,0,0-1.4,1.43l-.9-.09a2.23,2.23,0,0,1,.69-1.54,2.42,2.42,0,0,1,1.63-.53,2.26,2.26,0,0,1,1.63.57,1.87,1.87,0,0,1,.6,1.42,2.08,2.08,0,0,1-.18.84,3.16,3.16,0,0,1-.58.88,15.72,15.72,0,0,1-1.35,1.26q-.8.66-1,.9a2.63,2.63,0,0,0-.37.47Z" transform="translate(2.01 0.26)"/><path id="ArialMT-30" d="M201.38,207.83a6.73,6.73,0,0,1,.26-2.05,2.64,2.64,0,0,1,.78-1.19,2,2,0,0,1,1.3-.42,2.18,2.18,0,0,1,1,.23,1.9,1.9,0,0,1,.71.67,3.63,3.63,0,0,1,.45,1.07,6.89,6.89,0,0,1,.16,1.69,6.59,6.59,0,0,1-.26,2,2.53,2.53,0,0,1-.77,1.2,2.19,2.19,0,0,1-2.93-.32A4.75,4.75,0,0,1,201.38,207.83Zm.91,0a4.48,4.48,0,0,0,.41,2.35,1.22,1.22,0,0,0,1,.58,1.23,1.23,0,0,0,1-.59,6.91,6.91,0,0,0,0-4.69,1.23,1.23,0,0,0-1-.58,1.12,1.12,0,0,0-1,.51A4.58,4.58,0,0,0,202.29,207.83Z" transform="translate(2.01 0.26)"/></g></g><g id="xtick_2" data-name="xtick 2"><g id="line2d_2" data-name="line2d 2"><path id="m08f5ddf801-2" data-name="m08f5ddf801" class="cls-3" d="M149.22,197.2v3.5" transform="translate(2.01 0.26)"/></g><g id="text_2" data-name="text 2"><path id="ArialMT-2212-2" data-name="ArialMT-2212" d="M146,208.24H141.3v-.82H146Z" transform="translate(2.01 0.26)"/><path id="ArialMT-31" d="M150.31,211.36h-.88v-5.6a4.58,4.58,0,0,1-.83.6,6.59,6.59,0,0,1-.93.46V206a5.32,5.32,0,0,0,1.29-.84,3.23,3.23,0,0,0,.78-1h.57Z" transform="translate(2.01 0.26)"/><path id="ArialMT-30-2" data-name="ArialMT-30" d="M152.56,207.83a6.73,6.73,0,0,1,.26-2.05,2.55,2.55,0,0,1,.77-1.19,2,2,0,0,1,1.3-.42,2.15,2.15,0,0,1,1,.23,2,2,0,0,1,.72.67,3.38,3.38,0,0,1,.44,1.07,6.81,6.81,0,0,1,.17,1.69,6.59,6.59,0,0,1-.26,2,2.54,2.54,0,0,1-.78,1.2,2.18,2.18,0,0,1-2.92-.32A4.68,4.68,0,0,1,152.56,207.83Zm.9,0a4.58,4.58,0,0,0,.41,2.35,1.25,1.25,0,0,0,1,.58,1.21,1.21,0,0,0,1-.59,6.91,6.91,0,0,0,0-4.69,1.21,1.21,0,0,0-1-.58,1.15,1.15,0,0,0-1,.51A4.58,4.58,0,0,0,153.46,207.83Z" transform="translate(2.01 0.26)"/></g></g><g id="xtick_3" data-name="xtick 3"><g id="line2d_3" data-name="line2d 3"><path id="m08f5ddf801-3" data-name="m08f5ddf801" class="cls-3" d="M100.4,197.2v3.5" transform="translate(2.01 0.26)"/></g><g id="text_3" data-name="text 3"><path id="ArialMT-30-3" data-name="ArialMT-30" d="M98,207.83a6.73,6.73,0,0,1,.26-2.05,2.64,2.64,0,0,1,.78-1.19,2,2,0,0,1,1.3-.42,2.18,2.18,0,0,1,1,.23,1.9,1.9,0,0,1,.71.67,3.63,3.63,0,0,1,.45,1.07,6.89,6.89,0,0,1,.16,1.69,6.59,6.59,0,0,1-.26,2,2.53,2.53,0,0,1-.77,1.2,2,2,0,0,1-1.3.42,2,2,0,0,1-1.63-.74A4.75,4.75,0,0,1,98,207.83Zm.91,0a4.48,4.48,0,0,0,.41,2.35,1.22,1.22,0,0,0,1,.58,1.21,1.21,0,0,0,1-.59,6.76,6.76,0,0,0,0-4.69,1.2,1.2,0,0,0-1-.58,1.12,1.12,0,0,0-1,.51A4.58,4.58,0,0,0,98.94,207.83Z" transform="translate(2.01 0.26)"/></g></g><g id="xtick_4" data-name="xtick 4"><g id="line2d_4" data-name="line2d 4"><path id="m08f5ddf801-4" data-name="m08f5ddf801" class="cls-3" d="M51.57,197.2v3.5" transform="translate(2.01 0.26)"/></g><g id="text_4" data-name="text 4"><path id="ArialMT-31-2" data-name="ArialMT-31" d="M49.74,211.36h-.88v-5.6a4.58,4.58,0,0,1-.83.6,6.59,6.59,0,0,1-.93.46V206a5.32,5.32,0,0,0,1.29-.84,3.23,3.23,0,0,0,.78-1h.57Z" transform="translate(2.01 0.26)"/><path id="ArialMT-30-4" data-name="ArialMT-30" d="M52,207.83a6.73,6.73,0,0,1,.26-2.05,2.49,2.49,0,0,1,.78-1.19,2,2,0,0,1,1.29-.42,2.15,2.15,0,0,1,1,.23,2,2,0,0,1,.72.67,3.63,3.63,0,0,1,.45,1.07,7.42,7.42,0,0,1,.16,1.69,6.59,6.59,0,0,1-.26,2,2.47,2.47,0,0,1-.78,1.2,2.18,2.18,0,0,1-2.92-.32A4.75,4.75,0,0,1,52,207.83Zm.9,0a4.58,4.58,0,0,0,.41,2.35,1.25,1.25,0,0,0,1,.58,1.21,1.21,0,0,0,1-.59,6.91,6.91,0,0,0,0-4.69,1.21,1.21,0,0,0-1-.58,1.12,1.12,0,0,0-1,.51A4.47,4.47,0,0,0,52.89,207.83Z" transform="translate(2.01 0.26)"/></g></g><g id="xtick_5" data-name="xtick 5"><g id="line2d_5" data-name="line2d 5"><path id="m6eeae6cc32" class="cls-4" d="M222.46,197.2v2" transform="translate(2.01 0.26)"/></g></g><g id="xtick_6" data-name="xtick 6"><g id="line2d_6" data-name="line2d 6"><path id="m6eeae6cc32-2" data-name="m6eeae6cc32" class="cls-4" d="M173.64,197.2v2" transform="translate(2.01 0.26)"/></g></g><g id="xtick_7" data-name="xtick 7"><g id="line2d_7" data-name="line2d 7"><path id="m6eeae6cc32-3" data-name="m6eeae6cc32" class="cls-4" d="M124.81,197.2v2" transform="translate(2.01 0.26)"/></g></g><g id="xtick_8" data-name="xtick 8"><g id="line2d_8" data-name="line2d 8"><path id="m6eeae6cc32-4" data-name="m6eeae6cc32" class="cls-4" d="M76,197.2v2" transform="translate(2.01 0.26)"/></g></g><g id="xtick_9" data-name="xtick 9"><g id="line2d_9" data-name="line2d 9"><path id="m6eeae6cc32-5" data-name="m6eeae6cc32" class="cls-4" d="M27.16,197.2v2" transform="translate(2.01 0.26)"/></g></g><g id="text_5" data-name="text 5"><path id="ArialMT-43" d="M68.86,224l1.33.34a4.47,4.47,0,0,1-1.5,2.49,4.15,4.15,0,0,1-2.65.86,4.78,4.78,0,0,1-2.64-.66,4.15,4.15,0,0,1-1.54-1.91,6.9,6.9,0,0,1-.53-2.69,5.91,5.91,0,0,1,.6-2.73,4,4,0,0,1,1.7-1.77,5,5,0,0,1,2.43-.6,4.13,4.13,0,0,1,2.53.76A4,4,0,0,1,70,220.26l-1.31.31a3.07,3.07,0,0,0-1-1.59,2.72,2.72,0,0,0-1.67-.5,3.24,3.24,0,0,0-1.93.55A2.93,2.93,0,0,0,63,220.52a5.94,5.94,0,0,0-.31,1.92,6.11,6.11,0,0,0,.37,2.24,2.75,2.75,0,0,0,1.16,1.42,3.18,3.18,0,0,0,1.7.47,2.87,2.87,0,0,0,1.89-.64A3.29,3.29,0,0,0,68.86,224Z" transform="translate(2.01 0.26)"/><path id="ArialMT-68" d="M71.66,227.54v-10h1.23v3.59a2.78,2.78,0,0,1,2.18-1,3,3,0,0,1,1.4.32,1.85,1.85,0,0,1,.85.88,4.06,4.06,0,0,1,.26,1.63v4.6H76.35v-4.6a1.94,1.94,0,0,0-.4-1.35,1.5,1.5,0,0,0-1.13-.42,2,2,0,0,0-1,.29,1.61,1.61,0,0,0-.69.77,3.42,3.42,0,0,0-.21,1.33v4Z" transform="translate(2.01 0.26)"/><path id="ArialMT-65" d="M84.42,225.2l1.27.16a3.12,3.12,0,0,1-1.11,1.73,3.8,3.8,0,0,1-4.61-.37A3.83,3.83,0,0,1,79,224a4,4,0,0,1,.94-2.84,3.19,3.19,0,0,1,2.45-1,3.12,3.12,0,0,1,2.38,1,3.91,3.91,0,0,1,.92,2.79v.33H80.31a2.77,2.77,0,0,0,.68,1.83,2,2,0,0,0,1.52.64,1.86,1.86,0,0,0,1.15-.36A2.32,2.32,0,0,0,84.42,225.2Zm-4-2h4.05a2.36,2.36,0,0,0-.46-1.37,1.86,1.86,0,0,0-1.52-.71,1.94,1.94,0,0,0-1.43.56A2.24,2.24,0,0,0,80.38,223.21Z" transform="translate(2.01 0.26)"/><path id="ArialMT-6d" d="M87.24,227.54v-7.26h1.1v1a2.43,2.43,0,0,1,.91-.86,2.5,2.5,0,0,1,1.29-.33,2.31,2.31,0,0,1,1.32.34,1.74,1.74,0,0,1,.73.93,2.61,2.61,0,0,1,2.24-1.27,2.19,2.19,0,0,1,1.66.6,2.54,2.54,0,0,1,.58,1.84v5H95.85V223a3.36,3.36,0,0,0-.12-1.06,1,1,0,0,0-.43-.52,1.39,1.39,0,0,0-.74-.2,1.7,1.7,0,0,0-1.27.51,2.23,2.23,0,0,0-.51,1.63v4.22H91.55v-4.72a2.06,2.06,0,0,0-.3-1.23,1.15,1.15,0,0,0-1-.41,1.84,1.84,0,0,0-1,.27,1.58,1.58,0,0,0-.63.8,4.32,4.32,0,0,0-.2,1.52v3.77Z" transform="translate(2.01 0.26)"/><path id="ArialMT-69" d="M98.91,218.93v-1.41h1.23v1.41Zm0,8.61v-7.26h1.23v7.26Z" transform="translate(2.01 0.26)"/><path id="ArialMT-63" d="M106.75,224.88,108,225a3.14,3.14,0,0,1-1,2,2.91,2.91,0,0,1-2,.71,3.1,3.1,0,0,1-2.39-1,4,4,0,0,1-.91-2.8,5,5,0,0,1,.39-2.05,2.76,2.76,0,0,1,1.19-1.33,3.56,3.56,0,0,1,1.73-.44,3,3,0,0,1,1.94.6,2.76,2.76,0,0,1,1,1.7l-1.2.19a1.93,1.93,0,0,0-.6-1.1,1.55,1.55,0,0,0-1.05-.37,1.92,1.92,0,0,0-1.51.66,3.17,3.17,0,0,0-.58,2.11,3.27,3.27,0,0,0,.56,2.13,1.82,1.82,0,0,0,1.46.66,1.71,1.71,0,0,0,1.21-.45A2.22,2.22,0,0,0,106.75,224.88Z" transform="translate(2.01 0.26)"/><path id="ArialMT-61" d="M113.75,226.64a4.63,4.63,0,0,1-1.32.82,3.78,3.78,0,0,1-1.36.24,2.66,2.66,0,0,1-1.84-.58,2,2,0,0,1-.64-1.5,2,2,0,0,1,.24-1,2.1,2.1,0,0,1,.64-.71,2.88,2.88,0,0,1,.89-.4,7.53,7.53,0,0,1,1.09-.19,11.59,11.59,0,0,0,2.19-.42c0-.17,0-.28,0-.32a1.36,1.36,0,0,0-.35-1.06,2,2,0,0,0-1.4-.42,2.12,2.12,0,0,0-1.28.31,1.81,1.81,0,0,0-.61,1.07l-1.21-.16a3,3,0,0,1,.54-1.25,2.41,2.41,0,0,1,1.09-.73,4.88,4.88,0,0,1,1.65-.26,4.51,4.51,0,0,1,1.51.22,2,2,0,0,1,.85.55,1.93,1.93,0,0,1,.39.84,7.09,7.09,0,0,1,.06,1.13v1.64a16,16,0,0,0,.08,2.18,2.6,2.6,0,0,0,.31.87H114A2.7,2.7,0,0,1,113.75,226.64Zm-.11-2.75a9.05,9.05,0,0,1-2,.47,4.1,4.1,0,0,0-1.07.25,1.12,1.12,0,0,0-.49.39,1.1,1.1,0,0,0-.17.59,1,1,0,0,0,.38.82,1.6,1.6,0,0,0,1.09.33,2.61,2.61,0,0,0,1.26-.31,1.94,1.94,0,0,0,.82-.86,3,3,0,0,0,.19-1.22Z" transform="translate(2.01 0.26)"/><path id="ArialMT-6c" d="M116.77,227.54v-10H118v10Z" transform="translate(2.01 0.26)"/><path id="ArialMT-20" d="M119,227.54" transform="translate(2.01 0.26)"/><path id="ArialMT-73" d="M123.3,225.37l1.22-.19a1.71,1.71,0,0,0,.57,1.12,2,2,0,0,0,1.31.39,1.93,1.93,0,0,0,1.26-.35,1,1,0,0,0,.41-.81.74.74,0,0,0-.37-.65,5.07,5.07,0,0,0-1.25-.42,12.67,12.67,0,0,1-1.88-.59,1.79,1.79,0,0,1-1.06-1.67,1.81,1.81,0,0,1,.22-.89,1.93,1.93,0,0,1,.61-.69,2.58,2.58,0,0,1,.78-.36,3.62,3.62,0,0,1,1.06-.15,4.28,4.28,0,0,1,1.5.25,2,2,0,0,1,.95.67,2.55,2.55,0,0,1,.43,1.12l-1.2.16a1.35,1.35,0,0,0-.48-.87,1.73,1.73,0,0,0-1.11-.31,2,2,0,0,0-1.21.28.8.8,0,0,0-.36.65.68.68,0,0,0,.15.43,1.16,1.16,0,0,0,.47.33c.12.05.49.15,1.09.31a16.16,16.16,0,0,1,1.82.58,1.71,1.71,0,0,1,1.1,1.69,2.06,2.06,0,0,1-.36,1.16,2.21,2.21,0,0,1-1,.84,3.73,3.73,0,0,1-1.53.3,3.43,3.43,0,0,1-2.16-.59A2.76,2.76,0,0,1,123.3,225.37Z" transform="translate(2.01 0.26)"/><path id="ArialMT-68-2" data-name="ArialMT-68" d="M130.8,227.54v-10H132v3.59a2.75,2.75,0,0,1,2.17-1,3,3,0,0,1,1.4.32,1.85,1.85,0,0,1,.85.88,4.06,4.06,0,0,1,.26,1.63v4.6h-1.23v-4.6a1.9,1.9,0,0,0-.4-1.35,1.5,1.5,0,0,0-1.13-.42,2,2,0,0,0-1,.29,1.61,1.61,0,0,0-.69.77,3.45,3.45,0,0,0-.2,1.33v4Z" transform="translate(2.01 0.26)"/><path id="ArialMT-69-2" data-name="ArialMT-69" d="M138.59,218.93v-1.41h1.23v1.41Zm0,8.61v-7.26h1.23v7.26Z" transform="translate(2.01 0.26)"/><path id="ArialMT-66" d="M142,227.54v-6.31H140.9v-.95H142v-.78a3.28,3.28,0,0,1,.13-1.08,1.52,1.52,0,0,1,.62-.78,2.26,2.26,0,0,1,1.26-.29,6.06,6.06,0,0,1,1.14.12l-.18,1.07a3.75,3.75,0,0,0-.73-.07,1.08,1.08,0,0,0-.79.24,1.34,1.34,0,0,0-.23.9v.67h1.42v.95h-1.42v6.31Z" transform="translate(2.01 0.26)"/><path id="ArialMT-74" d="M148.27,226.44l.18,1.08a4.17,4.17,0,0,1-.93.11,2.1,2.1,0,0,1-1-.21,1.17,1.17,0,0,1-.52-.56,4.39,4.39,0,0,1-.15-1.45v-4.18h-.9v-.95h.9v-1.8l1.22-.74v2.54h1.24v.95H147v4.25a1.94,1.94,0,0,0,.07.68.49.49,0,0,0,.21.24,1,1,0,0,0,.42.08A4.26,4.26,0,0,0,148.27,226.44Z" transform="translate(2.01 0.26)"/><path id="ArialMT-20-2" data-name="ArialMT-20" d="M148.55,227.54" transform="translate(2.01 0.26)"/><path id="ArialMT-28" d="M155.71,230.48a12.26,12.26,0,0,1-1.72-3,9.53,9.53,0,0,1-.18-6.69,13.25,13.25,0,0,1,1.9-3.44h.88a22.5,22.5,0,0,0-1.09,2,10.75,10.75,0,0,0-.66,2,11.84,11.84,0,0,0-.29,2.57,12.32,12.32,0,0,0,2,6.57Z" transform="translate(2.01 0.26)"/><path id="ArialMT-70" d="M158,230.32v-10h1.12v.94a2.8,2.8,0,0,1,.9-.83,2.52,2.52,0,0,1,1.21-.28,2.85,2.85,0,0,1,1.64.48,3,3,0,0,1,1.07,1.35,5.18,5.18,0,0,1,0,3.92,3.09,3.09,0,0,1-1.17,1.37,3,3,0,0,1-1.6.47,2.32,2.32,0,0,1-1.1-.26,2.4,2.4,0,0,1-.81-.66v3.54Zm1.12-6.37a3.22,3.22,0,0,0,.56,2.07,1.75,1.75,0,0,0,2.78,0,3.27,3.27,0,0,0,.59-2.15,3.19,3.19,0,0,0-.57-2.07,1.73,1.73,0,0,0-1.37-.69,1.76,1.76,0,0,0-1.39.73A3.31,3.31,0,0,0,159.14,224Z" transform="translate(2.01 0.26)"/><path id="ArialMT-70-2" data-name="ArialMT-70" d="M165.81,230.32v-10h1.12v.94a2.61,2.61,0,0,1,.9-.83,2.49,2.49,0,0,1,1.21-.28,2.87,2.87,0,0,1,1.64.48,3,3,0,0,1,1.07,1.35,5,5,0,0,1,.36,1.91,4.81,4.81,0,0,1-.4,2A3,3,0,0,1,169,227.7a2.39,2.39,0,0,1-1.11-.26,2.46,2.46,0,0,1-.8-.66v3.54Zm1.11-6.37a3.16,3.16,0,0,0,.57,2.07,1.74,1.74,0,0,0,1.38.67,1.76,1.76,0,0,0,1.4-.7,3.27,3.27,0,0,0,.58-2.15,3.19,3.19,0,0,0-.57-2.07,1.71,1.71,0,0,0-1.36-.69,1.75,1.75,0,0,0-1.39.73A3.25,3.25,0,0,0,166.92,224Z" transform="translate(2.01 0.26)"/><path id="ArialMT-6d-2" data-name="ArialMT-6d" d="M173.6,227.54v-7.26h1.1v1a2.48,2.48,0,0,1,.9-.86,2.54,2.54,0,0,1,1.3-.33,2.33,2.33,0,0,1,1.32.34,1.79,1.79,0,0,1,.73.93,2.61,2.61,0,0,1,2.24-1.27,2.21,2.21,0,0,1,1.66.6,2.54,2.54,0,0,1,.58,1.84v5h-1.22V223a3.36,3.36,0,0,0-.12-1.06,1,1,0,0,0-.44-.52,1.33,1.33,0,0,0-.73-.2,1.74,1.74,0,0,0-1.28.51,2.27,2.27,0,0,0-.5,1.63v4.22h-1.23v-4.72a2.06,2.06,0,0,0-.3-1.23,1.15,1.15,0,0,0-1-.41,1.84,1.84,0,0,0-1,.27,1.65,1.65,0,0,0-.64.8,4.57,4.57,0,0,0-.2,1.52v3.77Z" transform="translate(2.01 0.26)"/><path id="ArialMT-29" d="M186.06,230.48h-.88a12.24,12.24,0,0,0,2-6.57,11.1,11.1,0,0,0-.3-2.55,10,10,0,0,0-.65-2,19.52,19.52,0,0,0-1.1-2.05h.88a13,13,0,0,1,1.9,3.44,9.38,9.38,0,0,1-.18,6.69A12.26,12.26,0,0,1,186.06,230.48Z" transform="translate(2.01 0.26)"/></g></g><g id="matplotlib.axis_2" data-name="matplotlib.axis 2"><g id="text_6" data-name="text 6"><path id="ArialMT-49" d="M16.71,126.83h-10v-1.32h10Z" transform="translate(2.01 0.26)"/><path id="ArialMT-6e" d="M16.71,123.32H9.45v-1.1h1a2.62,2.62,0,0,1-1.2-2.31,3,3,0,0,1,.24-1.21,1.83,1.83,0,0,1,.61-.82,2.42,2.42,0,0,1,.91-.39,8.09,8.09,0,0,1,1.2-.06h4.46v1.23H12.3a3.27,3.27,0,0,0-1.13.14,1.17,1.17,0,0,0-.59.51,1.6,1.6,0,0,0-.22.86,2,2,0,0,0,.5,1.35,2.41,2.41,0,0,0,1.89.58h4Z" transform="translate(2.01 0.26)"/><path id="ArialMT-74-2" data-name="ArialMT-74" d="M15.61,112.85l1.09-.17a4.67,4.67,0,0,1,.11.92,2.1,2.1,0,0,1-.21,1,1.17,1.17,0,0,1-.56.52,4.39,4.39,0,0,1-1.45.15H10.41v.9h-1v-.9H7.66l-.74-1.22H9.45v-1.24h1v1.24h4.25a1.87,1.87,0,0,0,.67-.07.49.49,0,0,0,.24-.21.82.82,0,0,0,.09-.42A3.14,3.14,0,0,0,15.61,112.85Z" transform="translate(2.01 0.26)"/><path id="ArialMT-65-2" data-name="ArialMT-65" d="M14.38,106.68l.15-1.27a3.08,3.08,0,0,1,1.73,1.11,3.77,3.77,0,0,1-.36,4.61,3.85,3.85,0,0,1-2.75.93,4,4,0,0,1-2.85-.94,3.22,3.22,0,0,1-1-2.45,3.1,3.1,0,0,1,1-2.38,3.91,3.91,0,0,1,2.79-.92h.33v5.42a2.77,2.77,0,0,0,1.83-.68,2,2,0,0,0,.64-1.52,1.86,1.86,0,0,0-.36-1.15A2.42,2.42,0,0,0,14.38,106.68Zm-2,4v-4a2.42,2.42,0,0,0-1.38.46,1.89,1.89,0,0,0-.71,1.52,1.94,1.94,0,0,0,.57,1.43A2.22,2.22,0,0,0,12.39,110.72Z" transform="translate(2.01 0.26)"/><path id="ArialMT-6e-2" data-name="ArialMT-6e" d="M16.71,103.86H9.45v-1.1h1a2.62,2.62,0,0,1-1.2-2.31,3,3,0,0,1,.24-1.21,1.92,1.92,0,0,1,.61-.83,2.4,2.4,0,0,1,.91-.38,7.72,7.72,0,0,1,1.2-.07h4.46v1.23H12.3a3.23,3.23,0,0,0-1.13.15,1.12,1.12,0,0,0-.59.51,1.58,1.58,0,0,0-.22.85,2,2,0,0,0,.5,1.36,2.45,2.45,0,0,0,1.89.57h4Z" transform="translate(2.01 0.26)"/><path id="ArialMT-73-2" data-name="ArialMT-73" d="M14.55,96.57l-.19-1.22a1.73,1.73,0,0,0,1.12-.57,2,2,0,0,0,.39-1.31,1.9,1.9,0,0,0-.35-1.25,1,1,0,0,0-.81-.42.76.76,0,0,0-.66.37,5.36,5.36,0,0,0-.41,1.26,12.44,12.44,0,0,1-.59,1.87,1.79,1.79,0,0,1-1.67,1.06,1.87,1.87,0,0,1-.9-.22,2.2,2.2,0,0,1-.69-.6,2.71,2.71,0,0,1-.35-.78,3.74,3.74,0,0,1-.15-1.07,4.07,4.07,0,0,1,.25-1.5,2,2,0,0,1,.66-1,2.6,2.6,0,0,1,1.13-.43L11.49,92a1.3,1.3,0,0,0-.87.47,1.73,1.73,0,0,0-.32,1.11,2,2,0,0,0,.28,1.21.84.84,0,0,0,.66.37.64.64,0,0,0,.43-.16,1.09,1.09,0,0,0,.33-.47c0-.12.15-.48.31-1.09a14.71,14.71,0,0,1,.57-1.82,1.85,1.85,0,0,1,.65-.8,1.76,1.76,0,0,1,1.05-.3,2.06,2.06,0,0,1,1.16.36,2.31,2.31,0,0,1,.84,1,3.72,3.72,0,0,1,.3,1.52,3.41,3.41,0,0,1-.59,2.16A2.71,2.71,0,0,1,14.55,96.57Z" transform="translate(2.01 0.26)"/><path id="ArialMT-69-3" data-name="ArialMT-69" d="M8.11,89.07H6.69V87.84H8.11Zm8.6,0H9.45V87.84h7.26Z" transform="translate(2.01 0.26)"/><path id="ArialMT-74-3" data-name="ArialMT-74" d="M15.61,83.28l1.09-.18a4.85,4.85,0,0,1,.11.93,2.1,2.1,0,0,1-.21,1,1.17,1.17,0,0,1-.56.52,4.39,4.39,0,0,1-1.45.15H10.41v.9h-1v-.9H7.66l-.74-1.22H9.45V83.28h1v1.24h4.25a1.87,1.87,0,0,0,.67-.07.49.49,0,0,0,.24-.21.82.82,0,0,0,.09-.42A3,3,0,0,0,15.61,83.28Z" transform="translate(2.01 0.26)"/><path id="ArialMT-79" d="M19.51,82.13l-1.16.14a2.51,2.51,0,0,0,.11-.71,1.34,1.34,0,0,0-.13-.65A1.15,1.15,0,0,0,18,80.5a7.28,7.28,0,0,0-.92-.37l-.3-.11L9.45,82.77V81.45l4.21-1.51c.53-.2,1.09-.37,1.68-.53a14.39,14.39,0,0,1-1.65-.51L9.45,77.35V76.12l7.39,2.77a14.86,14.86,0,0,1,1.64.68,2.39,2.39,0,0,1,.9.76,1.76,1.76,0,0,1,.28,1A2.43,2.43,0,0,1,19.51,82.13Z" transform="translate(2.01 0.26)"/></g></g><g id="line2d_19" data-name="line2d 19"><g class="cls-5"><path class="cls-6" d="M-1.51,128.24l9.13-.1,6.34.06H22.5l4.56-.07,3.32-.22,1.84,0,4.64.11,3.09-.2,8.62-.58,1.84-.3L56,125.78l3.32-1.15,2.13-1,1.4-1,2.72-2.18L67.05,119l2.21-2.51,1.47-2,1.77-2.82L74.56,108l1.4-3,1.4-3.56,1.25-3.83,3.09-10,.52-.74.36-.21.37.07.37.31.52.8.81,1.75,1.91,4.22L87.81,96l1.33,1.88,5.82,7.4,2.28,2.38,7.07,6.86,2.35,1.84,2.29,1.53,4.41,2.46,2,.82,6.63,2.38,3.24.78,2.28.5,2.36.53,2.35.45,7.59,1.11,2.13.23,2.29.2,2.28.22,2.13.11,1.85.16,1.54.06,2,.08,2.21.14,2.06,0,2.43.08h4.86l2.73,0,3.46.11,2.35,0,2.95,0,3.09,0,3.54,0,4.34.07,1.91,0,3.91-.19h4.49l29.08.22,1.84.06,1.4,0h0" transform="translate(2.01 0.26)"/></g></g><g id="line2d_20" data-name="line2d 20"><g class="cls-5"><path class="cls-7" d="M-1.51,158.45H3.72l2.87-.07,1.92,0,4.05-.08,2.65.12,1.62-.11,1.55,0,3.9,0,12.52,0,5-.12,3.83-.1,2.43,0,2,0,4.05-.3,8.39-.9,5.16-.8,2.72-.6L70,155l1.4-.64,4.42-2.47,3.39-2.27.73-.15.89.07,1.91.46,1.62.31,1.62.05,1.25-.18,2.88-.77,4.34-1,1.33-.08,2.28.18,1.18.3,1.4.62,3.68,1.71,2.06.69.73,0,1-.11.51.18.74.54,1.32,1,1.11.49,1.25.31,10.31,1.58,1.84,0,1.69,0,2.58-.06,3,.11,5,.14,4.56.51,3.31.42,2.07.06,3,.62,3.31.27,2.58.09,8.91.17,2.13.07,1.84,0,2.14,0H175l7.58,0,9.13-.18,7.44.2,5.08-.1,2.65.13,2.65,0,5.08.19,3.61-.06,2.28-.13,7.37.17,2.79-.1h0" transform="translate(2.01 0.26)"/></g></g><g id="line2d_21" data-name="line2d 21"><g class="cls-5"><path class="cls-8" d="M-1.51,98l4.57-.06,2.06,0,2.43,0,4.2-.06,2.5,0,4.2-.06,2.13-.06,1.92-.06,2.43,0,6.18-.09,3.39-.16,3.31-.06,2.29-.08,2.65-.06,1.54,0,6.63-.75L53,96.08l2-.41L56.81,95l2.58-1.14,2.06-1.13,1.92-1.37,1.76-1.5,1.4-1.47L68.45,86,69.85,84l1.69-3,1.62-3.26,1.55-3.59L77.06,68l2.36-6.79,4.27-12.26,3.53-9.5,1.62-3.7,1.11-2,1-1.45.88-.88L92.6,31l.66-.12L94,31l1,.44,1.1.74,1,1,1,1.21,1,1.68,1.32,2.63L106,50.2l2.06,3.53,2,3.05,2.5,3.31,1.62,1.85,3.91,3.93,10.08,10.29,2.66,2.39,5,3.94L138,83.87l6.18,3.65,2.29,1,2.5.83,2.65.56,1.91.41,2.51.85,2.28,1.08,2,.88,5.23,1.72,4.05.9,8.61,1.08,10.75.45,5.67.17,5.53.17,3.75,0,12.52.25,1.84.05,2.87,0,9.35.06.22,0h0" transform="translate(2.01 0.26)"/></g></g><g id="line2d_22" data-name="line2d 22"><g class="cls-5"><path class="cls-9" d="M-1.51,188.63l20.84,0,5.08-.13,1.55,0,8.84.13,4.34-.12,15.54-.55,5.23-.74,2.06-.6,2.79-1.1,1.85-1.08,1.17-.88L69,182.23l1.1-1.4,1-1.62,1.18-2.49L74,172.9l.44-.44.37-.07.37.17.52.56,3.68,4.81,1.25,1,1.18.68,1.47.57,1.62.39,1.18.39,5.08,2,6,1.76,11.34,2,2.57.32,2.43.32,6.93.52,3.75.24,2.87.15,4.5.2,2.13-.11,2.58-.16,1.47.17,2.06.2,1.92-.07,2.35,0,2.14-.07h1.91l6,.15,2.43,0,13,.24,2.14-.11,4.49-.07,4.93,0,4.27.08,1.92-.06h1.54l3,.11,11.49-.14,22.6.12,4.13-.1.51.05h0" transform="translate(2.01 0.26)"/></g></g><g id="patch_3" data-name="patch 3"><path class="cls-10" d="M27.16,197.2V6.94" transform="translate(2.01 0.26)"/></g><g id="patch_4" data-name="patch 4"><path class="cls-10" d="M27.16,197.2h195.3" transform="translate(2.01 0.26)"/></g></g></g></g><g id="Names"><path d="M163.07,91.56V84.41h.82v2.94h3.24V84.41H168v7.15h-.83V88.19h-3.24v3.37Z" transform="translate(2.01 0.26)"/><path d="M169.24,85.42v-1H170v1Zm0,6.14V86.38H170v5.18Z" transform="translate(2.01 0.26)"/><path d="M171,92l.74.13a.85.85,0,0,0,.26.58,1.17,1.17,0,0,0,.78.24A1.09,1.09,0,0,0,174,92a5.76,5.76,0,0,0,0-1.12,1.49,1.49,0,0,1-1.25.67,1.62,1.62,0,0,1-1.44-.77,3.27,3.27,0,0,1-.51-1.85,3.83,3.83,0,0,1,.24-1.37,2.11,2.11,0,0,1,.67-1,1.74,1.74,0,0,1,1.05-.34,1.55,1.55,0,0,1,1.31.74v-.62h.71v4.48a5,5,0,0,1-.21,1.72,1.82,1.82,0,0,1-.68.8,2.18,2.18,0,0,1-1.15.29,1.93,1.93,0,0,1-1.3-.42A1.46,1.46,0,0,1,171,92Zm.63-3.11a2.53,2.53,0,0,0,.35,1.49,1.07,1.07,0,0,0,1.77,0,3.06,3.06,0,0,0,0-2.9,1.1,1.1,0,0,0-.89-.48,1,1,0,0,0-.86.48A2.29,2.29,0,0,0,171.66,88.88Z" transform="translate(2.01 0.26)"/><path d="M176,91.56V84.41h.76V87a1.64,1.64,0,0,1,1.35-.71,1.61,1.61,0,0,1,.87.23,1.21,1.21,0,0,1,.53.63,3.15,3.15,0,0,1,.16,1.16v3.28h-.76V88.28a1.53,1.53,0,0,0-.25-1,.87.87,0,0,0-.7-.3,1.15,1.15,0,0,0-.64.2,1.11,1.11,0,0,0-.43.55,2.74,2.74,0,0,0-.13,1v2.83Z" transform="translate(2.01 0.26)"/><path d="M180.55,89.42v-.89h2.35v.89Z" transform="translate(2.01 0.26)"/><path d="M183.75,93.55V86.38h.69v.67a1.88,1.88,0,0,1,.56-.59,1.4,1.4,0,0,1,.75-.2,1.65,1.65,0,0,1,1,.34,2,2,0,0,1,.67,1,4,4,0,0,1,.22,1.36,4.1,4.1,0,0,1-.24,1.44,2.09,2.09,0,0,1-.73,1,1.65,1.65,0,0,1-1,.34,1.31,1.31,0,0,1-.69-.18,1.73,1.73,0,0,1-.5-.47v2.52Zm.69-4.55a2.54,2.54,0,0,0,.35,1.48,1,1,0,0,0,.86.48,1.06,1.06,0,0,0,.87-.5,3.39,3.39,0,0,0,0-3,1,1,0,0,0-.85-.49,1.1,1.1,0,0,0-.87.52A2.64,2.64,0,0,0,184.44,89Z" transform="translate(2.01 0.26)"/><path d="M188.59,91.56V84.41h.76V87a1.64,1.64,0,0,1,1.35-.71,1.61,1.61,0,0,1,.87.23,1.21,1.21,0,0,1,.53.63,3.15,3.15,0,0,1,.16,1.16v3.28h-.76V88.28a1.47,1.47,0,0,0-.25-1,.87.87,0,0,0-.7-.3,1.15,1.15,0,0,0-.64.2,1.11,1.11,0,0,0-.43.55,2.74,2.74,0,0,0-.13,1v2.83Z" transform="translate(2.01 0.26)"/><path d="M193.14,89a2.86,2.86,0,0,1,.7-2.13,2,2,0,0,1,2.94.12,3,3,0,0,1,.59,1.94,3.91,3.91,0,0,1-.26,1.57,2,2,0,0,1-.76.89,2,2,0,0,1-1.09.32,1.89,1.89,0,0,1-1.53-.7A3,3,0,0,1,193.14,89Zm.79,0a2.37,2.37,0,0,0,.38,1.49,1.16,1.16,0,0,0,.95.5,1.17,1.17,0,0,0,1-.5,2.52,2.52,0,0,0,.37-1.52,2.35,2.35,0,0,0-.38-1.46,1.16,1.16,0,0,0-1.89,0A2.39,2.39,0,0,0,193.93,89Z" transform="translate(2.01 0.26)"/><path d="M198,90l.76-.14a1.27,1.27,0,0,0,.35.8,1.13,1.13,0,0,0,.82.28,1.06,1.06,0,0,0,.78-.25.76.76,0,0,0,.25-.58.54.54,0,0,0-.22-.46,3.09,3.09,0,0,0-.78-.3,8.46,8.46,0,0,1-1.17-.42,1.18,1.18,0,0,1-.49-.5,1.36,1.36,0,0,1-.17-.69,1.41,1.41,0,0,1,.14-.65,1.38,1.38,0,0,1,.37-.49,1.49,1.49,0,0,1,.49-.25,2,2,0,0,1,.66-.11,2.24,2.24,0,0,1,.93.18,1.32,1.32,0,0,1,.6.47,2.2,2.2,0,0,1,.26.81l-.75.11a1,1,0,0,0-.29-.62,1,1,0,0,0-.69-.23,1.15,1.15,0,0,0-.76.2.62.62,0,0,0-.22.47.54.54,0,0,0,.09.31.71.71,0,0,0,.29.24l.68.22a8.22,8.22,0,0,1,1.13.41,1.14,1.14,0,0,1,.51.46,1.44,1.44,0,0,1,.18.75,1.75,1.75,0,0,1-.22.83,1.51,1.51,0,0,1-.65.6,2.08,2.08,0,0,1-1,.21,1.92,1.92,0,0,1-1.34-.42A2,2,0,0,1,198,90Z" transform="translate(2.01 0.26)"/><path d="M202.62,93.55V86.38h.7v.67a1.85,1.85,0,0,1,.55-.59,1.4,1.4,0,0,1,.75-.2,1.65,1.65,0,0,1,1,.34,2,2,0,0,1,.67,1,4,4,0,0,1,.23,1.36,4.1,4.1,0,0,1-.25,1.44,2.14,2.14,0,0,1-.72,1,1.68,1.68,0,0,1-1,.34,1.34,1.34,0,0,1-.69-.18,1.73,1.73,0,0,1-.5-.47v2.52Zm.69-4.55a2.54,2.54,0,0,0,.35,1.48,1,1,0,0,0,.86.48,1.06,1.06,0,0,0,.87-.5,2.62,2.62,0,0,0,.36-1.53,2.54,2.54,0,0,0-.35-1.49,1,1,0,0,0-.85-.49,1.08,1.08,0,0,0-.86.52A2.64,2.64,0,0,0,203.31,89Z" transform="translate(2.01 0.26)"/><path d="M207.46,91.56V84.41h.76V87a1.69,1.69,0,0,1,2.23-.48,1.31,1.31,0,0,1,.53.63,3.38,3.38,0,0,1,.16,1.16v3.28h-.77V88.28a1.47,1.47,0,0,0-.25-1,.85.85,0,0,0-.7-.3,1.15,1.15,0,0,0-.64.2,1.17,1.17,0,0,0-.43.55,3,3,0,0,0-.13,1v2.83Z" transform="translate(2.01 0.26)"/><path d="M215.25,90.93a3,3,0,0,1-.82.58,2,2,0,0,1-.85.17,1.51,1.51,0,0,1-1.14-.42,1.44,1.44,0,0,1-.4-1.06,1.6,1.6,0,0,1,.15-.7,1.25,1.25,0,0,1,.4-.5,1.53,1.53,0,0,1,.55-.29,3.9,3.9,0,0,1,.68-.13,6.16,6.16,0,0,0,1.36-.31c0-.12,0-.19,0-.23a1.07,1.07,0,0,0-.22-.75,1.18,1.18,0,0,0-.87-.3,1.19,1.19,0,0,0-.8.22,1.35,1.35,0,0,0-.38.77l-.75-.12a2.21,2.21,0,0,1,.34-.89,1.42,1.42,0,0,1,.67-.52,2.56,2.56,0,0,1,1-.19,2.3,2.3,0,0,1,.94.16,1.17,1.17,0,0,1,.53.39,1.64,1.64,0,0,1,.24.6,6.56,6.56,0,0,1,0,.81v1.17c0,.82,0,1.34,0,1.55a2.15,2.15,0,0,0,.2.62h-.8A1.94,1.94,0,0,1,215.25,90.93Zm-.07-2a5,5,0,0,1-1.25.33,2.9,2.9,0,0,0-.67.18.7.7,0,0,0-.3.29.8.8,0,0,0-.1.41.78.78,0,0,0,.23.59.89.89,0,0,0,.68.23,1.39,1.39,0,0,0,.78-.22,1.33,1.33,0,0,0,.51-.61,2.43,2.43,0,0,0,.12-.88Z" transform="translate(2.01 0.26)"/><path d="M218.81,90.78l.11.78a2.54,2.54,0,0,1-.58.07,1.17,1.17,0,0,1-.64-.15.74.74,0,0,1-.32-.4,3.22,3.22,0,0,1-.1-1v-3h-.56v-.68h.56V85.1l.76-.53v1.81h.77v.68H218v3a2.06,2.06,0,0,0,0,.48.37.37,0,0,0,.13.17.51.51,0,0,0,.27.06Z" transform="translate(2.01 0.26)"/><path d="M222.65,89.89l.79.12a2.32,2.32,0,0,1-.69,1.23,1.88,1.88,0,0,1-1.3.44,1.93,1.93,0,0,1-1.57-.7,3,3,0,0,1-.58-2,3.18,3.18,0,0,1,.59-2,1.87,1.87,0,0,1,1.52-.72,1.81,1.81,0,0,1,1.48.71,3.1,3.1,0,0,1,.57,2v.24h-3.37a2.15,2.15,0,0,0,.43,1.31,1.17,1.17,0,0,0,.94.45,1.12,1.12,0,0,0,.72-.25A1.72,1.72,0,0,0,222.65,89.89Zm-2.51-1.42h2.52a2,2,0,0,0-.29-1,1.13,1.13,0,0,0-1-.51,1.15,1.15,0,0,0-.89.41A1.68,1.68,0,0,0,220.14,88.47Z" transform="translate(2.01 0.26)"/><path class="cls-11" d="M160.9,122.68v-7.16h.83v2.94H165v-2.94h.82v7.16H165V119.3h-3.24v3.38Z" transform="translate(2.01 0.26)"/><path class="cls-11" d="M167.07,116.53v-1h.76v1Zm0,6.15v-5.19h.76v5.19Z" transform="translate(2.01 0.26)"/><path class="cls-11" d="M168.86,123.1l.74.13a.85.85,0,0,0,.26.58,1.17,1.17,0,0,0,.78.24,1.25,1.25,0,0,0,.82-.24,1.24,1.24,0,0,0,.39-.69,6.37,6.37,0,0,0,.06-1.12,1.53,1.53,0,0,1-1.25.68,1.65,1.65,0,0,1-1.45-.78,3.34,3.34,0,0,1-.5-1.85,3.83,3.83,0,0,1,.23-1.37,2.11,2.11,0,0,1,.68-1,1.68,1.68,0,0,1,1-.34,1.56,1.56,0,0,1,1.32.75v-.63h.7V122a5,5,0,0,1-.21,1.72,1.71,1.71,0,0,1-.68.8,2.16,2.16,0,0,1-1.15.29,1.93,1.93,0,0,1-1.3-.42A1.51,1.51,0,0,1,168.86,123.1Zm.63-3.11a2.53,2.53,0,0,0,.35,1.49,1.07,1.07,0,0,0,1.77,0A2.39,2.39,0,0,0,172,120a2.34,2.34,0,0,0-.37-1.44,1.08,1.08,0,0,0-.88-.48,1.06,1.06,0,0,0-.87.48A2.31,2.31,0,0,0,169.49,120Z" transform="translate(2.01 0.26)"/><path class="cls-11" d="M173.84,122.68v-7.16h.76v2.57a1.63,1.63,0,0,1,1.36-.72,1.66,1.66,0,0,1,.87.23,1.31,1.31,0,0,1,.53.63,3.38,3.38,0,0,1,.16,1.16v3.29h-.77v-3.29a1.47,1.47,0,0,0-.25-1,.85.85,0,0,0-.7-.3,1.15,1.15,0,0,0-.64.2,1.17,1.17,0,0,0-.43.55,3,3,0,0,0-.13,1v2.84Z" transform="translate(2.01 0.26)"/><path class="cls-11" d="M178.38,120.53v-.89h2.35v.89Z" transform="translate(2.01 0.26)"/><path class="cls-11" d="M181.65,122.68v-7.16h1.24l1.48,5.07c.13.47.23.82.29,1,.07-.25.19-.64.34-1.14l1.49-5h1.11v7.16h-.8v-6l-1.81,6h-.74l-1.8-6.1v6.1Z" transform="translate(2.01 0.26)"/><path class="cls-11" d="M191.77,122a2.8,2.8,0,0,1-.81.58,2.05,2.05,0,0,1-.85.17,1.54,1.54,0,0,1-1.14-.41,1.48,1.48,0,0,1-.4-1.07,1.6,1.6,0,0,1,.15-.7,1.25,1.25,0,0,1,.4-.5,1.53,1.53,0,0,1,.55-.29,3.9,3.9,0,0,1,.68-.13,6.31,6.31,0,0,0,1.36-.31v-.22a1.08,1.08,0,0,0-.21-.76,1.18,1.18,0,0,0-.87-.3,1.19,1.19,0,0,0-.8.22,1.35,1.35,0,0,0-.38.77l-.75-.12a2.21,2.21,0,0,1,.34-.89,1.42,1.42,0,0,1,.67-.52,2.56,2.56,0,0,1,1-.19,2.48,2.48,0,0,1,.94.16,1.23,1.23,0,0,1,.53.39,1.64,1.64,0,0,1,.24.6,7.22,7.22,0,0,1,0,.81v1.17a14.76,14.76,0,0,0,.05,1.55,2,2,0,0,0,.2.63h-.8A2.4,2.4,0,0,1,191.77,122Zm-.06-2a5,5,0,0,1-1.25.33,3.32,3.32,0,0,0-.67.18.7.7,0,0,0-.3.29.8.8,0,0,0-.1.41.78.78,0,0,0,.23.59.88.88,0,0,0,.67.23,1.4,1.4,0,0,0,.79-.22,1.33,1.33,0,0,0,.51-.61,2.43,2.43,0,0,0,.12-.88Z" transform="translate(2.01 0.26)"/><path class="cls-11" d="M193.53,123.1l.74.13a.85.85,0,0,0,.26.58,1.17,1.17,0,0,0,.78.24,1.25,1.25,0,0,0,.82-.24,1.24,1.24,0,0,0,.39-.69,6.37,6.37,0,0,0,.06-1.12,1.52,1.52,0,0,1-1.25.68,1.62,1.62,0,0,1-1.44-.78,3.27,3.27,0,0,1-.51-1.85,3.83,3.83,0,0,1,.23-1.37,2.18,2.18,0,0,1,.68-1,1.68,1.68,0,0,1,1-.34,1.56,1.56,0,0,1,1.32.75v-.63h.7V122a5,5,0,0,1-.21,1.72,1.71,1.71,0,0,1-.68.8,2.16,2.16,0,0,1-1.15.29,2,2,0,0,1-1.3-.42A1.51,1.51,0,0,1,193.53,123.1Zm.63-3.11a2.46,2.46,0,0,0,.36,1.49,1.05,1.05,0,0,0,.88.47,1.08,1.08,0,0,0,.88-.47,2.39,2.39,0,0,0,.36-1.46,2.34,2.34,0,0,0-.37-1.44,1.08,1.08,0,0,0-.88-.48,1.06,1.06,0,0,0-.87.48A2.31,2.31,0,0,0,194.16,120Z" transform="translate(2.01 0.26)"/><path class="cls-11" d="M198.51,122.68v-5.19h.69v.74a1.57,1.57,0,0,1,1.43-.86,1.73,1.73,0,0,1,.76.17,1.3,1.3,0,0,1,.51.44,2.09,2.09,0,0,1,.24.65,7.6,7.6,0,0,1,0,.86v3.19h-.77v-3.16a2.66,2.66,0,0,0-.09-.8.84.84,0,0,0-.31-.43,1,1,0,0,0-.54-.16,1.15,1.15,0,0,0-.84.36,1.92,1.92,0,0,0-.35,1.35v2.84Z" transform="translate(2.01 0.26)"/><path class="cls-11" d="M206.44,121l.79.11a2.2,2.2,0,0,1-.69,1.23,1.87,1.87,0,0,1-1.29.44,1.93,1.93,0,0,1-1.58-.7,3,3,0,0,1-.58-2,3.13,3.13,0,0,1,.59-2,1.85,1.85,0,0,1,1.52-.73,1.81,1.81,0,0,1,1.48.71,3.1,3.1,0,0,1,.58,2c0,.06,0,.13,0,.24h-3.36a2.09,2.09,0,0,0,.42,1.31,1.17,1.17,0,0,0,.94.45,1.07,1.07,0,0,0,.72-.25A1.74,1.74,0,0,0,206.44,121Zm-2.51-1.43h2.52a2,2,0,0,0-.29-1,1.16,1.16,0,0,0-1.83-.1A1.69,1.69,0,0,0,203.93,119.58Z" transform="translate(2.01 0.26)"/><path class="cls-11" d="M207.88,121.13l.76-.14a1.22,1.22,0,0,0,.36.8,1.09,1.09,0,0,0,.81.28,1.06,1.06,0,0,0,.78-.25.77.77,0,0,0,.26-.58.55.55,0,0,0-.23-.46,2.78,2.78,0,0,0-.78-.3,7.3,7.3,0,0,1-1.17-.42,1.24,1.24,0,0,1-.49-.5,1.47,1.47,0,0,1-.17-.69,1.58,1.58,0,0,1,.14-.65,1.41,1.41,0,0,1,.38-.49,1.54,1.54,0,0,1,.48-.25,2.08,2.08,0,0,1,.66-.11,2.28,2.28,0,0,1,.94.18,1.29,1.29,0,0,1,.59.47,1.89,1.89,0,0,1,.26.81l-.75.12a1,1,0,0,0-.29-.63,1,1,0,0,0-.69-.22,1.09,1.09,0,0,0-.75.2.61.61,0,0,0-.23.46.48.48,0,0,0,.1.31.71.71,0,0,0,.29.24l.67.22a8.5,8.5,0,0,1,1.14.41,1.17,1.17,0,0,1,.5.46,1.44,1.44,0,0,1,.18.75,1.64,1.64,0,0,1-.22.83,1.49,1.49,0,0,1-.64.6,2.12,2.12,0,0,1-1,.21,1.94,1.94,0,0,1-1.34-.42A2.1,2.1,0,0,1,207.88,121.13Z" transform="translate(2.01 0.26)"/><path class="cls-11" d="M212.55,116.53v-1h.76v1Zm0,6.15v-5.19h.76v5.19Z" transform="translate(2.01 0.26)"/><path class="cls-11" d="M217.43,122.68v-.77a1.59,1.59,0,0,1-1.43.88,1.71,1.71,0,0,1-.74-.17,1.35,1.35,0,0,1-.52-.44,1.77,1.77,0,0,1-.23-.66,5.08,5.08,0,0,1,0-.82v-3.21h.76v2.88a5.86,5.86,0,0,0,.05.92.94.94,0,0,0,.31.55.87.87,0,0,0,.58.2,1.11,1.11,0,0,0,.64-.21,1.07,1.07,0,0,0,.43-.55,3.26,3.26,0,0,0,.12-1v-2.78h.77v5.19Z" transform="translate(2.01 0.26)"/><path class="cls-11" d="M219.32,122.68v-5.19H220v.73a1.7,1.7,0,0,1,.57-.62,1.44,1.44,0,0,1,.8-.23,1.33,1.33,0,0,1,.82.24,1.19,1.19,0,0,1,.45.67,1.61,1.61,0,0,1,1.4-.91,1.28,1.28,0,0,1,1,.43,2,2,0,0,1,.36,1.32v3.56h-.76v-3.27a2.76,2.76,0,0,0-.07-.76.68.68,0,0,0-.27-.37.75.75,0,0,0-.46-.15,1,1,0,0,0-.79.37,1.75,1.75,0,0,0-.32,1.16v3H222v-3.37a1.6,1.6,0,0,0-.19-.88.66.66,0,0,0-.61-.3,1,1,0,0,0-.6.2,1.08,1.08,0,0,0-.39.57,3.36,3.36,0,0,0-.13,1.08v2.7Z" transform="translate(2.01 0.26)"/><path class="cls-12" d="M164,183v-7.16h.82v6.31h3.07V183Z" transform="translate(2.01 0.26)"/><path class="cls-12" d="M168.47,180.38a2.86,2.86,0,0,1,.7-2.13,2,2,0,0,1,1.42-.58,1.93,1.93,0,0,1,1.52.7,3,3,0,0,1,.59,1.94,3.91,3.91,0,0,1-.26,1.57,2.1,2.1,0,0,1-.76.9,2,2,0,0,1-1.09.31,1.89,1.89,0,0,1-1.54-.7A3,3,0,0,1,168.47,180.38Zm.79,0a2.44,2.44,0,0,0,.37,1.49,1.15,1.15,0,0,0,1.9,0,2.45,2.45,0,0,0,.38-1.52,2.3,2.3,0,0,0-.38-1.45,1.15,1.15,0,0,0-.94-.5,1.16,1.16,0,0,0-1,.49A2.46,2.46,0,0,0,169.26,180.38Z" transform="translate(2.01 0.26)"/><path class="cls-12" d="M174.43,183l-1.38-5.19h.79l.71,3,.27,1.12c0-.06.09-.42.24-1.07l.71-3h.79l.68,3,.22,1,.26-1,.77-3h.75L177.83,183H177l-.72-3.11-.17-.88-.91,4Z" transform="translate(2.01 0.26)"/><path class="cls-12" d="M179.58,180.83v-.89h2.35v.89Z" transform="translate(2.01 0.26)"/><path class="cls-12" d="M182.78,185v-7.17h.7v.67a1.85,1.85,0,0,1,.55-.59,1.41,1.41,0,0,1,.76-.2,1.64,1.64,0,0,1,1,.34,2,2,0,0,1,.67,1,4,4,0,0,1,.23,1.36,4.1,4.1,0,0,1-.25,1.44,2.14,2.14,0,0,1-.72,1,1.68,1.68,0,0,1-1,.34,1.34,1.34,0,0,1-.69-.18,1.73,1.73,0,0,1-.5-.47V185Zm.69-4.55a2.54,2.54,0,0,0,.35,1.48,1,1,0,0,0,1.73,0,2.61,2.61,0,0,0,.37-1.53,2.54,2.54,0,0,0-.36-1.49,1.05,1.05,0,0,0-.85-.49,1.07,1.07,0,0,0-.86.53A2.6,2.6,0,0,0,183.47,180.41Z" transform="translate(2.01 0.26)"/><path class="cls-12" d="M187.62,183v-7.16h.76v2.57a1.63,1.63,0,0,1,1.36-.72,1.66,1.66,0,0,1,.87.23,1.31,1.31,0,0,1,.53.63,3.38,3.38,0,0,1,.16,1.16V183h-.77v-3.29a1.47,1.47,0,0,0-.25-1,.85.85,0,0,0-.7-.3,1.15,1.15,0,0,0-.64.2,1.17,1.17,0,0,0-.43.55,3,3,0,0,0-.13,1V183Z" transform="translate(2.01 0.26)"/><path class="cls-12" d="M192.17,180.38a2.9,2.9,0,0,1,.7-2.13,2,2,0,0,1,1.42-.58,1.91,1.91,0,0,1,1.52.7,2.9,2.9,0,0,1,.59,1.94,3.74,3.74,0,0,1-.26,1.57,2,2,0,0,1-.76.9,2,2,0,0,1-1.09.31,1.89,1.89,0,0,1-1.53-.7A3,3,0,0,1,192.17,180.38Zm.79,0a2.44,2.44,0,0,0,.38,1.49,1.13,1.13,0,0,0,.95.5,1.16,1.16,0,0,0,1-.5,2.52,2.52,0,0,0,.38-1.52,2.37,2.37,0,0,0-.38-1.45,1.17,1.17,0,0,0-1-.5,1.14,1.14,0,0,0-.95.49A2.46,2.46,0,0,0,193,180.38Z" transform="translate(2.01 0.26)"/><path class="cls-12" d="M197,181.43l.76-.14a1.22,1.22,0,0,0,.36.8,1.09,1.09,0,0,0,.81.28,1.06,1.06,0,0,0,.78-.25.76.76,0,0,0,.26-.57.56.56,0,0,0-.23-.47,2.78,2.78,0,0,0-.78-.3,7.3,7.3,0,0,1-1.17-.42,1.24,1.24,0,0,1-.49-.5,1.47,1.47,0,0,1-.17-.69,1.58,1.58,0,0,1,.14-.65,1.41,1.41,0,0,1,.38-.49,1.43,1.43,0,0,1,.48-.25,2.08,2.08,0,0,1,.66-.11,2.28,2.28,0,0,1,.94.18,1.3,1.3,0,0,1,.59.48,1.93,1.93,0,0,1,.26.8l-.75.12a1,1,0,0,0-.29-.63,1,1,0,0,0-.69-.22,1.09,1.09,0,0,0-.75.2.61.61,0,0,0-.23.46.48.48,0,0,0,.1.31.64.64,0,0,0,.29.24l.67.22a9.07,9.07,0,0,1,1.14.41,1.23,1.23,0,0,1,.5.46,1.44,1.44,0,0,1,.18.75,1.61,1.61,0,0,1-.22.83,1.49,1.49,0,0,1-.64.6,2.15,2.15,0,0,1-1,.21,1.94,1.94,0,0,1-1.34-.42A2.1,2.1,0,0,1,197,181.43Z" transform="translate(2.01 0.26)"/><path class="cls-12" d="M201.65,185v-7.17h.7v.67a1.77,1.77,0,0,1,.56-.59,1.35,1.35,0,0,1,.75-.2,1.69,1.69,0,0,1,1,.34,2.1,2.1,0,0,1,.66,1,3.74,3.74,0,0,1,.23,1.36,3.89,3.89,0,0,1-.25,1.44,2,2,0,0,1-.72,1,1.68,1.68,0,0,1-1,.34,1.3,1.3,0,0,1-.68-.18,1.61,1.61,0,0,1-.5-.47V185Zm.69-4.55a2.46,2.46,0,0,0,.36,1.48,1,1,0,0,0,1.72,0,3.31,3.31,0,0,0,0-3,1,1,0,0,0-.84-.49,1.07,1.07,0,0,0-.87.53A2.6,2.6,0,0,0,202.34,180.41Z" transform="translate(2.01 0.26)"/><path class="cls-12" d="M206.49,183v-7.16h.77v2.57a1.62,1.62,0,0,1,1.35-.72,1.66,1.66,0,0,1,.87.23,1.26,1.26,0,0,1,.53.63,3.15,3.15,0,0,1,.16,1.16V183h-.77v-3.29a1.54,1.54,0,0,0-.24-1,.89.89,0,0,0-.71-.3,1.15,1.15,0,0,0-1.07.75,3,3,0,0,0-.12,1V183Z" transform="translate(2.01 0.26)"/><path class="cls-12" d="M214.28,182.34a2.83,2.83,0,0,1-.82.58,2,2,0,0,1-.84.17,1.55,1.55,0,0,1-1.15-.41,1.52,1.52,0,0,1-.4-1.07,1.47,1.47,0,0,1,.16-.7,1.32,1.32,0,0,1,.39-.5,1.61,1.61,0,0,1,.55-.29,4.11,4.11,0,0,1,.68-.13,6.16,6.16,0,0,0,1.36-.31c0-.12,0-.19,0-.22a1,1,0,0,0-.22-.76,1.15,1.15,0,0,0-.87-.3,1.21,1.21,0,0,0-.8.22,1.42,1.42,0,0,0-.38.77l-.74-.12a2.21,2.21,0,0,1,.33-.89,1.45,1.45,0,0,1,.68-.52,2.48,2.48,0,0,1,1-.19,2.27,2.27,0,0,1,.94.16,1.17,1.17,0,0,1,.53.39,1.48,1.48,0,0,1,.24.6,5,5,0,0,1,0,.81v1.17a12.29,12.29,0,0,0,0,1.55,2,2,0,0,0,.19.63h-.8A2.07,2.07,0,0,1,214.28,182.34Zm-.07-2a5.25,5.25,0,0,1-1.24.34,2.72,2.72,0,0,0-.67.17.7.7,0,0,0-.3.29.81.81,0,0,0-.11.41.82.82,0,0,0,.23.59.91.91,0,0,0,.68.23,1.43,1.43,0,0,0,.79-.22,1.31,1.31,0,0,0,.5-.61,2.41,2.41,0,0,0,.12-.87Z" transform="translate(2.01 0.26)"/><path class="cls-12" d="M217.84,182.19l.12.78a2.6,2.6,0,0,1-.58.07,1.18,1.18,0,0,1-.65-.15.81.81,0,0,1-.32-.39,3.69,3.69,0,0,1-.1-1v-3h-.56v-.68h.56v-1.28l.77-.53v1.81h.76v.68h-.76v3a1.6,1.6,0,0,0,0,.48.31.31,0,0,0,.13.17.48.48,0,0,0,.26.06Z" transform="translate(2.01 0.26)"/><path class="cls-12" d="M221.68,181.31l.79.11a2.2,2.2,0,0,1-.69,1.23,1.87,1.87,0,0,1-1.29.44,1.91,1.91,0,0,1-1.57-.7,3,3,0,0,1-.58-2,3.15,3.15,0,0,1,.58-2,1.86,1.86,0,0,1,1.53-.73,1.81,1.81,0,0,1,1.47.71,3,3,0,0,1,.58,2,2.37,2.37,0,0,1,0,.24h-3.36a2.22,2.22,0,0,0,.42,1.31,1.18,1.18,0,0,0,.94.45,1.07,1.07,0,0,0,.72-.25A1.66,1.66,0,0,0,221.68,181.31Zm-2.51-1.42h2.52a1.91,1.91,0,0,0-.29-1,1.11,1.11,0,0,0-1-.5,1.12,1.12,0,0,0-.88.4A1.75,1.75,0,0,0,219.17,179.89Z" transform="translate(2.01 0.26)"/><path class="cls-13" d="M164.05,152.06V144.9h.83v2.94h3.23V144.9h.83v7.16h-.83v-3.37h-3.23v3.37Z" transform="translate(2.01 0.26)"/><path class="cls-13" d="M170.22,145.91v-1H171v1Zm0,6.15v-5.18H171v5.18Z" transform="translate(2.01 0.26)"/><path class="cls-13" d="M172,152.49l.74.13a.85.85,0,0,0,.26.57,1.13,1.13,0,0,0,.78.25,1.22,1.22,0,0,0,.82-.25,1.24,1.24,0,0,0,.39-.68,5.88,5.88,0,0,0,.05-1.13,1.48,1.48,0,0,1-1.25.68,1.64,1.64,0,0,1-1.44-.77,3.27,3.27,0,0,1-.51-1.85,3.79,3.79,0,0,1,.24-1.37,2.11,2.11,0,0,1,.67-1,1.67,1.67,0,0,1,1.05-.34,1.55,1.55,0,0,1,1.31.74v-.62h.71v4.48a4.85,4.85,0,0,1-.21,1.71,1.72,1.72,0,0,1-.68.8,2.09,2.09,0,0,1-1.15.3,1.93,1.93,0,0,1-1.3-.42A1.46,1.46,0,0,1,172,152.49Zm.63-3.11a2.5,2.5,0,0,0,.35,1.48,1.07,1.07,0,0,0,1.77,0,2.41,2.41,0,0,0,.36-1.47,2.37,2.37,0,0,0-.37-1.43,1.1,1.1,0,0,0-.89-.48,1,1,0,0,0-.86.47A2.34,2.34,0,0,0,172.64,149.38Z" transform="translate(2.01 0.26)"/><path class="cls-13" d="M177,152.06V144.9h.76v2.57a1.64,1.64,0,0,1,1.35-.71,1.53,1.53,0,0,1,.87.23,1.23,1.23,0,0,1,.53.62,3.22,3.22,0,0,1,.16,1.16v3.29h-.76v-3.29a1.46,1.46,0,0,0-.25-1,.87.87,0,0,0-.7-.31,1.09,1.09,0,0,0-.64.21,1.07,1.07,0,0,0-.43.55,2.71,2.71,0,0,0-.13.95v2.84Z" transform="translate(2.01 0.26)"/><path class="cls-13" d="M181.53,149.91V149h2.35v.88Z" transform="translate(2.01 0.26)"/><path class="cls-13" d="M184.14,152.06l2.39-7.16h.89l2.55,7.16H189l-.73-2.17h-2.6l-.69,2.17Zm1.8-2.94h2.11l-.65-2c-.2-.6-.35-1.1-.44-1.49a9.45,9.45,0,0,1-.34,1.37Z" transform="translate(2.01 0.26)"/><path class="cls-13" d="M190.51,152.06V144.9h.77v7.16Z" transform="translate(2.01 0.26)"/><path class="cls-13" d="M195.42,152.06v-.76a1.6,1.6,0,0,1-1.43.88,1.56,1.56,0,0,1-.74-.18,1.15,1.15,0,0,1-.52-.44,1.72,1.72,0,0,1-.23-.65,4.19,4.19,0,0,1-.05-.82v-3.21h.76v2.87a5.93,5.93,0,0,0,0,.93.92.92,0,0,0,.31.54.8.8,0,0,0,.57.2,1.18,1.18,0,0,0,.65-.2,1.17,1.17,0,0,0,.43-.55,3.33,3.33,0,0,0,.12-1v-2.77h.77v5.18Z" transform="translate(2.01 0.26)"/><path class="cls-13" d="M197.3,152.06v-5.18H198v.72a1.73,1.73,0,0,1,.56-.61,1.5,1.5,0,0,1,.81-.23,1.33,1.33,0,0,1,.82.24,1.29,1.29,0,0,1,.45.67,1.58,1.58,0,0,1,1.4-.91,1.27,1.27,0,0,1,1,.43,2,2,0,0,1,.36,1.31v3.56h-.76v-3.27a3.13,3.13,0,0,0-.07-.75.74.74,0,0,0-.27-.38.81.81,0,0,0-.46-.14,1,1,0,0,0-.79.36,1.78,1.78,0,0,0-.32,1.17v3H200v-3.37a1.72,1.72,0,0,0-.19-.88.69.69,0,0,0-.61-.29,1,1,0,0,0-.6.2,1.16,1.16,0,0,0-.4.57,3.73,3.73,0,0,0-.12,1.08v2.69Z" transform="translate(2.01 0.26)"/><path class="cls-13" d="M204.56,145.91v-1h.77v1Zm0,6.15v-5.18h.77v5.18Z" transform="translate(2.01 0.26)"/><path class="cls-13" d="M206.49,152.06v-5.18h.69v.73a1.56,1.56,0,0,1,1.43-.85,1.6,1.6,0,0,1,.76.17,1.3,1.3,0,0,1,.51.44,2,2,0,0,1,.24.65,7.39,7.39,0,0,1,0,.85v3.19h-.77v-3.15a2.73,2.73,0,0,0-.09-.81.82.82,0,0,0-.31-.42.91.91,0,0,0-.54-.16,1.15,1.15,0,0,0-.84.36,1.88,1.88,0,0,0-.36,1.35v2.83Z" transform="translate(2.01 0.26)"/><path class="cls-13" d="M214.29,152.06v-.76a1.62,1.62,0,0,1-2.18.7,1.26,1.26,0,0,1-.52-.44,1.72,1.72,0,0,1-.23-.65,5.18,5.18,0,0,1-.05-.82v-3.21h.77v2.87a6.36,6.36,0,0,0,0,.93.92.92,0,0,0,.31.54.84.84,0,0,0,.58.2,1.15,1.15,0,0,0,.64-.2,1.06,1.06,0,0,0,.43-.55,3,3,0,0,0,.13-1v-2.77H215v5.18Z" transform="translate(2.01 0.26)"/><path class="cls-13" d="M216.17,152.06v-5.18h.68v.72a1.76,1.76,0,0,1,.57-.61,1.47,1.47,0,0,1,.8-.23,1.36,1.36,0,0,1,.83.24,1.29,1.29,0,0,1,.45.67,1.58,1.58,0,0,1,1.39-.91,1.25,1.25,0,0,1,1,.43,1.93,1.93,0,0,1,.37,1.31v3.56h-.76v-3.27a2.59,2.59,0,0,0-.08-.75.74.74,0,0,0-.27-.38.78.78,0,0,0-.46-.14,1,1,0,0,0-.79.36,1.78,1.78,0,0,0-.31,1.17v3h-.77v-3.37a1.73,1.73,0,0,0-.18-.88.69.69,0,0,0-.62-.29,1,1,0,0,0-.59.2,1,1,0,0,0-.4.57,3.73,3.73,0,0,0-.12,1.08v2.69Z" transform="translate(2.01 0.26)"/></g><g id="Call_out" data-name="Call out"><rect class="cls-14" x="54.21" y="141.39" width="97.87" height="21.28"/></g><g id="Other_Lable" data-name="Other Lable"><path d="M33.57,12.43l.72-.1a1.55,1.55,0,0,0,.42.88,1,1,0,0,0,.72.27,1.2,1.2,0,0,0,1.21-1.22,1.13,1.13,0,0,0-1.15-1.14,2.21,2.21,0,0,0-.5.08l.08-.63h.11a1.49,1.49,0,0,0,.83-.24.81.81,0,0,0,.36-.73A.91.91,0,0,0,36.11,9a1,1,0,0,0-1.39,0,1.25,1.25,0,0,0-.36.79l-.72-.13a1.86,1.86,0,0,1,.6-1.12,1.76,1.76,0,0,1,1.16-.4,1.87,1.87,0,0,1,.88.21,1.45,1.45,0,0,1,.83,1.31,1.29,1.29,0,0,1-.2.69,1.49,1.49,0,0,1-.6.5,1.35,1.35,0,0,1,.8.49,1.52,1.52,0,0,1,.29.94,1.73,1.73,0,0,1-.56,1.3,1.93,1.93,0,0,1-1.41.53,1.87,1.87,0,0,1-1.28-.45A1.81,1.81,0,0,1,33.57,12.43Z" transform="translate(2.01 0.26)"/><path d="M40.81,14h-.72V9.4a3.63,3.63,0,0,1-.68.49,4.28,4.28,0,0,1-.75.37V9.57a4.34,4.34,0,0,0,1.05-.69,2.59,2.59,0,0,0,.64-.78h.46Z" transform="translate(2.01 0.26)"/><path d="M43.39,18.63v-10h3.78a8.4,8.4,0,0,1,1.52.1,3,3,0,0,1,1.24.46,2.49,2.49,0,0,1,.8,1A3,3,0,0,1,51,11.51a3,3,0,0,1-.82,2.16,3.9,3.9,0,0,1-2.94.89H44.71v4.07Zm1.32-5.25H47.3a2.75,2.75,0,0,0,1.83-.48,1.71,1.71,0,0,0,.54-1.35,1.84,1.84,0,0,0-.32-1.08,1.53,1.53,0,0,0-.84-.59,5.51,5.51,0,0,0-1.23-.09H44.71Z" transform="translate(2.01 0.26)"/></g></svg>